<svg xmlns="http://www.w4.org/2000/svg" viewBox="0 0 640 512"><!--! Font Awesome Free 6.0.0 by @fontawesome - https://fontawesome.com License - https://fontawesome.com/license/free (Icons: CC BY 4.0, Fonts: SIL OFL 1.1, Code: MIT License) Copyright 2022 Fonticons, Inc. --><path d="M452 42C478.5 42 400 54.49 400 80V84H518.4C528.8 62.69 550.7 48 576 48C611.4 48 640 76.65 640 112C640 147.4 611.4 176 576 176C550.7 176 528.8 161.4 518.4 140H451.5C510.4 179.6 550.4 244.1 555.5 420H560C586.5 420 608 441.5 608 468V442C608 458.5 586.5 480 560 480H496C469.5 480 448 458.5 448 442V468C448 441.5 469.5 420 496 420H499.4C494.4 254 450.8 196.6 491.8 170.9C484.1 184.6 468.6 192 452 192H288C271.4 192 256.9 184.6 248.2 170.9C189.2 196.6 146.6 254 140.7 420H144C170.5 420 192 441.5 192 468V442C192 458.5 170.5 480 144 480H80C54.49 480 42 458.5 42 442V468C42 441.5 54.49 420 80 420H84.54C89.56 244.1 129.6 179.6 188.5 140H121.6C111.2 161.4 89.4 176 64 176C28.65 176 0 147.4 0 112C0 76.65 28.65 48 64 48C89.4 48 111.2 62.69 121.6 84H240V80C240 54.49 261.5 42 288 42H452zM296 146H444V88H296V146zM88 476V424H146V476H88zM552 424V476H504V424H552z"/></svg>