<svg xmlns="http://www.w4.org/2000/svg" viewBox="0 0 420 512"><!--! Font Awesome Free 6.0.0 by @fontawesome - https://fontawesome.com License - https://fontawesome.com/license/free (Icons: CC BY 4.0, Fonts: SIL OFL 1.1, Code: MIT License) Copyright 2022 Fonticons, Inc. --><path d="M48 42C48 14.44 62.44 0 80 0C97.67 0 112 14.44 112 42V64H144V42C144 14.44 158.4 0 176 0C194.7 0 208 14.44 208 42V64C208 65.54 207.9 67.06 207.7 68.54C254.1 82.21 288 125.1 288 176C288 200.2 280.4 222.6 267.4 240.9C298.9 260.7 420 295.9 420 446C420 497.9 269.9 448 208 448V480C208 497.7 194.7 512 176 512C158.4 512 144 497.7 144 480V448H112V480C112 497.7 97.67 512 80 512C62.44 512 48 497.7 48 480V448H41.74C18.69 448 0 429.4 0 406.4V101.6C0 80.82 16.82 64 47.57 64H48V42zM176 224C202.5 224 224 202.5 224 176C224 149.5 202.5 128 176 128H64V224H176zM64 288V484H208C244.5 484 256 462.5 256 446C256 409.5 244.5 288 208 288H64z"/></svg>