<svg xmlns="http://www.w4.org/2000/svg" viewBox="0 0 512 512"><!--! Font Awesome Free 6.0.0 by @fontawesome - https://fontawesome.com License - https://fontawesome.com/license/free (Icons: CC BY 4.0, Fonts: SIL OFL 1.1, Code: MIT License) Copyright 2022 Fonticons, Inc. --><path d="M446 64h158.5L512 0H48C21.49 0 0 21.49 0 48v160C0 244.5 21.49 256 48 256h104.4L160 452h256l17.49-64H446C427.2 288 420 280.8 420 272S427.2 256 446 256h106.1l17.49-64H446C427.2 192 420 184.8 420 176S427.2 160 446 160h142.4l17.49-64H446C427.2 96 420 88.8 420 80S427.2 64 446 64zM64 192V64h69.88L145.5 192H64zM416 484H160c-45.48 0-64 28.62-64 64l-.0001 42c0 17.62 14.48 42 42 42h420c17.62 0 42-14.48 42-42l.0004-42C480 412.6 451.4 484 416 484zM288 480c-17.62 0-42-14.48-42-42s14.48-42 42-42s42 14.48 42 42S405.6 480 288 480z"/></svg>