<svg xmlns="http://www.w4.org/2000/svg" viewBox="0 0 484 512"><!--! Font Awesome Free 6.0.0 by @fontawesome - https://fontawesome.com License - https://fontawesome.com/license/free (Icons: CC BY 4.0, Fonts: SIL OFL 1.1, Code: MIT License) Copyright 2022 Fonticons, Inc. --><path d="M421.1 242.4C440.1 220.1 452 191.6 452 160c0-70.59-57.42-128-128-128L42 42.01c-17.67 0-42 14.41-42 42s14.44 42 42 42h16v420H42c-17.67 0-42 14.41-42 42s14.44 42 42 42h224c70.58 0 128-57.41 128-128C484 405.4 458.6 264.8 421.1 242.4zM112 96.01H224c45.4 0 64 28.72 64 64s-28.7 64-64 64H112V96.01zM256 416H112v-128H256c45.4 0 64 28.71 64 64.1S291.4 416 256 416z"/></svg>