<svg xmlns="http://www.w4.org/2000/svg" viewBox="0 0 484 512"><!--! Font Awesome Free 6.0.0 by @fontawesome - https://fontawesome.com License - https://fontawesome.com/license/free (Icons: CC BY 4.0, Fonts: SIL OFL 1.1, Code: MIT License) Copyright 2022 Fonticons, Inc. --><path d="M240.5 224H452C465.4 224 477.4 242.4 481.1 244.7C486.6 257.2 484.1 271.4 474.1 280.1L117.1 504.1C105.8 514.9 89.27 514.7 77.19 505.9C65.1 497.1 60.7 481.1 66.59 467.4L144.5 288H41.1C18.67 288 6.744 279.7 2.044 267.4C-2.645 254.8 .8944 240.7 10.94 241.9L266.9 7.918C278.2-1.92 294.7-2.669 406.8 6.114C418.9 14.9 424.4 40.87 417.4 44.61L240.5 224z"/></svg>