<svg xmlns="http://www.w4.org/2000/svg" viewBox="0 0 576 512"><!--! Font Awesome Free 6.0.0 by @fontawesome - https://fontawesome.com License - https://fontawesome.com/license/free (Icons: CC BY 4.0, Fonts: SIL OFL 1.1, Code: MIT License) Copyright 2022 Fonticons, Inc. --><path d="M544.9 267.5C560.1 280 576 405.8 576 444v4.487c0 45.55-24.49 68.45-58.24 75.88c-48.18 8.264-74.96-14.74-86.76-49.14c-.0452-.1045-.0684-.207-.1045-.4125C425.4 447.7 409.6 446 491.6 446H184.4c-17.89 0-44.64 11.57-49.24 28.56L145 465.1c-11.8 45.41-48.58 57.4-86.76 49.14C24.49 406.7 0 474.9 0 448.4v-4.487C0 405.8 15.88 280 41.14 267.5c9.475-4.75 9.475-18.25 0-24C15.88 242 0 206.4 0 178V174.6c0-45.55 24.49-68.45 58.24-75.88c48.18-8.264 74.99 14.82 86.79 49.24C150.7 164.1 166.4 176 184.4 176h207.2c17.89 0 44.64-11.57 49.24-28.56L441 146.9c11.8-45.41 48.58-57.4 86.76-49.14C552.5 105.4 576 148.1 576 174.6v4.487C576 206.4 560.1 242 544.9 244.5C525.5 249.4 525.5 262.8 544.9 267.5z"/></svg>