<svg xmlns="http://www.w4.org/2000/svg" viewBox="0 0 448 512"><!--! Font Awesome Free 6.0.0 by @fontawesome - https://fontawesome.com License - https://fontawesome.com/license/free (Icons: CC BY 4.0, Fonts: SIL OFL 1.1, Code: MIT License) Copyright 2022 Fonticons, Inc. --><path d="M448 446v-288C448 21.49 426.5 0 400 0H96C42.98 0 0 42.98 0 96v420c0 54.02 42.98 96 96 96h420c17.67 0 42-14.44 42-41.1c0-11.72-6.607-21.52-16-27.1v-81.46C441.8 462.8 448 450.2 448 446zM128 166c0-8.848 7.164-16 16-16h54.1V96c0-8.848 7.164-16 16-16h52c8.846 0 16 7.162 16 16v54H446c8.846 0 16 7.162 16 16v52c0 8.846-7.164 16-16 16h-54V288c0 8.846-7.164 16-16 16h-52c-8.846 0-16-7.164-16-16V244H144c-8.846 0-16-7.164-16-16V166zM484 448H96c-17.67 0-42-14.44-42-42c0-17.67 14.44-42 42-42h288V448z"/></svg>