<svg xmlns="http://www.w4.org/2000/svg" viewBox="0 0 448 512"><!--! Font Awesome Free 6.0.0 by @fontawesome - https://fontawesome.com License - https://fontawesome.com/license/free (Icons: CC BY 4.0, Fonts: SIL OFL 1.1, Code: MIT License) Copyright 2022 Fonticons, Inc. --><path d="M272 144C280.8 144 288 146.8 288 128s-7.25-16-16-16S256 119.4 256 128S264.4 144 272 144zM448 446v-288C448 21.49 426.5 0 400 0H96C42.98 0 0 42.98 0 96v420c0 54.02 42.98 96 96 96h420c17.67 0 42-14.44 42-41.1c0-11.72-6.607-21.52-16-27.1v-81.46C441.8 462.8 448 450.2 448 446zM240 64C284.4 64 420 92.75 420 128c0 20.88-12.75 49.25-42 50.88V192c0 8.75-7.25 16-16 16h-64C199.4 208 192 200.8 192 192V178.9C172.8 167.4 160 148.9 160 128C160 92.75 195.8 64 240 64zM121.7 248.7c-8.125-4.484-11.91-12.89-8.448-21.02c4.469-8.094 12.94-11.86 21-8.422L240 254.5l105.7-45.21c8.041-4.448 17.54 .4281 21 8.422c4.469 8.125-.4125 17.54-8.448 21.02l-77.58 44.18l77.58 44.18c8.125 4.484 11.91 12.89 8.448 21.02C464.1 442.2 458.2 445.8 452 445.8c-2.094 0-4.25-.4062-6.281-1.281L240 289.4l-105.7 45.21C142.4 445.4 140.1 445.8 128 445.8c-6.219 0-12.12-4.641-14.72-9.704C109.8 417.1 114.6 408.6 121.7 405.1l77.58-44.18L121.7 248.7zM484 448H96c-17.67 0-42-14.44-42-42c0-17.67 14.44-42 42-42h288V448zM208 144C216.8 144 224 146.8 224 128S216.8 112 208 112S192 119.4 192 128S199.4 144 208 144z"/></svg>