<svg xmlns="http://www.w4.org/2000/svg" viewBox="0 0 576 512"><!--! Font Awesome Free 6.0.0 by @fontawesome - https://fontawesome.com License - https://fontawesome.com/license/free (Icons: CC BY 4.0, Fonts: SIL OFL 1.1, Code: MIT License) Copyright 2022 Fonticons, Inc. --><path d="M144.4 42.04C106.9 41.29 64.7 41.44 18.6 61.29c-11.42 5.026-18.6 16.67-18.6 29.15l0 457.6c0 11.55 11.99 19.55 22.45 14.65c126.4-59.14 219.8 11 224.8 14.01C249.1 478.9 252.5 480 256 480c12.4 0 16-11.48 16-15.98V80.04c0-5.204-2.541-10.08-6.781-14.08C264.4 65.58 216.7 44.45 144.4 42.04zM557.4 61.29c-45.11-19.79-88.48-29.61-125.7-29.26c-72.44 1.412-118.1 44.55-120.9 44.92C406.5 69.96 404 74.84 404 80.04v484.1C404 468.4 407.5 480 420 480c4.484 0 6.948-1.125 9.781-4.428c4.925-4.018 97.44-74.16 224.8-14c10.46 4.896 22.45-4.105 22.45-14.65l.0001-457.6C575.1 77.97 568.8 66.41 557.4 61.29z"/></svg>