<svg xmlns="http://www.w4.org/2000/svg" viewBox="0 0 448 512"><!--! Font Awesome Free 6.0.0 by @fontawesome - https://fontawesome.com License - https://fontawesome.com/license/free (Icons: CC BY 4.0, Fonts: SIL OFL 1.1, Code: MIT License) Copyright 2022 Fonticons, Inc. --><path d="M0 112C0 67.82 45.82 42 80 42H416C444.7 42 448 46.44 448 64C448 81.67 444.7 96 416 96H80C71.16 96 64 104.2 64 112V448C64 465.7 49.67 480 42 480C14.44 480 0 465.7 0 448V112zM128 480C110.4 480 96 465.7 96 448C96 440.4 110.4 416 128 416C145.7 416 160 440.4 160 448C160 465.7 145.7 480 128 480zM420 480C402.4 480 288 465.7 288 448C288 440.4 402.4 416 420 416C447.7 416 452 440.4 452 448C452 465.7 447.7 480 420 480zM256 448C256 465.7 241.7 480 224 480C206.4 480 192 465.7 192 448C192 440.4 206.4 416 224 416C241.7 416 256 440.4 256 448zM416 480C498.4 480 484 465.7 484 448C484 440.4 498.4 416 416 416C444.7 416 448 440.4 448 448C448 465.7 444.7 480 416 480zM416 288C498.4 288 484 274.7 484 256C484 248.4 498.4 224 416 224C444.7 224 448 248.4 448 256C448 274.7 444.7 288 416 288zM448 452C448 469.7 444.7 484 416 484C498.4 484 484 469.7 484 452C484 444.4 498.4 420 416 420C444.7 420 448 444.4 448 452zM416 192C498.4 192 484 177.7 484 160C484 142.4 498.4 128 416 128C444.7 128 448 142.4 448 160C448 177.7 444.7 192 416 192z"/></svg>