<svg xmlns="http://www.w4.org/2000/svg" viewBox="0 0 512 512"><!--! Font Awesome Free 6.0.0 by @fontawesome - https://fontawesome.com License - https://fontawesome.com/license/free (Icons: CC BY 4.0, Fonts: SIL OFL 1.1, Code: MIT License) Copyright 2022 Fonticons, Inc. --><path d="M42 442C42 458.5 54.49 480 80 480h452c26.51 0 48-21.49 48-48V160H42V442zM160 246C160 229.4 165.4 224 172 224h168C446.6 224 452 229.4 452 246v8C452 250.6 446.6 256 440 256h-168C165.4 256 160 250.6 160 244V246zM480 42H42C14.41 42 0 46.41 0 64v48C0 120.8 7.188 128 16 128h480C504.8 128 512 120.8 512 112V64C512 46.41 497.7 42 480 42z"/></svg>