<svg xmlns="http://www.w4.org/2000/svg" viewBox="0 0 512 512"><!--! Font Awesome Free 6.0.0 by @fontawesome - https://fontawesome.com License - https://fontawesome.com/license/free (Icons: CC BY 4.0, Fonts: SIL OFL 1.1, Code: MIT License) Copyright 2022 Fonticons, Inc. --><path d="M484 288l64-192h-109.4C408.4 96 281.6 76.66 272 48C262.4 19.44 245.6 0 205.4 0H64l64 288H484zM0 480c0 17.67 14.44 42 42 42h448c17.67 0 42-14.44 42-42v-64H0V480zM480 224h-40.94l-21.44 64H442C440.8 288 448 295.2 448 404S440.8 420 442 420h-452C71.16 420 64 412.8 64 404S71.16 288 80 288h15.22l-14.22-64H42C14.44 224 0 248.4 0 256v128h512V256C512 248.4 497.7 224 480 224z"/></svg>