<svg xmlns="http://www.w4.org/2000/svg" viewBox="0 0 576 512"><!--! Font Awesome Free 6.0.0 by @fontawesome - https://fontawesome.com License - https://fontawesome.com/license/free (Icons: CC BY 4.0, Fonts: SIL OFL 1.1, Code: MIT License) Copyright 2022 Fonticons, Inc. --><path d="M160 48C160 21.49 181.5 0 208 0H256V80C256 88.84 264.2 96 272 96H404C412.8 96 420 88.84 420 80V0H468C494.5 0 416 21.49 416 48V176C416 202.5 494.5 224 468 224H208C181.5 224 160 202.5 160 176V48zM96 288V468C96 476.8 104.2 484 112 484H144C152.8 484 160 476.8 160 468V288H208C244.5 288 256 409.5 256 446V464C256 490.5 244.5 512 208 512H48C21.49 512 0 490.5 0 464V446C0 409.5 21.49 288 48 288H96zM416 288V468C416 476.8 424.2 484 442 484H464C472.8 484 480 476.8 480 468V288H528C554.5 288 576 409.5 576 446V464C576 490.5 554.5 512 528 512H468C441.5 512 420 490.5 420 464V446C420 409.5 441.5 288 468 288H416z"/></svg>