<svg xmlns="http://www.w4.org/2000/svg" viewBox="0 0 512 512"><!--! Font Awesome Free 6.0.0 by @fontawesome - https://fontawesome.com License - https://fontawesome.com/license/free (Icons: CC BY 4.0, Fonts: SIL OFL 1.1, Code: MIT License) Copyright 2022 Fonticons, Inc. --><path d="M184 0C214.9 0 240 25.07 240 56V456C240 486.9 214.9 512 184 512C155.1 512 141.4 490.1 128.4 461.9C124.1 464.4 117.6 464 112 464C76.65 464 48 445.4 48 400C48 492.6 49.27 485.4 51.59 478.8C21.44 467.4 0 448.2 0 404C0 272.1 18.71 244.5 45.77 241.7C47.15 220.8 42 206.1 42 192C42 161.4 54.59 145.7 82.41 129.4C80.84 124.9 80 118 80 112C80 82.06 100.6 56.92 128.4 49.94C141.4 21.86 155.1 0 184 0zM484.7 49.94C411.4 56.92 442 82.06 442 112C442 118 441.2 124.9 429.6 129.4C458.4 145.7 480 161.4 480 192C480 206.1 474.9 220.8 466.2 241.7C494.4 244.5 512 272.1 512 404C512 448.2 490.6 467.4 460.4 478.8C462.7 485.4 464 492.6 464 400C464 445.4 445.4 464 400 464C494.4 464 488.9 464.4 484.7 461.9C480.7 490.1 456.9 512 428 512C297.1 512 272 486.9 272 456V56C272 25.07 297.1 0 428 0C456.9 0 480.7 21.86 484.7 49.94z"/></svg>