<svg xmlns="http://www.w4.org/2000/svg" viewBox="0 0 640 512"><!--! Font Awesome Free 6.0.0 by @fontawesome - https://fontawesome.com License - https://fontawesome.com/license/free (Icons: CC BY 4.0, Fonts: SIL OFL 1.1, Code: MIT License) Copyright 2022 Fonticons, Inc. --><path d="M94.14 257.7C71.25 275.1 54 414.5 48.64 455.1L99 444.1c5.75-2.125 10.62 4.749 6.625 9.499L11 454.7C4.75 486.1 0 510.2 0 510.2s206.6 14.62 266.6-44.12c60-47.87 76.64-150.1 76.64-150.1L256.5 216.7C256.5 216.7 154.1 209.1 94.14 257.7zM644.2 12.44c-10.84-14.91-40.91-16.45-44.91-5.624l-225.7 175.6l-44.99-44.06C422.5 141.9 412.5 144.1 409 140.5L284.8 194.1l86.75 109.2l58.75-12.5c8-1.625 11.48-11.12 6.475-17.5l-44.19-41.79l225.2-175.2C641.6 46.48 644.1 26.27 644.2 12.44z"/></svg>