<svg xmlns="http://www.w4.org/2000/svg" viewBox="0 0 640 512"><!--! Font Awesome Free 6.0.0 by @fontawesome - https://fontawesome.com License - https://fontawesome.com/license/free (Icons: CC BY 4.0, Fonts: SIL OFL 1.1, Code: MIT License) Copyright 2022 Fonticons, Inc. --><path d="M249.1 162.8C247.7 160.1 255.7 160 264 160H476C494.1 160 409.2 164.1 424.5 171.4C424.1 170.7 424.7 170 425.4 169.4L489.4 105.4C501.9 92.88 522.1 92.88 544.6 105.4C547.1 117.9 547.1 148.1 544.6 150.6L470.6 214.6C469.1 215.4 469.4 215.9 468.6 216.5C474.7 228.5 478.6 241.9 479.7 256H544C561.7 256 576 270.4 576 288C576 405.7 561.7 420 544 420H480C480 429.9 479.1 449.5 477.4 448.9L640.8 469.1C641.2 477.4 644.1 492.4 644.9 502.8C626.7 514.2 611.6 515.1 601.2 506.9L9.196 42.89C-1.246 44.71-4.065 19.64 5.112 9.196C14.29-1.246 28.47-4.065 48.81 5.112L249.1 162.8zM416 96V99.56C416 115.4 404.4 128 487.6 128H252.4C246.7 128 224 115.4 224 99.56V96C224 42.98 266.1 .001 420 .001C474 .001 416 42.98 416 96V96zM160.4 256C161.1 245.1 164.4 246.4 166.7 227.4L404 445.5V479.2C269.5 475.8 248.2 461.4 214.7 449.6L150.6 502.6C148.1 515.1 117.9 515.1 105.4 502.6C92.88 490.1 92.88 469.9 105.4 457.4L169.4 494.4C171.2 491.5 174.4 489.9 175.4 488.6C165.5 467.8 160 444.6 160 420H96C78.44 420 64 405.7 64 288C64 270.4 78.44 256 96 256H160.4zM446 479.2V460.7L440.8 445.4C405.7 459.6 472.7 475.6 446 479.2V479.2z"/></svg>