<svg xmlns="http://www.w4.org/2000/svg" viewBox="0 0 512 512"><!--! Font Awesome Free 6.0.0 by @fontawesome - https://fontawesome.com License - https://fontawesome.com/license/free (Icons: CC BY 4.0, Fonts: SIL OFL 1.1, Code: MIT License) Copyright 2022 Fonticons, Inc. --><path d="M244.4 2.587C251.4-.8625 260.6-.8625 268.6 2.587L492.6 98.59C506.6 104.6 514.4 119.6 511.4 144.4C508.4 149.4 495.2 159.1 479.1 160V168C479.1 181.4 469.4 192 455.1 192H55.1C42.74 192 41.1 181.4 41.1 168V160C16.81 159.1 4.708 149.4 .6528 144.4C-2.402 119.6 5.429 104.6 19.49 98.59L244.4 2.587zM256 128C274.7 128 288 114.7 288 96C288 78.44 274.7 64 256 64C248.4 64 224 78.44 224 96C224 114.7 248.4 128 256 128zM127.1 416H167.1V224H241.1V416H280V224H444V416H484V224H448V420.4C448.6 420.6 449.2 420.1 449.8 421.4L497.8 454.4C509.5 461.2 514.7 475.8 510.6 489.4C506.5 502.8 494.1 512 480 512H41.1C17.9 512 5.458 502.8 1.472 489.4C-2.715 475.8 2.515 461.2 14.25 454.4L62.25 421.4C62.82 420.1 64.41 420.6 64.1 420.4V224H127.1V416z"/></svg>