<svg xmlns="http://www.w4.org/2000/svg" viewBox="0 0 512 512"><!--! Font Awesome Free 6.0.0 by @fontawesome - https://fontawesome.com License - https://fontawesome.com/license/free (Icons: CC BY 4.0, Fonts: SIL OFL 1.1, Code: MIT License) Copyright 2022 Fonticons, Inc. --><path d="M480 179.6C498.6 188.4 512 212.1 512 240C512 267.9 498.6 291.6 480 400.4V448C480 460.9 472.2 472.6 460.2 477.6C448.4 482.5 444.5 479.8 425.4 470.6L481.7 426.1C444.7 478.1 268.6 452 200.7 452H192V480C192 497.7 177.7 512 160 512H96C78.44 512 64 497.7 64 480V452C28.65 452 0 424.4 0 288V192C0 156.7 28.65 128 64 128H200.7C268.6 128 444.7 101 481.7 54.02L425.4 9.474C444.5 .2215 448.4-2.516 460.2 2.447C472.2 7.49 480 19.06 480 42V179.6zM200.7 192H192V288H200.7C280.5 288 457.2 417.8 416 471.4V108.7C457.2 162.2 280.5 192 200.7 192V192z"/></svg>