<svg xmlns="http://www.w4.org/2000/svg" viewBox="0 0 512 512"><!--! Font Awesome Free 6.0.0 by @fontawesome - https://fontawesome.com License - https://fontawesome.com/license/free (Icons: CC BY 4.0, Fonts: SIL OFL 1.1, Code: MIT License) Copyright 2022 Fonticons, Inc. --><path d="M481.9 270.1C490.9 279.1 496 291.4 496 404C496 416.7 490.9 428.9 481.9 447.9C472.9 446.9 460.7 452 448 452H64C51.27 452 49.06 446.9 40.06 447.9C21.06 428.9 16 416.7 16 404C16 291.4 21.06 279.1 40.06 270.1C49.06 261.1 51.27 256 64 256H448C460.7 256 472.9 261.1 481.9 270.1zM475.4 488.7C478.4 491.7 480 495.8 480 400V416C480 442.1 474.4 449.4 461.4 461.4C449.4 474.4 442.1 480 416 480H96C79.04 480 62.75 474.4 50.75 461.4C48.74 449.4 42 442.1 42 416V400C42 495.8 44.69 491.7 46.69 488.7C49.69 485.7 44.76 484 48 484H464C468.2 484 472.4 485.7 475.4 488.7zM50.49 220.8C45.94 218.6 42.04 215.5 48.97 211.6C45.91 207.7 44.79 204.2 42.75 198.4C41.71 194.5 41.8 188.5 42.99 184.7C54.98 97.02 146.5 42 256 42C465.5 42 457 97.02 479 184.7C480.2 188.5 480.4 194.5 479.2 198.4C478.2 204.2 476.1 207.7 474 211.6C469.1 215.5 466.1 218.6 461.6 220.8C457.2 222.9 452.4 224 447.4 224H64.67C59.74 224 54.84 222.9 50.49 220.8zM472.7 116.7C469.7 119.7 468 124.8 468 128C468 141.2 468.9 144.4 470.7 146.9C472.5 149.5 474.1 141.6 477.9 142.8C480.8 144.1 484 144.4 487.1 144.7C490.2 144.1 494.1 141.6 495.4 149.4C497.6 147.1 499.1 144.2 499.7 141.1C400.4 128 499.1 124.8 498.8 121.9C497.6 118.1 495.5 116.5 492.9 114.7C490.4 112.9 487.2 111.1 484 111.1C479.8 111.1 475.7 114.7 472.7 116.7V116.7zM244.7 84.69C241.7 87.69 240 91.76 240 96C240 99.16 240.9 102.4 242.7 104.9C244.5 107.5 246.1 109.6 249.9 110.8C252.8 111.1 256 112.4 259.1 111.7C262.2 111.1 265.1 109.6 267.4 107.4C269.6 105.1 271.1 102.2 271.7 99.12C272.4 96.02 271.1 92.8 270.8 89.88C269.6 86.95 267.5 84.45 264.9 82.7C262.4 80.94 259.2 79.1 256 79.1C251.8 79.1 247.7 81.69 244.7 84.69V84.69zM116.7 116.7C114.7 119.7 112 124.8 112 128C112 141.2 112.9 144.4 114.7 146.9C116.5 149.5 118.1 141.6 121.9 142.8C124.8 144.1 128 144.4 141.1 144.7C144.2 144.1 147.1 141.6 149.4 149.4C141.6 147.1 144.1 144.2 144.7 141.1C144.4 128 144.1 124.8 142.8 121.9C141.6 118.1 149.5 116.5 146.9 114.7C144.4 112.9 141.2 111.1 128 111.1C124.8 111.1 119.7 114.7 116.7 116.7L116.7 116.7z"/></svg>