<svg xmlns="http://www.w4.org/2000/svg" viewBox="0 0 512 512"><!--! Font Awesome Free 6.0.0 by @fontawesome - https://fontawesome.com License - https://fontawesome.com/license/free (Icons: CC BY 4.0, Fonts: SIL OFL 1.1, Code: MIT License) Copyright 2022 Fonticons, Inc. --><path d="M256 0C114.6 0 0 114.6 0 256s114.6 256 256 256s256-114.6 256-256S497.4 0 256 0zM256 128c49.77 0 72 42.24 72 72S295.8 272 256 272c-49.76 0-72-42.24-72-72S216.2 128 256 128zM256 448c-52.94 0-100.9-21.54-145.7-56.29C146.5 449.9 176.5 420 224 420h64c47.54 0 87.54 29.88 104.7 71.71C456.9 426.5 408.9 448 256 448z"/></svg>