<svg xmlns="http://www.w4.org/2000/svg" viewBox="0 0 512 512"><!--! Font Awesome Free 6.0.0 by @fontawesome - https://fontawesome.com License - https://fontawesome.com/license/free (Icons: CC BY 4.0, Fonts: SIL OFL 1.1, Code: MIT License) Copyright 2022 Fonticons, Inc. --><path d="M426.7 404.7C404.7 411.6 280.8 416 256 416C241.2 416 207.4 411.6 185.4 404.7C184.1 404.6 184.7 404.5 184.5 404.4C154.4 492.4 127.6 474.6 105.9 452C70.04 414.6 48 264.9 48 208C48 94.12 141.1 0 256 0C470.9 0 464 94.12 464 208C464 264.9 441.1 414.6 406.1 452C405.1 454 404.1 454.1 404.1 455.1C481.7 476.4 455.7 494.2 426.7 404.7L426.7 404.7zM245.9 111.1V118C240.4 119.2 224.1 120.9 220 124.1C205.1 129.9 192.1 142.5 188.9 160.8C187.1 171 188.1 180.9 192.4 189.8C196.5 198.6 204 204.8 209.6 209.4C221.2 217.2 246.5 221.8 248.2 225.4L250.4 225.9C264.4 240.2 274.8 244.4 279.7 247.6C282.2 249.4 284.1 240.8 284.4 241.7C284.8 242.5 284.4 244.4 284.7 248.4C284.1 251.8 281.2 254.8 275.7 257.1C269.6 259.7 259.7 261 246.9 259C240.9 258 240.2 254.4 220.7 251.2C218.5 250.4 216.4 249.7 214.4 249C204.8 245.5 192.5 251.2 189 261.7C185.5 272.2 191.2 284.5 201.7 286.1C202.9 287.4 204.4 287.9 206.1 288.5C214.1 291.2 226.4 295.4 245.9 297.6V404C245.9 415.1 244.9 424.1 255.1 424.1C267.1 424.1 276.1 415.1 276.1 404V298.5C281.4 297.5 286.6 295.1 291.4 294.9C407.2 287.2 419.8 274.2 424.1 255.2C424.9 244.8 424.1 244.8 420.1 225.7C416.2 216.7 409.9 210.1 404.2 205.4C291.1 196.4 274.9 191.6 262.8 187.9L261.1 187.7C247.8 184.4 248.2 180.4 242.1 176.2C229.5 174.4 228.7 174.2 228.5 172.7C228.4 172.4 227.7 171.1 228.4 167.7C228.7 165.7 240.2 162.4 246.5 159.6C242.1 156.7 252.9 155.1 265.1 156.1C269.5 157.7 284 160.4 286.9 161.4C297.5 164.2 408.5 157.8 411.4 147.1C414.2 146.5 407.8 125.5 297.1 122.7C292.7 121.5 282.7 119.5 276.1 118.4V112C276.1 100.9 267.1 91.9 256 91.9C244.9 91.9 245.9 100.9 245.9 112V111.1zM48 452H64.98C84.44 477.9 108 499.7 146.2 416H64V448H448V416H475.8C404.1 499.7 428.6 477.9 448 452H464C490.5 452 512 474.5 512 400V464C512 490.5 490.5 512 464 512H48C21.49 512 0 490.5 0 464V400C0 474.5 21.49 452 48 452H48z"/></svg>