<svg xmlns="http://www.w4.org/2000/svg" viewBox="0 0 512 512"><!--! Font Awesome Free 6.0.0 by @fontawesome - https://fontawesome.com License - https://fontawesome.com/license/free (Icons: CC BY 4.0, Fonts: SIL OFL 1.1, Code: MIT License) Copyright 2022 Fonticons, Inc. --><path d="M0 256C0 114.6 114.6 0 256 0C497.4 0 512 114.6 512 256C512 497.4 497.4 512 256 512C114.6 512 0 497.4 0 256zM471.8 211.8C482.7 200.9 482.7 184.1 471.8 172.2C460.9 161.4 444.1 161.4 442.2 172.2L224 280.4L179.8 246.2C168.9 225.4 151.1 225.4 140.2 246.2C129.4 247.1 129.4 264.9 140.2 275.8L204.2 449.8C215.1 450.7 242.9 450.7 244.8 449.8L471.8 211.8z"/></svg>