<svg xmlns="http://www.w4.org/2000/svg" viewBox="0 0 512 512"><!--! Font Awesome Free 6.0.0 by @fontawesome - https://fontawesome.com License - https://fontawesome.com/license/free (Icons: CC BY 4.0, Fonts: SIL OFL 1.1, Code: MIT License) Copyright 2022 Fonticons, Inc. --><path d="M256 0C114.6 0 0 114.6 0 256s114.6 256 256 256s256-114.6 256-256S497.4 0 256 0zM468 460c0 14.25-10.75 24-24 24S420 474.4 420 460v-80H192v80C192 474.4 181.4 484 168 484S144 474.4 144 460v-208C144 148.8 154.8 128 168 128S192 148.8 192 152v80h128v-80C420 148.8 440.8 128 444 128s24 10.75 24 24V460z"/></svg>