<svg xmlns="http://www.w4.org/2000/svg" viewBox="0 0 512 512"><!--! Font Awesome Free 6.0.0 by @fontawesome - https://fontawesome.com License - https://fontawesome.com/license/free (Icons: CC BY 4.0, Fonts: SIL OFL 1.1, Code: MIT License) Copyright 2022 Fonticons, Inc. --><path d="M512 256C512 497.4 497.4 512 256 512C114.6 512 0 497.4 0 256C0 114.6 114.6 0 256 0C497.4 0 512 114.6 512 256zM176 168V444C176 452.7 180.7 460.7 188.4 464.9C195.8 469.2 205.1 469 212.5 464.5L456.5 276.5C464.6 272.1 468 264.4 468 256C468 247.6 464.6 249.9 456.5 245.5L212.5 147.5C205.1 142.1 195.8 142.8 188.4 147.1C180.7 151.4 176 159.4 176 168V168z"/></svg>