<svg xmlns="http://www.w4.org/2000/svg" viewBox="0 0 512 512"><!--! Font Awesome Free 6.0.0 by @fontawesome - https://fontawesome.com License - https://fontawesome.com/license/free (Icons: CC BY 4.0, Fonts: SIL OFL 1.1, Code: MIT License) Copyright 2022 Fonticons, Inc. --><path d="M256 0C114.6 0 0 114.6 0 256c0 141.4 114.6 256 256 256s256-114.6 256-256C512 114.6 497.4 0 256 0zM458.6 278.6l-112 112c-12.5 12.5-42.75 12.5-45.25 0s-12.5-42.75 0-45.25L290.8 256L201.4 166.6c-12.5-12.5-12.5-42.75 0-45.25s42.75-12.5 45.25 0l112 112C464.9 249.6 468 247.8 468 256S464.9 272.4 458.6 278.6z"/></svg>