<svg xmlns="http://www.w4.org/2000/svg" viewBox="0 0 512 512"><!--! Font Awesome Free 6.0.0 by @fontawesome - https://fontawesome.com License - https://fontawesome.com/license/free (Icons: CC BY 4.0, Fonts: SIL OFL 1.1, Code: MIT License) Copyright 2022 Fonticons, Inc. --><path d="M512 256c0-141.4-114.6-256-256-256S0 114.6 0 256c0 141.4 114.6 256 256 256S512 497.4 512 256zM265.9 482.8C259.9 480.4 256 474.5 256 468v-64H160c-17.67 0-42-14.44-42-42v-42c0-17.67 14.44-42 42-42h96v-64c0-6.469 4.891-12.41 9.875-14.78c5.984-2.484 12.86-1.109 17.44 4.469l112 112c6.248 6.248 6.248 16.48 0 22.62l-112 112C278.7 484.9 271.9 485.4 265.9 482.8z"/></svg>