<svg xmlns="http://www.w4.org/2000/svg" viewBox="0 0 512 512"><!--! Font Awesome Free 6.0.0 by @fontawesome - https://fontawesome.com License - https://fontawesome.com/license/free (Icons: CC BY 4.0, Fonts: SIL OFL 1.1, Code: MIT License) Copyright 2022 Fonticons, Inc. --><path d="M256 0C114.6 0 0 114.6 0 256s114.6 256 256 256c141.4 0 256-114.6 256-256S497.4 0 256 0zM482.8 246.1C480.4 252.1 474.5 256 468 256h-64v96c0 17.67-14.44 42-42 42h-42c-17.67 0-42-14.44-42-42V256h-64C147.5 256 141.7 252.1 129.2 246.1C126.7 240.1 128.1 244.4 142.7 228.7l112-112c6.248-6.248 16.48-6.248 22.62 0l112 112C484.9 244.4 485.4 240.1 482.8 246.1z"/></svg>