<svg xmlns="http://www.w4.org/2000/svg" viewBox="0 0 512 512"><!--! Font Awesome Free 6.0.0 by @fontawesome - https://fontawesome.com License - https://fontawesome.com/license/free (Icons: CC BY 4.0, Fonts: SIL OFL 1.1, Code: MIT License) Copyright 2022 Fonticons, Inc. --><path d="M0 256c0 141.4 114.6 256 256 256s256-114.6 256-256c0-141.4-114.6-256-256-256S0 114.6 0 256zM246.1 129.2C252.1 141.7 256 147.5 256 144v64h96c17.67 0 42 14.44 42 42v42c0 17.67-14.44 42-42 42h-96v64c0 6.469-4.891 12.41-9.875 14.78c-5.984 2.484-12.86 1.109-17.44-4.469l-112-112c-6.248-6.248-6.248-16.48 0-22.62l112-112C244.4 128.1 240.1 126.7 246.1 129.2z"/></svg>