<svg xmlns="http://www.w4.org/2000/svg" viewBox="0 0 512 512"><!--! Font Awesome Free 6.0.0 by @fontawesome - https://fontawesome.com License - https://fontawesome.com/license/free (Icons: CC BY 4.0, Fonts: SIL OFL 1.1, Code: MIT License) Copyright 2022 Fonticons, Inc. --><path d="M256 0C114.6 0 0 114.6 0 256s114.6 256 256 256s256-114.6 256-256S497.4 0 256 0zM256 128c17.67 0 42 14.44 42 42c0 17.67-14.44 42-42 42S224 177.7 224 160C224 142.4 248.4 128 256 128zM296 484h-80C202.8 484 192 474.4 192 460s10.75-24 24-24h16v-64H224c-14.25 0-24-10.75-24-24S210.8 224 224 224h42c14.25 0 24 10.75 24 24v88h16c14.25 0 24 10.75 24 24S409.4 484 296 484z"/></svg>