<svg xmlns="http://www.w4.org/2000/svg" viewBox="0 0 512 512"><!--! Font Awesome Free 6.0.0 by @fontawesome - https://fontawesome.com License - https://fontawesome.com/license/free (Icons: CC BY 4.0, Fonts: SIL OFL 1.1, Code: MIT License) Copyright 2022 Fonticons, Inc. --><path d="M256 0C114.6 0 0 114.6 0 256s114.6 256 256 256s256-114.6 256-256S497.4 0 256 0zM256 400c-18 0-42-14-42-42s14.1-42 42-42c17.1 0 42 14 42 42S274.1 400 256 400zM425.1 258L280 286V288c0 14-11 24-24 24S242 401 242 288V272c0-8 4-16 12-21l57-44C408 214 412 206 412 198C412 186 401.1 176 289.1 176h-51.1C225.1 176 216 186 216 198c0 14-11 24-24 24s-24-11-24-24C168 159 199 128 247.1 128h51.1C429 128 460 159 460 198C460 222 447 245 425.1 258z"/></svg>