<svg xmlns="http://www.w4.org/2000/svg" viewBox="0 0 512 512"><!--! Font Awesome Free 6.0.0 by @fontawesome - https://fontawesome.com License - https://fontawesome.com/license/free (Icons: CC BY 4.0, Fonts: SIL OFL 1.1, Code: MIT License) Copyright 2022 Fonticons, Inc. --><path d="M256 512c141.4 0 256-114.6 256-256s-114.6-256-256-256C114.6 0 0 114.6 0 256S114.6 512 256 512zM129.2 265.9C141.7 259.9 147.5 256 144 256h64V160c0-17.67 14.44-42 42-42h42c17.67 0 42 14.44 42 42v96h64c6.469 0 12.41 4.891 14.78 9.875c2.484 5.984 1.109 12.86-4.469 17.44l-112 112c-6.248 6.248-16.48 6.248-22.62 0l-112-112C128.1 278.7 126.7 271.9 129.2 265.9z"/></svg>