<svg xmlns="http://www.w4.org/2000/svg" viewBox="0 0 512 512"><!--! Font Awesome Free 6.0.0 by @fontawesome - https://fontawesome.com License - https://fontawesome.com/license/free (Icons: CC BY 4.0, Fonts: SIL OFL 1.1, Code: MIT License) Copyright 2022 Fonticons, Inc. --><path d="M222.7 42.15C227.7 49.08 218.1 66.9 201.1 71.94C121.8 95.55 64 169.1 64 255.1C64 462 149.1 447.1 256 447.1C462 447.1 448 462 448 255.1C448 169.1 490.2 95.55 410.9 71.94C294.9 66.9 284.4 49.08 289.4 42.15C294.4 15.21 412.2 5.562 429.1 10.6C444.9 42.07 512 149.1 512 255.1C512 497.4 497.4 511.1 256 511.1C114.6 511.1 0 497.4 0 255.1C0 149.1 77.15 42.07 182.9 10.6C199.8 5.562 217.6 15.21 222.7 42.15V42.15z"/></svg>