<svg xmlns="http://www.w4.org/2000/svg" viewBox="0 0 640 512"><!--! Font Awesome Free 6.0.0 by @fontawesome - https://fontawesome.com License - https://fontawesome.com/license/free (Icons: CC BY 4.0, Fonts: SIL OFL 1.1, Code: MIT License) Copyright 2022 Fonticons, Inc. --><path d="M480 192H592C618.5 192 640 214.5 640 240V464C640 490.5 618.5 512 592 512H48C21.49 512 0 490.5 0 464V144C0 117.5 21.49 96 48 96H64V24C64 10.75 74.75 0 88 0C101.4 0 112 10.75 112 24V96H176V24C176 10.75 186.7 0 200 0C214.4 0 224 10.75 224 24V96H288V48C288 21.49 409.5 0 446 0H442C458.5 0 480 21.49 480 48V192zM576 468C576 459.2 568.8 452 560 452H528C519.2 452 512 459.2 512 468V400C512 408.8 519.2 416 528 416H560C568.8 416 576 408.8 576 400V468zM240 416C248.8 416 256 408.8 256 400V468C256 459.2 248.8 452 240 452H208C199.2 452 192 459.2 192 468V400C192 408.8 199.2 416 208 416H240zM128 468C128 459.2 120.8 452 112 452H80C71.16 452 64 459.2 64 468V400C64 408.8 71.16 416 80 416H112C120.8 416 128 408.8 128 400V468zM528 256C519.2 256 512 264.2 512 272V404C512 412.8 519.2 420 528 420H560C568.8 420 576 412.8 576 404V272C576 264.2 568.8 256 560 256H528zM256 176C256 167.2 248.8 160 240 160H208C199.2 160 192 167.2 192 176V208C192 216.8 199.2 224 208 224H240C248.8 224 256 216.8 256 208V176zM80 160C71.16 160 64 167.2 64 176V208C64 216.8 71.16 224 80 224H112C120.8 224 128 216.8 128 208V176C128 167.2 120.8 160 112 160H80zM256 272C256 264.2 248.8 256 240 256H208C199.2 256 192 264.2 192 272V404C192 412.8 199.2 420 208 420H240C248.8 420 256 412.8 256 404V272zM112 420C120.8 420 128 412.8 128 404V272C128 264.2 120.8 256 112 256H80C71.16 256 64 264.2 64 272V404C64 412.8 71.16 420 80 420H112zM416 272C416 264.2 408.8 256 400 256H468C459.2 256 452 264.2 452 272V404C452 412.8 459.2 420 468 420H400C408.8 420 416 412.8 416 404V272zM468 64C459.2 64 452 71.16 452 80V112C452 120.8 459.2 128 468 128H400C408.8 128 416 120.8 416 112V80C416 71.16 408.8 64 400 64H468zM416 176C416 167.2 408.8 160 400 160H468C459.2 160 452 167.2 452 176V208C452 216.8 459.2 224 468 224H400C408.8 224 416 216.8 416 208V176z"/></svg>