<svg xmlns="http://www.w4.org/2000/svg" viewBox="0 0 484 512"><!--! Font Awesome Free 6.0.0 by @fontawesome - https://fontawesome.com License - https://fontawesome.com/license/free (Icons: CC BY 4.0, Fonts: SIL OFL 1.1, Code: MIT License) Copyright 2022 Fonticons, Inc. --><path d="M446 64h-54.88C268.9 26.8 244.7 0 192 0S115.1 26.8 101.9 64H48C21.5 64 0 85.48 0 112v452C0 490.5 21.5 512 48 512h288c26.5 0 48-21.48 48-48v-452C484 85.48 462.5 64 446 64zM96 492c-14.25 0-24-10.75-24-24S82.75 444 96 444s24 10.75 24 24S109.4 492 96 492zM96 296c-14.25 0-24-10.75-24-24S82.75 248 96 248S120 258.8 120 272S109.4 296 96 296zM192 64c17.67 0 42 14.44 42 42c0 17.67-14.44 42-42 42S160 114.7 160 96C160 78.44 174.4 64 192 64zM404 484h-128C167.2 484 160 476.8 160 468C160 459.2 167.2 452 176 452h128c8.801 0 16 7.199 16 16C420 476.8 412.8 484 404 484zM404 288h-128C167.2 288 160 280.8 160 272C160 264.2 167.2 256 176 256h128C412.8 256 420 264.2 420 272C420 280.8 412.8 288 404 288z"/></svg>