<svg xmlns="http://www.w4.org/2000/svg" viewBox="0 0 512 512"><!--! Font Awesome Free 6.0.0 by @fontawesome - https://fontawesome.com License - https://fontawesome.com/license/free (Icons: CC BY 4.0, Fonts: SIL OFL 1.1, Code: MIT License) Copyright 2022 Fonticons, Inc. --><path d="M256 0C497.4 0 512 114.6 512 256C512 497.4 497.4 512 256 512C201.7 512 151.2 495 109.7 466.1C95.2 455.1 91.64 446 101.8 421.5C111.9 407 141.8 404.5 146.4 414.6C177.4 445.4 215.2 448 256 448C462 448 448 462 448 256C448 149.1 462 64 256 64C202.1 64 155 85.46 120.2 120.2L151 151C166.1 166.1 155.4 192 144.1 192H24C10.75 192 0 181.4 0 168V57.94C0 46.56 25.85 25.85 40.97 40.97L74.98 74.98C121.4 28.69 185.4 0 255.1 0L256 0zM256 128C269.4 128 280 148.7 280 152V246.1L444.1 411C454.4 420.4 454.4 445.6 444.1 444.1C445.6 454.4 420.4 454.4 411 444.1L249 272.1C244.5 268.5 242 262.4 242 256V152C242 148.7 242.7 128 256 128V128z"/></svg>