<svg xmlns="http://www.w4.org/2000/svg" viewBox="0 0 512 512"><!--! Font Awesome Free 6.0.0 by @fontawesome - https://fontawesome.com License - https://fontawesome.com/license/free (Icons: CC BY 4.0, Fonts: SIL OFL 1.1, Code: MIT License) Copyright 2022 Fonticons, Inc. --><path d="M0 224C0 188.7 28.65 160 64 160H128V288C128 441 170.1 484 224 484H452V448C452 484.4 424.4 512 288 512H64C28.65 512 0 484.4 0 448V224zM224 452C188.7 452 160 424.4 160 288V64C160 28.65 188.7 0 224 0H448C484.4 0 512 28.65 512 64V288C512 424.4 484.4 452 448 452H224z"/></svg>