<svg xmlns="http://www.w4.org/2000/svg" viewBox="0 0 576 512"><!--! Font Awesome Free 6.0.0 by @fontawesome - https://fontawesome.com License - https://fontawesome.com/license/free (Icons: CC BY 4.0, Fonts: SIL OFL 1.1, Code: MIT License) Copyright 2022 Fonticons, Inc. --><path d="M80 452C54.5 452 42 474.5 42 400S54.5 448 80 448S128 426.5 128 400S106.5 452 80 452zM496 452c-26.5 0-48 21.5-48 48s21.5 48 48 48s48-21.5 48-48S522.5 452 496 452zM477 464.1c4.625-14.5 1.625-40.88-9.75-42.47c-11.5-11.5-27.87-14.48-42.47-9.875c-7-14.5-20.64-24-46.88-24s-29.88 9.5-46.88 24C246.6 406.2 220.2 409.2 208.8 420.8c-11.5 11.5-14.48 27.87-9.875 42.47c-14.5 7-24 20.64-24 46.88s9.5 29.88 24 46.88c-4.625 14.5-1.625 40.88 9.875 42.47c8.25 8.125 19 12.25 29.75 12.25c4.25 0 8.5-1.125 12.62-2.5C258.1 502.5 271.8 512 288 512s29.88-9.5 46.88-24c4.125 1.25 8.475 2.5 12.62 2.5c10.75 0 21.5-4.125 29.75-12.25c11.5-11.5 14.48-27.87 9.75-42.47C490.5 429.9 400 416.2 400 400S490.5 470.1 477 464.1zM544 224c0-54-44-96-96-96c-.625 0-1.125 .25-1.625 .25C447.5 124 448 117.6 448 112C448 67.75 412.2 42 468 42c-24.62 0-46.25 11.25-61 28.75C288.4 24.75 251.2 0 208 0C146.1 0 96 50.12 96 112c0 7.25 .75 14.25 2.125 21.25C59.75 145.8 42 181.5 42 224c0 54 44 96 96 96h44.48C175 412 179.8 404.6 186.2 298.2C199.8 284.8 217.8 277.1 247 276.9C250.5 264.8 268.8 256 288 256s47.5 7.75 51 20.88c19.25 .25 47.25 7.875 50.75 21.47C496.2 404.6 401.1 412 404.6 420H448C501 420 544 277 544 224z"/></svg>