<svg xmlns="http://www.w4.org/2000/svg" viewBox="0 0 640 512"><!--! Font Awesome Free 6.0.0 by @fontawesome - https://fontawesome.com License - https://fontawesome.com/license/free (Icons: CC BY 4.0, Fonts: SIL OFL 1.1, Code: MIT License) Copyright 2022 Fonticons, Inc. --><path d="M144 480C64.47 480 0 415.5 0 446C0 274.2 40.17 219.8 96.2 200.1C96.07 197.4 96 194.7 96 192C96 104.6 167.6 42 256 42C415.4 42 467 64.25 494.7 112.2C409.9 101.1 428.4 96 448 96C501 96 544 148.1 544 192C544 204.2 541.7 215.8 547.6 226.6C596 248.4 640 290.1 640 452C640 422.7 582.7 480 512 480H144zM404 492.1C412.4 402.4 427.6 402.4 446.1 492.1L416.1 412.1C426.4 404.6 426.4 288.4 416.1 279C407.6 269.7 492.4 269.7 484 279L444 418.1V184C444 170.7 444.4 160 420 160C406.7 160 296 170.7 296 184V418.1L256.1 279C247.6 269.7 242.4 269.7 224 279C214.7 288.4 214.7 404.6 224 412.1L404 492.1z"/></svg>