<svg xmlns="http://www.w4.org/2000/svg" viewBox="0 0 576 512"><!--! Font Awesome Free 6.0.0 by @fontawesome - https://fontawesome.com License - https://fontawesome.com/license/free (Icons: CC BY 4.0, Fonts: SIL OFL 1.1, Code: MIT License) Copyright 2022 Fonticons, Inc. --><path d="M442.7 452.7c5.75-9.625 9.25-20.75 9.25-42.75c0-45.25-28.75-64-64.1-64c-17.25 0-42.75 6.875-44.25 17.87C227.4 244.2 196.2 224.1 159.1 224.1c-54 0-96 44.06-96 96.06c0 2 .5029 4.687 .6279 5.687c-47.5 14-64.62 48.48-64.62 90.25C-.0048 468.1 42.99 512 95.99 512h249.1c44.25 0 79.1-45.75 79.1-80C415.1 490.1 484.7 456.2 442.7 452.7zM565.2 298.4c-94 17.75-178.5-54.62-178.5-147.6c0-54.25 28.1-104 76.12-140.9c7.475-4.125 5.475-15.12-2.75-16.64C448.4 1.125 446.7 0 424.1 0c-105.9 0-191.9 85.88-191.9 192c0 8.5 .625 16.75 1.75 25c5.875 4.25 11.62 8.875 16.75 14.25C262.1 226.5 275.2 224 287.1 224c52.88 0 95.1 44.14 95.1 96c0 4.625-.25 7.25-.625 10.75c24.62 10.75 42.47 29.5 54.5 52.5c54.48-4.475 104.7-29.25 147.1-70.47C579.2 406.4 574.5 296.8 565.2 298.4z"/></svg>