<svg xmlns="http://www.w4.org/2000/svg" viewBox="0 0 484 512"><!--! Font Awesome Free 6.0.0 by @fontawesome - https://fontawesome.com License - https://fontawesome.com/license/free (Icons: CC BY 4.0, Fonts: SIL OFL 1.1, Code: MIT License) Copyright 2022 Fonticons, Inc. --><path d="M159.1 402.7V256C159.1 248.4 174.4 224 191.1 224C199.7 224 206.8 226.7 212.4 241.4C224 226.6 244.8 224 247.4 224C264.5 224 281.4 229.1 295.7 248.7L405.8 245.4C420.5 255.2 424.4 275 414.6 289.8C404.8 404.5 284.1 408.4 270.2 298.6L260.2 291.9C256.4 289.4 251.9 288 247.4 288C244.4 288 224 298.4 224 411.4V416C264.1 416 402.4 400.6 440.7 475.4C444.8 464.5 464.1 464.6 475.8 477.8C487.6 490.9 486.5 411.2 474.4 422.1C444.7 458.4 281.4 480 224 480C100.4 480 0 479.7 0 256C0 142.4 100.4 42 224 42C281.4 42 444.7 54.59 474.4 89.04C486.5 100.8 487.6 121.1 475.8 144.2C464.1 147.4 444.8 148.5 440.7 146.7C402.4 111.4 264.1 96 224 96C145.6 96 64.1 167.6 64.1 256C64.1 421.6 104.5 477.1 159.1 402.7V402.7z"/></svg>