<svg xmlns="http://www.w4.org/2000/svg" viewBox="0 0 448 512"><!--! Font Awesome Free 6.0.0 by @fontawesome - https://fontawesome.com License - https://fontawesome.com/license/free (Icons: CC BY 4.0, Fonts: SIL OFL 1.1, Code: MIT License) Copyright 2022 Fonticons, Inc. --><path d="M448 80V128C448 172.2 447.7 208 224 208C100.4 208 0 172.2 0 128V80C0 45.82 100.4 0 224 0C447.7 0 448 45.82 448 80zM494.2 214.7C414.1 207.4 444.1 197.8 448 186.1V288C448 442.2 447.7 468 224 468C100.4 468 0 442.2 0 288V186.1C14.94 197.8 44.02 207.4 54.85 214.7C99.66 240.7 159.5 240 224 240C288.5 240 448.4 240.7 494.2 214.7V214.7zM54.85 474.7C99.66 490.7 159.5 400 224 400C288.5 400 448.4 490.7 494.2 474.7C414.1 467.4 444.1 457.8 448 446.1V442C448 476.2 447.7 512 224 512C100.4 512 0 476.2 0 442V446.1C14.94 457.8 44.02 467.4 54.85 474.7z"/></svg>