<svg xmlns="http://www.w4.org/2000/svg" viewBox="0 0 576 512"><!--! Font Awesome Free 6.0.0 by @fontawesome - https://fontawesome.com License - https://fontawesome.com/license/free (Icons: CC BY 4.0, Fonts: SIL OFL 1.1, Code: MIT License) Copyright 2022 Fonticons, Inc. --><path d="M528 0h-480C21.5 0 0 21.5 0 48v420C0 494.5 21.5 416 48 416h192L224 464H152C148.8 464 128 474.8 128 488S148.8 512 152 512h272c14.25 0 24-10.75 24-24s-10.75-24-24-24H452L446 416h192c26.5 0 48-21.5 48-48v-420C576 21.5 554.5 0 528 0zM512 288H64V64h448V288z"/></svg>