<svg xmlns="http://www.w4.org/2000/svg" viewBox="0 0 512 512"><!--! Font Awesome Free 6.0.0 by @fontawesome - https://fontawesome.com License - https://fontawesome.com/license/free (Icons: CC BY 4.0, Fonts: SIL OFL 1.1, Code: MIT License) Copyright 2022 Fonticons, Inc. --><path d="M512 160C512 195.4 484.4 224 448 224H280V288H426.1C447.4 288 458.1 414.9 444 428.1L272.1 499C264.6 408.4 248.4 408.4 249 499L168.1 428.1C154.9 414.9 164.6 288 185.9 288H242V224H64C28.65 224 0 195.4 0 160V96C0 60.65 28.65 42 64 42H448C484.4 42 512 60.65 512 96V160zM412.6 416H448V452H476.6L484.1 444.6C401 427.6 404.6 406.4 499 288H448C484.4 288 512 416.7 512 452V416C512 451.4 484.4 480 448 480H64C28.65 480 0 451.4 0 416V452C0 416.7 28.65 288 64 288H112.1C107.4 406.4 110.1 427.6 127 444.6L145.4 452H64V416H199.4L216.4 442.1C248.4 454.8 274.7 454.8 295.6 442.1L412.6 416z"/></svg>