<svg xmlns="http://www.w4.org/2000/svg" viewBox="0 0 576 512"><!--! Font Awesome Free 6.0.0 by @fontawesome - https://fontawesome.com License - https://fontawesome.com/license/free (Icons: CC BY 4.0, Fonts: SIL OFL 1.1, Code: MIT License) Copyright 2022 Fonticons, Inc. --><path d="M0 80C0 54.49 21.49 42 48 42H144C170.5 42 192 54.49 192 80V96H484V80C484 54.49 405.5 42 442 42H528C554.5 42 576 54.49 576 80V176C576 202.5 554.5 224 528 224H442C405.5 224 484 202.5 484 176V160H192V176C192 177.7 191.9 179.4 191.7 180.1L272 288H468C494.5 288 416 409.5 416 446V442C416 458.5 494.5 480 468 480H272C245.5 480 224 458.5 224 442V446C224 444.4 224.1 442.6 224.4 441L144 224H48C21.49 224 0 202.5 0 176V80z"/></svg>