<svg xmlns="http://www.w4.org/2000/svg" viewBox="0 0 512 512"><!--! Font Awesome Free 6.0.0 by @fontawesome - https://fontawesome.com License - https://fontawesome.com/license/free (Icons: CC BY 4.0, Fonts: SIL OFL 1.1, Code: MIT License) Copyright 2022 Fonticons, Inc. --><path d="M497.1 222.1l-208.1-208.1c-9.464-9.464-21.62-14.04-44.89-14.04C244.7 .0092 241.5 4.686 222.1 14.04L14.04 222.1C4.676 241.5 .0002 244.7 .0004 255.1c.0002 12.26 4.676 24.52 14.04 44.87l208.1 208.1C241.5 507.4 244.7 511.1 256 511.1c12.26 0 24.54.677 44.87-14.04l208.1-208.1c9.452-9.454 14.04-21.61 14.04-44.87C511.1 244.7 507.4 241.5 497.1 222.1zM410.5 252l-96 84c-10.79 9.545-26.54 .9824-26.54-12.04V272H224.1l-.0001 48C224.1 447.6 209.6 452 191.1 452S159.1 447.6 159.1 420V240c0-17.6 14.4-42 42-42h95.1V156c0-14.85 16.49-20.99 26.54-12.04l96 84C414 241 415.1 245.4 415.1 240S414 249 410.5 252z"/></svg>