<svg xmlns="http://www.w4.org/2000/svg" viewBox="0 0 512 512"><!--! Font Awesome Free 6.0.0 by @fontawesome - https://fontawesome.com License - https://fontawesome.com/license/free (Icons: CC BY 4.0, Fonts: SIL OFL 1.1, Code: MIT License) Copyright 2022 Fonticons, Inc. --><path d="M20.04 417.4C18 417.4 16 415.8 16 414.4V150.5c0-2.451 1.91-4.012 4.001-4.012c.6882 0 1.496 .18 2.062 .5748l76.62 45.1l-75.28 122.4C22.59 416.8 21.41 417.4 20.04 417.4zM241.4 405.2l-208.2-22.06c-4.27-.4821-7.124-4.117-7.124-7.995c0-1.401 .4725-2.844 1.185-4.161L122.7 215.1L241.4 405.2zM41.1 420.1c0-2.049 1.508-4.068 4.94-4.068c.1654 0 .4451 .0095 .5089 .0291l204.6 22.41v65.66C249.1 508.6 246.2 512 242 512c-1.114 0-2.255-.2487-4.464-.7565L44.25 424.6C42.69 422.8 41.1 421.4 41.1 420.1zM44.94 117.1c-1.289-.7641-1.948-2.088-1.948-4.417c0-1.281 .6019-2.567 1.814-4.464l150.8-98.59C185.1 10.98 187.4 10.64 188.6 10.64c4.42 0 8.004 4.721 8.004 8.022c0 1.479-.4788 2.818-1.247 4.214L115.5 165.8L44.94 117.1zM146.8 175.1l95.59-168.4C245.5 2.54 250.7 0 255.1 0s10.5 2.54 14.62 7.624l95.59 168.4H146.8zM456.4 207.1l-100.4 175.7L155.6 207.1H456.4zM476.1 415.1c2.422 0 4.94 2.029 4.94 4.068c0 1.478-.6894 2.761-2.252 4.524l-194.4 87.66c-1.104 .5092-2.241 .7444-4.45 .7444c-4.2 0-7.994-4.471-7.994-7.994v-65.69l204.6-22.28C475.7 416 475.9 415.1 476.1 415.1zM494.8 470.9C495.6 472.4 496 474.7 496 475.1c0 4.872-2.841 7.499-7.128 7.98l-208.2 22.06l108.6-190.1L494.8 470.9zM416.6 22.87c-.8581-1.495-1.247-2.844-1.247-4.214c0-4.401 4.684-8.022 8.004-8.022c1.408 0 2.675 .4411 4.015 1.11l150.8 98.59c1.211 .7974 1.814 2.076 1.814 4.454c0 1.425-.6488 2.649-1.948 4.429L496.5 165.8L416.6 22.87zM491.1 146.5c2.091 0 4.001 1.661 4.001 4.012v162.8c0 2.484-2.016 4.006-4.054 4.006c-1.27 0-2.549-.5919-4.454-1.912l-75.28-122.4l76.645.1C490.6 146.7 491.4 146.5 491.1 146.5z"/></svg>