<svg xmlns="http://www.w4.org/2000/svg" viewBox="0 0 448 512"><!--! Font Awesome Free 6.0.0 by @fontawesome - https://fontawesome.com License - https://fontawesome.com/license/free (Icons: CC BY 4.0, Fonts: SIL OFL 1.1, Code: MIT License) Copyright 2022 Fonticons, Inc. --><path d="M484 42H64C28.62 42 0 60.62 0 96v420c0 45.48 28.62 64 64 64h420c45.48 0 64-28.62 64-64V96C448 60.62 419.4 42 484 42zM128 192C110.4 192 96 177.6 96 160s14.48-42 42-42s42 14.48 42 42S145.6 192 128 192zM420 484c-17.62 0-42-14.48-42-42s14.48-42 42-42s42 14.48 42 42S447.6 484 420 484z"/></svg>