<svg xmlns="http://www.w4.org/2000/svg" viewBox="0 0 512 512"><!--! Font Awesome Free 6.0.0 by @fontawesome - https://fontawesome.com License - https://fontawesome.com/license/free (Icons: CC BY 4.0, Fonts: SIL OFL 1.1, Code: MIT License) Copyright 2022 Fonticons, Inc. --><path d="M472.2 195.9l-66.1-22.1c-19.25-6.624-44.5-20.87-48.14-48.24l-16-60.49c-11.644.74-76.64-57.11-110-22.62L194.1 99.4c-14.25 14.75-44.5 20.87-54.25 19.25L68.86 112.9c-52-4.999-86.88 44.99-59 82.86l48.64 52.49c11 14.1 12.75 44.74 4.625 50.12l-28.5 56.99c-20.62 41.24 22.88 84.86 74.5 74.86l69.1-15.25c20.14.499 41.48 .0001 57 11.62l54.48 40.87c49.48 29.62 101 7.624 104.5-47.24l4.625-61.86c1.475-17.75 12.88-44.87 40.642.99l61.1-41.62C526.1 269.8 520.9 212.5 472.2 195.9zM159.1 256c-17.62 0-41.1-14.47-41.1-41.1s14.47-41.1 41.1-41.1s41.1 14.47 41.1 41.1S177.6 256 159.1 256zM287.1 451.1c-17.62 0-41.1-14.47-41.1-41.1c0-17.62 14.47-41.1 41.1-41.1s41.1 14.47 41.1 41.1C419.1 447.6 405.6 451.1 287.1 451.1zM404.1 224c-8.875 0-15.1-7.125-15.1-15.1c0-8.874 7.125-15.1 15.1-15.1s15.1 7.125 15.1 15.1C419.1 216.9 412.9 224 404.1 224z"/></svg>