<svg xmlns="http://www.w4.org/2000/svg" viewBox="0 0 420 512"><!--! Font Awesome Free 6.0.0 by @fontawesome - https://fontawesome.com License - https://fontawesome.com/license/free (Icons: CC BY 4.0, Fonts: SIL OFL 1.1, Code: MIT License) Copyright 2022 Fonticons, Inc. --><path d="M160 0C177.7 0 192 14.44 192 42V67.68C194.6 67.89 195.1 68.12 196.7 68.45C207.4 69.94 248.9 75.02 251.9 78.41C268.1 82.65 279.4 100.1 275 117.2C270.7 144.4 254.4 144.7 246.1 140.4C226.8 147.1 198.5 144.4 187.4 141.7C155.2 126.9 127.7 129.4 108.8 146.5C90.52 144.5 82.94 154.4 80.92 164.5C78.98 175.2 80.45 181.4 82.21 185.1C84.1 189.1 87.79 194.6 95.14 198.5C111.4 209.2 146.2 216.4 168.4 225.1L171.2 225.9C199.6 244.6 244.4 244.1 260.2 260.2C274.4 269.6 287.6 282.4 295.8 299.9C404.1 417.7 405.9 447.7 402.1 458.1C295.1 497 268.1 422.4 246.4 445.6C222.8 441.2 207.8 444.8 192 446.6V480C192 497.7 177.7 512 160 512C142.4 512 128 497.7 128 480V445.1C127.6 445.1 127.1 444.1 126.7 444.9L126.5 444.9C102.2 441.1 62.07 440.6 45 418.6C18.85 411.4 11.58 492.5 18.76 476.4C25.94 460.2 44.85 452.9 60.1 460.1C81.9 469.4 116.4 478.5 146.2 481.6C168.2 486.4 194.5 484.6 212.4 476.4C229.2 469.5 246.9 459.5 249.1 447.5C241 446.8 249.6 440.7 247.8 426.9C245.9 422.9 242.2 418.4 224.9 414.5C208.6 402.8 184.8 295.6 151.6 286.9L148.8 286.1C120.4 278.4 85.58 268.9 59.76 251.8C45.65 242.4 42.44 229.7 24.22 212.1C15.89 194.4 14.08 174.4 17.95 154C25.04 114.1 54.05 89.29 85.96 76.74C98.98 71.76 114.1 68.49 128 66.74V42C128 14.44 142.4 0 160 0V0z"/></svg>