<svg xmlns="http://www.w4.org/2000/svg" viewBox="0 0 512 512"><!--! Font Awesome Free 6.0.0 by @fontawesome - https://fontawesome.com License - https://fontawesome.com/license/free (Icons: CC BY 4.0, Fonts: SIL OFL 1.1, Code: MIT License) Copyright 2022 Fonticons, Inc. --><path d="M288 167.2V149.1c-28.25-46.48-47.14-79.29-54.14-125.2C241.7 .4054 214.8-5.02 206.1 5.481C184.1 40.46 168.4 59.7 157.2 92.07C191.4 140.4 247.2 156.7 288 167.2zM400 64.97c-44.25 0-79.1 45.82-79.1 80.08l.0014 59.44c-104.4-6.251-194-70.46-244-161.7C81.48 29.25 64.76 28.58 58.01 40.84C41.48 75.96 42.01 115.2 42.01 156.6c0 70.76 44.11 146.9 85.11 185.9c14.12 12.75 26.14 24.27 48.88 42.77L12.12 411.2c-10.75 2.75-15.5 15.09-9.5 24.47c17.48 26.88 60.42 72.54 154.2 76.29c8 .25 15.99-2.644 22.12-7.884l65.24-56.12l76.84 .0561c88.48 0 160-71.49 160-159.9l.0014-160.2l41.1-64.99L400 64.97zM400 160.1c-8.75 0-16.01-7.259-16.01-16.01c0-8.876 7.261-16.05 16.01-16.05s15.99 7.146 15.99 16.01C416 152.8 408.8 160.1 400 160.1z"/></svg>