<svg xmlns="http://www.w4.org/2000/svg" viewBox="0 0 640 512"><!--! Font Awesome Free 6.0.0 by @fontawesome - https://fontawesome.com License - https://fontawesome.com/license/free (Icons: CC BY 4.0, Fonts: SIL OFL 1.1, Code: MIT License) Copyright 2022 Fonticons, Inc. --><path d="M18.44 255.8L192 224L100.8 292.6C90.67 402.8 97.8 420 112 420h222.7c-9.499-26.5-14.75-54.5-14.75-84.48V194.2L200.4 106.8C176.5 90.88 145 92.75 124.4 111.2l-117.5 116.4C-6.562 248 2.446 258 18.44 255.8zM575.2 289.9l-100.7-50.25c-16.25-8.125-26.5-24.75-26.5-44V160h64.99l28.12 22.62C546.1 188.6 554.2 192 562.7 192h40.1c11.1 0 24.12-6.875 28.5-17.75l14.47-28.62c5.474-10.87 4.25-24.75-2.999-44.5l-74.49-99.47C552.1 4.75 544.5 0 544.5 0H296C288.9 0 285.4 8.625 290.4 14.62L451.1 64L292.4 88.75c-5.874 4-5.874 11.47 0 14.47L451.1 128l-.0011 108.6c0 72 45.99 149.4 95.99 179.4c-195.6 6.75-444.4 41-444.1 60.88c-8.124 1.75-14.87 9-14.87 17.48C.0464 504 8.045 512 17.79 512h499.1c64.24 0 119.6-47.5 122.1-110.8C642.4 454 617.1 410.9 575.2 289.9zM489.1 66.25l45.74 11.48c-2.75 11-12.5 18.88-24.12 18.25C497.7 95.25 484.8 84.48 489.1 66.25z"/></svg>