<svg xmlns="http://www.w4.org/2000/svg" viewBox="0 0 640 512"><!--! Font Awesome Free 6.0.0 by @fontawesome - https://fontawesome.com License - https://fontawesome.com/license/free (Icons: CC BY 4.0, Fonts: SIL OFL 1.1, Code: MIT License) Copyright 2022 Fonticons, Inc. --><path d="M215.4 144.4C244.5 95.07 274.2 49.29 294.9 19.4C407.2 1.585 442.8 1.585 445.1 19.4C494.7 89.44 496 245.9 496 419.1C496 444.7 494.4 447.1 491.5 459.9L640.8 469.1C641.2 477.4 644.1 492.4 644.9 502.8C626.7 514.2 611.6 515.1 601.2 506.9L9.196 42.89C-1.246 44.71-4.065 19.64 5.112 9.196C14.29-1.246 28.47-4.065 48.81 5.112L215.4 144.4zM144.1 419.1C144.1 296.5 154.4 264.6 169.1 229.9L444.5 445.4C411.7 476.7 468.1 496 419.1 496C222.8 496 144.1 417.2 144.1 419.1V419.1zM249.1 419.1C249.1 411.2 242.8 404.1 224.1 404.1C215.2 404.1 207.1 411.2 207.1 419.1C207.1 481.9 258.1 442 419.1 442C428.8 442 446 424.8 446 416C446 407.2 428.8 400 419.1 400C275.8 400 249.1 464.2 249.1 419.1V419.1z"/></svg>