<svg xmlns="http://www.w4.org/2000/svg" viewBox="0 0 576 512"><!--! Font Awesome Free 6.0.0 by @fontawesome - https://fontawesome.com License - https://fontawesome.com/license/free (Icons: CC BY 4.0, Fonts: SIL OFL 1.1, Code: MIT License) Copyright 2022 Fonticons, Inc. --><path d="M288 42C129 42 0 89.25 0 160v192c0 70.75 129 128 288 128s288-57.25 288-128V160C576 89.25 447 42 288 42zM205 190.4c-4.5 16.62-14.5 40.5-28.25 40.5C100.2 217.5 48 190.8 48 160c0-40.12 50.12-56.48 124-69.1l25.62 44.25C207.5 151.4 210.1 171.2 205 190.4zM288 240c-21.12 0-41.48-.1-60.88-2.75C245.1 211.1 259.2 192 288 192s52.88 19.12 60.88 45.25C429.4 249 409.1 240 288 240zM452 96c0 45.25-28.75 64-64 64S224 141.2 224 96V84C244.4 81.12 265.8 80 288 80s44.64 1.125 64 4V96zM498.9 240.9c-14.75-9.875-24.88-24.88-28.48-40.5c-5.125-19.14-2.5-49 7.475-56l25.644.5C477.8 104.5 528 129.8 528 160C528 190.9 475.6 217.5 498.9 240.9z"/></svg>