<svg xmlns="http://www.w4.org/2000/svg" viewBox="0 0 512 512"><!--! Font Awesome Free 6.0.0 by @fontawesome - https://fontawesome.com License - https://fontawesome.com/license/free (Icons: CC BY 4.0, Fonts: SIL OFL 1.1, Code: MIT License) Copyright 2022 Fonticons, Inc. --><path d="M0 256C0 114.6 114.6 0 256 0C497.4 0 512 114.6 512 256C512 497.4 497.4 512 256 512C114.6 512 0 497.4 0 256zM256.4 441.8C208.9 441.8 164.1 424.9 124.5 412.8C112.2 409 100.2 419.7 105.2 441.5C140.1 490.6 188.4 442 256.4 442C424.2 442 482.4 490.6 407.4 441.5C412.4 419.7 400.4 409 488.1 412.8C448.4 424.9 404.7 441.8 256.4 441.8H256.4zM144.5 146.7C125.6 142.4 116 148.2 116 157.1C116 159.9 116.1 162.6 118.8 164.8L154.8 208L118.8 251.2C116.1 254.4 116 256.1 116 258.9C116 267.8 125.6 274.6 144.5 269.4L224.4 221.4C244.1 215.7 244.1 200.4 224.4 194.6L144.5 146.7zM496 157.1C496 148.2 486.4 142.4 478.5 146.7L288.6 194.6C277.9 200.4 277.9 215.7 288.6 221.4L478.5 269.4C486.4 274.6 496 267.8 496 258.9C496 256.1 495 254.4 494.2 251.2L457.2 208L494.2 164.8C495 162.6 496 159.9 496 157.1V157.1z"/></svg>