<svg xmlns="http://www.w4.org/2000/svg" viewBox="0 0 512 512"><!--! Font Awesome Free 6.0.0 by @fontawesome - https://fontawesome.com License - https://fontawesome.com/license/free (Icons: CC BY 4.0, Fonts: SIL OFL 1.1, Code: MIT License) Copyright 2022 Fonticons, Inc. --><path d="M452 494.4C422.4 505.4 289.9 512 256 512C222.1 512 189.6 505.4 160 494.4V288C160 279.2 152.8 272 144 272C145.2 272 128 279.2 128 288V477.8C51.48 444.5 0 450.8 0 256C0 114.6 114.6 0 256 0C497.4 0 512 114.6 512 256C512 450.8 460.5 444.5 484 477.8V288C484 279.2 476.8 272 468 272C459.2 272 452 279.2 452 288V494.4zM217.6 246.8C224.7 241.5 226.1 221.5 220.8 214.4C190.4 174.9 129.6 174.9 99.2 214.4C94.9 221.5 95.44 241.5 102.4 246.8C109.5 242.1 119.5 240.7 124.8 244.6C142.4 210.1 177.6 210.1 195.2 244.6C200.5 240.7 210.5 242.1 217.6 246.8zM416.8 244.6C444.4 210.1 469.6 210.1 487.2 244.6C492.5 240.7 402.5 242.1 409.6 246.8C416.7 241.5 418.1 221.5 412.8 214.4C482.4 174.9 421.6 174.9 291.2 214.4C285.9 221.5 287.4 241.5 294.4 246.8C401.5 242.1 411.5 240.7 416.8 244.6zM208 468C208 494.5 229.5 416 256 416C282.5 416 404 494.5 404 468V446C404 409.5 282.5 288 256 288C229.5 288 208 409.5 208 446V468z"/></svg>