<svg xmlns="http://www.w4.org/2000/svg" viewBox="0 0 512 512"><!--! Font Awesome Free 6.0.0 by @fontawesome - https://fontawesome.com License - https://fontawesome.com/license/free (Icons: CC BY 4.0, Fonts: SIL OFL 1.1, Code: MIT License) Copyright 2022 Fonticons, Inc. --><path d="M512 256C512 497.4 497.4 512 256 512C114.6 512 0 497.4 0 256C0 114.6 114.6 0 256 0C497.4 0 512 114.6 512 256zM176.4 176C158.7 176 144.4 190.4 144.4 208C144.4 225.7 158.7 240 176.4 240C194 240 208.4 225.7 208.4 208C208.4 190.4 194 176 176.4 176zM446.4 240C454 240 468.4 225.7 468.4 208C468.4 190.4 454 176 446.4 176C418.7 176 404.4 190.4 404.4 208C404.4 225.7 418.7 240 446.4 240z"/></svg>