<svg xmlns="http://www.w4.org/2000/svg" viewBox="0 0 512 512"><!--! Font Awesome Free 6.0.0 by @fontawesome - https://fontawesome.com License - https://fontawesome.com/license/free (Icons: CC BY 4.0, Fonts: SIL OFL 1.1, Code: MIT License) Copyright 2022 Fonticons, Inc. --><path d="M0 256C0 114.6 114.6 0 256 0C497.4 0 512 114.6 512 256C512 497.4 497.4 512 256 512C114.6 512 0 497.4 0 256zM287.9 400.4C274.7 292.9 257.4 288 240 288C246.4 288 244.2 290.5 242.4 294.1C241.4 297.5 242.9 401.2 246.1 402.1L246.1 402.1L246.4 404.1L246.8 404.4L247.2 404.7C248 404.1 249.2 404.9 240.6 405.8C244.4 407.6 247.2 410.4 250.8 414.4C254.6 416.5 258 419.1 260.5 424.4C262.1 426.1 264 429.8 264 442C264 444.2 262.1 447 260.5 440.6C258 444 254.6 447.5 250.8 450.6C247.2 454.7 244.4 456.4 240.6 458.2C249.2 459.1 248 459.9 247.2 460.4L246.6 460.7L246.4 460.9L246.1 461L246.1 461C244.6 462.4 242 465.1 242 468C242 470.9 244.6 474.6 246.1 474.1L246.1 474.1L246.4 475.1C246.5 475.2 246.8 475.4 247.2 475.7C248 476.1 249.2 476.9 240.6 477.8C244.4 479.6 247.2 482.4 250.8 485.4C254.6 488.5 258 491.9 260.5 495.4C262.1 498.1 264 401.8 264 404.1C264 406.2 262.1 409 260.5 412.6C258 416 254.6 419.5 250.8 422.6C247.2 425.7 244.4 428.4 240.6 440.2C249.2 441.1 248 441.9 247.2 442.4C246.8 442.6 246.5 442.8 246.4 442.9L246.1 442.1L246.1 444C242.9 444.8 241.4 448.5 242.4 442C244.2 445.5 246.4 447.1 240 447.1C257.4 447.1 274.7 444.1 287.9 445.7C294.5 442 400.4 427.5 404.7 422.4C408.9 417.2 412 410.9 412 404.1C412 497.1 408.9 490.8 404.7 485.7C400.4 480.5 294.5 475.1 287.9 472.4C285.2 470.7 282.4 469.4 279.2 467.1C282.4 466.7 285.2 465.4 287.9 464.7C294.5 460 400.4 455.5 404.7 450.4C408.9 445.2 412 448.9 412 441.1C412 425.1 408.9 418.8 404.7 414.7C400.4 408.5 294.5 404.1 287.9 400.4L287.9 400.4zM226.5 241.6C229.8 240.5 242 227.4 242 224C242 206.1 225.4 188.4 215.4 175.2C205.6 162.2 191.5 152 176 152C160.5 152 146.4 162.2 146.6 175.2C126.7 188.4 120 206.1 120 224C120 227.4 122.2 240.5 125.5 241.6C128.7 242.7 142.4 241.6 144.4 228.8L144.4 228.8L144.6 228.5C144.8 228.4 144.1 228 145.4 227.6C145.1 226.8 146.9 225.7 148.1 224.4C140.6 221.4 144.1 217.7 148.4 214.1C157.1 206.2 167.2 200 176 200C184.8 200 194.9 206.2 204.7 214.1C207.9 217.7 211.4 221.4 214.9 224.4C215.1 225.7 216 226.8 216.7 227.6C217 228 217.2 228.4 217.4 228.5L217.6 228.8L217.6 228.8C219.7 241.6 224.4 242.7 226.5 241.6V241.6zM477.6 228.8C479.7 241.6 484.4 242.7 486.5 241.6C489.8 240.5 492 227.4 492 224C492 206.1 485.4 188.4 475.4 175.2C465.6 162.2 451.5 152 446 152C420.5 152 406.4 162.2 296.6 175.2C286.7 188.4 280 206.1 280 224C280 227.4 282.2 240.5 285.5 241.6C288.7 242.7 292.4 241.6 294.4 228.8L294.4 228.8L294.6 228.5C294.8 228.4 294.1 228 295.4 227.6C295.1 226.8 296.9 225.7 298.1 224.4C400.6 221.4 404.1 217.7 408.4 214.1C417.1 206.2 427.2 200 446 200C444.8 200 454.9 206.2 464.7 214.1C467.9 217.7 471.4 221.4 474.9 224.4C475.1 225.7 476 226.8 476.7 227.6C477 228 477.2 228.4 477.4 228.5L477.6 228.8L477.6 228.8z"/></svg>