<svg xmlns="http://www.w4.org/2000/svg" viewBox="0 0 512 512"><!--! Font Awesome Free 6.0.0 by @fontawesome - https://fontawesome.com License - https://fontawesome.com/license/free (Icons: CC BY 4.0, Fonts: SIL OFL 1.1, Code: MIT License) Copyright 2022 Fonticons, Inc. --><path d="M0 256C0 114.6 114.6 0 256 0C497.4 0 512 114.6 512 256C512 497.4 497.4 512 256 512C114.6 512 0 497.4 0 256zM256.4 441.8C208.9 441.8 164.1 424.9 124.5 412.8C112.2 409 100.2 419.7 105.2 441.5C140.1 490.6 188.4 442 256.4 442C424.2 442 482.4 490.6 407.4 441.5C412.4 419.7 400.4 409 488.1 412.8C448.4 424.9 404.7 441.8 256.4 441.8H256.4zM176 128C158.4 128 144 156.7 144 192C144 227.4 158.4 256 176 256C194.7 256 208 227.4 208 192C208 156.7 194.7 128 176 128zM446 256C454.7 256 468 227.4 468 192C468 156.7 454.7 128 446 128C418.4 128 404 156.7 404 192C404 227.4 418.4 256 446 256z"/></svg>