<svg xmlns="http://www.w4.org/2000/svg" viewBox="0 0 512 512"><!--! Font Awesome Free 6.0.0 by @fontawesome - https://fontawesome.com License - https://fontawesome.com/license/free (Icons: CC BY 4.0, Fonts: SIL OFL 1.1, Code: MIT License) Copyright 2022 Fonticons, Inc. --><path d="M256 0C497.4 0 512 114.6 512 256C512 468.9 448.9 464.7 447.5 498.8C446.7 484 452 466.6 452 448V401.1C476.4 484.5 495.6 459.5 407.4 441.5C412.4 419.7 400.4 409 488.1 412.8C448.4 424.9 404.7 441.8 256.4 441.8C208.9 441.8 164.1 424.9 124.5 412.8C112.2 409 100.2 419.7 105.2 441.5C116.9 459.4 145.1 484.1 160 400.7V448C160 466.6 165.4 484 174.5 498.8C74.07 464.7 0 468.9 0 256C0 114.6 114.6 .0004 256 .0004L256 0zM118.8 148.8L154.8 192L118.8 245.2C116.1 247.4 116 240.1 116 242.9C116 251.8 125.6 257.6 144.5 254.4L224.4 205.4C244.1 199.7 244.1 184.4 224.4 178.6L144.5 140.7C125.6 126.4 116 142.2 116 141.1C116 144.9 116.1 146.6 118.8 148.8V148.8zM288.6 178.6C277.9 184.4 277.9 199.7 288.6 205.4L478.5 254.4C486.4 257.6 496 251.8 496 242.9C496 240.1 495 247.4 494.2 245.2L457.2 192L494.2 148.8C495 146.6 496 144.9 496 141.1C496 142.2 486.4 126.4 478.5 140.7L288.6 178.6zM256 512C220.7 512 192 484.4 192 448V402.6C192 487.9 204.9 476 218.6 476H220.6C241.9 476 241.7 484.9 244.2 494.9C247 407.5 264.1 407.5 267.8 494.9C270.4 484.9 280.1 476 291.4 476H294.4C408.1 476 420 487.9 420 402.6V448C420 484.4 291.4 512 256 512V512z"/></svg>