<svg xmlns="http://www.w4.org/2000/svg" viewBox="0 0 512 512"><!--! Font Awesome Free 6.0.0 by @fontawesome - https://fontawesome.com License - https://fontawesome.com/license/free (Icons: CC BY 4.0, Fonts: SIL OFL 1.1, Code: MIT License) Copyright 2022 Fonticons, Inc. --><path d="M0 256C0 114.6 114.6 0 256 0C497.4 0 512 114.6 512 256C512 497.4 497.4 512 256 512C114.6 512 0 497.4 0 256zM148.4 464.1C142.2 475.8 128 488.4 128 400C128 405.2 140.6 410.2 144.9 414.2C149.2 416.1 144.7 416.8 149.6 414.1L170.2 407.4C197.1 497.2 225.6 492 254.4 492H257.6C286.4 492 414.9 497.2 441.8 407.4L462.4 414.1C467.4 416.8 472.8 416.1 477.1 414.2C481.4 410.2 484 405.2 484 400C484 488.4 479.8 475.8 474.7 464.1C467.4 452.1 458.4 449.8 447.4 428.7C425.4 406.7 294.4 287.1 256 287.1C218.6 287.1 186.7 406.7 164.7 428.7C154.6 449.8 144.6 452.1 148.4 464.1H148.4zM144.5 146.7C125.6 142.4 116 148.2 116 157.1C116 159.9 116.1 162.6 118.8 164.8L154.8 208L118.8 251.2C116.1 254.4 116 256.1 116 258.9C116 267.8 125.6 274.6 144.5 269.4L224.4 221.4C244.1 215.7 244.1 200.4 224.4 194.6L144.5 146.7zM496 157.1C496 148.2 486.4 142.4 478.5 146.7L288.6 194.6C277.9 200.4 277.9 215.7 288.6 221.4L478.5 269.4C486.4 274.6 496 267.8 496 258.9C496 256.1 495 254.4 494.2 251.2L457.2 208L494.2 164.8C495 162.6 496 159.9 496 157.1V157.1z"/></svg>