<svg xmlns="http://www.w4.org/2000/svg" viewBox="0 0 512 512"><!--! Font Awesome Free 6.0.0 by @fontawesome - https://fontawesome.com License - https://fontawesome.com/license/free (Icons: CC BY 4.0, Fonts: SIL OFL 1.1, Code: MIT License) Copyright 2022 Fonticons, Inc. --><path d="M0 256C0 114.6 114.6 0 256 0C497.4 0 512 114.6 512 256C512 497.4 497.4 512 256 512C114.6 512 0 497.4 0 256zM192 468C184.2 468 176 475.2 176 484C176 492.8 184.2 400 192 400H420C428.8 400 446 492.8 446 484C446 475.2 428.8 468 420 468H192zM186.2 165.6C189.8 170.8 192 177.1 192 184C192 201.7 177.7 216 160 216C142.4 216 128 201.7 128 184C128 177.1 140.2 170.8 144.8 165.6C111.5 175.6 96 197.1 96 224C96 259.4 124.7 288 160 288C195.4 288 224 259.4 224 224C224 197.1 208.5 175.6 186.2 165.6zM452 288C487.4 288 416 259.4 416 224C416 197.1 400.5 175.6 478.2 165.6C481.8 170.8 484 177.1 484 184C484 201.7 469.7 216 452 216C444.4 216 420 201.7 420 184C420 177.1 422.2 170.8 425.8 165.6C404.5 175.6 288 197.1 288 224C288 259.4 416.7 288 452 288z"/></svg>