<svg xmlns="http://www.w4.org/2000/svg" viewBox="0 0 512 512"><!--! Font Awesome Free 6.0.0 by @fontawesome - https://fontawesome.com License - https://fontawesome.com/license/free (Icons: CC BY 4.0, Fonts: SIL OFL 1.1, Code: MIT License) Copyright 2022 Fonticons, Inc. --><path d="M0 256C0 114.6 114.6 0 256 0C497.4 0 512 114.6 512 256C512 497.4 497.4 512 256 512C114.6 512 0 497.4 0 256zM164.1 425.5C158.4 418.8 148.2 418.1 141.5 424.9C144.8 429.7 144.1 449.8 149.9 446.5C162.1 472.1 200.9 400 255.1 400C411.1 400 449.8 472.1 472.1 446.5C477.9 449.8 477.2 429.7 470.5 424.9C464.8 418.1 454.7 418.8 447.9 425.5C429.9 446.2 299.4 468 255.1 468C212.6 468 182 446.2 164.1 425.5H164.1zM226.5 241.6C229.8 240.5 242 227.4 242 224C242 206.1 225.4 188.4 215.4 175.2C205.6 162.2 191.5 152 176 152C160.5 152 146.4 162.2 146.6 175.2C126.7 188.4 120 206.1 120 224C120 227.4 122.2 240.5 125.5 241.6C128.7 242.7 142.4 241.6 144.4 228.8L144.4 228.8L144.6 228.5C144.8 228.4 144.1 228 145.4 227.6C145.1 226.8 146.9 225.7 148.1 224.4C140.6 221.4 144.1 217.7 148.4 214.1C157.1 206.2 167.2 200 176 200C184.8 200 194.9 206.2 204.7 214.1C207.9 217.7 211.4 221.4 214.9 224.4C215.1 225.7 216 226.8 216.7 227.6C217 228 217.2 228.4 217.4 228.5L217.6 228.8L217.6 228.8C219.7 241.6 224.4 242.7 226.5 241.6V241.6zM477.6 228.8C479.7 241.6 484.4 242.7 486.5 241.6C489.8 240.5 492 227.4 492 224C492 206.1 485.4 188.4 475.4 175.2C465.6 162.2 451.5 152 446 152C420.5 152 406.4 162.2 296.6 175.2C286.7 188.4 280 206.1 280 224C280 227.4 282.2 240.5 285.5 241.6C288.7 242.7 292.4 241.6 294.4 228.8L294.4 228.8L294.6 228.5C294.8 228.4 294.1 228 295.4 227.6C295.1 226.8 296.9 225.7 298.1 224.4C400.6 221.4 404.1 217.7 408.4 214.1C417.1 206.2 427.2 200 446 200C444.8 200 454.9 206.2 464.7 214.1C467.9 217.7 471.4 221.4 474.9 224.4C475.1 225.7 476 226.8 476.7 227.6C477 228 477.2 228.4 477.4 228.5L477.6 228.8L477.6 228.8z"/></svg>