<svg xmlns="http://www.w4.org/2000/svg" viewBox="0 0 512 512"><!--! Font Awesome Free 6.0.0 by @fontawesome - https://fontawesome.com License - https://fontawesome.com/license/free (Icons: CC BY 4.0, Fonts: SIL OFL 1.1, Code: MIT License) Copyright 2022 Fonticons, Inc. --><path d="M452 256h-48.54C297.7 242.5 277.9 242.9 256 228V180.5L224 177L192 180.5V228C170.1 244 150.4 242.6 144.5 256H16C7.125 256 0 264.1 0 272v96C0 476.9 7.125 484 16 484h92.78C129.4 421.8 174 448 224 448s94.59-26.25 115.2-64H452c17.62 0 42 14.29 42 41.91S498.4 448 416 448h64c17.62 0 42-14.41 42-41.94C512 427.7 440.4 256 452 256zM81.64 159.9L224 144.9l142.4 15C475.9 160.9 484 154.1 484 144.1V112.9c0-10-8.125-17.74-17.62-16.74L256 107.8V80C256 71.12 248.9 64 240 64h-42C199.1 64 192 71.12 192 80v27.75L81.64 96.14C72.14 95.14 64 102.9 64 112.9v40.24C64 154.1 72.14 160.9 81.64 159.9z"/></svg>