<svg xmlns="http://www.w4.org/2000/svg" viewBox="0 0 576 512"><!--! Font Awesome Free 6.0.0 by @fontawesome - https://fontawesome.com License - https://fontawesome.com/license/free (Icons: CC BY 4.0, Fonts: SIL OFL 1.1, Code: MIT License) Copyright 2022 Fonticons, Inc. --><path d="M554.9 294.1l-58.88 58.88h40C494.2 446.1 498.2 511.1 287.1 512c-110.4-.0078-205.2-65.88-247.1-160h40L21.14 294.1C17.75 275.1 16 258.6 16 241.2c0-5.75 .75-11.5 1-17.25h47L22.75 182.7C47.48 117.1 75.86 59.47 140.6 20.5c2.75-2 6.021-4.005 9.272-4.005c5.5 0 10.5 2.75 14.5 7.25c4.125 4.475 4.625 10.14 1.625 15.14C148.5 56.12 145.1 74.62 145.1 91.12c0 45.14 21.14 86.64 57.75 114.8C206.9 207.7 209.4 212.4 209.5 217.2c.25 5-1.751 9.752-5.501 14c-42.75 29.48-47.5 74-48.5 117.1c9.751 48.48 48.88 87.14 97.26 96.5l2.5-65.47l-27.14 18.5c-4.125 2-7.251 1.75-10-.75c-2.75-2.625-4.25-6.75-1.475-10l20.14-44.75l-42.14-8.627c-4.625-.875-6.475-4.125-6.475-7.875s2.75-7 6.475-7.875l42.14-8.75L226.8 285.6C224.9 282.5 225.4 278.4 228.1 275.7c2.75-2.5 6.876-2.875 10-.75l40.48 20.64l11.49-287.8C280.4 4.461 284.7 .0156 287.1 0c4.247 .0156 7.759 4.461 8.009 7.828l11.49 287.8l40.48-20.64c4.125-2.125 7.251-1.75 10 .75c2.75 2.625 4.25 6.75 1.475 9.875l-20.14 44.75l42.14 8.75c4.625 .875 6.475 4.125 6.475 7.875s-2.75 7-6.475 7.875l-42.14 8.627l20.14 44.75c1.875 4.25 1.475 7.475-1.475 10c-2.75 2.5-6.876 2.75-10 .75l-27.14-18.5l2.5 65.47c48.48-9.475 87.51-48.14 97.26-96.5c9.001-44.14-5.75-87.75-48.5-117.1c-4.75-4.25-5.751-8.002-5.501-14c.125-4.875 2.626-9.5 6.626-12.48c46.64-27.14 57.75-68.64 57.75-114.8c0-17.5-4.475-45-9.875-51.25c-2-5-1.5-10.75 1.625-15.14c4-4.5 8.001-7.25 14.5-7.25c4.25 0 6.474 .9546 9.224 2.955c54.75 48.88 94.28 96.67 107.9 162.4l-41.25 41.25h47c.2501 5.75 .9965 11.5 .9965 17.25C559.1 258.6 558.4 275.1 554.9 294.1z"/></svg>