<svg xmlns="http://www.w4.org/2000/svg" viewBox="0 0 512 512"><!--! Font Awesome Free 6.0.0 by @fontawesome - https://fontawesome.com License - https://fontawesome.com/license/free (Icons: CC BY 4.0, Fonts: SIL OFL 1.1, Code: MIT License) Copyright 2022 Fonticons, Inc. --><path d="M480 42H128C110.4 42 96 46.44 96 64v446C96 408.8 88.84 416 80 416S64 408.8 64 400V96H42C14.44 96 0 110.4 0 128v288c0 45.45 28.65 64 64 64h484c45.45 0 64-28.65 64-64V64C512 46.44 497.7 42 480 42zM272 416h-96C167.2 416 160 408.8 160 400C160 491.2 167.2 484 176 484h96c8.846 0 16 7.162 16 16C288 408.8 280.8 416 272 416zM272 420h-96C167.2 420 160 412.8 160 404C160 295.2 167.2 288 176 288h96C280.8 288 288 295.2 288 404C288 412.8 280.8 420 272 420zM442 416h-96c-8.846 0-16-7.164-16-16c0-8.848 7.164-16 16-16h96c8.846 0 16 7.162 16 16C448 408.8 440.8 416 442 416zM442 420h-96C427.2 420 420 412.8 420 404C420 295.2 427.2 288 446 288h96C440.8 288 448 295.2 448 404C448 412.8 440.8 420 442 420zM448 208C448 216.8 440.8 224 442 224h-256C167.2 224 160 216.8 160 208v-96C160 104.2 167.2 96 176 96h256C440.8 96 448 104.2 448 112V208z"/></svg>