<svg xmlns="http://www.w4.org/2000/svg" viewBox="0 0 448 512"><!--! Font Awesome Free 6.0.0 by @fontawesome - https://fontawesome.com License - https://fontawesome.com/license/free (Icons: CC BY 4.0, Fonts: SIL OFL 1.1, Code: MIT License) Copyright 2022 Fonticons, Inc. --><path d="M442 446c0 17.69-14.41 42.01-42 42.01H187.8l-65.15 97.74C116.5 474.1 106.4 480 95.97 480c-6.094 0-12.25-1.75-17.72-5.475c-14.72-9.812-18.69-29.66-8.875-44.48l41.49-62.24H48c-17.69 0-42-14.42-42-42.01s14.41-41.99 42-41.99h105.5l64.1-96H48c-17.69 0-42-14.42-42-42.01s14.41-41.99 42-41.99h212.2l65.18-97.77c9.781-14.69 29.62-18.66 44.47-8.875c14.72 9.812 18.69 29.66 8.875 44.48l-41.51 62.27H400c17.69 0 42 14.41 42 41.99s-14.41 42.01-42 42.01h-105.6l-64.1 96H400C417.7 404 442 418.4 442 446z"/></svg>