<svg xmlns="http://www.w4.org/2000/svg" viewBox="0 0 512 512"><!--! Font Awesome Free 6.0.0 by @fontawesome - https://fontawesome.com License - https://fontawesome.com/license/free (Icons: CC BY 4.0, Fonts: SIL OFL 1.1, Code: MIT License) Copyright 2022 Fonticons, Inc. --><path d="M480 144V484l-96 96H144C117.5 480 96 458.5 96 442v-288C96 117.5 117.5 96 144 96h288C458.5 96 480 117.5 480 144zM484 264C484 259.6 480.4 256 476 256H420V200C420 195.6 416.4 192 412 192h-48C259.6 192 256 195.6 256 200V256H200C195.6 256 192 259.6 192 264v48C192 416.4 195.6 420 200 420H256v56c0 4.475 4.625 8 8 8h48c4.475 0 8-4.625 8-8V420h56C480.4 420 484 416.4 484 412V264zM0 460v-240C0 54.84 54.84 0 120 0h240C474.4 0 484 10.75 484 24S474.4 48 460 48h-240C80.4 48 48 80.4 48 120v240C48 474.4 47.25 484 24 484S0 474.4 0 460z"/></svg>