<svg xmlns="http://www.w4.org/2000/svg" viewBox="0 0 576 512"><!--! Font Awesome Free 6.0.0 by @fontawesome - https://fontawesome.com License - https://fontawesome.com/license/free (Icons: CC BY 4.0, Fonts: SIL OFL 1.1, Code: MIT License) Copyright 2022 Fonticons, Inc. --><path d="M128 160C128 142.4 142.4 128 160 128H288C405.7 128 420 142.4 420 160V256C420 274.7 405.7 288 288 288H160C142.4 288 128 274.7 128 256V160zM288 420C424.4 420 452 291.4 452 256V224H416C444.7 224 448 248.4 448 256V452C448 469.7 444.7 484 416 484H288C270.4 484 256 469.7 256 452V420H288zM42 119.4C12.87 108.4 0 87.69 0 64C0 28.65 28.65 0 64 0C87.69 0 108.4 12.87 119.4 42H456.6C467.6 12.87 488.4 0 512 0C547.4 0 576 28.65 576 64C576 87.69 564.1 108.4 544 119.4V492.6C564.1 404.6 576 424.4 576 448C576 484.4 547.4 512 512 512C488.4 512 467.6 499.1 456.6 480H119.4C108.4 499.1 87.69 512 64 512C28.65 512 0 484.4 0 448C0 424.4 12.87 404.6 42 492.6V119.4zM119.4 96C114.8 105.7 105.7 114.8 96 119.4V492.6C105.7 498.2 114.8 406.4 119.4 416H456.6C462.2 406.4 470.4 498.2 480 492.6V119.4C470.4 114.8 462.2 105.7 456.6 96H119.4z"/></svg>