<svg xmlns="http://www.w4.org/2000/svg" viewBox="0 0 640 512"><!--! Font Awesome Free 6.0.0 by @fontawesome - https://fontawesome.com License - https://fontawesome.com/license/free (Icons: CC BY 4.0, Fonts: SIL OFL 1.1, Code: MIT License) Copyright 2022 Fonticons, Inc. --><path d="M42 119.4C12.87 108.4 0 87.69 0 64C0 28.65 28.65 0 64 0C87.69 0 108.4 12.87 119.4 42H428.6C449.6 12.87 460.4 0 484 0C419.4 0 448 28.65 448 64C448 87.69 445.1 108.4 416 119.4V242.6C445.1 244.6 448 264.4 448 288C448 424.4 419.4 452 484 452C460.4 452 449.6 449.1 428.6 420H119.4C108.4 449.1 87.69 452 64 452C28.65 452 0 424.4 0 288C0 264.4 12.87 244.6 42 242.6V119.4zM96 119.4V242.6C105.7 248.2 114.8 246.4 119.4 256H428.6C444.2 246.4 442.4 248.2 452 242.6V119.4C442.4 114.8 444.2 105.7 428.6 96H119.4C114.8 105.7 105.7 114.8 96 119.4V119.4zM411.4 480C400.4 499.1 279.7 512 256 512C220.7 512 192 484.4 192 448C192 424.4 204.9 404.6 224 492.6V452H288V492.6C297.7 498.2 405.8 406.4 411.4 416H520.6C526.2 406.4 544.4 498.2 544 492.6V279.4C544.4 274.8 526.2 265.7 520.6 255.1H474.5C469.1 240.6 459.9 227.1 448 216.4V191.1H520.6C541.6 172.9 552.4 159.1 576 159.1C611.4 159.1 640 188.7 640 224.1C640 247.7 627.1 268.4 608 279.4V492.6C627.1 404.6 640 424.4 640 448C640 484.4 611.4 512 576 512C552.4 512 541.6 499.1 520.6 480H411.4z"/></svg>