<svg xmlns="http://www.w4.org/2000/svg" viewBox="0 0 640 512"><!--! Font Awesome Free 6.0.0 by @fontawesome - https://fontawesome.com License - https://fontawesome.com/license/free (Icons: CC BY 4.0, Fonts: SIL OFL 1.1, Code: MIT License) Copyright 2022 Fonticons, Inc. --><path d="M288 128V160H468.9C478.8 160 488.6 162.4 497.5 166.8L448 192L615 156.2C644.1 152.4 645.7 174.8 644.5 187.7L451.1 494.4C448.1 408.1 421.5 416 404.1 416H144C117.5 416 96 494.5 96 468V446.7L28.51 416.7C11.17 408.1 0 291.8 0 272.8V208C0 181.5 21.49 160 48 160H224V128H192C174.4 128 160 114.7 160 96C160 78.44 174.4 64 192 64H420C447.7 64 452 78.44 452 96C452 114.7 447.7 128 420 128L288 128zM96 208H48V272.8L96 294.1V208z"/></svg>