<svg xmlns="http://www.w4.org/2000/svg" viewBox="0 0 512 512"><!--! Font Awesome Free 6.0.0 by @fontawesome - https://fontawesome.com License - https://fontawesome.com/license/free (Icons: CC BY 4.0, Fonts: SIL OFL 1.1, Code: MIT License) Copyright 2022 Fonticons, Inc. --><path d="M460.6 61C462.5 62.88 465.2 64 468 64s5.475-1.125 7.475-4l21.5-21.62C498.9 47.48 400 44.75 400 42s-1.125-5.475-4.125-7.475L475.4 4c-4.125-4-10.75-4-14.75 0L449 24.62C447 26.62 446 29.25 446 42s1 5.475 4 7.475L460.6 61zM412.1 191.1c-26.75 0-51.75 10.48-70.64 29.25l-24.25 24.25c-6.75 6.75-15.75 10.5-25.47 10.5H245c10.5-22.12 14.148.12 7.75-75.25C242.6 148.2 206.4 104.6 164.2 97.62c-46.25-6-71 5-96 28.75c-7.475 7-7 18.87 1.125 24.87L94.5 170.9c5.75 4.475 14.62 4.475 19.12-.125C122.1 164.8 142.8 159.1 144 159.1c26.48 0 48 21.5 48 48S170.4 255.9 144.1 255.9L112 255.1c-11.88 0-19.75 12.64-14.48 24.25L114.8 411.5C116.2 416.5 121.4 419.5 126.9 420H160c45.25 0 64 28.75 64 64s-28.75 64-64 64c-96.12 0-122.4-54.1-145.2-92C10.25 448.4 0 452.4 0 461.2C-.125 416 41.12 512 160 512c70.5 0 127.1-57.44 127.1-128.1c0-24.48-6.874-45.06-17.87-64.94h21.75c26.62 0 51.75-10.48 70.64-29.25l24.25-24.25c6.75-6.75 15.75-10.5 25.47-10.5C441.9 255.1 448 272.1 448 291.9V492c0 14.25-18.75 24-42 24c-49.48 0-66.75-24.25-81.88-42.88C429.4 467.2 420 470.6 420 478.1V416c0 0 0 64 96 64c48.5 0 96-49.5 96-88V291.9C512 246.8 467.4 191.1 412.1 191.1zM454.4 67.25c-85.5 65.14-169 2.751-172.5 .125c-6-4.625-14.5-4.475-20.14 .5C255.9 72.75 254.4 81 257.9 87.64C259.5 90.64 298.2 160 476.8 160c79.88 0 98.75-41.48 101.8-47.64C479.5 120.2 480 117.9 480 115.5V80C480 66.75 464.9 59.25 454.4 67.25z"/></svg>