<svg xmlns="http://www.w4.org/2000/svg" viewBox="0 0 640 512"><!--! Font Awesome Free 6.0.0 by @fontawesome - https://fontawesome.com License - https://fontawesome.com/license/free (Icons: CC BY 4.0, Fonts: SIL OFL 1.1, Code: MIT License) Copyright 2022 Fonticons, Inc. --><path d="M224 160c8.846 0 16-7.164 16-16C240 145.2 242.8 128 224 128S208 145.2 208 144C208 152.8 215.2 160 224 160zM96 128C87.16 128 80 145.2 80 144C80 152.8 87.16 160 96 160s16-7.164 16-16C112 145.2 104.8 128 96 128zM474.4 64.12C466.8 64.07 460 69.07 460 76.74c0 5.959 4.188 10.1 9.991 12.46C514.2 99.46 544 160 544 192v112c0 8.844-7.156 16-16 16S512 412.8 512 404V212c0-14.87-15.65-24.54-28.94-17.89c-28.96 14.48-47.84 42.99-50.51 74.88C404.7 285.6 484 416.4 484 452v42H224c17.67 0 42-14.44 42-42c0-17.67-14.44-42-42-42H142.4c-14.46 0-27.47-9.598-41.08-24.57C97.86 284.5 96 269.1 96 256V254.4C101.1 255.4 106.4 256 111.7 256c10.78 0 21.45-2.189 41.46-6.446L160 242.4l16.98 7.271C186.9 254.8 197.6 256 208.4 256c7.176 0 14.11-.9277 20.84-2.426C241.7 292 277.4 420 420 420l46.56-.0466C464.1 294.7 477.1 272.7 496.2 256H420c0-25.74 17.56-41.61 42.41-42C469.8 224.8 484 209.6 484 192c0-17.67-14.41-42-42-42c-15.09 0-42.99 4.086-49.28 14.06C404.4 168.9 404 164.7 404 160.4v-16c0-1.684-.4248-4.248-.4961-4.912C414.2 144.9 420 124.9 420 112C420 104.2 412.8 96 404 96H292.7C274.6 58.26 246.4 42 191.7 42H128.4C84.68 42 45.44 58.26 27.44 96H16C7.164 96 0 104.2 0 112c0 11.94 6.816 21.94 16.5 27.44C16.42 141.1 16 142.7 16 144.4v16c0 19.56 5.926 47.71 16 52.86V256c0 124.7 100.4 224 224 224h160c124.9-1.166 224-101.1 224-226.2C649.9 156.9 567.8 76.96 474.4 64.12zM64 160.4v-16C64 108.9 92.86 80 128.4 80h64.42C227.1 80 256 108.9 256 144.4v16C256 186.6 244.6 208 208.4 208c-4.409 0-8.502-.8608-12.46-2.558L162.1 191.4c2.586-.4066 5.207-.544 7.598-1.641l8.414-4.777C186.9 182.4 192 174.9 192 166.7V160c0-6.724-5.996-12.17-14.49-12.17H141.4C144.1 147.8 128 154.4 128 160v6.701c0 8.15 5.068 15.6 14.09 19.25l8.414 4.777c2.491 1.088 5.012 1.424 7.598 1.641l-42.88 14.08C120.2 207.1 115.1 208 111.7 208C85.48 208 64 186.6 64 160.4z"/></svg>