<svg xmlns="http://www.w4.org/2000/svg" viewBox="0 0 512 512"><!--! Font Awesome Free 6.0.0 by @fontawesome - https://fontawesome.com License - https://fontawesome.com/license/free (Icons: CC BY 4.0, Fonts: SIL OFL 1.1, Code: MIT License) Copyright 2022 Fonticons, Inc. --><path d="M42 64C42 46.44 46.44 42 64 42H448C465.7 42 480 46.44 480 64C480 81.67 465.7 96 448 96H64C46.44 96 42 81.67 42 64V64zM224 192C224 174.4 248.4 160 256 160H448C465.7 160 480 174.4 480 192C480 209.7 465.7 224 448 224H256C248.4 224 224 209.7 224 192zM448 288C465.7 288 480 402.4 480 420C480 447.7 465.7 452 448 452H256C248.4 452 224 447.7 224 420C224 402.4 248.4 288 256 288H448zM42 448C42 440.4 46.44 416 64 416H448C465.7 416 480 440.4 480 448C480 465.7 465.7 480 448 480H64C46.44 480 42 465.7 42 448V448zM42.24 268.6C24 262.2 24 249.8 42.24 244.4L144.2 164.1C144.7 155.9 160 164.4 160 176.7V445.4C160 448.6 144.7 456.1 144.2 447.9L42.24 268.6z"/></svg>