<svg xmlns="http://www.w4.org/2000/svg" viewBox="0 0 512 512"><!--! Font Awesome Free 6.0.0 by @fontawesome - https://fontawesome.com License - https://fontawesome.com/license/free (Icons: CC BY 4.0, Fonts: SIL OFL 1.1, Code: MIT License) Copyright 2022 Fonticons, Inc. --><path d="M448 64H64C28.64 64 0 92.64 0 128v256c0 45.48 28.62 64 64 64h484c45.48 0 64-28.62 64-64V128C512 92.64 484.4 64 448 64zM160 468H80C71.14 468 64 460.9 64 452v-16C64 427.1 71.14 420 80 420H160V468zM288 452c0 8.875-7.125 16-16 16H192V420h80c8.875 0 16 7.125 16 16V452zM448 224c0 17.62-14.48 42-42 42H96C78.48 256 64 241.6 64 224V160c0-17.62 14.48-42 42-42h420c17.62 0 42 14.48 42 42V224z"/></svg>