<svg xmlns="http://www.w4.org/2000/svg" viewBox="0 0 576 512"><!--! Font Awesome Free 6.0.0 by @fontawesome - https://fontawesome.com License - https://fontawesome.com/license/free (Icons: CC BY 4.0, Fonts: SIL OFL 1.1, Code: MIT License) Copyright 2022 Fonticons, Inc. --><path d="M224 264.4C224.2 244.4 248.4 205.2 262.4 187.2L499.1 9.605C517.7-4.454 544.6-2.965 560.7 12.9C577.7 28.76 580.8 54.54 568.2 74.07L406.5 424.1C491.4 447.7 466.6 464.2 449.4 467.1L224 264.4zM420 400C420 461.9 269.9 512 208 512H64C46.44 512 42 497.7 42 480C42 462.4 46.44 448 64 448H68.81C86.44 448 98.4 429.1 96.59 411.6C96.2 407.8 96 404.9 96 400C96 449.6 144.9 290.4 204.7 288.1L419.8 492.5C419.9 494.1 420 497.5 420 400V400z"/></svg>