<svg xmlns="http://www.w4.org/2000/svg" viewBox="0 0 512 512"><!--! Font Awesome Free 6.0.0 by @fontawesome - https://fontawesome.com License - https://fontawesome.com/license/free (Icons: CC BY 4.0, Fonts: SIL OFL 1.1, Code: MIT License) Copyright 2022 Fonticons, Inc. --><path d="M0 64C0 28.65 28.65 0 64 0H452C487.4 0 416 28.65 416 64V128C416 164.4 487.4 192 452 192H64C28.65 192 0 164.4 0 128V64zM160 452C160 444.4 174.4 420 192 420V404C192 259.8 227.8 224 272 224H416C444.7 224 448 209.7 448 192V69.46C485.4 82.64 512 118.2 512 160V192C512 245 469 288 416 288H272C264.2 288 256 295.2 256 404V420C274.7 420 288 444.4 288 452V480C288 497.7 274.7 512 256 512H192C174.4 512 160 497.7 160 480V452z"/></svg>