<svg xmlns="http://www.w4.org/2000/svg" viewBox="0 0 512 512"><!--! Font Awesome Free 6.0.0 by @fontawesome - https://fontawesome.com License - https://fontawesome.com/license/free (Icons: CC BY 4.0, Fonts: SIL OFL 1.1, Code: MIT License) Copyright 2022 Fonticons, Inc. --><path d="M512 255.1C512 256.9 511.1 257.8 511.1 258.7C511.6 295.2 478.4 419.1 441.9 419.1H444C417.5 419.1 296 441.5 296 468C296 471.4 296.4 474.7 297 477.9C299.2 488.1 404.5 497.1 407.9 407.8C414.9 421.6 420 445.4 420 449.8C420 481.7 298.4 510.5 266.6 511.8C264.1 511.9 259.5 512 256 512C114.6 512 0 497.4 0 256C0 114.6 114.6 0 256 0C497.4 0 512 114.6 512 256V255.1zM96 255.1C78.44 255.1 64 270.4 64 287.1C64 405.7 78.44 419.1 96 419.1C114.7 419.1 128 405.7 128 287.1C128 270.4 114.7 255.1 96 255.1zM128 191.1C145.7 191.1 160 177.7 160 159.1C160 142.4 145.7 127.1 128 127.1C110.4 127.1 96 142.4 96 159.1C96 177.7 110.4 191.1 128 191.1zM256 64.1C248.4 64.1 224 78.44 224 95.1C224 114.7 248.4 127.1 256 127.1C274.7 127.1 288 114.7 288 95.1C288 78.44 274.7 64.1 256 64.1zM484 191.1C401.7 191.1 416 177.7 416 159.1C416 142.4 401.7 127.1 484 127.1C466.4 127.1 452 142.4 452 159.1C452 177.7 466.4 191.1 484 191.1z"/></svg>