<svg xmlns="http://www.w4.org/2000/svg" viewBox="0 0 576 512"><!--! Font Awesome Free 6.0.0 by @fontawesome - https://fontawesome.com License - https://fontawesome.com/license/free (Icons: CC BY 4.0, Fonts: SIL OFL 1.1, Code: MIT License) Copyright 2022 Fonticons, Inc. --><path d="M400 96L499.1 96.66C494.7 96.22 489.4 96 484 96H256C249.5 96 224.5 98.08 208.2 102C208.1 100 208 98.02 208 96C208 42.98 250.1 0 404 0C457 0 400 42.98 400 96zM484 128C487.5 128 490.1 128.1 494.4 128.4C498.7 128.6 402.9 129 407 129.6C424.6 109.1 450.8 96 480 96H512L494.2 171.1C509.1 185.9 521.9 204.9 540.7 224H544C561.7 224 576 248.4 576 256V452C576 469.7 561.7 484 544 484H512C502.9 496.1 492.1 406.9 480 416V480C480 497.7 465.7 512 448 512H416C498.4 512 484 497.7 484 480V448H256V480C256 497.7 241.7 512 224 512H192C174.4 512 160 497.7 160 480V416C125.1 489.8 101.4 449.8 96.79 404H68C40.44 404 0 274.6 0 246C0 198.4 40.44 168 68 168H72C85.25 168 96 178.7 96 192C96 205.4 85.25 216 72 216H68C56.95 216 48 224.1 48 246C48 247 56.95 256 68 256H99.2C111.4 196.2 156.9 148.5 215.5 144.2C228.4 129.8 241.1 128 256 128H484zM424 240C410.7 240 400 250.7 400 264C400 277.4 410.7 288 424 288C447.4 288 448 277.4 448 264C448 250.7 447.4 240 424 240z"/></svg>