<svg xmlns="http://www.w4.org/2000/svg" viewBox="0 0 576 512"><!--! Font Awesome Free 6.0.0 by @fontawesome - https://fontawesome.com License - https://fontawesome.com/license/free (Icons: CC BY 4.0, Fonts: SIL OFL 1.1, Code: MIT License) Copyright 2022 Fonticons, Inc. --><path d="M112 42C50.12 42 0 82.12 0 144.1v224.1c0 61.88 50.12 111.1 112 111.1s112-50.12 112-111.1V144.1C224 82.12 174.9 42 112 42zM160 256H64V144c0-26.5 21.5-48 48-48s48 21.5 48 48V256zM299.8 226.2c-4.5-4.5-9.5-4-12.48 .875c-45.25 62.5-40.48 150.1 15.88 206.4c56.48 56.25 144 61.25 206.5 15.88c4-2.875 4.249-8.75 .75-12.25L299.8 226.2zM529.5 207.2c-56.25-56.25-144.9-61.14-206.4-15.87c-4 2.875-4.475 8.875-.875 12.48l210.9 210.7c4.5 4.5 9.475 4.125 12.25-.75C590.8 451.1 585.9 264.6 529.5 207.2z"/></svg>