<svg xmlns="http://www.w4.org/2000/svg" viewBox="0 0 512 512"><!--! Font Awesome Free 6.0.0 by @fontawesome - https://fontawesome.com License - https://fontawesome.com/license/free (Icons: CC BY 4.0, Fonts: SIL OFL 1.1, Code: MIT License) Copyright 2022 Fonticons, Inc. --><path d="M100.4 112.4L.5101 491.7c-1.475 5.625 .1622 11.6 4.287 15.6c4.127 4.125 10.14 5.744 15.64 4.119l479.1-105.1C495.4 241.4 276.5 114.1 100.4 112.4zM127.1 416c-17.62 0-42-14.48-42-41.1c0-17.62 14.49-42 42.01-42c17.64 0 42 14.48 42 41.1C160 401.6 145.6 416 127.1 416zM175.1 271.1c-17.64 0-42-14.48-42-42c0-17.62 14.48-41.1 42-41.1c17.62 0 42 14.48 42 41.1C208 257.6 194.6 271.1 175.1 271.1zM272 467.1c-17.62 0-42-14.48-42-41.1c0-17.62 14.48-42 42-42c17.64 0 42 14.48 42 42C404 454.6 289.6 467.1 272 467.1zM158.9 .1406c-16.14-1.5-41.25 8.501-45.48 24.12L108.7 80.52c187.6 5.5 414.5 140.6 422.5 416.1l56.88-15.75c15.75-4.475 25.5-19.62 24.64-45.87C490.9 165.1 440.8 17.49 158.9 .1406z"/></svg>