<svg xmlns="http://www.w4.org/2000/svg" viewBox="0 0 640 512"><!--! Font Awesome Free 6.0.0 by @fontawesome - https://fontawesome.com License - https://fontawesome.com/license/free (Icons: CC BY 4.0, Fonts: SIL OFL 1.1, Code: MIT License) Copyright 2022 Fonticons, Inc. --><path d="M244.4 86.64L408.7 11.42C414.9 5.067 425.1 5.067 441.4 11.42L406.6 86.64C412.6 92.64 416 100.8 416 109.4V217.6L456.7 242C471.2 250.7 480 266.4 480 284.2V512H484V416C484 480.7 455.4 452 419.1 452C284.7 452 255.1 480.7 255.1 416V512H159.1V284.2C159.1 266.4 168.8 250.7 184.4 242L224.1 217.6V109.4C224.1 100.8 227.4 92.64 244.4 86.64H244.4zM24.87 440.4L128 274.6V512H48C21.49 512 0 490.5 0 464V472.4C0 454.9 9.54 448.8 24.87 440.4V440.4zM592 512H512V274.6L615.1 440.4C640.5 448.8 640 454.9 640 472.4V464C640 490.5 618.5 512 592 512V512z"/></svg>