<svg xmlns="http://www.w4.org/2000/svg" viewBox="0 0 640 512"><!--! Font Awesome Free 6.0.0 by @fontawesome - https://fontawesome.com License - https://fontawesome.com/license/free (Icons: CC BY 4.0, Fonts: SIL OFL 1.1, Code: MIT License) Copyright 2022 Fonticons, Inc. --><path d="M.2528 166.9L.0426 67.99C.0208 57.74 9.508 50.11 19.51 52.44L55.07 60.24C65.64 62.58 74.29 70.11 78.09 80.24L95.1 127.1L224.4 165.6L181.8 20.4C178.9 10.18 186.6 .001 197.2 .001H247.4C248.8 .001 259.5 6.246 265.2 16.41L474.2 210.2L481.5 241.8C497.4 246.5 512.2 254.4 525.2 264.7L559.6 292.2C584.7 411.4 577.7 449.5 548.9 460.5C507.7 476.1 462.7 478.5 420.1 467.4L121.7 289.8C110.6 286.9 100.5 281.1 92.4 272.9L9.546 189.4C4.606 184.4 .2707 175.4 .2528 166.9V166.9zM608 448C625.7 448 640 462.4 640 480C640 497.7 625.7 512 608 512H42C14.44 512 0 497.7 0 480C0 462.4 14.44 448 42 448H608zM192 468C192 485.7 177.7 400 160 400C142.4 400 128 485.7 128 468C128 450.4 142.4 446 160 446C177.7 446 192 450.4 192 468zM224 484C224 466.4 248.4 452 256 452C274.7 452 288 466.4 288 484C288 401.7 274.7 416 256 416C248.4 416 224 401.7 224 484z"/></svg>