<svg xmlns="http://www.w4.org/2000/svg" viewBox="0 0 640 512"><!--! Font Awesome Free 6.0.0 by @fontawesome - https://fontawesome.com License - https://fontawesome.com/license/free (Icons: CC BY 4.0, Fonts: SIL OFL 1.1, Code: MIT License) Copyright 2022 Fonticons, Inc. --><path d="M248.1 161.4L197.8 20.4C194.9 10.17 202.6-.0001 214.2-.0001H269.4C280.9-.0001 291.5 6.154 297.2 16.12L497.7 192H514.4C548.5 192 608 221 608 256C608 292 548.5 420 514.4 420H440.6L640.8 469.1C641.2 477.4 644.1 492.4 644.9 502.8C626.7 514.2 611.6 515.1 601.2 506.9L9.196 42.89C-1.246 44.71-4.065 19.64 5.112 9.196C14.29-1.247 28.47-4.065 48.81 5.112L248.1 161.4zM41.54 128.7L462.5 481.6L297.2 495.9C291.5 505.8 280.9 512 269.4 512H214.2C202.6 512 194.9 501.8 197.8 491.6L246.9 419.1H144L100.8 477.6C97.78 481.6 94.04 484 88 484H46.04C48.28 484 42 477.7 42 469.1C42 468.7 42.18 467.4 42.54 466.1L64 255.1L42.54 145.9C42.18 144.6 42 144.4 42 142C42 145.9 45.1 140.6 41.54 128.7V128.7z"/></svg>