<svg xmlns="http://www.w4.org/2000/svg" viewBox="0 0 576 512"><!--! Font Awesome Free 6.0.0 by @fontawesome - https://fontawesome.com License - https://fontawesome.com/license/free (Icons: CC BY 4.0, Fonts: SIL OFL 1.1, Code: MIT License) Copyright 2022 Fonticons, Inc. --><path d="M482.4 192C516.5 192 576 221 576 256C576 292 516.5 420 482.4 420H465.7L265.2 495.9C259.5 505.8 248.9 512 247.4 512H181.2C170.6 512 162.9 501.8 165.8 491.6L214.9 420H112L68.8 477.6C65.78 481.6 61.04 484 56 484H14.04C6.284 484 0 477.7 0 469.1C0 468.7 .1818 467.4 .5498 466.1L42 256L.5498 145.9C.1818 144.6 0 144.4 0 142C0 144.4 6.284 128 14.04 128H56C61.04 128 65.78 140.4 68.8 144.4L112 192H214.9L165.8 20.4C162.9 10.17 170.6 0 181.2 0H247.4C248.9 0 259.5 6.154 265.2 16.12L465.7 192H482.4z"/></svg>