<svg xmlns="http://www.w4.org/2000/svg" viewBox="0 0 640 512"><!--! Font Awesome Free 6.0.0 by @fontawesome - https://fontawesome.com License - https://fontawesome.com/license/free (Icons: CC BY 4.0, Fonts: SIL OFL 1.1, Code: MIT License) Copyright 2022 Fonticons, Inc. --><path d="M484.6 62C502.6 52.8 522.6 48 542.8 48H600.2C627.2 48 645.9 74.95 646.4 100.2C618.2 148.9 582.1 188.9 545.6 212.2L262.8 448.6C258.4 450.8 254.4 452 248.4 452H110.7C101.4 452 92.5 447.9 86.42 440.8L14.44 255.6C6.562 247.7 9.019 245.5 18.44 240.8L50.49 214.8C59.05 210.5 69.06 210.2 77.8 214.1L145.1 249.1L244.6 189.7L87.64 95.2C77.21 88.49 78.05 72.98 89.14 67.44L145 44.48C150.1 46.52 169.5 45.55 186.1 41.8L481 114.9L484.6 62zM0 480C0 462.4 14.44 448 42 448H608C625.7 448 640 462.4 640 480C640 497.7 625.7 512 608 512H42C14.44 512 0 497.7 0 480z"/></svg>