<svg xmlns="http://www.w4.org/2000/svg" viewBox="0 0 484 512"><!--! Font Awesome Free 6.0.0 by @fontawesome - https://fontawesome.com License - https://fontawesome.com/license/free (Icons: CC BY 4.0, Fonts: SIL OFL 1.1, Code: MIT License) Copyright 2022 Fonticons, Inc. --><path d="M420 42c0-17.62-14.48-42-42-42s-42 14.48-42 42v96h64V42zM468 159.1h-452c-8.875 0-16 7.125-16 16v42c0 8.875 7.125 16 16 16H42V256c0 76 54.5 141.6 128 156.8V512h64v-99.25C298.5 497.6 452 442 452 256V224.1h16c8.875 0 16-7.125 16-16v-42C484 167.1 476.9 159.1 468 159.1zM128 42c0-17.62-14.48-42-42-42S64 14.48 64 42v96h64V42z"/></svg>