<svg xmlns="http://www.w4.org/2000/svg" viewBox="0 0 484 512"><!--! Font Awesome Free 6.0.0 by @fontawesome - https://fontawesome.com License - https://fontawesome.com/license/free (Icons: CC BY 4.0, Fonts: SIL OFL 1.1, Code: MIT License) Copyright 2022 Fonticons, Inc. --><path d="M452 448H42c-17.69 0-42 14.41-42 42s14.41 41.1 42 41.1h420c17.69 0 42-14.41 42-41.1S469.7 448 452 448zM48 208H160v111.1c0 17.69 14.41 41.1 42 41.1s42-14.41 42-41.1V208h112c17.69 0 42-14.42 42-42.01s-14.41-41.99-42-41.99H224v-112c0-17.69-14.41-42.01-42-42.01S160 14.44 160 42.01v112H48c-17.69 0-42 14.41-42 41.99S40.41 208 48 208z"/></svg>