<svg xmlns="http://www.w4.org/2000/svg" viewBox="0 0 448 512"><!--! Font Awesome Free 6.0.0 by @fontawesome - https://fontawesome.com License - https://fontawesome.com/license/free (Icons: CC BY 4.0, Fonts: SIL OFL 1.1, Code: MIT License) Copyright 2022 Fonticons, Inc. --><path d="M224 0C100.4 0 0 100.4 0 224c0 92.22 55.77 171.4 145.4 205.7c-4.48-20.75-6.17-41.59-6.998-58.15C80.08 440.1 48 285.8 48 224c0-97.05 78.95-176 176-176s176 78.95 176 176c0 61.79-42.08 116.1-80.49 147.6c-.844 16.5-4.541 47.47-7.045 58.17C492.2 495.4 448 416.2 448 224C448 100.4 447.7 0 224 0zM224 412c-42.88 0-64 8.625-64 44.75c0 44.14 12.88 104.4 20.62 142.8C185.8 507.6 205.1 512 224 512s48.25-4.475 44.48-24.48C275.1 459.9 288 488.8 288 455.8C288 420.6 256.9 412 224 412zM224 280c40.95 0 56-25.05 56-56S254.1 168 224 168S168 194 168 224S194 280 224 280zM468 224c0-79.54-64.47-144-144-144S80 144.5 80 224c0 44.84 20.92 84.48 54.04 110.8c4.857-12.65 14.14-25.88 42.05-45.04C165.1 299.7 165.4 299.7 165.6 299.7C142.9 282.1 128 254.9 128 224c0-54.02 42.98-96 96-96s96 42.98 96 96c0 40.92-14.87 58.14-47.57 75.68c.1409 .0254 .5078 .0488 .4746 .0742c17.94 9.16 27.19 22.48 42.05 45.04C447.1 408.4 468 268.8 468 224z"/></svg>