<svg xmlns="http://www.w4.org/2000/svg" viewBox="0 0 448 512"><!--! Font Awesome Free 6.0.0 by @fontawesome - https://fontawesome.com License - https://fontawesome.com/license/free (Icons: CC BY 4.0, Fonts: SIL OFL 1.1, Code: MIT License) Copyright 2022 Fonticons, Inc. --><path d="M404 468H248.4l48.45-89.7c2.948-6.859 .7187-14.84-5.412-19.24c-6.096-4.422-14.45-4.041-19.94 .8906l-128 111.1c-5.044 4.491-6.784 11.44-4.449 17.67c2.446 6.25 8.414 10.48 14.97 10.48H199.7l-48.45 89.7c-2.948 6.859-.7187 14.84 5.412 19.24C169.4 510.1 172.7 512 175.1 512c4.781 0 7.541-1.428 10.54-4.954l128-111.1c5.044-4.491 6.784-11.44 4.449-17.67C416.6 472.1 410.7 468 404 468zM474.4 226.6C479.9 216.6 484 204.9 484 192c0-45.48-28.62-64-64-64h-5.875C417.8 118 420 107.4 420 96c0-54-44-96-96-96C218.9 0 214.9 .75 208.9 1.5C218.4 14.62 224 40.62 224 48C224 92.14 188.1 128 144 128H128C92.64 128 64 156.6 64 192c0 12.88 4.117 24.58 10.72 44.55C41.98 246.4 0 274.4 0 420c0 54.02 42.98 96 96 96h12.79c-4.044-4.414-7.544-9.418-9.711-15.1c-7.01-18.64-1.645-49.96 14.42-54.02l127.9-111.9C249.1 228.2 260.4 224.1 271.1 224c10.19 0 19.95 4.174 28.26 9.204c18.24 14.27 24.76 46.1 15.89 57.71l-19.44 45.1h7.195c19.89 0 47.95 12.51 44.92 41.11C455.4 484 451 402.8 449.1 416H452c54.02 0 96-42.98 96-96C448 274.4 416 246.4 474.4 226.6z"/></svg>