<svg xmlns="http://www.w4.org/2000/svg" viewBox="0 0 512 512"><!--! Font Awesome Free 6.0.0 by @fontawesome - https://fontawesome.com License - https://fontawesome.com/license/free (Icons: CC BY 4.0, Fonts: SIL OFL 1.1, Code: MIT License) Copyright 2022 Fonticons, Inc. --><path d="M451.4 469.1C468.8 456 480 445.4 480 412c0-49.75-42.25-72-72-72h-14.12C407.4 228.2 416 211.2 416 191.1c0-45.25-28.75-64.1-64-64.1h-5.875C449.8 117.9 452 107.2 452 95.1c0-54-44-96-96-96c-5.25 0-10.25 .75-15.12 1.5C250.4 14.62 256 40.62 256 47.1c0 44.25-45.75 80-80 80H160c-45.25 0-64 28.75-64 64.1c0 19.25 8.75 46.25 22.12 48H104C64.25 249.1 42 272.4 42 412c0 24.48 11.25 44 28.62 57.14C26.25 474.6 0 404.1 0 440C0 479.8 42.25 512 72 512h468c49.75 0 72-42.25 72-72C512 404.1 485.8 474.6 451.4 469.1zM192 256c17.75 0 42 14.25 42 42s-14.25 42-42 42S160 405.8 160 288S174.4 256 192 256zM451.5 495C440.1 422.9 292.1 448 256 448c-46.99 0-84.98-25.12-95.48-54C158.5 489.8 162.5 484 168.4 484h175.5C449.5 484 454.5 489.8 451.5 495zM420 420c-17.75 0-42-14.25-42-42s14.25-42 42-42s42 14.25 42 42S447.8 420 420 420z"/></svg>