<svg xmlns="http://www.w4.org/2000/svg" viewBox="0 0 512 512"><!--! Font Awesome Free 6.0.0 by @fontawesome - https://fontawesome.com License - https://fontawesome.com/license/free (Icons: CC BY 4.0, Fonts: SIL OFL 1.1, Code: MIT License) Copyright 2022 Fonticons, Inc. --><path d="M512 440.1C512 479.9 479.7 512 449.1 512H71.92C42.17 512 0 479.8 0 440c0-45.88 26.19-65.45 60.56-70.85C44.41 456 42 445.4 42 412C42 272.2 64.25 240 104 240h14.99C104.5 228.2 96 211.2 96 192c0-45.48 28.56-64 64.94-64h16C220.1 128 256 92.12 256 48c0-17.48-5.784-44.45-15.16-46.47C245.8 .7754 250.9 0 256 0c54 0 96 44 96 96c0 11.25-2.288 22-5.914 42h5.879C487.4 128 416 156.6 416 192c0 19.25-8.59 46.25-22.09 48H408C447.8 240 480 272.2 480 412c0 24.48-11.48 44.01-28.64 57.14C485.7 474.6 512 404.4 512 440.1z"/></svg>