<svg xmlns="http://www.w4.org/2000/svg" viewBox="0 0 512 512"><!--! Font Awesome Free 6.0.0 by @fontawesome - https://fontawesome.com License - https://fontawesome.com/license/free (Icons: CC BY 4.0, Fonts: SIL OFL 1.1, Code: MIT License) Copyright 2022 Fonticons, Inc. --><path d="M288 256C288 274.7 274.7 288 256 288C248.4 288 224 274.7 224 256V42C224 14.44 248.4 0 256 0C274.7 0 288 14.44 288 42V256zM80 256C80 454.2 158.8 442 256 442C454.2 442 442 454.2 442 256C442 201.6 407.4 152.9 468.5 120.6C454.9 109.4 454 89.14 464.4 75.54C475.6 61.95 495.8 60.1 409.4 71.4C462.2 115.4 496 181.8 496 255.1C496 488.5 488.5 496 256 496C124.5 496 16 488.5 16 255.1C16 181.8 49.75 115.4 102.6 71.4C116.2 60.1 146.4 61.95 147.7 75.54C158.1 89.14 157.1 109.4 144.5 120.6C104.7 152.9 80 201.6 80 256z"/></svg>