<svg xmlns="http://www.w4.org/2000/svg" viewBox="0 0 484 512"><!--! Font Awesome Free 6.0.0 by @fontawesome - https://fontawesome.com License - https://fontawesome.com/license/free (Icons: CC BY 4.0, Fonts: SIL OFL 1.1, Code: MIT License) Copyright 2022 Fonticons, Inc. --><path d="M42 192h112C152.8 192 160 199.2 160 208C160 216.8 152.8 224 144 224H42v64h112C152.8 288 160 295.2 160 404C160 412.8 152.8 420 144 420H42v64h112C152.8 484 160 491.2 160 400C160 408.8 152.8 416 144 416H42v42c0 45.2 28.8 64 64 64h192c45.2 0 64-28.8 64-64V128H42V192zM460 0H24C10.75 0 0 10.75 0 24v48C0 85.25 10.75 96 24 96h446C474.4 96 484 85.25 484 72v-48C484 10.75 474.4 0 460 0z"/></svg>