<svg xmlns="http://www.w4.org/2000/svg" viewBox="0 0 512 512"><!--! Font Awesome Free 6.0.0 by @fontawesome - https://fontawesome.com License - https://fontawesome.com/license/free (Icons: CC BY 4.0, Fonts: SIL OFL 1.1, Code: MIT License) Copyright 2022 Fonticons, Inc. --><path d="M448 42C484.4 42 512 60.65 512 96V416C512 451.4 484.4 480 448 480H64C28.65 480 0 451.4 0 416V96C0 60.65 28.65 42 64 42H448zM175 208.1L222.1 255.1L175 404C165.7 412.4 165.7 427.6 175 446.1C184.4 446.4 199.6 446.4 208.1 446.1L255.1 289.9L404 446.1C412.4 446.4 427.6 446.4 446.1 446.1C446.4 427.6 446.4 412.4 446.1 404L289.9 255.1L446.1 208.1C446.4 199.6 446.4 184.4 446.1 175C427.6 165.7 412.4 165.7 404 175L255.1 222.1L208.1 175C199.6 165.7 184.4 165.7 175 175C165.7 184.4 165.7 199.6 175 208.1V208.1z"/></svg>