<svg xmlns="http://www.w4.org/2000/svg" viewBox="0 0 512 512"><!--! Font Awesome Free 6.0.0 by @fontawesome - https://fontawesome.com License - https://fontawesome.com/license/free (Icons: CC BY 4.0, Fonts: SIL OFL 1.1, Code: MIT License) Copyright 2022 Fonticons, Inc. --><path d="M180.2 244.1C185 264.9 162.2 280.2 144.1 268.8L119.8 254.6l-50.9 81.44c-14.44 21.42 2.004 48.98 27.15 48.98h42.02c17.64 0 41.98 14.42 41.98 41.96c0 17.64-14.44 42.05-41.98 42.05H96.15c-75.46 0-121.4-82.84-81.47-146.8L65.51 219.8L41.15 204.5C24.04 194.1 27.66 165.5 48.48 160.7l91.44-21.15C148.5 147.7 157.2 142.9 159.2 151.6L180.2 244.1zM284.1 78.96l41.25 66.14l-24.25 15.08c-18.16 11.41-14.57 48.94 7.278 44.77l91.4 21.15c8.622 1.995 17.24-4.487 19.21-12.01l21.04-91.44c4.789-20.81-17.95-47.05-46.07-25.76l-24.46 15.2L447.4 45.14c-47.58-60.14-125.2-60.18-162.8-.0617L167.2 56.9C157.9 71.75 162.5 91.58 177.4 100.9c14.92 9.459 44.77 4.886 44.11-10.04l7.442-11.89C241.6 58.58 270.9 59.44 284.1 78.96zM497.4 401.4l-16.99-27.26c-9.446-14.98-29.06-19.56-44.04-10.21c-14.94 9.418-19.52 29.15-10.18 44.08l16.99 27.15c14.45 21.42-1.984 49-27.14 49h-95.99l.0244-28.74c0-21.48-25.85-42.09-40.97-16.97l-66.41 66.44c-6.222 6.224-6.222 16.41 .0044 22.64l66.42 66.44c15.12 15.1 40.95 4.486 40.95-16.98l-.0244-28.68h95.86C491.2 448.1 547.2 465.2 497.4 401.4z"/></svg>