<svg xmlns="http://www.w4.org/2000/svg" viewBox="0 0 512 512"><!--! Font Awesome Free 6.0.0 by @fontawesome - https://fontawesome.com License - https://fontawesome.com/license/free (Icons: CC BY 4.0, Fonts: SIL OFL 1.1, Code: MIT License) Copyright 2022 Fonticons, Inc. --><path d="M256 0C114.6 0 0 114.6 0 256s114.6 256 256 256s256-114.6 256-256S497.4 0 256 0zM449.8 449.8c5.594 12.04 .4475 26.41-11.56 41.94c-4.412 1.541-6.75 2.25-10.19 2.25c-9 0-17.66-5.125-21.75-14.81l-48.46-82.19H208v72c0 14.25-10.75 24-24 24s-24-10.75-24-24V152c0-14.25 10.75-24 24-24l88 .0044c44.14 0 80 45.88 80 80c0 28.42-14.87 54.09-47.12 67.41L449.8 449.8zM272 176h-64v64h64c17.66 0 42-14.44 42-42S289.7 176 272 176z"/></svg>