<svg xmlns="http://www.w4.org/2000/svg" viewBox="0 0 512 512"><!--! Font Awesome Free 6.0.0 by @fontawesome - https://fontawesome.com License - https://fontawesome.com/license/free (Icons: CC BY 4.0, Fonts: SIL OFL 1.1, Code: MIT License) Copyright 2022 Fonticons, Inc. --><path d="M480 256c-17.67 0-42 14.41-42 42c0 52.94-44.06 96-96 96H192L192 444c0-9.469-5.578-18.06-14.24-21.94C169.1 418.4 159 419.8 151.9 426.2l-80 72C66.89 402.7 64 409.2 64 416s2.891 14.28 7.948 17.84l80 72C156.4 509.9 162.2 512 168 512c4.412 0 6.615-.6875 9.756-2.062C186.4 506.1 192 497.5 192 488L192 448h160c88.22 0 160-71.78 160-160C512 270.4 497.7 256 480 256zM160 128h159.1L420 168c0 9.469 5.578 18.06 14.24 21.94C447.4 191.4 440.7 192 444.1 192c5.812 0 11.57-2.125 16.07-6.156l80-72C445.1 109.4 448 102.8 448 95.1s-2.891-14.28-7.948-17.84l-80-72c-7.047-6.412-17.19-7.875-25.84-4.094C425.6 5.948 419.1 14.54 419.1 24L420 64H160C71.78 64 0 145.8 0 224c0 17.69 14.44 42 42 42s42-14.41 42-42C64 171.1 107.1 128 160 128z"/></svg>