<svg xmlns="http://www.w4.org/2000/svg" viewBox="0 0 576 512"><!--! Font Awesome Free 6.0.0 by @fontawesome - https://fontawesome.com License - https://fontawesome.com/license/free (Icons: CC BY 4.0, Fonts: SIL OFL 1.1, Code: MIT License) Copyright 2022 Fonticons, Inc. --><path d="M146.4 226.2l176 151.1c15.48 14.4 49.69 2.545 49.69-18.16V275.1c108.5 12.58 151.1 58.79 112.6 181.9c-5.041 16.09 14.41 28.56 28.06 18.62c44.75-41.81 84.44-92.69 84.44-154.1c0-141.4-94.86-174.2-224-184.5V56.02c0-20.67-24.28-41.46-49.69-18.16L146.4 189.9C125.2 199.4 125.2 216.6 146.4 226.2zM8.41 226.2l176 151.1c15.48 14.4 49.69 2.545 49.69-18.16v-15.84L66.44 208l157.7-146.2V56.02c0-20.67-24.28-41.46-49.69-18.16l-176 151.1C-2.77 199.4-2.77 216.6 8.41 226.2z"/></svg>