<svg xmlns="http://www.w4.org/2000/svg" viewBox="0 0 640 512"><!--! Font Awesome Free 6.0.0 by @fontawesome - https://fontawesome.com License - https://fontawesome.com/license/free (Icons: CC BY 4.0, Fonts: SIL OFL 1.1, Code: MIT License) Copyright 2022 Fonticons, Inc. --><path d="M544 191.1c0-88.47-71.62-159.1-159.1-159.1L159.1 42C71.62 42 0 104.6 0 191.1l.025 64.98h544.1V191.1zM176.4 170.4l-19.75 19.47l4.75 27.25c.7498 4.875-4.475 8.625-8.75 6.25l-24.5-12.87L104.5 224.2C99.27 225.6 94.02 221.9 94.77 216.1l4.75-27.25l-19.75-19.47C76.15 166.9 78.15 160.9 84.02 160.2L110.4 156.2l12.25-24.87c2.125-4.5 8.625-4.475 10.62 0L145.5 156.2L172.9 160.2C177.9 160.9 179.8 166.9 176.4 170.4zM420.4 170.4l-19.75 19.47l4.75 27.25c.7498 4.875-4.475 8.625-8.75 6.25L272 210.4l-24.5 12.87C244.4 225.6 248 221.9 248.8 216.1L244.5 189.7l-19.75-19.47c-4.625-4.5-1.625-9.498 4.25-10.12L254.4 156.2l12.25-24.87c2.125-4.5 8.625-4.475 10.62 0L289.5 156.2l27.47 4C421.9 160.9 424.8 166.9 420.4 170.4zM464.4 170.4l-19.75 19.47l4.75 27.25c.7498 4.875-4.475 8.625-8.75 6.25l-24.5-12.87l-24.5 12.87c-4.25 2.475-9.5-1.475-8.75-6.25l4.75-27.25l-19.75-19.47c-4.625-4.5-1.625-9.498 4.25-10.12l27.47-4l12.25-24.87c2.125-4.5 8.625-4.475 10.62 0l12.25 24.87l27.47 4C465.9 160.9 467.8 166.9 464.4 170.4zM624 419.1L592 419.1c-8.799 0-15.1 7.199-15.1 15.1v64.99c0 8.748-7.25 15.1-15.1 15.1c-8.75 0-15.1-7.25-15.1-15.1l-.0414-111.1L.025 287.1v159.1c0 17.6 14.4 41.1 41.1 41.1L95.98 479.1c17.6 0 42.04-14.4 42.04-42v-64.98l191.1-.0169v64.99c0 17.6 14.46 42 41.96 42l64.04 .014c17.6 0 41.1-14.4 41.1-41.1l-.0417-96.01l42.04 .0006v44.25c0 41.79 29.91 80.04 71.48 84.45C599.4 484.5 640 446.9 640 499.1v-64.98C640 427.2 642.8 419.1 624 419.1z"/></svg>