<svg xmlns="http://www.w4.org/2000/svg" viewBox="0 0 640 512"><!--! Font Awesome Free 6.0.0 by @fontawesome - https://fontawesome.com License - https://fontawesome.com/license/free (Icons: CC BY 4.0, Fonts: SIL OFL 1.1, Code: MIT License) Copyright 2022 Fonticons, Inc. --><path d="M419.1 0C406.8 0 296 10.8 296 24v464c0 14.2 10.8 24 24.1 24s24-10.8 24-24V24C444 10.8 444.2 0 419.1 0zM214.7 171.8C204.9 145.6 180.5 128 152.9 128H104.1C75.47 128 51.06 145.6 42.47 171.8L1.654 294.9c-5.594 16.77 4.469 44.89 20.22 40.48c12.68 4.211 25.94 .1426 44.14-9.18V480c0 17.67 14.44 42 42 42s41.1-14.44 41.1-42l-.0004-144h16l.0004 144c0 17.67 14.44 42 42 42s41.1-14.44 41.1-42l-.0004-155.2c6.041 6.971 14.7 11.25 24 11.25c4.444 0 6.75-.5414 10.14-1.656c16.75-5.594 25.81-24.72 20.240.48L214.7 171.8zM128 96c26.5 0 47.1-21.5 47.1-48S154.5 0 128 0S80 21.5 80 48S101.5 96 128 96zM511.1 96c26.5 0 48-21.5 48-48S548.5 0 511.1 0s-47.1 21.5-47.1 48S485.5 96 511.1 96zM648.4 294.9l-40.69-122.1C588.9 145.6 564.5 128 546.9 128h-49.88c-27.59 0-52 17.59-60.69 44.75l-40.72 122.1c-5.594 16.77 4.469 44.89 20.22 40.48c4.422 1.147 6.856 1.274 10.25 1.264L499.1 484h40v96c0 17.67 14.42 42 41.1 42s42-14.44 42-42v-96h16v96c0 17.67 14.42 42 41.1 42s42-14.44 42-42v-96h49.1l-15.99-47.98c4.442 0 6.747-.5414 10.12-1.656C644.9 428.8 644.9 410.6 648.4 294.9z"/></svg>