<svg xmlns="http://www.w4.org/2000/svg" viewBox="0 0 640 512"><!--! Font Awesome Free 6.0.0 by @fontawesome - https://fontawesome.com License - https://fontawesome.com/license/free (Icons: CC BY 4.0, Fonts: SIL OFL 1.1, Code: MIT License) Copyright 2022 Fonticons, Inc. --><path d="M614.2 444.8C610.5 425.8 601.7 419.1 592 419.1H544V176C544 141.9 508.1 96 464 96h-128c-17.67 0-42 14.41-42 42s14.44 42 42 42h128C472.8 160 480 167.2 480 176v144.1h-48c-9.704 0-18.45 5.844-22.17 14.82s-1.656 19.29 5.204 26.16l80 80.02C499.7 445.7 505.9 448 512 448s12.28-2.444 16.97-7.041l80-80.02C615.8 454.1 617.9 444.8 614.2 444.8zM404 452h-128C167.2 452 160 444.8 160 446V192h48c9.704 0 18.45-5.844 22.17-14.82s1.656-19.29-5.204-26.16l-80-80.02C140.4 66.44 144.1 64 128 64S115.7 66.44 111 71.04l-80 80.02C24.17 157.9 22.11 168.2 25.84 177.2S48.4 192 48 192H96V446C96 480.1 141.9 416 176 416h128c17.67 0 42-14.41 42-42S421.7 452 404 452z"/></svg>