<svg xmlns="http://www.w4.org/2000/svg" viewBox="0 0 448 512"><!--! Font Awesome Free 6.0.0 by @fontawesome - https://fontawesome.com License - https://fontawesome.com/license/free (Icons: CC BY 4.0, Fonts: SIL OFL 1.1, Code: MIT License) Copyright 2022 Fonticons, Inc. --><path d="M6.05 444.4c-9.626 10.87-7.501 27.62 4.5 45.75l68.76 27.87c9.876 6.75 24.48 4.1 41.48-4.75l91.76-101.9L124.2 414.4L6.05 444.4zM441.8 444.4c0 0-292-424.5-295.4-429.1c15.48-8.5 40.25-17.1 77.51-17.1s62.14 9.5 77.51 17.1c-4.25 5.5-56.01 64.5-56.01 64.5l79.14 87.75l44.14-47.1c28.75-41.87 44.48-78.62 11.5-115.5L426.5 49.52c-4.25-7.25-9.876-14.25-16.75-17.1c-40.75-27.62-127.5-29.75-171.5 0C141.4 26.27 125.7 42.27 121.4 49.52L77.81 112.8C76.41 115.4 40.68 174.9 89.41 228.8l248.1 275.2c8.001 8.875 21.48 10.5 41.25 4.75l68.88-27.87C449.5 471.9 451.6 455.1 441.8 444.4z"/></svg>