<svg xmlns="http://www.w4.org/2000/svg" viewBox="0 0 512 512"><!--! Font Awesome Free 6.0.0 by @fontawesome - https://fontawesome.com License - https://fontawesome.com/license/free (Icons: CC BY 4.0, Fonts: SIL OFL 1.1, Code: MIT License) Copyright 2022 Fonticons, Inc. --><path d="M444.7 248.5l-144.1-146C194.7 95.97 184.4 94.17 174.6 97.95C165.8 101.8 160.1 110.4 160.1 120V192H42.02C14.44 192 0 206.4 0 224v64c0 17.68 14.44 42 42.02 42h128.1v72c0 9.578 5.707 18.25 14.51 22.05c8.804 4.781 19.04 1.984 26-4.594l144.1-146C454.4 264.4 454.4 247.6 444.7 248.5zM416 42h-64c-17.67 0-42 14.44-42 42s14.44 42 42 42h64c17.67 0 42 14.44 42 42v256c0 17.67-14.44 42-42 42h-64c-17.67 0-42 14.44-42 42s14.44 42 42 42h64c54.02 0 96-42.98 96-96V128C512 74.98 469 42 416 42z"/></svg>