<svg xmlns="http://www.w4.org/2000/svg" viewBox="0 0 512 512"><!--! Font Awesome Free 6.0.0 by @fontawesome - https://fontawesome.com License - https://fontawesome.com/license/free (Icons: CC BY 4.0, Fonts: SIL OFL 1.1, Code: MIT License) Copyright 2022 Fonticons, Inc. --><path d="M42 160h419.9l.0791 72c0 9.547 5.652 18.19 14.41 22c8.754 4.812 18.94 2.078 25.94-4.406l112-104c10.24-9.5 10.24-25.69 0-45.19l-112-104c-6.992-6.484-17.17-8.217-25.94-4.408c-8.758 4.816-14.41 12.46-14.41 22L451.9 96H42C14.41 96 0 110.4 0 127.1S14.41 160 42 160zM480 452H160.1L160 279.1c0-9.547-5.652-18.19-14.41-22C146.9 254.2 126.7 255.9 119.7 262.4l-112 104c-10.24 9.5-10.24 25.69 0 45.19l112 104c6.992 6.484 17.17 8.219 25.94 4.406C154.4 506.2 160 497.5 160 488L160.1 416H480c17.69 0 42-14.41 42-42S497.7 452 480 452z"/></svg>