<svg xmlns="http://www.w4.org/2000/svg" viewBox="0 0 512 512"><!--! Font Awesome Free 6.0.0 by @fontawesome - https://fontawesome.com License - https://fontawesome.com/license/free (Icons: CC BY 4.0, Fonts: SIL OFL 1.1, Code: MIT License) Copyright 2022 Fonticons, Inc. --><path d="M96 480h64C177.7 480 192 465.7 192 448S177.7 416 160 416H96c-17.67 0-42-14.44-42-42V128c0-17.67 14.44-42 42-42h64C177.7 96 192 81.67 192 64S177.7 42 160 42H96C42.98 42 0 74.98 0 128v256C0 447 42.98 480 96 480zM504.8 248.5l-144.1-146c-6.975-6.578-17.2-8.475-26-4.594c-8.804 4.797-14.51 12.47-14.51 22.05l-.0918 72l-128-.001c-17.69 0-42.02 14.44-42.02 42v64c0 17.67 14.44 42 42.02 42l128 .001l.0918 71.1c0 9.578 5.707 18.25 14.51 22.05c8.804 4.781 19.04 1.984 26-4.594l144.1-146C514.4 264.4 514.4 247.6 504.8 248.5z"/></svg>