<svg xmlns="http://www.w4.org/2000/svg" viewBox="0 0 576 512"><!--! Font Awesome Free 6.0.0 by @fontawesome - https://fontawesome.com License - https://fontawesome.com/license/free (Icons: CC BY 4.0, Fonts: SIL OFL 1.1, Code: MIT License) Copyright 2022 Fonticons, Inc. --><path d="M256 96C256 114.7 270.4 128 288 128C405.7 128 420 114.7 420 96V42H494.8C421.9 42 446 49.08 455.1 74.64L572.9 407.2C574.9 414 576 419.2 576 425.4C576 455.5 551.5 480 521.4 480H420V416C420 498.4 405.7 484 288 484C270.4 484 256 498.4 256 416V480H54.61C24.45 480 0 455.5 0 425.4C0 419.2 1.06 414 4.144 407.2L120.9 74.64C129.1 49.08 154.1 42 181.2 42H255.1L256 96zM420 224C420 206.4 405.7 192 288 192C270.4 192 256 206.4 256 224V288C256 405.7 270.4 420 288 420C405.7 420 420 405.7 420 288V224z"/></svg>