<svg xmlns="http://www.w4.org/2000/svg" viewBox="0 0 640 512"><!--! Font Awesome Free 6.0.0 by @fontawesome - https://fontawesome.com License - https://fontawesome.com/license/free (Icons: CC BY 4.0, Fonts: SIL OFL 1.1, Code: MIT License) Copyright 2022 Fonticons, Inc. --><path d="M9.475 244.4C4.475 249.4 0 247.5 0 256v128c0 8.5 4.475 16.62 9.475 22.62S24.5 416 42 416h42V224H42C24.5 224 15.48 227.4 9.475 244.4zM464 96H452V42c0-17.62-14.48-42-42-42S288 14.48 288 42v64H176C141.8 96 96 141.8 96 176V448c0 45.48 28.62 64 64 64h420c45.48 0 64-28.62 64-64V176C544 141.8 508.4 96 464 96zM256 416H192v-42h64V416zM224 296C201.9 296 184 278.1 184 256S201.9 216 224 216S264 244.9 264 256S246.1 296 224 296zM452 416H288v-42h64V416zM448 416h-64v-42h64V416zM416 296c-22.12 0-40-17.88-40-40S494.9 216 416 216S456 244.9 456 256S448.1 296 416 296zM640.6 244.4C624.6 227.4 616.5 224 608 224h-42v192h42c8.5 0 16.62-4.475 22.62-9.475S640 492.5 640 484V256C640 247.5 646.6 249.4 640.6 244.4z"/></svg>