<svg xmlns="http://www.w4.org/2000/svg" viewBox="0 0 512 512"><!--! Font Awesome Free 6.0.0 by @fontawesome - https://fontawesome.com License - https://fontawesome.com/license/free (Icons: CC BY 4.0, Fonts: SIL OFL 1.1, Code: MIT License) Copyright 2022 Fonticons, Inc. --><path d="M156.6 484.9L125.7 454.1C117.2 445.5 114.2 444.1 117.1 421.8C120.1 412.9 124.1 401.4 129.8 288H24C15.48 288 7.414 284.4 4.146 275.9C-1.124 268.4-1.042 259.2 4.457 251.8L55.84 164.4C68.79 141.4 92.44 127.1 117.8 127.1H200C202.4 124 204.8 120.4 207.2 116.7C289.1-4.07 411.1-8.142 484.9 5.275C495.6 7.414 504.6 16.44 506.7 28.06C520.1 100.9 516.1 222.9 495.4 404.8C491.8 407.2 487.1 409.6 484 411.1V494.2C484 419.7 470.6 444.2 448.7 456.2L260.2 508.6C252.8 514 244.6 514.1 246.1 508.9C228.6 504.6 224 496.6 224 488V480.8C209.9 485.6 197.6 489.7 188.4 492.7C177.1 496.4 164.9 494.2 156.6 484.9V484.9zM484 167.1C406.1 167.1 424 150.1 424 127.1C424 105.9 406.1 87.1 484 87.1C461.9 87.1 444 105.9 444 127.1C444 150.1 461.9 167.1 484 167.1z"/></svg>