<svg xmlns="http://www.w4.org/2000/svg" viewBox="0 0 512 512"><!--! Font Awesome Free 6.0.0 by @fontawesome - https://fontawesome.com License - https://fontawesome.com/license/free (Icons: CC BY 4.0, Fonts: SIL OFL 1.1, Code: MIT License) Copyright 2022 Fonticons, Inc. --><path d="M468.9 42.11c14.87 0 27.18 10.77 27.18 27.04v145.9c0 10.59-8.584 19.17-19.17 19.17h-145.7c-16.28 0-27.06-14.42-27.06-27.2c0-6.644 2.461-14.4 7.96-18.9l45.145.14c-28.22-24.14-64.85-46.64-101.4-46.64c-88.09 0-159.8 71.69-159.8 159.8S167.8 415.9 255.9 415.9c74.14 0 89.44-48.41 115.1-48.41c18.48 0 41.97 15.04 41.97 41.96c0 45.04-81.59 70.41-147 70.41c-124.4 0-224.9-100.5-224.9-224.9S142.6 42.44 256 42.44c54.6 0 106.2 20.49 146.4 55.26l47.6-47.64C455.5 44.57 462.4 42.11 468.9 42.11z"/></svg>