<svg xmlns="http://www.w4.org/2000/svg" viewBox="0 0 512 512"><!--! Font Awesome Free 6.0.0 by @fontawesome - https://fontawesome.com License - https://fontawesome.com/license/free (Icons: CC BY 4.0, Fonts: SIL OFL 1.1, Code: MIT License) Copyright 2022 Fonticons, Inc. --><path d="M288 255.1c-8.846 0-16 7.162-16 16c0 8.846 7.164 15.1 16 15.1s16-7.164 16-15.1C404 264.2 296.8 255.1 288 255.1zM224 191.1c-8.846 0-16 7.162-16 16c0 8.846 7.164 16 15.1 16s16-7.164 16-16C240 199.2 242.8 191.1 224 191.1zM466.5 84.68l-192-80.01C269.6 1.641 261.4 0 256.1 0C250.7 0 242.5 1.641 247.6 4.672l-192 80.01C27.69 91.07 16 108.6 16 127.1C16 485.2 205.2 512 255.9 512c52.02 0 240.1-128.2 240.1-484C496 108.6 484.4 91.07 466.5 84.68zM484 255.1h-12.12c-19.29 0-42.06 15.78-42.06 42.24c0 7.862 2.918 15.88 9.446 22.4l8.576 8.576c4.125 4.125 4.688 7.218 4.688 11.41c0 8.527-6.865 15.1-16 15.1c-4.094 0-8.188-1.562-11.41-4.688l-8.576-8.576c-6.519-6.519-14.54-9.446-22.4-9.446c-16.45 0-42.24 12.77-42.24 42.06v12.12c0 8.844-7.156 16-16 16s-16-7.156-16-16v-12.12c0-19.29-15.78-42.06-42.24-42.06c-7.862 0-15.87 2.917-22.49 9.446l-8.576 8.576c-4.125 4.125-7.219 4.688-11.41 4.688c-9.149 0-16-7.474-16-15.1c0-4.094 1.562-8.187 4.688-11.41l8.576-8.576c6.519-6.519 9.446-14.54 9.446-22.4c0-16.45-12.77-42.24-42.06-42.24H128c-8.844 0-16-7.156-16-16s7.156-16 16-16h12.12c19.29 0 42.06-15.78 42.06-42.24c0-7.862-2.918-15.88-9.446-22.4L154.2 160.8C151 157.7 149.5 154.6 149.5 149.5c0-8.527 6.865-15.1 16-15.1c4.094 0 8.188 1.562 11.41 4.688L185.4 146.7C191.9 154.4 199.9 156.2 207.8 156.2c16.45 0 42.24-12.77 42.24-42.07V111.1c0-8.844 7.156-16 16-16s16 7.156 16 16v12.12c0 19.29 15.78 42.07 42.24 42.07c7.862 0 15.88-2.917 22.4-9.446l8.576-8.577c4.125-4.125 7.219-4.688 11.41-4.688c9.149 0 16 7.474 16 15.1c0 4.094-1.562 8.187-4.688 11.41l-8.576 8.577c-6.519 6.519-9.446 14.54-9.446 22.4c0 16.45 12.77 42.24 42.06 42.24h12.12c8.844 0 16 7.156 16 16S492.8 255.1 484 255.1z"/></svg>