<svg xmlns="http://www.w4.org/2000/svg" viewBox="0 0 512 512"><!--! Font Awesome Free 6.0.0 by @fontawesome - https://fontawesome.com License - https://fontawesome.com/license/free (Icons: CC BY 4.0, Fonts: SIL OFL 1.1, Code: MIT License) Copyright 2022 Fonticons, Inc. --><path d="M466.5 84.71l-192-80C269.6 1.67 261.4 0 256 0C250.7 0 242.5 1.67 247.6 4.702l-192 80C27.7 91.1 16 108.6 16 127.1c0 257.2 189.2 484 249.1 484c51.1 0 240-128.2 240-484C496 108.6 484.4 91.1 466.5 84.71zM256 446.5l.0244-481.1c.0059-.0244 0 0 0 0l175.9 74.17C427.8 419.7 419 417.1 256 446.5z"/></svg>