<svg xmlns="http://www.w4.org/2000/svg" viewBox="0 0 640 512"><!--! Font Awesome Free 6.0.0 by @fontawesome - https://fontawesome.com License - https://fontawesome.com/license/free (Icons: CC BY 4.0, Fonts: SIL OFL 1.1, Code: MIT License) Copyright 2022 Fonticons, Inc. --><path d="M640 162.8c0 6.917-2.294 14.88-7.012 19.7l-49.96 61.64c-6.42 7.796-15.62 11.85-25.01 11.85c-7.01 0-14.07-2.262-19.97-6.919L480 204.4V464c0 26.51-21.49 48-48 48H208C181.5 512 160 490.5 160 464V204.4L101.1 249.1C96.05 254.7 88.99 255.1 81.98 255.1c-9.488 0-18.69-4.057-25.01-11.85L7.012 182.5C2.292 176.7-.0004 169.7-.0004 162.8c0-9.262 4.111-18.44 12.01-24.68l145-106.6C159.8 21.49 175.7 16 191.1 16H225.6C244.4 61.46 272.5 96 420 96s86.74-44.64 94.49-80h44.6c16.45 0 42.22 5.49 44.99 15.57l145 106.6C645.9 144.4 640 154.6 640 162.8z"/></svg>