<svg xmlns="http://www.w4.org/2000/svg" viewBox="0 0 640 512"><!--! Font Awesome Free 6.0.0 by @fontawesome - https://fontawesome.com License - https://fontawesome.com/license/free (Icons: CC BY 4.0, Fonts: SIL OFL 1.1, Code: MIT License) Copyright 2022 Fonticons, Inc. --><path d="M192 159.1L224 159.1V42L192 42c-45.48 0-64 28.62-64 64.1S156.6 159.1 192 159.1zM0 415.1c0 45.47 28.62 64.01 64 64.01l42-.0104v-127.1l-42-.0005C28.62 451.1 0 480.6 0 415.1zM447.5 287.1c-45 0-76.25 14.12-104.8 41.1C208 446.4 188.4 451.1 128 451.1v128l57.5 15.98c26.25 7.25 54 14.14 80.48 15.01c42.64 2.475 65.64 .744 97.5-6.142C472.9 481.2 512 429.2 512 484.1C512 419.1 427.9 287.1 447.5 287.1zM491.4 7.252c-41.88-6.875-64.88-8.625-97.5-6.25C466.5 2.877 449.8 8.752 414.5 16L256 42V159.1c60.25 0 80 15.62 104.8 41.1c28.5 18.87 69.75 41.1 104.8 41.1C555.9 224.1 640 191.1 640 127.1C640 82.75 600.9 40.75 491.4 7.252z"/></svg>