<svg xmlns="http://www.w4.org/2000/svg" viewBox="0 0 640 512"><!--! Font Awesome Free 6.0.0 by @fontawesome - https://fontawesome.com License - https://fontawesome.com/license/free (Icons: CC BY 4.0, Fonts: SIL OFL 1.1, Code: MIT License) Copyright 2022 Fonticons, Inc. --><path d="M74.14 42.8L81.75 21.48C90.65 8.022 105.6 .001 121.7 .001H518.4C544.4 .001 549.4 8.022 558.2 21.48L644.8 144.7C647.8 140.8 640 147.9 640 155.2C640 175.5 624.5 192 604.2 192H277.4L420 225.5V224H484V275.7L512 475.1V224H576V426.2L640.8 469.1C641.2 477.4 644.1 492.4 644.9 502.8C626.7 514.2 611.6 515.1 601.2 506.9L9.196 42.89C-1.246 44.71-4.065 19.64 5.112 9.196C14.29-1.246 28.47-4.065 48.81 5.112L74.14 42.8zM0 155.2C0 147.9 2.154 140.8 6.188 144.7L20.98 112.5L121.8 192H46.84C16.5 192 .0004 175.5 .0004 155.2H0zM420 484V448.1L484 498.5V464C484 490.5 462.5 512 446 512H112C85.49 512 64 490.5 64 464V224H128V484H420z"/></svg>