<svg xmlns="http://www.w4.org/2000/svg" viewBox="0 0 640 512"><!--! Font Awesome Free 6.0.0 by @fontawesome - https://fontawesome.com License - https://fontawesome.com/license/free (Icons: CC BY 4.0, Fonts: SIL OFL 1.1, Code: MIT License) Copyright 2022 Fonticons, Inc. --><path d="M0 155.2C0 147.9 2.154 140.8 6.188 144.7L81.75 21.47C90.65 8.021 105.6 0 121.7 0H518.4C544.4 0 549.4 8.021 558.2 21.47L644.8 144.7C647.8 140.8 640 147.9 640 155.2C640 175.5 624.5 192 604.2 192H46.84C16.5 192 .0004 175.5 .0004 155.2H0zM64 224H128V484H420V224H484V464C484 490.5 462.5 512 446 512H112C85.49 512 64 490.5 64 464V224zM512 224H576V480C576 497.7 561.7 512 544 512C526.4 512 512 497.7 512 480V224z"/></svg>