<svg xmlns="http://www.w4.org/2000/svg" viewBox="0 0 512 512"><!--! Font Awesome Free 6.0.0 by @fontawesome - https://fontawesome.com License - https://fontawesome.com/license/free (Icons: CC BY 4.0, Fonts: SIL OFL 1.1, Code: MIT License) Copyright 2022 Fonticons, Inc. --><path d="M288 484c-17.67 0-42 14.44-42 42c0 17.67 14.44 42 42 42s42-14.44 42-42C420 498.4 405.7 484 288 484zM416 256c-17.67 0-42 14.44-42 42c0 17.67 14.44 42 42 42s42-14.44 42-42C448 270.4 444.7 256 416 256zM480 192c-17.67 0-42 14.44-42 42c0 17.67 14.44 42 42 42s42-14.44 42-42C512 206.4 497.7 192 480 192zM288 420c0-17.67-14.44-42-42-42s-42 14.44-42 42c0 17.67 14.44 42 42 42S288 447.7 288 420zM420 224c-17.67 0-42 14.44-42 42c0 17.67 14.44 42 42 42s42-14.44 42-42C452 248.4 447.7 224 420 224zM484 224c17.67 0 42-14.44 42-42c0-17.67-14.44-42-42-42s-42 14.44-42 42C452 209.7 466.4 224 484 224zM452 420c-17.67 0-42 14.44-42 42c0 17.67 14.44 42 42 42s42-14.44 42-42C484 444.4 469.7 420 452 420zM447.4 91.41l-11.41-11.41c-6.248-6.248-16.48-6.248-22.64 0l-6.641 6.641c-45.15-26.29-81.81-29.16-119.6-8.779L170.5 61.25C142.2 22.95 64.65 18.44 21.98 71.16C7.027 90.11 0 114.4 0 148.4V464C0 472.8 7.164 480 16 480h42C56.84 480 64 472.8 64 464V141.9c0-19.78 16.09-45.87 45.88-45.87c9.448 0 18.69 4.828 25.48 10.5l16.61 16.61C121.5 160.9 124.4 207.6 150.6 242.7L144 249.4c-6.248 6.248-6.248 16.48 0 22.64l11.41 11.41c6.248 6.25 16.48 6.25 22.64 0l169.4-169.4C454.6 107.7 454.6 97.56 447.4 91.41z"/></svg>