<svg xmlns="http://www.w4.org/2000/svg" viewBox="0 0 512 512"><!--! Font Awesome Free 6.0.0 by @fontawesome - https://fontawesome.com License - https://fontawesome.com/license/free (Icons: CC BY 4.0, Fonts: SIL OFL 1.1, Code: MIT License) Copyright 2022 Fonticons, Inc. --><path d="M288 420V128H64C46.44 128 42 114.6 42 96s14.44-42 42-42h468c8.844 0 16-7.156 16-16s-7.156-16-16-16H64C28.72 42 0 60.7 0 96s28.72 64 64 64h2.879c15.26 90.77 94.01 160 189.1 160H288zM192 216c-14.25 0-24-10.75-24-24c0-14.26 10.75-24 24-24s24 10.74 24 24C216 205.4 205.4 216 192 216zM225.6 499.4c-4.75 12.46 1.406 26.25 14.78 41.02l5.688 2.188C244.4 444.1 224 444.8 224 456c0 14.25 10.75 24 24 24h72v-70.04l-64.48-24.48C244.4 480.9 240.4 486.1 225.6 499.4zM511.2 286.7c-.5488-5.754-2.201-11.1-4.414-16.65l-124.6 90.62c.4711 2.404 .7484 4.814 .7484 7.422c0 1.846-.4479 4.576-.5491 5.457l90.15 40.06C500.8 479.2 515.8 444.8 511.2 286.7zM452 414.1v66.08c47.24-4.464 71.04-18.4 97.94-41.21l-80.44-45.71C464.7 407.1 458.6 410.7 452 414.1zM497.9 247.7C470.1 172.4 402.8 128 428.4 128h-8.446v192h16c12.28 0 24.46 4.748 41.85 12.44L497.9 247.7z"/></svg>