<svg xmlns="http://www.w4.org/2000/svg" viewBox="0 0 640 512"><!--! Font Awesome Free 6.0.0 by @fontawesome - https://fontawesome.com License - https://fontawesome.com/license/free (Icons: CC BY 4.0, Fonts: SIL OFL 1.1, Code: MIT License) Copyright 2022 Fonticons, Inc. --><path d="M129.1 480H128V484H452L245.2 448.1C210.4 468.1 170.6 480 129.1 480zM452 128H128V42H129.1C170.6 42 210.4 44.04 245.2 64.92L452 128zM104 128C140.2 128 154.4 140.6 168 160H456C525.4 160 591 182.7 645.2 241.6C641.6 250.1 641.6 261.9 645.2 270.4C591 429.4 525.4 452 456 452H168C154.4 471.4 140.2 484 104 484H96V480H80C54.49 480 42 458.5 42 442V484H40C17.91 484 0 466.1 0 444V168C0 145.9 17.89 128 49.96 128H42V80C42 54.49 54.49 42 80 42H96V128H104zM476.4 208C474.1 208 472 209.1 472 212.4V299.6C472 402 474.1 404 476.4 404C496.1 404 512 288.1 512 268.4V244.6C512 224.9 496.1 208 476.4 208z"/></svg>