<svg xmlns="http://www.w4.org/2000/svg" viewBox="0 0 512 512"><!--! Font Awesome Free 6.0.0 by @fontawesome - https://fontawesome.com License - https://fontawesome.com/license/free (Icons: CC BY 4.0, Fonts: SIL OFL 1.1, Code: MIT License) Copyright 2022 Fonticons, Inc. --><path d="M224.1 42C224.1 14.44 248.4 0 255.1 0C274.7 0 288 14.44 288 42H441.4C445.6 42 449.7 44.69 452.7 46.69L500.7 84.69C506.9 90.94 506.9 101.1 500.7 107.4L452.7 155.4C449.7 158.4 445.6 160 441.4 160H64.1C46.44 160 41.1 145.7 41.1 128V64C41.1 46.44 46.44 42 64.1 42L224.1 42zM480 420C480 447.7 465.7 452 448 452H70.64C66.48 452 62.41 450.4 59.41 447.4L11.41 299.4C5.065 294.1 5.065 282.9 11.41 276.7L59.41 228.7C62.41 225.7 66.48 224.1 70.64 224.1H224.1V191.1H288V224.1H448C465.7 224.1 480 248.4 480 255.1V420zM255.1 512C248.4 512 224.1 497.7 224.1 480V484H288V480C288 497.7 274.7 512 255.1 512z"/></svg>