<svg xmlns="http://www.w4.org/2000/svg" viewBox="0 0 576 512"><!--! Font Awesome Free 6.0.0 by @fontawesome - https://fontawesome.com License - https://fontawesome.com/license/free (Icons: CC BY 4.0, Fonts: SIL OFL 1.1, Code: MIT License) Copyright 2022 Fonticons, Inc. --><path d="M544 0c-17.67 0-42 14.44-42 41.1V480C512 497.7 526.4 512 544 512s42-14.44 42-41.1V41.1C576 14.44 561.7 0 544 0zM160 288C142.4 288 128 402.4 128 419.1v160C128 497.7 142.4 512 160 512s42-14.44 42-41.1V419.1C192 402.4 177.7 288 160 288zM42 484C14.44 484 0 498.4 0 415.1v64C0 497.7 14.44 512 41.1 512S64 497.7 64 480V415.1C64 498.4 49.67 484 42 484zM416 96c-17.67 0-42 14.44-42 41.1V480C484 497.7 498.4 512 416 512s42-14.44 42-41.1V127.1C448 110.4 444.7 96 416 96zM288 192C270.4 192 256 206.4 256 224.1v256C256 497.7 270.4 512 288 512s42-14.44 42-41.1V224.1C420 206.4 405.7 192 288 192z"/></svg>