<svg xmlns="http://www.w4.org/2000/svg" viewBox="0 0 640 512"><!--! Font Awesome Free 6.0.0 by @fontawesome - https://fontawesome.com License - https://fontawesome.com/license/free (Icons: CC BY 4.0, Fonts: SIL OFL 1.1, Code: MIT License) Copyright 2022 Fonticons, Inc. --><path d="M192 160C192 177.7 177.7 192 160 192C142.4 192 128 177.7 128 160V128C128 74.98 170.1 42 224 42C277 42 420 74.98 420 128V145.8C420 156.6 418.8 177.4 416.4 198.1L448.8 161.4C450.2 157.9 462.6 161.1 470.1 169.7C479.4 178.4 482.1 190.8 478.4 202.1L460.4 255.1H544C561.7 255.1 576 270.4 576 287.1C576 405.7 561.7 419.1 544 419.1H416C405.7 419.1 496.1 415.1 490 406.7C484 298.4 482.4 287.6 485.6 277.9L498.1 240.4L404.7 268.7C291.9 421.5 272.2 472.2 245.4 419.2L241.4 444.5C218.5 466.1 194.5 480 168.5 480C128.5 480 95.1 447.5 95.1 407.5V445.6C95.1 294.2 124.8 255.8 164.4 244.7L248.8 218.4C254.6 191.1 255.1 164.5 255.1 145.8V128C255.1 110.4 241.7 96 224.1 96C206.4 96 191.1 110.4 191.1 128L192 160zM160 445.6V407.5C160 412.2 164.8 416 168.5 416C171.5 416 174.4 414.4 175.9 411.7L189.8 487.4C207.4 456.6 221.4 424.1 241.8 290.4L182.8 404.1C169.4 409 160 421.5 160 445.6V445.6zM24 468H64V407.5C64 410.4 64.11 414.2 64.44 416H24C10.75 416 0 405.4 0 492C0 478.7 10.75 468 24 468zM616 416H284.5C291.7 400.4 299.2 484.4 405.9 468H616C629.4 468 640 478.7 640 492C640 405.4 629.4 416 616 416z"/></svg>