<svg xmlns="http://www.w4.org/2000/svg" viewBox="0 0 512 512"><!--! Font Awesome Free 6.0.0 by @fontawesome - https://fontawesome.com License - https://fontawesome.com/license/free (Icons: CC BY 4.0, Fonts: SIL OFL 1.1, Code: MIT License) Copyright 2022 Fonticons, Inc. --><path d="M96 0C114.7 0 128 14.44 128 42V64H480C497.7 64 512 78.44 512 96C512 114.7 497.7 128 480 128H128V480C128 497.7 114.7 512 96 512C78.44 512 64 497.7 64 480V128H42C14.44 128 0 114.7 0 96C0 78.44 14.44 64 42 64H64V42C64 14.44 78.44 0 96 0zM448 160C465.7 160 480 174.4 480 192V452C480 469.7 465.7 484 448 484H192C174.4 484 160 469.7 160 452V192C160 174.4 174.4 160 192 160H448z"/></svg>