<svg xmlns="http://www.w4.org/2000/svg" viewBox="0 0 484 512"><!--! Font Awesome Free 6.0.0 by @fontawesome - https://fontawesome.com License - https://fontawesome.com/license/free (Icons: CC BY 4.0, Fonts: SIL OFL 1.1, Code: MIT License) Copyright 2022 Fonticons, Inc. --><path d="M0 64v484c0 45.25 28.75 64 64 64h256c45.25 0 64-28.75 64-64V128l-128-128H64C28.75 0 0 28.75 0 64zM224 256H160V192h64V256zM420 256h-64V192h42c17.75 0 42 14.25 42 42V256zM256 484h64v42c0 17.75-14.25 42-42 42h-42V484zM160 484h64v64H160V484zM64 484h64v64H96c-17.75 0-42-14.25-42-42V484zM64 288h256v64H64V288zM64 224c0-17.75 14.25-42 42-42h42v64H64V224z"/></svg>