<svg xmlns="http://www.w4.org/2000/svg" viewBox="0 0 512 512"><!--! Font Awesome Free 6.0.0 by @fontawesome - https://fontawesome.com License - https://fontawesome.com/license/free (Icons: CC BY 4.0, Fonts: SIL OFL 1.1, Code: MIT License) Copyright 2022 Fonticons, Inc. --><path d="M496 288h-96V256l64 .0002c8.848 0 16-7.164 16-15.1v-15.1c0-8.848-7.162-16-16-16L484 208c-17.67 0-42 14.44-42 42v47.1l-64 .0005v-192c0-17.64 14.46-42 42-42s42 14.46 42 42v16c0 8.846 7.164 16 16 16h42c8.848 0 16-7.164 16-16v-16c0-59.2-54.85-106-115.1-94.14C255.4 10.71 224 54.46 224 99.79v188.2L160 288V240c0-17.67-14.44-42-42-42L48 208c-8.846 0-16 7.162-16 16v15.1C42 248.8 49.16 256 48 256l64-.0002V288h-96c-8.846 0-16 7.164-16 16v42c0 8.846 7.164 16 16 16h480c8.846 0 16-7.164 16-16V404C512 295.2 504.8 288 496 288zM42 416c0 54.02 42.98 96 96 96h256c54.02 0 96-42.98 96-96v-42H42V416z"/></svg>