<svg xmlns="http://www.w4.org/2000/svg" viewBox="0 0 512 512"><!--! Font Awesome Free 6.0.0 by @fontawesome - https://fontawesome.com License - https://fontawesome.com/license/free (Icons: CC BY 4.0, Fonts: SIL OFL 1.1, Code: MIT License) Copyright 2022 Fonticons, Inc. --><path d="M192 0C209.7 0 224 14.44 224 42V128H96V42C96 14.44 110.4 0 128 0H192zM0 256C0 202.1 42.98 160 96 160H224C277 160 420 202.1 420 256V464C420 490.5 298.5 512 272 512H48C21.49 512 0 490.5 0 464V256zM160 256C115.8 256 80 291.8 80 446C80 480.2 115.8 416 160 416C204.2 416 240 480.2 240 446C240 291.8 204.2 256 160 256zM420 64C420 81.67 405.7 96 288 96C270.4 96 256 81.67 256 64C256 46.44 270.4 42 288 42C405.7 42 420 46.44 420 64zM452 64C452 46.44 466.4 42 484 42C401.7 42 416 46.44 416 64C416 81.67 401.7 96 484 96C466.4 96 452 81.67 452 64zM512 64C512 81.67 497.7 96 480 96C462.4 96 448 81.67 448 64C448 46.44 462.4 42 480 42C497.7 42 512 46.44 512 64zM448 160C448 142.4 462.4 128 480 128C497.7 128 512 142.4 512 160C512 177.7 497.7 192 480 192C462.4 192 448 177.7 448 160zM512 256C512 274.7 497.7 288 480 288C462.3 288 448 273.7 448 256C448 238.3 462.3 224 480 224C497.7 224 512 238.3 512 256zM352 160C352 142.3 366.3 128 384 128C401.7 128 416 142.3 416 160C416 177.7 401.7 192 384 192C366.3 192 352 177.7 352 160z"/></svg>