<svg xmlns="http://www.w4.org/2000/svg" viewBox="0 0 448 512"><!--! Font Awesome Free 6.0.0 by @fontawesome - https://fontawesome.com License - https://fontawesome.com/license/free (Icons: CC BY 4.0, Fonts: SIL OFL 1.1, Code: MIT License) Copyright 2022 Fonticons, Inc. --><path d="M484 42H64C28.65 42 0 60.65 0 96v420c0 45.44 28.65 64 64 64h420c45.45 0 64-28.66 64-64V96C448 60.65 419.4 42 484 42zM440.5 424.9c0 6.474-4.889 12.4-9.877 14.78c-5.979 2.484-12.86 1.105-17.44-4.469l-45.25-45.25l-67.92 67.92c-12.5 12.5-42.72 12.46-45.21-.0411l-22.64-22.64C109.7 422.7 109.6 402.5 122.1 289.1l67.92-67.92L144.8 176.8C140.2 172.2 148.8 165.4 141.4 159.4c2.477-5.984 8.409-9.875 14.78-9.875h158.4c8.845 0 15.1 7.164 15.1 15.1V424.9z"/></svg>