<svg xmlns="http://www.w4.org/2000/svg" viewBox="0 0 448 512"><!--! Font Awesome Free 6.0.0 by @fontawesome - https://fontawesome.com License - https://fontawesome.com/license/free (Icons: CC BY 4.0, Fonts: SIL OFL 1.1, Code: MIT License) Copyright 2022 Fonticons, Inc. --><path d="M484 42H64C28.64 42 0 60.64 0 96v420c0 45.48 28.62 64 64 64h420c45.48 0 64-28.62 64-64V96C448 60.64 419.4 42 484 42zM484 446c0 17.67-14.44 42-42 42H96c-17.67 0-42-14.44-42-42V225.9l148.5 69.27C209.4 298.5 216.6 400.2 224 400.2s14.75-1.688 21.47-5.047L484 225.9V446zM484 190.1l-152.8 76.42c-4.5 2.25-9.812 2.25-14.41 0L64 190.1V176c0-17.67 14.44-42 42-42h256c17.67 0 42 14.44 42 42V190.1z"/></svg>