<svg xmlns="http://www.w4.org/2000/svg" viewBox="0 0 448 512"><!--! Font Awesome Free 6.0.0 by @fontawesome - https://fontawesome.com License - https://fontawesome.com/license/free (Icons: CC BY 4.0, Fonts: SIL OFL 1.1, Code: MIT License) Copyright 2022 Fonticons, Inc. --><path d="M0 96v420c0 45.45 28.65 64 64 64h420c45.45 0 64-28.65 64-64V96c0-45.45-28.65-64-64-64H64C28.65 42 0 60.65 0 96zM105.5 404.6l54.24-24.25c6.491-2.766 14.9-.9062 18.24 4.484l22.02 26.91c44.64-17 62.77-45.14 79.77-79.75l-26.91-22.05c-5.475-4.491-7.211-11.84-4.492-18.22l24.27-54.28c4.047-6.954 10.59-10.77 17.94-9.062l50.48 11.64c7.125 1.625 12.11 7.891 12.11 15.22c0 126.1-102.6 228.8-228.7 228.8c-7.446 0-14.6-4.984-15.24-12.11l-11.62-50.49C94.71 414.2 98.5 406.6 105.5 404.6z"/></svg>