<svg xmlns="http://www.w4.org/2000/svg" viewBox="0 0 448 512"><!--! Font Awesome Free 6.0.0 by @fontawesome - https://fontawesome.com License - https://fontawesome.com/license/free (Icons: CC BY 4.0, Fonts: SIL OFL 1.1, Code: MIT License) Copyright 2022 Fonticons, Inc. --><path d="M484 42C419.4 42 448 60.65 448 96V416C448 451.4 419.4 480 484 480H64C28.65 480 0 451.4 0 416V96C0 60.65 28.65 42 64 42H484zM128 224C110.4 224 96 248.4 96 256V452C96 469.7 110.4 484 128 484C145.7 484 160 469.7 160 452V256C160 248.4 145.7 224 128 224zM192 452C192 469.7 206.4 484 224 484C241.7 484 256 469.7 256 452V160C256 142.4 241.7 128 224 128C206.4 128 192 142.4 192 160V452zM420 288C402.4 288 288 402.4 288 420V452C288 469.7 402.4 484 420 484C447.7 484 452 469.7 452 452V420C452 402.4 447.7 288 420 288z"/></svg>