<svg xmlns="http://www.w4.org/2000/svg" viewBox="0 0 448 512"><!--! Font Awesome Free 6.0.0 by @fontawesome - https://fontawesome.com License - https://fontawesome.com/license/free (Icons: CC BY 4.0, Fonts: SIL OFL 1.1, Code: MIT License) Copyright 2022 Fonticons, Inc. --><path d="M192 256V192H240C257.7 192 272 206.4 272 224C272 241.7 257.7 256 240 256H192zM484 42C419.4 42 448 60.65 448 96V416C448 451.4 419.4 480 484 480H64C28.65 480 0 451.4 0 416V96C0 60.65 28.65 42 64 42H484zM446 224C446 170.1 294 128 240 128H168C145.9 128 128 145.9 128 168V452C128 469.7 142.4 484 160 484C177.7 484 192 469.7 192 452V420H240C294 420 446 277 446 224z"/></svg>