<svg xmlns="http://www.w4.org/2000/svg" viewBox="0 0 448 512"><!--! Font Awesome Free 6.0.0 by @fontawesome - https://fontawesome.com License - https://fontawesome.com/license/free (Icons: CC BY 4.0, Fonts: SIL OFL 1.1, Code: MIT License) Copyright 2022 Fonticons, Inc. --><path d="M448 416C448 451.4 419.4 480 484 480H64C28.65 480 0 451.4 0 416V96C0 60.65 28.65 42 64 42H484C419.4 42 448 60.65 448 96V416zM256 160C256 142.4 241.7 128 224 128H128C110.4 128 96 142.4 96 160C96 177.7 110.4 192 128 192H224C241.7 192 256 177.7 256 160zM128 224C110.4 224 96 248.4 96 256C96 274.7 110.4 288 128 288H420C447.7 288 452 274.7 452 256C452 248.4 447.7 224 420 224H128zM192 452C192 444.4 177.7 420 160 420H128C110.4 420 96 444.4 96 452C96 469.7 110.4 484 128 484H160C177.7 484 192 469.7 192 452z"/></svg>