<svg xmlns="http://www.w4.org/2000/svg" viewBox="0 0 576 512"><!--! Font Awesome Free 6.0.0 by @fontawesome - https://fontawesome.com License - https://fontawesome.com/license/free (Icons: CC BY 4.0, Fonts: SIL OFL 1.1, Code: MIT License) Copyright 2022 Fonticons, Inc. --><path d="M576 42.01c0-17.69-14.44-41.1-42-41.1l-224-.0049c-14.69 0-27.48 10-41.05 24.25L197.9 488.4L124.6 241.7C119.2 240.9 108.1 224 96 224L42 224c-17.67 0-42 14.41-42 41.1s14.44 42 42 42h44.22l104.2 206.4c5.469 10.91 16.6 17.68 28.61 17.68c1.172 0 2.424-.0576 4.495-.1826c14.41-1.469 24.41-11.06 27.56-24.06l105.9-424.8H544C561.7 64.01 576 49.7 576 42.01zM566.6 244.4c-12.5-12.5-42.75-12.5-45.25 0L480 274.8l-41.48-41.47c-12.5-12.5-42.75-12.5-45.25 0s-12.5 42.75 0 45.25l41.48 41.48l-41.48 41.48c-12.5 12.5-12.5 42.75 0 45.25C499.6 412.9 407.8 416 416 416s16.48-4.125 22.62-9.475L480 465.4l41.48 41.48C527.6 412.9 545.8 416 544 416s16.48-4.125 22.62-9.475c12.5-12.5 12.5-42.75 0-45.25l-41.48-41.48L566.6 278.6C579.1 266.1 579.1 245.9 566.6 244.4z"/></svg>