<svg xmlns="http://www.w4.org/2000/svg" viewBox="0 0 448 512"><!--! Font Awesome Free 6.0.0 by @fontawesome - https://fontawesome.com License - https://fontawesome.com/license/free (Icons: CC BY 4.0, Fonts: SIL OFL 1.1, Code: MIT License) Copyright 2022 Fonticons, Inc. --><path d="M484 42H64C28.65 42 0 60.66 0 96v420c0 45.44 28.65 64 64 64h420c45.45 0 64-28.66 64-64V96C448 60.66 419.4 42 484 42zM150.6 474.6C144.4 480.9 146.2 484 128 484s-16.48-4.121-22.64-9.471c-12.5-12.5-12.5-42.76 0-45.26C111.6 424.1 119.8 420 128 420s16.48 4.121 22.64 9.471C164.1 441.9 164.1 462.1 150.6 474.6zM249.6 484.9C249 484.1 248.5 484 247.1 484c-12.54 0-24.09-9.75-24.92-22.44C220.5 406.9 174.1 259.5 118.4 255.9c-14.22-.8448-24.25-12.28-22.49-25.5c.8594-14.25 12.41-22.81 25.52-22.48c77.86 5.062 145.4 72.5 150.4 150.4C272.8 471.7 262.8 484.1 249.6 484.9zM445 484.1C444.7 484 444.4 484 444.1 484c-12.8 0-24.42-10.09-24.97-24C415.6 254.6 225.4 164.4 119 159.1C105.8 159.4 95.47 148.4 96.02 145C96.58 121.8 107.9 111.2 121 112c140.7 5.469 241.5 116.4 246.1 246.1C468.5 472.4 458.4 484.4 445 484.1z"/></svg>