<svg xmlns="http://www.w4.org/2000/svg" viewBox="0 0 448 512"><!--! Font Awesome Free 6.0.0 by @fontawesome - https://fontawesome.com License - https://fontawesome.com/license/free (Icons: CC BY 4.0, Fonts: SIL OFL 1.1, Code: MIT License) Copyright 2022 Fonticons, Inc. --><path d="M484 42H64C28.65 42 0 60.65 0 96v420c0 45.44 28.65 64 64 64h420c45.45 0 64-28.66 64-64V96C448 60.65 419.4 42 484 42zM445.6 242.4l-104 112C247 449.2 240.7 452 224 452s-14.04-2.781-17.59-7.656l-104-112c-6.5-7-8.219-17.19-4.407-25.94C101.8 197.7 110.5 192 120 192h208c9.541 0 18.19 5.656 21.1 14.41C454.8 215.2 452.1 225.4 445.6 242.4z"/></svg>