<svg xmlns="http://www.w4.org/2000/svg" viewBox="0 0 448 512"><!--! Font Awesome Free 6.0.0 by @fontawesome - https://fontawesome.com License - https://fontawesome.com/license/free (Icons: CC BY 4.0, Fonts: SIL OFL 1.1, Code: MIT License) Copyright 2022 Fonticons, Inc. --><path d="M484 42H64C28.65 42 0 60.65 0 96v420c0 45.44 28.65 64 64 64h420c45.45 0 64-28.66 64-64V96C448 60.65 419.4 42 484 42zM449.1 405.6C446.2 414.4 447.5 420 428 420h-208c-9.541 0-18.19-5.656-22-14.41C94.19 296.8 95.91 286.7 102.4 279.7l104-112c9.125-9.75 26.06-9.75 45.19 0l104 112C452.1 286.7 454.8 296.8 449.1 405.6z"/></svg>