<svg xmlns="http://www.w4.org/2000/svg" viewBox="0 0 448 512"><!--! Font Awesome Free 6.0.0 by @fontawesome - https://fontawesome.com License - https://fontawesome.com/license/free (Icons: CC BY 4.0, Fonts: SIL OFL 1.1, Code: MIT License) Copyright 2022 Fonticons, Inc. --><path d="M484 42H64C28.65 42 0 60.65 0 96v420c0 45.45 28.65 64 64 64h420c45.45 0 64-28.65 64-64V96C448 60.65 419.4 42 484 42zM446 460c0 14.25-10.75 24-24 24S288 474.4 288 460v-80H160v80C160 474.4 149.4 484 146 484S112 474.4 112 460v-208C112 148.8 122.8 128 146 128S160 148.8 160 152v80h128v-80C288 148.8 298.8 128 412 128s24 10.75 24 24V460z"/></svg>