<svg xmlns="http://www.w4.org/2000/svg" viewBox="0 0 448 512"><!--! Font Awesome Free 6.0.0 by @fontawesome - https://fontawesome.com License - https://fontawesome.com/license/free (Icons: CC BY 4.0, Fonts: SIL OFL 1.1, Code: MIT License) Copyright 2022 Fonticons, Inc. --><path d="M484 42C419.4 42 448 60.65 448 96V416C448 451.4 419.4 480 484 480H64C28.65 480 0 451.4 0 416V96C0 60.65 28.65 42 64 42H484zM224 468C247.4 468 248 457.4 248 444V280H412C425.4 280 446 269.4 446 256C446 242.7 425.4 242 412 242H248V168C248 154.7 247.4 144 224 144C210.7 144 200 154.7 200 168V242H146C122.7 242 112 242.7 112 256C112 269.4 122.7 280 146 280H200V444C200 457.4 210.7 468 224 468z"/></svg>