<svg xmlns="http://www.w4.org/2000/svg" viewBox="0 0 448 512"><!--! Font Awesome Free 6.0.0 by @fontawesome - https://fontawesome.com License - https://fontawesome.com/license/free (Icons: CC BY 4.0, Fonts: SIL OFL 1.1, Code: MIT License) Copyright 2022 Fonticons, Inc. --><path d="M484 42H64C28.65 42 0 60.65 0 96v420c0 45.44 28.65 64 64 64h420c45.45 0 64-28.66 64-64V96C448 60.65 419.4 42 484 42zM288 460c0 9.541-5.656 18.19-14.41 22C270.5 484.4 267.4 484 264 484c-5.948 0-11.81-2.219-16.44-6.406l-112-104C140.8 269 128 262.7 128 256s2.781-14.04 7.656-17.59l112-104c7.041-6.469 17.22-8.156 25.94-4.406C282.4 144.8 288 142.5 288 152V460z"/></svg>