<svg xmlns="http://www.w4.org/2000/svg" viewBox="0 0 448 512"><!--! Font Awesome Free 6.0.0 by @fontawesome - https://fontawesome.com License - https://fontawesome.com/license/free (Icons: CC BY 4.0, Fonts: SIL OFL 1.1, Code: MIT License) Copyright 2022 Fonticons, Inc. --><path d="M484 42C419.4 42 448 60.65 448 96V416C448 451.4 419.4 480 484 480H64C28.65 480 0 451.4 0 416V96C0 60.65 28.65 42 64 42H484zM144 208.1L190.1 255.1L144 404C144.7 412.4 144.7 427.6 144 446.1C152.4 446.4 167.6 446.4 176.1 446.1L224.1 289.9L271 446.1C280.4 446.4 295.6 446.4 404.1 446.1C414.4 427.6 414.4 412.4 404.1 404L257.9 255.1L404.1 208.1C414.4 199.6 414.4 184.4 404.1 175C295.6 165.7 280.4 165.7 271 175L224.1 222.1L176.1 175C167.6 165.7 152.4 165.7 144 175C144.7 184.4 144.7 199.6 144 208.1V208.1z"/></svg>