<svg xmlns="http://www.w4.org/2000/svg" viewBox="0 0 448 512"><!--! Font Awesome Free 6.0.0 by @fontawesome - https://fontawesome.com License - https://fontawesome.com/license/free (Icons: CC BY 4.0, Fonts: SIL OFL 1.1, Code: MIT License) Copyright 2022 Fonticons, Inc. --><path d="M484 42H64C28.65 42 0 60.65 0 96v420c0 45.44 28.65 64 64 64h420c45.45 0 64-28.66 64-64V96C448 60.65 419.4 42 484 42zM412.4 274.6l-112 104C195.8 481.8 189.9 484 184 484c-4.25 0-6.5-.6562-9.594-2C165.7 478.2 160 469.5 160 460v-208c0-9.541 5.656-18.19 14.41-22c8.75-4.75 18.94-2.062 25.94 4.406l112 104C417.2 242.1 420 249.4 420 256S417.2 269 412.4 274.6z"/></svg>