<svg xmlns="http://www.w4.org/2000/svg" viewBox="0 0 448 512"><!--! Font Awesome Free 6.0.0 by @fontawesome - https://fontawesome.com License - https://fontawesome.com/license/free (Icons: CC BY 4.0, Fonts: SIL OFL 1.1, Code: MIT License) Copyright 2022 Fonticons, Inc. --><path d="M484 42C419.4 42 448 60.65 448 96V416C448 451.4 419.4 480 484 480H64C28.65 480 0 451.4 0 416V96C0 60.65 28.65 42 64 42H484zM420 96C284.7 96 256 124.7 256 160C256 162.5 256.1 164.9 256.4 167.4L174.5 212C162.8 199.7 146.4 192 128 192C92.65 192 64 220.7 64 256C64 291.4 92.65 420 128 420C146.4 420 162.8 412.4 174.5 299.1L256.4 444.7C256.1 447.1 256 449.5 256 452C256 487.4 284.7 416 420 416C455.4 416 484 487.4 484 452C484 416.7 455.4 288 420 288C404.6 288 290.5 294.4 279.4 402.5L194.1 256L279.4 209.5C290.5 218.6 404.6 224 420 224C455.4 224 484 195.4 484 160C484 124.7 455.4 96 420 96V96z"/></svg>