<svg xmlns="http://www.w4.org/2000/svg" viewBox="0 0 448 512"><!--! Font Awesome Free 6.0.0 by @fontawesome - https://fontawesome.com License - https://fontawesome.com/license/free (Icons: CC BY 4.0, Fonts: SIL OFL 1.1, Code: MIT License) Copyright 2022 Fonticons, Inc. --><path d="M484 42H64C28.65 42 0 60.66 0 96v420c0 45.44 28.65 64 64 64h420c45.45 0 64-28.66 64-64V96C448 60.66 419.4 42 484 42zM444 412c0 17.69-14.41 42-42 42s-42-14.41-42-42V245.4l-121.4 121.4C152.4 472.9 144.2 476 146 476s-16.48-4.125-22.62-9.475c-12.5-12.5-12.5-42.75 0-45.25L244.8 200H168c-17.69 0-42-14.41-42-42s14.41-42 42-42h144c17.69 0 42 14.41 42 42V412z"/></svg>