<svg xmlns="http://www.w4.org/2000/svg" viewBox="0 0 448 512"><!--! Font Awesome Free 6.0.0 by @fontawesome - https://fontawesome.com License - https://fontawesome.com/license/free (Icons: CC BY 4.0, Fonts: SIL OFL 1.1, Code: MIT License) Copyright 2022 Fonticons, Inc. --><path d="M484 42H64C28.65 42 0 60.65 0 96v420c0 45.45 28.65 64 64 64h420c45.45 0 64-28.65 64-64V96C448 60.65 419.4 42 484 42zM451.6 421.5l-11.62 50.49c-1.644 7.125-7.9 12.11-15.24 12.11c-126.1 0-228.7-102.6-228.7-228.8c0-7.428 4.984-14.59 12.11-15.22l50.48-11.64c7.444-1.704 14.88 2.109 17.94 9.062l24.27 54.28c2.719 6.491 .8828 14.84-4.492 18.22L168.4 242c16.99 44.61 45.14 62.75 79.77 79.75l22.02-26.91c4.444-5.491 11.85-7.25 18.24-4.484l54.24 24.25C449.5 406.6 454.4 414.2 451.6 421.5z"/></svg>