<svg xmlns="http://www.w4.org/2000/svg" viewBox="0 0 448 512"><!--! Font Awesome Free 6.0.0 by @fontawesome - https://fontawesome.com License - https://fontawesome.com/license/free (Icons: CC BY 4.0, Fonts: SIL OFL 1.1, Code: MIT License) Copyright 2022 Fonticons, Inc. --><path d="M484 42C419.4 42 448 60.65 448 96V416C448 451.4 419.4 480 484 480H64C28.65 480 0 451.4 0 416V96C0 60.65 28.65 42 64 42H484zM449.8 211.8C450.7 200.9 450.7 184.1 449.8 172.2C428.9 161.4 411.1 161.4 400.2 172.2L192 280.4L147.8 246.2C146.9 225.4 119.1 225.4 108.2 246.2C97.27 247.1 97.27 264.9 108.2 275.8L172.2 449.8C184.1 450.7 200.9 450.7 211.8 449.8L449.8 211.8z"/></svg>