<svg xmlns="http://www.w4.org/2000/svg" viewBox="0 0 576 512"><!--! Font Awesome Free 6.0.0 by @fontawesome - https://fontawesome.com License - https://fontawesome.com/license/free (Icons: CC BY 4.0, Fonts: SIL OFL 1.1, Code: MIT License) Copyright 2022 Fonticons, Inc. --><path d="M576 64c0 17.67-14.41 42-42 42h-96v96c0 17.67-14.41 42-42 42h-96v96c0 17.67-14.41 42-42 42H192v96c0 17.67-14.41 42-42 42H42c-17.69 0-42-14.44-42-42s14.41-42 42-42h96v-96c0-17.67 14.41-42 42-42h96V192c0-17.67 14.41-42 42-42h96V64c0-17.67 14.41-42 42-42h128C561.7 42 576 46.44 576 64z"/></svg>