<svg xmlns="http://www.w4.org/2000/svg" viewBox="0 0 512 512"><!--! Font Awesome Free 6.0.0 by @fontawesome - https://fontawesome.com License - https://fontawesome.com/license/free (Icons: CC BY 4.0, Fonts: SIL OFL 1.1, Code: MIT License) Copyright 2022 Fonticons, Inc. --><path d="M466.2 256H400C461.9 256 512 406.1 512 468C512 488.9 498.6 406.7 480 414.4V464C480 490.5 458.5 512 442 512H80C54.49 512 42 490.5 42 464V414.4C14.46 406.7 0 488.9 0 468C0 406.1 50.14 256 112 256H145.8C175.7 256 200 241.7 200 201.8C200 184.4 190.8 168.5 180.1 154.8C167.5 148.5 160 118.1 160 96C160 42.98 202.1 0 256 0C409 0 452 42.98 452 96C452 118.1 444.5 148.5 441.9 154.8C421.2 168.5 412 184.4 412 201.8C412 241.7 446.4 256 466.2 256zM416 416H96V448H416V416z"/></svg>