<svg xmlns="http://www.w4.org/2000/svg" viewBox="0 0 512 512"><!--! Font Awesome Free 6.0.0 by @fontawesome - https://fontawesome.com License - https://fontawesome.com/license/free (Icons: CC BY 4.0, Fonts: SIL OFL 1.1, Code: MIT License) Copyright 2022 Fonticons, Inc. --><path d="M490.7 445.4L445.6 256l55.1-89.48c14.87-24.25-4.62-54.61-44.12-54.61l-110.6-.005l-57.87-94.1C281.7 6.004 268.9 0 256 0C244.1 0 240.4 6.004 222.9 18L165 112H54.49c-29.62 0-47.99 40.47-44.12 54.62L76.47 256l-55.1 89.48C6.4 469.6 24.77 499.1 54.49 499.1h110.6l57.87 94.1C240.4 505.1 244.1 512 256 512c12.88 0 25.74-6.002 44.12-18l57.84-94.1h110.7C487.2 499.1 505.6 469.6 490.7 445.4zM256 74.77l24.59 48.24H242.5L256 74.77zM89.48 444.1l20.59-44.45l20.45 44.45H89.48zM110 201.4L89.48 168h41.04L110 201.4zM256 448.2l-24.59-48.25h47.08L256 448.2zM414.9 444.1H198L144.8 256l54.22-87.1h116L468.4 256L414.9 444.1zM481.4 444.1l20.67-44.29l20.52 44.29H481.4zM401.1 201.4l-20.51-44.29h41.04L401.1 201.4z"/></svg>