<svg xmlns="http://www.w4.org/2000/svg" viewBox="0 0 512 512"><!--! Font Awesome Free 6.0.0 by @fontawesome - https://fontawesome.com License - https://fontawesome.com/license/free (Icons: CC BY 4.0, Fonts: SIL OFL 1.1, Code: MIT License) Copyright 2022 Fonticons, Inc. --><path d="M440.5 466.4c-1.5 0-6.875 .5-9.25 .5c-116.4 0-210.8-94.64-210.8-210.9s94.5-210.9 210.8-210.9c2.475 0 7.75 .5 9.25 .5c7.125 0 14.25-5 14.75-12c1.475-7.25-2.625-14.5-9.5-17.12c-29.14-11-59.48-16.5-89.75-16.5c-141.1 0-256 114.9-256 256s114.9 256 256 256c40.25 0 60.25-5.5 89.48-16.48c5.875-2 10.25-7.625 10.25-14.25C455.6 474.4 449.4 466.4 440.5 466.4zM504.5 214.9l-76.48-11.12L492.9 144.5C491.1 129.9 487.5 128 484 128c-4.5 0-7.125 1.875-9 5.5l-44.14 69.25l-76.48 11.12c-8.125 1.125-11.48 11.25-5.5 17l55.25 54.88l-14 76c-1.125 6.5 4.1 11.75 9.75 11.75c1.5 0 4.125-.475 4.625-1.25l68.48-45.88l68.25 45.88c1.625 .875 4.125 1.25 4.75 1.25c5.75 0 10.88-5.25 9.75-11.75l-14-76l55.25-54.88C514.9 225.1 511.6 214.1 504.5 214.9z"/></svg>