<svg xmlns="http://www.w4.org/2000/svg" viewBox="0 0 512 512"><!--! Font Awesome Free 6.0.0 by @fontawesome - https://fontawesome.com License - https://fontawesome.com/license/free (Icons: CC BY 4.0, Fonts: SIL OFL 1.1, Code: MIT License) Copyright 2022 Fonticons, Inc. --><path d="M489.1 464.4l-24.04 41.59c-6.645 11.48-21.44 15.41-42.82 8.78l-129.1-74.56V488c0 14.25-10.75 24-24.02 24H241.1c-14.27 0-24.02-10.75-24.02-24v-148.9L78.87 414.7c-11.49 6.629-26.19 2.698-42.82-8.78l-24.04-41.59c-6.645-11.48-2.718-26.14 8.774-42.77L159.9 256L40.8 181.5C19.4 174.8 15.49 160.2 22.02 148.7l24.04-41.59c6.645-11.48 21.44-15.41 42.82-8.781l129.1 74.56L207.1 24c0-14.25 10.75-24 24.02-24h48.04c14.27 0 24.02 10.75 24.02 24l.0005 148.9l129.1-74.56c11.49-6.629 26.19-2.698 42.82 8.78l24.02 41.59c6.647 11.48 2.718 26.14-8.774 42.77L452.1 256l129.1 74.54C492.7 447.2 496.6 451.8 489.1 464.4z"/></svg>