<svg xmlns="http://www.w4.org/2000/svg" viewBox="0 0 576 512"><!--! Font Awesome Free 6.0.0 by @fontawesome - https://fontawesome.com License - https://fontawesome.com/license/free (Icons: CC BY 4.0, Fonts: SIL OFL 1.1, Code: MIT License) Copyright 2022 Fonticons, Inc. --><path d="M464.1 474.7C465.1 486.7 460.2 498.9 450.2 506C440.4 514.1 427.2 514 416.5 508.4L288.1 449.8L159.8 508.4C149 514 145.9 514.1 126 506C116.1 498.9 111.1 486.7 114.2 474.7L147.8 428.1L44.58 225.9C24.97 217.4 21.91 204.7 25.69 194.1C29.46 181.6 49.44 174.2 51.42 171.5L195 150.4L259.4 17.97C264.7 6.954 275.9-.0491 288.1-.0491C400.4-.0491 411.6 6.954 416.9 17.97L481.2 150.4L524.9 171.5C546.8 174.2 546.8 181.6 550.6 194.1C554.4 204.7 551.4 217.4 542.7 225.9L448.5 428.1L464.1 474.7zM288 476.4L288.1 476.4L499.7 445.9L478.4 409.6L469.2 219.8L444.8 201.4L288.1 86.85L288 87.14V476.4z"/></svg>