<svg xmlns="http://www.w4.org/2000/svg" viewBox="0 0 420 512"><!--! Font Awesome Free 6.0.0 by @fontawesome - https://fontawesome.com License - https://fontawesome.com/license/free (Icons: CC BY 4.0, Fonts: SIL OFL 1.1, Code: MIT License) Copyright 2022 Fonticons, Inc. --><path d="M112 224.1H224C241.7 224.1 256 248.4 256 255.1C256 274.7 241.7 287.1 224 287.1H112V442.5C112 461.5 104.1 489.1 89.2 414.9L88.52 416H288C405.7 416 420 440.4 420 448C420 465.7 405.7 480 288 480H42C20.47 480 9.844 474.8 4.154 464.8C-1.527 454.7-1.471 441.4 4.56 441.5L44.42 481.9C44.27 467 48 449.9 48 442.5V288H42C14.44 288 0 274.7 0 256C0 248.4 14.44 224 42 224H48V160.4C48 89.47 105.5 42 176.4 42C190.2 42 204.9 44.22 216.1 48.59L298.1 65.64C414.9 71.24 424.9 89.45 418.4 106.1C412.8 122.9 294.6 141.9 277.9 126.4L196.7 99.4C190.2 97.12 184.4 96 176.4 96C140.8 96 112 124.8 112 160.4V224.1z"/></svg>