<svg xmlns="http://www.w4.org/2000/svg" viewBox="0 0 576 512"><!--! Font Awesome Free 6.0.0 by @fontawesome - https://fontawesome.com License - https://fontawesome.com/license/free (Icons: CC BY 4.0, Fonts: SIL OFL 1.1, Code: MIT License) Copyright 2022 Fonticons, Inc. --><path d="M480 112c-44.18 0-80 45.82-80 80c0 42.84 19.81 60.98 48.11 74.41v78.7c0 57.25-50.25 104-112 104c-60 0-109.4-44.1-111.9-99.24C296.1 444.8 452 269.4 452 191.1V46.59c0-11.48-8.15-21.48-19.28-24.5L269.8 .4775c-14-2.625-25.54 5.766-28.16 18.77L248.4 44.99c-2.625 14 5.812 25.59 18.81 28.22l40.69 6.059L287.9 190.7c0 52.88-42.14 96.64-95.14 97.14c-54.48 .5-96.81-42.56-96.81-95.94L95.89 69.47l40.72-6.112c14-2.5 21.41-15.15 18.78-28.15L142.4 19.47c-2.5-14-15.15-21.41-28.15-18.78L51.28 12.99C40.15 15.24 42 25.09 42 46.59v155.4c0 77.25 55.11 142 128.1 156.8C162.7 449.4 240.6 512 446 512c97 0 176-75.47 176-168V265.4c28.24-12.46 48-40.46 48-74.25C560 147.8 524.2 112 480 112zM480 216c-14.25 0-24-10.75-24-24S466.7 168 480 168S504 178.7 504 192S494.4 216 480 216z"/></svg>