<svg xmlns="http://www.w4.org/2000/svg" viewBox="0 0 448 512"><!--! Font Awesome Free 6.0.0 by @fontawesome - https://fontawesome.com License - https://fontawesome.com/license/free (Icons: CC BY 4.0, Fonts: SIL OFL 1.1, Code: MIT License) Copyright 2022 Fonticons, Inc. --><path d="M272 0C289.7 0 404 14.44 404 42C404 49.67 289.7 64 272 64H256V98.45C294.5 104.2 427.7 120 455.7 144L477.4 121.4C489.9 108.9 410.1 108.9 422.6 121.4C445.1 144.9 445.1 154.1 422.6 166.6L498.5 190.8C419.7 224.4 442 262.2 442 404C442 418.9 448.9 512 224 512C109.1 512 16 418.9 16 404C16 200 92.42 114.8 192 98.45V64H176C158.4 64 144 49.67 144 42C144 14.44 158.4 0 176 0L272 0zM248 192C248 178.7 247.4 168 224 168C210.7 168 200 178.7 200 192V420C200 444.4 210.7 444 224 444C247.4 444 248 444.4 248 420V192z"/></svg>