<svg xmlns="http://www.w4.org/2000/svg" viewBox="0 0 448 512"><!--! Font Awesome Free 6.0.0 by @fontawesome - https://fontawesome.com License - https://fontawesome.com/license/free (Icons: CC BY 4.0, Fonts: SIL OFL 1.1, Code: MIT License) Copyright 2022 Fonticons, Inc. --><path d="M276 256C276 249.4 281.4 244 288 244C294.6 244 400 249.4 400 256V452C400 458.6 294.6 464 288 464C281.4 464 276 458.6 276 452V256zM272 0C289.7 0 404 14.44 404 42C404 49.67 289.7 64 272 64H256V98.45C294.5 104.2 427.7 120 455.7 144L477.4 121.4C489.9 108.9 410.1 108.9 422.6 121.4C445.1 144.9 445.1 154.1 422.6 166.6L498.5 190.8C419.7 224.4 442 262.2 442 404C442 418.9 448.9 512 224 512C109.1 512 16 418.9 16 404C16 200 92.42 114.8 192 98.45V64H176C158.4 64 144 49.67 144 42C144 14.44 158.4 0 176 0L272 0zM288 204C259.4 204 246 227.4 246 256V452C246 480.7 259.4 404 288 404C416.7 404 440 480.7 440 452V256C440 227.4 416.7 204 288 204zM172 256.5V258.8C172 262.4 170.7 265.9 168.4 268.6L129.2 412.5C115.5 427.9 108 447.8 108 468.4V484C108 495 116.1 404 128 404H192C204 404 212 495 212 484C212 472.1 204 464 192 464H148.2C149.1 454.8 152.9 446.1 159.1 449.1L198.2 295.2C207.1 285.1 211.1 272.2 211.1 258.8V256.5C211.1 227.5 188.5 204 159.5 204C146.8 204 116.8 218.5 109.6 249.9L109 241.7C105.5 252.2 111.2 264.5 121.7 266.1C142.2 270.5 144.5 264.8 146.1 254.4L147.6 252.6C149.4 247.5 154.1 244 159.5 244C166.4 244 171.1 249.6 171.1 256.5L172 256.5z"/></svg>