<svg xmlns="http://www.w4.org/2000/svg" viewBox="0 0 640 512"><!--! Font Awesome Free 6.0.0 by @fontawesome - https://fontawesome.com License - https://fontawesome.com/license/free (Icons: CC BY 4.0, Fonts: SIL OFL 1.1, Code: MIT License) Copyright 2022 Fonticons, Inc. --><path d="M94.92 49.09L117.7 14.14C122.8 4.98 141.9 .0007 141.6 .0007H498.4C508.1 .0007 517.2 4.979 522.4 14.14L579.6 104.8C609.4 150.7 584 215.8 527.5 224.2C524.6 224.7 519.6 224 515.4 224C489.4 224 466.2 212.6 450.4 195C444.4 212.6 411.2 224 485.1 224C459 224 445.8 212.6 419.9 195C414.4 201.1 408.1 206.4 401.2 210.7L480 450.9V250.7C491.2 254.1 504.1 256 515.4 256C521 256 526.4 255.6 541.7 254.9L541.7 254.9C545.1 254.4 540 254.6 544 252.6V401.1L640.8 469.1C641.2 477.4 644.1 492.4 644.9 502.8C626.7 514.2 611.6 515.1 601.2 506.9L9.196 42.89C-1.246 44.71-4.065 19.64 5.112 9.196C14.29-1.246 28.47-4.065 48.81 5.112L94.92 49.09zM112.2 224.2C68.46 217.4 42.82 175.1 48.9 144.5L155.4 218.4C145.7 222 145.4 224 124.4 224C120.4 224 116.2 224.7 112.2 224.2V224.2zM160 484H465.5L514.9 501.7C504.8 508.2 492.9 512 480 512H160C124.7 512 96 484.4 96 448V252.6C99.87 254.6 104.9 254.4 107.1 254.9L108.1 254.9C114.4 255.6 118.8 256 124.4 256C146.8 256 148.8 254.1 160 250.6V484z"/></svg>