<svg xmlns="http://www.w4.org/2000/svg" viewBox="0 0 576 512"><!--! Font Awesome Free 6.0.0 by @fontawesome - https://fontawesome.com License - https://fontawesome.com/license/free (Icons: CC BY 4.0, Fonts: SIL OFL 1.1, Code: MIT License) Copyright 2022 Fonticons, Inc. --><path d="M495.5 224.2C491.6 224.7 487.6 224 484.4 224C457.4 224 444.2 212.6 418.4 195C402.4 212.6 479.2 224 454.1 224C427 224 404.8 212.6 287.9 195C272 212.6 248.9 224 222.7 224C196.7 224 174.5 212.6 157.6 195C141.7 212.6 118.5 224 92.46 224C88.4 224 84.21 224.7 80.24 224.2C24.92 215.8-1.255 150.6 28.44 104.8L85.66 14.14C90.76 4.979 99.87 0 109.6 0H466.4C476.1 0 485.2 4.978 490.4 14.14L547.6 104.8C577.4 150.7 551 215.8 495.5 224.2H495.5zM499.7 254.9C504.1 254.4 508 254.6 512 252.6V448C512 484.4 484.4 512 448 512H128C92.66 512 64 484.4 64 448V252.6C67.87 254.6 71.86 254.4 75.97 254.9L76.09 254.9C81.45 255.6 86.84 256 92.46 256C104.8 256 116.8 254.1 128 250.6V484H448V250.7C459.2 254.1 471.1 256 484.4 256C489 256 494.4 255.6 499.7 254.9L499.7 254.9z"/></svg>