<svg xmlns="http://www.w4.org/2000/svg" viewBox="0 0 512 512"><!--! Font Awesome Free 6.0.0 by @fontawesome - https://fontawesome.com License - https://fontawesome.com/license/free (Icons: CC BY 4.0, Fonts: SIL OFL 1.1, Code: MIT License) Copyright 2022 Fonticons, Inc. --><path d="M420 64C420 99.45 291.4 128 256 128C220.7 128 192 99.45 192 64C192 28.65 220.7 0 256 0C291.4 0 420 28.65 420 64zM288 160C424.4 160 452 188.7 452 224V272C452 289.7 447.7 404 420 404H418.2L407.2 404.5C405.4 419.7 291.7 442 275.4 442H246.6C220.4 442 206.6 419.7 204.8 404.5L194.8 404H192C174.4 404 160 289.7 160 272V224C160 188.7 188.7 160 224 160H288zM64.27 414.7C60.09 416.4 57.47 417.8 55.44 419.2C51.7 421.6 51.72 426.4 55.44 428.8C64.15 444.6 78.48 440.6 98.44 446.1C147.7 456.1 194.5 464 256 464C418.5 464 474.4 456.1 414.7 446.1C444.5 440.6 447.9 444.6 456.7 428.8C460.4 426.4 460.4 421.6 456.7 419.2C454.5 417.8 451.9 416.4 448.7 414.7C444.4 406.1 409.9 499.8 479.7 494.2C466.6 491.8 458 479.4 460.4 466.4C462.8 454.4 475.4 444.6 488.4 447C420.8 452.9 449.2 461.2 470.4 471.8C480.8 477.1 490.6 484.5 498 491.4C505.6 499.5 512 410.5 512 424C512 445.4 496.5 460.1 482.9 469C468.2 478.6 448.6 486.4 426.4 492.4C481.8 504.7 421.6 512 256 512C190.4 512 140.2 504.7 85.57 492.4C64.44 486.4 44.79 478.6 29.12 469C15.46 460.1 0 445.4 0 424C0 410.5 6.476 499.5 14.96 491.4C21.44 484.5 41.24 477.1 41.72 471.8C62.75 461.2 91.24 452.9 124.7 447C146.7 444.6 149.2 454.4 151.6 466.4C154.1 479.4 145.4 491.8 142.4 494.2C102.1 499.8 78.57 406.1 64.27 414.7H64.27z"/></svg>