<svg xmlns="http://www.w4.org/2000/svg" viewBox="0 0 512 512"><!--! Font Awesome Free 6.0.0 by @fontawesome - https://fontawesome.com License - https://fontawesome.com/license/free (Icons: CC BY 4.0, Fonts: SIL OFL 1.1, Code: MIT License) Copyright 2022 Fonticons, Inc. --><path d="M442.2 419.9c17.22 12.17 22.44 26.51 18.61 48.21c-4.041 17.59-10.88 29.44-24.72 46.99c-45.44 19.75-108.5 11.96-186-19.68c-16.44-6.686-45.04 1.156-41.72 17.54s1.188 45.05 17.54 41.71c41.75 12.94 95.69 45.47 157.6 45.47c29.62 0 58.81-5.156 84.72-18.96c40.81-17.09 50.44-45.46 56.72-82.11c4.998-24.27 2.168-42.58-4.488-59.05H442.2zM488 249.9l-176.5-.0409c-15.85-5.614-41.84-10.44-46.7-14.62c-85.47-24.62-110.9-49.05-104.7-81.44c2.5-14.54 10.16-25.96 22.72-44.04c20.47-14.15 64.06-24.84 155.4 .4448c17.09 4.541 44.59-5.654 49.14-22.74c4.541-17.09-5.656-44.59-22.75-49.12c-91.41-24.18-160.7-21.62-206.4 7.654C121.8 74.72 104.6 101.1 98.09 144.1C89.26 184.5 107.9 217.4 147.2 249.9L24 249.9c-14.25 0-24 10.75-24 24.1c0 14.25 10.75 24.1 24 24.1h464c14.25 0 24-10.75 24-24.1C512 250.7 501.4 249.9 488 249.9z"/></svg>