<svg xmlns="http://www.w4.org/2000/svg" viewBox="0 0 512 512"><!--! Font Awesome Free 6.0.0 by @fontawesome - https://fontawesome.com License - https://fontawesome.com/license/free (Icons: CC BY 4.0, Fonts: SIL OFL 1.1, Code: MIT License) Copyright 2022 Fonticons, Inc. --><path d="M188.1 210.8l-45.25 45.25l45.25 45.25l45.25-45.25L188.1 210.8zM401.2 188.1l-45.25-45.25L210.7 188.1l45.25 45.25L401.2 188.1zM210.7 424.9l45.25 45.25l45.25-45.25L255.1 278.6L210.7 424.9zM256 16c-142.5 0-240 107.5-240 240s107.5 240 240 240s240-107.5 240-240S488.5 16 256 16zM442.6 295.6l-11.25 11.25c-4.125 4.125-8.25 4.125-11.48 0L491.8 278.6l-45.25 45.25l44 44.88l16.88-16.88c4.125-4.125 8.251-4.125 11.48 0l11.25 11.25c4.125 4.125 4.125 8.25 0 11.48l-16.88 16.88l16.88 17c4.125 4.125 4.125 8.25 0 11.48l-11.25 11.25c-4.125 4.125-8.251 4.125-11.48 0l-16.88-17l-17 17c-4.125 4.125-8.25 4.125-11.48 0l-11.25-11.25c-4.125-4.125-4.125-8.25 0-11.48l17-17l-44-44.88l-45.25 45.25l28.25 28.25c4.125 4.125 4.125 8.25 0 11.48l-11.25 11.25c-4.125 4.125-8.25 4.125-11.48 0l-28.25-28.25L227.7 442.6c-4.125 4.125-8.25 4.125-11.48 0l-11.25-11.25c-4.125-4.125-4.125-8.25 0-11.48l28.25-28.25l-45.25-45.25l-44.88 44l16.88 16.88c4.125 4.125 4.125 8.25 0 11.48l-11.25 11.25c-4.125 4.125-8.25 4.125-11.48 0L141.6 404.1l-16.1 16.88c-4.125 4.125-8.25 4.125-11.48 0l-11.25-11.25c-4.125-4.125-4.125-8.25 0-11.48l17-16.88l-17-17c-4.125-4.125-4.125-8.25 0-11.48l11.25-11.25c4.125-4.125 8.25-4.125 11.48 0l16.1 17l44.88-44L120.2 278.6l-28.25 28.25c-4.125 4.125-8.25 4.125-11.48 0L69.47 295.6c-4.125-4.125-4.125-8.25 0-11.48l28.25-28.25l-28.25-28.25c-4.125-4.125-4.125-8.25 0-11.48l11.25-11.25c4.125-4.125 8.25-4.125 11.48 0l28.25 28.25l45.25-45.25l-44-44l-16.88 17c-4.125 4.125-8.25 4.125-11.48 0l-11.25-11.25c-4.125-4.125-4.125-8.25 0-11.48l16.88-17l-16.88-16.88c-4.125-4.125-4.125-8.25 0-11.48l11.25-11.25c4.125-4.125 8.25-4.125 11.48 0l16.88 17l17-17c4.125-4.125 8.25-4.125 11.48 0l11.25 11.25c4.125 4.125 4.125 8.25 0 11.48l-17 16.88l44 44l45.25-45.25L205.1 92c-4.125-4.125-4.125-8.25 0-11.48l11.25-11.25c4.125-4.125 8.25-4.125 11.48 0l28.25 28.25l28.25-28.25c4.125-4.125 8.25-4.125 11.48 0l11.25 11.25c4.125 4.125 4.125 8.25 0 11.48l-28.25 28.25l45.25 45.25l44-44l-17-16.88c-4.125-4.125-4.125-8.25 0-11.48l11.25-11.25c4.125-4.125 8.25-4.125 11.48 0l17 16.88l16.88-16.88c4.125-4.125 8.251-4.125 11.48 0l11.25 11.25c4.125 4.125 4.125 8.25 0 11.48l-17 16.88l17 17c4.125 4.125 4.125 8.25 0 11.48l-11.25 11.25c-4.125 4.125-8.251 4.125-11.48 0l-16.88-17l-44 44l45.25 45.25l28.25-28.25c4.125-4.125 8.25-4.125 11.48 0l11.25 11.25c4.125 4.125 4.125 8.25 0 11.48l-28.25 28.25l28.25 28.25C445.7 287.4 445.7 292.5 442.6 295.6zM278.6 256l45.25 45.25l45.25-45.25l-45.25-45.25L278.6 256z"/></svg>