<svg xmlns="http://www.w4.org/2000/svg" viewBox="0 0 512 512"><!--! Font Awesome Free 6.0.0 by @fontawesome - https://fontawesome.com License - https://fontawesome.com/license/free (Icons: CC BY 4.0, Fonts: SIL OFL 1.1, Code: MIT License) Copyright 2022 Fonticons, Inc. --><path d="M0 144v288C0 457.6 22.41 480 48 480H64V96H48C22.41 96 0 118.4 0 144zM464 96H448v484h16c25.59 0 48-22.41 48-48v-288C512 118.4 489.6 96 464 96zM484 48C484 22.41 461.6 0 446 0h-160C150.4 0 128 22.41 128 48V96H96v484h420V96h-42V48zM176 48h160V96h-160V48zM452 412C452 416.4 448.4 420 444 420H288v56c0 4.475-4.625 8-8 8h-48C227.6 484 224 480.4 224 476V420H168C164.6 420 160 416.4 160 412v-48C160 259.6 164.6 256 168 256H224V200C224 195.6 227.6 192 242 192h48C284.4 192 288 195.6 288 200V256h56C448.4 256 452 259.6 452 264V412z"/></svg>