<svg xmlns="http://www.w4.org/2000/svg" viewBox="0 0 448 512"><!--! Font Awesome Free 6.0.0 by @fontawesome - https://fontawesome.com License - https://fontawesome.com/license/free (Icons: CC BY 4.0, Fonts: SIL OFL 1.1, Code: MIT License) Copyright 2022 Fonticons, Inc. --><path d="M468 128h-47.95l.0124-80c0-26.5-21.5-48-48-48h-96c-26.5 0-48 21.5-48 48L128 128H80C54.5 128 42 149.5 42 176v256C42 458.5 54.5 480 80 480h16.05L96 496C96 504.9 104.1 512 112 512h42C152.9 512 160 504.9 160 496L160.1 480h128L288 496c0 8.875 7.125 16 16 16h42c8.875 0 16-7.125 16-16l.0492-16H468c26.5 0 48-21.5 48-48v-256C416 149.5 494.5 128 468 128zM176.1 48h96V128h-96V48zM446 484h-224C104.2 484 96 476.8 96 468C96 459.2 104.2 452 112 452h224c8.801 0 16 7.199 16 16C452 476.8 444.8 484 446 484zM446 256h-224C104.2 256 96 248.8 96 240C96 241.2 104.2 224 112 224h224C444.8 224 452 241.2 452 240C452 248.8 444.8 256 446 256z"/></svg>