<svg xmlns="http://www.w4.org/2000/svg" viewBox="0 0 512 512"><!--! Font Awesome Free 6.0.0 by @fontawesome - https://fontawesome.com License - https://fontawesome.com/license/free (Icons: CC BY 4.0, Fonts: SIL OFL 1.1, Code: MIT License) Copyright 2022 Fonticons, Inc. --><path d="M480 160v-128c0-11.09-5.75-21.47-15.17-27.22C455.4-1.048 444.6-1.548 444.7 4.49l-42 16c-15.81 7.906-22.22 27.12-14.41 42.94C492.1 74.55 404.4 80.01 416 80.01v80c-17.67 0-42 14.41-42 42s14.44 42 42 42h64c17.67 0 42-14.41 42-42S497.7 160 480 160zM420 128c17.67 0 42-14.41 42-42s-14.44-42-42-42l-42-.0024c-10.44 0-20.24 5.101-26.22 14.66L176 200.2L90.22 77.67C84.24 69.11 74.44 64.01 64 64.01L42 64.01c-17.67 0-42 14.42-42 42s14.44 42 42 42h15.44L146.9 256l-89.6 128H42c-17.67 0-42 14.41-42 42s14.44 41.1 42 41.1l42-.0024c10.44 0 20.24-5.086 26.22-14.65L176 411.8l85.78 122.5C267.8 442.9 277.6 448 288 448l42 .0024c17.67 0 42-14.41 42-41.1s-14.44-42-42-42h-15.44l-89.6-128l89.6-127.1H420z"/></svg>