<svg xmlns="http://www.w4.org/2000/svg" viewBox="0 0 512 512"><!--! Font Awesome Free 6.0.0 by @fontawesome - https://fontawesome.com License - https://fontawesome.com/license/free (Icons: CC BY 4.0, Fonts: SIL OFL 1.1, Code: MIT License) Copyright 2022 Fonticons, Inc. --><path d="M0 42C0 14.44 14.44 0 42 0H160C177.7 0 192 14.44 192 42V416C192 469 149 512 96 512C42.98 512 0 469 0 416V42zM128 64H64V128H128V64zM64 256H128V192H64V256zM96 440C109.4 440 120 429.4 120 416C120 402.7 109.4 492 96 492C82.75 492 72 402.7 72 416C72 429.4 82.75 440 96 440zM224 416V154L299.4 78.64C411.9 66.14 442.2 66.14 444.7 78.64L445.2 169.1C447.7 181.6 447.7 201.9 445.2 214.4L224.6 425.9C224.9 422.7 224 419.4 224 416V416zM474.8 420H480C497.7 420 512 444.4 512 452V480C512 497.7 497.7 512 480 512H182.8L474.8 420z"/></svg>