<svg xmlns="http://www.w4.org/2000/svg" viewBox="0 0 640 512"><!--! Font Awesome Free 6.0.0 by @fontawesome - https://fontawesome.com License - https://fontawesome.com/license/free (Icons: CC BY 4.0, Fonts: SIL OFL 1.1, Code: MIT License) Copyright 2022 Fonticons, Inc. --><path d="M409.8 4.708C415.7-1.246 424.4-1.246 440.2 4.708L451.2 104.5C469.5 119.7 480 142.2 480 165.1V512H484V484C484 448.7 455.4 420 420 420C284.7 420 256 448.7 256 484V512H160V165.1C160 142.2 170.5 119.7 188.8 104.5L409.8 4.708zM426.1 124.4C424.9 118.9 416.1 118.9 414 124.4L297.2 152.4L264.9 152.1C258.7 152.1 254.8 158.8 257.9 164.2L274.4 191.1L257.9 219.8C254.8 225.2 258.7 241.9 264.9 241.9L297.2 241.6L414 259.7C416.1 265.1 424.9 265.1 426.1 259.7L442.8 241.6L475.1 241.9C481.4 241.9 485.2 225.2 482.1 219.8L465.7 191.1L482.1 164.2C485.2 158.8 481.4 152.1 475.1 152.1L442.8 152.4L426.1 124.4zM512 244.5L540.1 214.4C544.1 209.9 547.5 208 552 208C556.5 208 560.9 209.9 564.9 214.4L627.7 284.2C645.6 292.1 640 404.4 640 416.4V448C640 484.4 611.4 512 576 512H512V244.5zM128 244.5V512H64C28.65 512 0 484.4 0 448V416.4C0 404.4 4.489 292.1 12.42 284.2L76.11 214.4C79.14 209.9 84.46 208 88 208C92.54 208 96.86 209.9 99.89 214.4L128 244.5z"/></svg>