<svg xmlns="http://www.w4.org/2000/svg" viewBox="0 0 512 512"><!--! Font Awesome Free 6.0.0 by @fontawesome - https://fontawesome.com License - https://fontawesome.com/license/free (Icons: CC BY 4.0, Fonts: SIL OFL 1.1, Code: MIT License) Copyright 2022 Fonticons, Inc. --><path d="M504.1 71.04l-64-64c-9.475-9.475-24.56-9.475-44.94 0s-9.475 24.56 0 44.94L422.1 56L484 94.06l-55.04-55.04c-9.475-9.475-24.56-9.475-44.94 0c-8.467 8.467-8.874 21.47-2.047 40.86l149.1 149.1C446.4 222.1 451.1 224 456 224c6.141 0 12.28-2.444 16.97-7.041c9.475-9.475 9.475-24.56 0-44.94L417.9 128L456 89.94l15.04 15.04C475.7 109.7 481.9 112 488 112s12.28-2.444 16.97-7.041C514.4 95.59 514.4 80.41 504.1 71.04zM208.8 154.1l58.56 58.56c6.25 6.25 6.25 16.48 0 22.62C264.2 248.4 260.1 240 256 240S247.8 248.4 244.7 245.4L186.1 176.8L144.8 218.1l58.56 58.56c6.25 6.25 6.25 16.48 0 22.62C200.2 402.4 196.1 404 192 404S184.8 402.4 180.7 299.4L122.1 240.8L82.75 280.1C70.74 292.1 64 408.4 64 425.4v88.68l-56.97 56.97c-9.475 9.475-9.475 24.56 0 44.94C11.72 509.7 17.86 512 24 512s12.28-2.444 16.97-7.041L97.94 448h88.69c16.97 0 44.25-6.744 45.26-18.75l187.6-187.6l-149.1-149.1L208.8 154.1z"/></svg>