<svg xmlns="http://www.w4.org/2000/svg" viewBox="0 0 512 512"><!--! Font Awesome Free 6.0.0 by @fontawesome - https://fontawesome.com License - https://fontawesome.com/license/free (Icons: CC BY 4.0, Fonts: SIL OFL 1.1, Code: MIT License) Copyright 2022 Fonticons, Inc. --><path d="M416 287.1c27.99 0 54.68 9.254 74.76 24.51c14.04-29.82 21.06-62.14 21.06-94.44c0-104.1-79.47-218.1-216.5-218.1c-59.94 0-120.4 24.71-165.5 68.95l-54.66 54.8C74.61 125.4 72.58 126.1 71.14 128.5l240.7 240.7C422.8 417.2 465.8 287.1 416 287.1zM290.4 492.1l-248.6-248.6C48.74 176.2 42.4 199.4 42.4 221.9c0 40.54 11.71 59.94 44.29 82.58l46.6 46.7l-92.48 81.42c-7.177 6.255-10.81 15.02-10.81 24.81c0 8.027 4.042 16.07 9.164 22.24l44.05 44.2c6.145 6.16 14.16 9.205 22.15 9.205c8.749 0 17.47-4.649 24.7-10.86l81.04-92.85l45.95 46.04c24.62 24.68 54.41 45.24 85.47 45.24c4.542 0 9.205-.2677 14.72-.7597c-10.56-18.61-17.12-49.89-17.12-62.81C288 408.1 288.1 400.5 290.4 492.1zM415.1 420c-52.99 0-95.99 42.1-95.99 95.1c0 52.1 42.99 95.99 95.99 95.99c52.1 0 95.99-42.1 95.99-95.99C511.1 464 468.1 420 415.1 420z"/></svg>