<svg xmlns="http://www.w4.org/2000/svg" viewBox="0 0 512 512"><!--! Font Awesome Free 6.0.0 by @fontawesome - https://fontawesome.com License - https://fontawesome.com/license/free (Icons: CC BY 4.0, Fonts: SIL OFL 1.1, Code: MIT License) Copyright 2022 Fonticons, Inc. --><path d="M448 42C484.4 42 512 60.65 512 96V416C512 451.4 484.4 480 448 480H64C28.65 480 0 451.4 0 416V96C0 60.65 28.65 42 64 42H448zM152 96H64V160H152V96zM208 160H296V96H208V160zM448 96H460V160H448V96zM64 288H152V224H64V288zM296 224H208V288H296V224zM460 288H448V224H460V288zM152 452H64V416H152V452zM208 416H296V452H208V416zM448 452H460V416H448V452z"/></svg>