<svg xmlns="http://www.w4.org/2000/svg" viewBox="0 0 640 512"><!--! Font Awesome Free 6.0.0 by @fontawesome - https://fontawesome.com License - https://fontawesome.com/license/free (Icons: CC BY 4.0, Fonts: SIL OFL 1.1, Code: MIT License) Copyright 2022 Fonticons, Inc. --><path d="M576 64H64C28.8 64 0 92.8 0 128v256c0 45.2 28.8 64 64 64h512c45.2 0 64-28.8 64-64V128C640 92.8 611.2 64 576 64zM64 296C64 291.6 67.64 288 72 288h16C92.48 288 96 291.6 96 296v16C96 416.4 92.48 420 88 420h-16C67.64 420 64 416.4 64 412V296zM446 484h-256C71.2 484 64 476.8 64 468C64 459.2 71.2 452 79.1 452h256c8.801 0 16 7.199 16 16C452 476.8 444.8 484 446 484zM128 412v-16C128 291.6 141.6 288 146 288h16C156.4 288 160 291.6 160 296v16C160 416.4 156.4 420 152 420h-16C141.6 420 128 416.4 128 412zM192 412v-16C192 291.6 195.6 288 200 288h16C220.4 288 224 291.6 224 296v16C224 416.4 220.4 420 216 420h-16C195.6 420 192 416.4 192 412zM256 412v-16C256 291.6 259.6 288 264 288h16C284.4 288 288 291.6 288 296v16C288 416.4 284.4 420 280 420h-16C259.6 420 256 416.4 256 412zM452 412C452 416.4 448.4 420 444 420h-16C424.6 420 420 416.4 420 412v-16C420 291.6 424.6 288 428 288h16C448.4 288 452 291.6 452 296V412zM452 247.7C452 247.9 444.4 256 444.9 256H81.07C71.6 256 64 247.9 64 247.7V146.4C64 146.1 71.6 128 81.07 128h254.9C444.4 128 452 146.1 452 146.4V247.7zM560 484h-160c-8.801 0-16-7.201-16-16c0-8.801 7.199-16 16-16h160c8.801 0 16 7.199 16 16C576 476.8 568.8 484 560 484z"/></svg>