<svg xmlns="http://www.w4.org/2000/svg" viewBox="0 0 448 512"><!--! Font Awesome Free 6.0.0 by @fontawesome - https://fontawesome.com License - https://fontawesome.com/license/free (Icons: CC BY 4.0, Fonts: SIL OFL 1.1, Code: MIT License) Copyright 2022 Fonticons, Inc. --><path d="M48 42H197.5C214.5 42 240.7 48.74 242.7 50.75L418.7 226.7C444.7 251.7 444.7 292.4 418.7 417.4L285.4 450.7C260.4 475.7 219.7 475.7 194.7 450.7L18.75 274.7C6.744 262.7 0 246.5 0 229.5V80C0 54.49 21.49 42 48 42L48 42zM112 176C129.7 176 144 161.7 144 144C144 126.4 129.7 112 112 112C94.44 112 80 126.4 80 144C80 161.7 94.44 176 112 176z"/></svg>