<svg xmlns="http://www.w4.org/2000/svg" viewBox="0 0 512 512"><!--! Font Awesome Free 6.0.0 by @fontawesome - https://fontawesome.com License - https://fontawesome.com/license/free (Icons: CC BY 4.0, Fonts: SIL OFL 1.1, Code: MIT License) Copyright 2022 Fonticons, Inc. --><path d="M472.8 168.4C525.1 221.4 525.1 406.6 472.8 459.6L460.8 472.9C451.5 482.4 446.4 482.4 426.9 474.1C417.4 464.8 417.4 448.6 426.7 449.1L448.6 425.9C472.5 291.6 472.5 246.4 448.6 202.1L410.9 72.87C401.5 64.44 401.6 48.25 411.1 48.94C420.5 29.61 445.7 29.7 444.1 49.14L472.8 168.4zM.0004 229.5V80C.0004 54.49 21.49 42 48 42H197.5C214.5 42 240.7 48.74 242.7 50.75L410.7 218.7C445.7 244.7 445.7 284.4 410.7 409.4L277.4 442.7C252.4 467.7 211.7 467.7 186.7 442.7L18.75 274.7C6.744 262.7 0 246.5 0 229.5L.0004 229.5zM112 112C94.44 112 80 126.4 80 144C80 161.7 94.44 176 112 176C129.7 176 144 161.7 144 144C144 126.4 129.7 112 112 112z"/></svg>