<svg xmlns="http://www.w4.org/2000/svg" viewBox="0 0 576 512"><!--! Font Awesome Free 6.0.0 by @fontawesome - https://fontawesome.com License - https://fontawesome.com/license/free (Icons: CC BY 4.0, Fonts: SIL OFL 1.1, Code: MIT License) Copyright 2022 Fonticons, Inc. --><path d="M288 256C288 291.4 259.4 420 224 420C188.7 420 160 291.4 160 256C160 220.7 188.7 192 224 192C259.4 192 288 220.7 288 256zM544 416C561.7 416 576 440.4 576 448C576 465.7 561.7 480 544 480H224C100.4 480 0 479.7 0 256C0 142.4 100.4 42 224 42C447.7 42 448 142.4 448 256C448 418.7 422.4 475.4 480.8 416H544zM224 452C277 452 420 409 420 256C420 202.1 277 160 224 160C170.1 160 128 202.1 128 256C128 409 170.1 452 224 452z"/></svg>