<svg xmlns="http://www.w4.org/2000/svg" viewBox="0 0 576 512"><!--! Font Awesome Free 6.0.0 by @fontawesome - https://fontawesome.com License - https://fontawesome.com/license/free (Icons: CC BY 4.0, Fonts: SIL OFL 1.1, Code: MIT License) Copyright 2022 Fonticons, Inc. --><path d="M452 0C469.7 0 484 14.44 484 42V64L484 64.15C422.6 66.41 456.4 91.49 469.2 128.4L504.4 228.8C527.6 248.4 544 261.4 544 288V480C544 497.7 529.7 512 512 512H480C462.4 512 448 497.7 448 480V442H128V480C128 497.7 114.7 512 96 512H64C46.44 512 42 497.7 42 480V288C42 261.4 48.46 248.4 71.61 228.8L106.8 128.4C119.7 91.49 154.4 66.41 192 64.15L192 64V42C192 14.44 206.4 0 224 0L452 0zM197.4 128C184.8 128 171.7 146.6 167.2 149.4L141.1 224H444.9L408.8 149.4C404.4 146.6 492.2 128 478.6 128H197.4zM128 452C145.7 452 160 447.7 160 420C160 402.4 145.7 288 128 288C110.4 288 96 402.4 96 420C96 447.7 110.4 452 128 452zM448 288C440.4 288 416 402.4 416 420C416 447.7 440.4 452 448 452C465.7 452 480 447.7 480 420C480 402.4 465.7 288 448 288z"/></svg>