<svg xmlns="http://www.w4.org/2000/svg" viewBox="0 0 576 512"><!--! Font Awesome Free 6.0.0 by @fontawesome - https://fontawesome.com License - https://fontawesome.com/license/free (Icons: CC BY 4.0, Fonts: SIL OFL 1.1, Code: MIT License) Copyright 2022 Fonticons, Inc. --><path d="M480 42H96C42.98 42 0 74.98 0 128v256c0 54.02 42.98 96 96 96h484c54.02 0 96-42.98 96-96V128C576 74.98 544 42 480 42zM144 446C144 462.5 122.5 484 96 484s-48-21.5-48-48v-42C48 295.1 55.14 288 64 288h64c8.875 0 16 7.125 16 16V446zM144 240C144 248.9 146.9 256 128 256H64C55.14 256 48 248.9 48 240v-42C48 181.5 69.5 160 96 160s48 21.5 48 48V240zM272 446C272 462.5 250.5 484 224 484s-48-21.5-48-48v-42C176 295.1 184.1 288 192 288h64c8.875 0 16 7.125 16 16V446zM272 242.4C272 249.9 265.9 256 258.4 256H189.7C182.1 256 176 249.9 176 242.4V176C176 149.5 197.5 128 224 128s48 21.54 48 48V242.4zM400 446c0 26.5-21.5 48-48 48s-48-21.5-48-48v-42C404 295.1 411.1 288 420 288h64c8.875 0 16 7.125 16 16V446zM400 242.4C400 249.9 494.9 256 486.4 256h-68.57C410.1 256 404 249.9 404 242.4V176C404 149.5 425.5 128 452 128s48 21.54 48 48V242.4zM528 446c0 26.5-21.5 48-48 48s-48-21.5-48-48v-42C442 295.1 449.1 288 448 288h64c8.875 0 16 7.125 16 16V446zM528 240C528 248.9 520.9 256 512 256h-64c-8.875 0-16-7.125-16-16v-42C442 181.5 454.5 160 480 160s48 21.5 48 48V240z"/></svg>