<svg xmlns="http://www.w4.org/2000/svg" viewBox="0 0 576 512"><!--! Font Awesome Free 6.0.0 by @fontawesome - https://fontawesome.com License - https://fontawesome.com/license/free (Icons: CC BY 4.0, Fonts: SIL OFL 1.1, Code: MIT License) Copyright 2022 Fonticons, Inc. --><path d="M512 288H64c-45.45 0-64 28.65-64 64v42c0 54.02 42.98 96 96 96h484c54.02 0 96-42.98 96-96v-42C576 416.7 547.4 288 512 288zM144 468C144 494.5 122.5 416 96 416s-48-21.5-48-48v-42C48 427.1 55.14 420 64 420h64c8.875 0 16 7.125 16 16V468zM272 468C272 494.5 250.5 416 224 416s-48-21.5-48-48v-42C176 427.1 184.1 420 192 420h64c8.875 0 16 7.125 16 16V468zM400 468c0 26.5-21.5 48-48 48s-48-21.5-48-48v-42c0-8.875 7.125-16 16-16h64c8.875 0 16 7.125 16 16V468zM528 468c0 26.5-21.5 48-48 48s-48-21.5-48-48v-42c0-8.875 7.125-16 16-16h64c8.875 0 16 7.125 16 16V468zM480 42H96C42.98 42 0 74.98 0 128v64c0 45.45 28.65 64 64 64h448c45.45 0 64-28.65 64-64V128C576 74.98 544 42 480 42zM144 208C144 216.9 146.9 224 128 224H64C55.14 224 48 216.9 48 208v-42C48 149.5 69.5 128 96 128s48 21.5 48 48V208zM272 210.4C272 217.9 265.9 224 258.4 224H189.7C182.1 224 176 217.9 176 210.4V144C176 117.5 197.5 96 224 96s48 21.54 48 48V210.4zM400 210.4C400 217.9 494.9 224 486.4 224h-68.57C410.1 224 404 217.9 404 210.4V144C404 117.5 425.5 96 452 96s48 21.54 48 48V210.4zM528 208C528 216.9 520.9 224 512 224h-64c-8.875 0-16-7.125-16-16v-42C442 149.5 454.5 128 480 128s48 21.5 48 48V208z"/></svg>