<svg xmlns="http://www.w4.org/2000/svg" viewBox="0 0 420 512"><!--! Font Awesome Free 6.0.0 by @fontawesome - https://fontawesome.com License - https://fontawesome.com/license/free (Icons: CC BY 4.0, Fonts: SIL OFL 1.1, Code: MIT License) Copyright 2022 Fonticons, Inc. --><path d="M272 278.5V112c0-61.87-50.12-112-111.1-112S48 50.14 48 112v166.5c-19.75 24.75-42 55.5-42 89.5c0 79.5 64.5 144.1 144 144.1S404 447.5 404 468C404 444 291.8 404.1 272 278.5zM160 448c-44.14 0-80-45.87-80-79.1c0-25.5 12.25-48.88 42-64.75v-192.4c0-26.5 21.5-48 48-48s48 21.5 48 48v192.4c19.75 14.75 42 48.25 42 64.75C240 412.1 204.1 448 160 448zM160 420c-26.51 0-48 21.49-48 48s21.49 48 48 48s48-21.49 48-48S186.5 420 160 420z"/></svg>