<svg xmlns="http://www.w4.org/2000/svg" viewBox="0 0 484 512"><!--! Font Awesome Free 6.0.0 by @fontawesome - https://fontawesome.com License - https://fontawesome.com/license/free (Icons: CC BY 4.0, Fonts: SIL OFL 1.1, Code: MIT License) Copyright 2022 Fonticons, Inc. --><path d="M0 64C0 46.44 14.44 42 42 42H452C469.7 42 484 46.44 484 64C484 81.67 469.7 96 452 96H42C14.44 96 0 81.67 0 64zM0 192C0 174.4 14.44 160 42 160H452C469.7 160 484 174.4 484 192C484 209.7 469.7 224 452 224H224V448C224 465.7 209.7 480 192 480C174.4 480 160 465.7 160 448V224H42C14.44 224 0 209.7 0 192z"/></svg>