<svg xmlns="http://www.w4.org/2000/svg" viewBox="0 0 576 512"><!--! Font Awesome Free 6.0.0 by @fontawesome - https://fontawesome.com License - https://fontawesome.com/license/free (Icons: CC BY 4.0, Fonts: SIL OFL 1.1, Code: MIT License) Copyright 2022 Fonticons, Inc. --><path d="M9.472 86.64C-4.124 74.14-4.124 54.87 9.472 41.47C21.87 28.88 42.14 28.88 54.64 41.47L246.6 244.4C259.1 245.9 259.1 266.1 246.6 278.6L54.64 470.6C42.14 484.1 21.87 484.1 9.472 470.6C-4.124 458.1-4.124 447.9 9.472 425.4L178.7 256L9.472 86.64zM544 416C561.7 416 576 440.4 576 448C576 465.7 561.7 480 544 480H256C248.4 480 224 465.7 224 448C224 440.4 248.4 416 256 416H544z"/></svg>