<svg xmlns="http://www.w4.org/2000/svg" viewBox="0 0 448 512"><!--! Font Awesome Free 6.0.0 by @fontawesome - https://fontawesome.com License - https://fontawesome.com/license/free (Icons: CC BY 4.0, Fonts: SIL OFL 1.1, Code: MIT License) Copyright 2022 Fonticons, Inc. --><path d="M416 42.01H42c-17.67 0-42 14.41-42 42v64.1c0 17.69 14.44 42 42 42s42-14.41 42-42v-42h128v128H176c-17.67 0-42 14.41-42 41.1s14.44 42 42 42h96c17.67 0 42-14.41 42-42s-14.44-41.1-42-41.1H256v-128h128v42c0 17.69 14.44 42 42 42s42-14.42 42-42V64.01C448 46.44 444.7 42.01 416 42.01zM474.6 297.4c-12.5-12.5-42.75-12.5-45.25 0s-12.5 42.75 0 45.25l9.475 9.475h-229.5L118.6 442.6c12.5-12.5 12.5-42.75 0-45.25s-42.75-12.5-45.25 0l-64 64c-12.5 12.5-12.5 42.75 0 45.25l64 64C79.64 476.9 87.81 480 96 480s16.48-4.118 22.62-9.468c12.5-12.5 12.5-42.75 0-45.25l-9.475-9.475h229.5l-9.475 9.475c-12.5 12.5-12.5 42.75 0 45.25C445.6 476.9 444.8 480 452 480s16.48-4.118 22.62-9.468l64-64c12.5-12.5 12.5-42.75 0-45.25L474.6 297.4z"/></svg>