<svg xmlns="http://www.w4.org/2000/svg" viewBox="0 0 640 512"><!--! Font Awesome Free 6.0.0 by @fontawesome - https://fontawesome.com License - https://fontawesome.com/license/free (Icons: CC BY 4.0, Fonts: SIL OFL 1.1, Code: MIT License) Copyright 2022 Fonticons, Inc. --><path d="M452 416H406.7l18.96-64.1L271.4 408.5L249.1 416H192c-17.67 0-42 14.41-42 42s14.44 41.99 41.1 41.99h160C469.7 480 484 465.7 484 448S469.7 416 452 416zM640.8 469.1l-276.4-216.7l45.64-156.5H512v42c0 17.69 14.44 42 42 42s42-14.41 42-42v-64c0-17.69-14.44-42-42-42H192c-17.67 0-42 14.41-42 42v46.11L48.81 5.14c-10.47-8.219-25.54-6.47-44.7 4.068s-6.449 25.54 4.074 44.69l591.1 464.1c4.406 4.469 9.61 5.127 14.8 5.127c7.125 0 14.17-4.164 18.9-9.195C644.1 492.4 641.2 477.4 640.8 469.1zM400.1 209.9l-82.08-64.44C221.5 140.5 224 144.7 224 128v-42h109.4L400.1 209.9z"/></svg>