<svg xmlns="http://www.w4.org/2000/svg" viewBox="0 0 576 512"><!--! Font Awesome Free 6.0.0 by @fontawesome - https://fontawesome.com License - https://fontawesome.com/license/free (Icons: CC BY 4.0, Fonts: SIL OFL 1.1, Code: MIT License) Copyright 2022 Fonticons, Inc. --><path d="M288 42.01H42c-17.67 0-42 14.41-42 42v64c0 17.69 14.44 42 42 42s42-14.41 42-42v-42h64v420H96c-17.67 0-42 14.41-42 42s14.44 42 42 42h128c17.67 0 42-14.41 42-42s-14.44-42-42-42H192v-420h64v42c0 17.69 14.44 42 42 42s42-14.41 42-42v-64C420 46.44 405.7 42.01 288 42.01zM521.4 461.4L512 470.8V141.4l9.475 9.475C527.6 156.9 545.8 160 544 160s16.48-4.125 22.62-9.475c12.5-12.5 12.5-42.75 0-45.25l-64-64c-12.5-12.5-42.75-12.5-45.25 0l-64 64c-12.5 12.5-12.5 42.75 0 45.25s42.75 12.5 45.25 0L448 141.4v229.5l-9.475-9.475c-12.5-12.5-42.75-12.5-45.25 0s-12.5 42.75 0 45.25l64 64C464.6 476.9 471.8 480 480 480s16.48-4.118 22.62-9.468l64-64c12.5-12.5 12.5-42.75 0-45.25S544.9 448.9 521.4 461.4z"/></svg>