<svg xmlns="http://www.w4.org/2000/svg" viewBox="0 0 512 512"><!--! Font Awesome Free 6.0.0 by @fontawesome - https://fontawesome.com License - https://fontawesome.com/license/free (Icons: CC BY 4.0, Fonts: SIL OFL 1.1, Code: MIT License) Copyright 2022 Fonticons, Inc. --><path d="M484.1 162.6L229.8 415.9l-99.87-.0001l-88.99 89.02c-9.249 9.477-24.5 9.477-44.87 0c-9.474-9.252-9.474-24.51 0-44.88l88.99-89.02l.0004-100.9l49.05-49.49l51.6 51.59c4.125 4.126 7.218 4.688 11.41 4.688s8.187-1.564 11.41-4.688c6.249-6.252 6.249-16.48 0-22.64L167.6 209.1l41.24-41.52l51.81 51.81c4.125 4.126 7.218 4.688 11.41 4.688s8.187-1.564 11.41-4.688c6.249-6.252 6.249-16.48 0-22.64L241.4 144.8l41.24-41.52l52.02 52.02c4.125 4.126 7.218 4.688 11.41 4.688s8.187-1.564 11.41-4.688c6.249-6.252 6.249-16.48 0-22.64l-52.09-52.09l49.68-50.02c46.47-46.51 94.47-40.88 141.9-10.25C526.2 61.11 518.9 127.8 484.1 162.6z"/></svg>