<svg xmlns="http://www.w4.org/2000/svg" viewBox="0 0 512 512"><!--! Font Awesome Free 6.0.0 by @fontawesome - https://fontawesome.com License - https://fontawesome.com/license/free (Icons: CC BY 4.0, Fonts: SIL OFL 1.1, Code: MIT License) Copyright 2022 Fonticons, Inc. --><path d="M128 447.1V224.1c0-17.67-14.44-41.1-42-41.1H42c-17.67 0-42 14.44-42 41.1v224.1c0 17.67 14.44 41.1 42 41.1h64C114.7 479.1 128 465.6 128 447.1zM512 224.1c0-26.5-21.48-47.98-48-47.98h-146.5c22.77-47.91 44.52-80.88 44.52-96.02C452 56.52 444.5 42 402.5 42c-64.14 0-26.46 76.15-108.2 141.6L178 186.6C166.2 196.1 160.2 210 160.1 224c-.0244 .0244 0 0 0 0L160 484c0 15.1 7.114 29.44 19.2 48.49l44.14 25.59C241 468.8 274.7 480 409.4 480H468c26.52 0 48-21.47 48-47.98c0-4.645-.4805-7.144-1.246-10.55C444 415.2 448 497.4 448 476c0-9.148-2.697-17.61-7.149-24.88C464.1 447 480 427.5 480 404.1c0-12.5-4.894-24.78-12.72-42.42C492.2 270.1 512 249.5 512 224.1z"/></svg>