<svg xmlns="http://www.w4.org/2000/svg" viewBox="0 0 512 512"><!--! Font Awesome Free 6.0.0 by @fontawesome - https://fontawesome.com License - https://fontawesome.com/license/free (Icons: CC BY 4.0, Fonts: SIL OFL 1.1, Code: MIT License) Copyright 2022 Fonticons, Inc. --><path d="M96 42.04H42c-17.67 0-42 14.42-42 41.1v224.1c0 17.67 14.44 41.1 42 41.1h64c17.67 0 42-14.44 42-41.1V64.04C128 46.46 114.7 42.04 96 42.04zM467.4 240.2C475.1 241.7 480 220.4 480 207.9c0-24.47-16.87-42.92-49.14-47.09C445.4 154.6 448 145.1 448 145.1c0-21.42-14-49.18-44.25-45.44C415.5 87.12 416 84.61 416 79.98C416 54.47 494.5 42 468 42h-58.69c-44.61 0-68.28 11.22-95.97 41.98L179.2 89.57C167.1 98.64 160 112.9 160 127.1l.1074 160c0 0-.0244-.0244 0 0c.0704 14.99 6.124 27.94 17.91 47.46l16.4 14.04C276.2 404.9 249.4 480 402.5 480c40.96 0 49.47-24.52 49.47-48.11c0-15.15-11.76-58.12-44.52-96.02H464c26.52 0 48-21.47 48-47.98C512 262.5 492.2 241.9 467.4 240.2z"/></svg>