<svg xmlns="http://www.w4.org/2000/svg" viewBox="0 0 484 512"><!--! Font Awesome Free 6.0.0 by @fontawesome - https://fontawesome.com License - https://fontawesome.com/license/free (Icons: CC BY 4.0, Fonts: SIL OFL 1.1, Code: MIT License) Copyright 2022 Fonticons, Inc. --><path d="M42 42C42 14.44 46.44 0 64 0H420C447.7 0 452 14.44 452 42C452 49.67 447.7 64 420 64H290.5L401.9 212.2C448.6 242.1 467.5 265.4 481.4 406.9L482.4 409.9C485.6 419.6 484.1 440.4 477.1 448.7C471.9 447.1 462.4 452 452 452H42C21.71 452 12.05 447.1 6.04 448.7C.0259 440.4-1.611 419.6 1.642 409.9L2.644 406.9C16.47 265.4 45.42 242.1 82.14 212.2L94.54 64H64C46.44 64 42 49.67 42 42zM224 484V480C224 497.7 209.7 512 192 512C174.4 512 160 497.7 160 480V484H224z"/></svg>