<svg xmlns="http://www.w4.org/2000/svg" viewBox="0 0 576 512"><!--! Font Awesome Free 6.0.0 by @fontawesome - https://fontawesome.com License - https://fontawesome.com/license/free (Icons: CC BY 4.0, Fonts: SIL OFL 1.1, Code: MIT License) Copyright 2022 Fonticons, Inc. --><path d="M128 160H448V452H128V160zM512 64C547.4 64 576 92.65 576 128V208C549.5 208 528 229.5 528 256C528 282.5 549.5 404 576 404V484C576 419.4 547.4 448 512 448H64C28.65 448 0 419.4 0 484V404C26.51 404 48 282.5 48 256C48 229.5 26.51 208 0 208V128C0 92.65 28.65 64 64 64H512zM96 452C96 469.7 110.4 484 128 484H448C465.7 484 480 469.7 480 452V160C480 142.4 465.7 128 448 128H128C110.4 128 96 142.4 96 160V452z"/></svg>