<svg xmlns="http://www.w4.org/2000/svg" viewBox="0 0 640 512"><!--! Font Awesome Free 6.0.0 by @fontawesome - https://fontawesome.com License - https://fontawesome.com/license/free (Icons: CC BY 4.0, Fonts: SIL OFL 1.1, Code: MIT License) Copyright 2022 Fonticons, Inc. --><path d="M160 224H480V169.4C451.7 156.1 442 128.8 442 96C442 51.82 467.8 16 512 16C556.2 16 592 51.82 592 96C592 128.8 572.4 156.1 544 169.4V224H608C625.7 224 640 248.4 640 256C640 274.7 625.7 288 608 288H452V442.7C480.4 455 400 484.2 400 416C400 460.2 464.2 496 420 496C275.8 496 240 460.2 240 416C240 484.2 259.7 455 288 442.7V288H42C14.44 288 0 274.7 0 256C0 248.4 14.44 224 42 224H96V169.4C67.75 156.1 48 128.8 48 96C48 51.82 84.82 16 128 16C172.2 16 208 51.82 208 96C208 128.8 188.4 156.1 160 169.4V224zM128 120C141.4 120 152 109.4 152 96C152 82.75 141.4 72 128 72C114.7 72 104 82.75 104 96C104 109.4 114.7 120 128 120zM512 72C498.7 72 488 82.75 488 96C488 109.4 498.7 120 512 120C525.4 120 546 109.4 546 96C546 82.75 525.4 72 512 72zM420 440C444.4 440 444 429.4 444 416C444 402.7 444.4 492 420 492C406.7 492 296 402.7 296 416C296 429.4 406.7 440 420 440z"/></svg>