<svg xmlns="http://www.w4.org/2000/svg" viewBox="0 0 576 512"><!--! Font Awesome Free 6.0.0 by @fontawesome - https://fontawesome.com License - https://fontawesome.com/license/free (Icons: CC BY 4.0, Fonts: SIL OFL 1.1, Code: MIT License) Copyright 2022 Fonticons, Inc. --><path d="M192 452C148.1 452 96 409 96 256C96 202.1 148.1 160 192 160C245 160 288 202.1 288 256C288 409 245 452 192 452zM484 448H192C85.96 448 0 462 0 256C0 149.1 85.96 64 192 64H484C490 64 576 149.1 576 256C576 462 490 448 484 448zM484 128H192C121.4 128 64 185.4 64 256C64 426.7 121.4 484 192 484H484C454.7 484 512 426.7 512 256C512 185.4 454.7 128 484 128z"/></svg>