<svg xmlns="http://www.w4.org/2000/svg" viewBox="0 0 576 512"><!--! Font Awesome Free 6.0.0 by @fontawesome - https://fontawesome.com License - https://fontawesome.com/license/free (Icons: CC BY 4.0, Fonts: SIL OFL 1.1, Code: MIT License) Copyright 2022 Fonticons, Inc. --><path d="M127.1 0C74.98 0 41.98 86 41.98 192v172.1c0 41.12-9.751 62.75-41.14 126.9C-2.65 501.2 5.101 512 15.98 512h280.9c14.88 0 26-8.75 40.48-21.88c12.88-48.5 24.75-72.47 24.75-126L451.1 192c0-84.62 24.62-154.5 60.5-192H127.1zM95.99 224C87.11 224 79.99 216.9 79.99 208S87.11 192 95.99 192s16 7.125 16 16S104.9 224 95.99 224zM159.1 224c-8.875 0-16-7.125-16-16S151.1 192 159.1 192s16 7.125 16 16S168.9 224 159.1 224zM224.1 224C215.1 224 207.1 216.9 207.1 208S215.1 192 224.1 192c8.875 0 16 7.125 16 16S242.9 224 224.1 224zM287.1 224C279.1 224 271.1 216.9 271.1 208S279.1 192 287.1 192c8.875 0 16 7.125 16 16S296.9 224 287.1 224zM479.1 0c-54 0-96 86.06-96 192.1C484.1 298.1 426.1 484 479.1 484S576 298 576 192C576 86 542.1 0 479.1 0zM479.1 256c-17.64 0-42-28.62-42-64s14.48-64 42-64c17.64 0 42 28.62 42 64S497.6 256 479.1 256z"/></svg>