<svg xmlns="http://www.w4.org/2000/svg" viewBox="0 0 640 512"><!--! Font Awesome Free 6.0.0 by @fontawesome - https://fontawesome.com License - https://fontawesome.com/license/free (Icons: CC BY 4.0, Fonts: SIL OFL 1.1, Code: MIT License) Copyright 2022 Fonticons, Inc. --><path d="M64.98 191.1v172.1c0 41.12-9.75 62.75-41.14 126.9c-4.5 10.25 4.25 20.1 15.14 20.1l280.9-.0059c14.87 0 25.1-8.75 40.47-21.87c10.08-40.15 19.46-57.6 24.1-94.78L66.51 148.8C64.9 162.7 64.98 177.1 64.98 191.1zM640.8 469.1l-109.8-86.02c48.75-9.144 86.94-91.2 86.94-191.1C607.1 86 564.1 0 511.1 0s-96 86-96 191.1c0 49.25 9.462 94.04 24.62 128l-56.644.48l.0049-84.65c0-84.62 24.62-154.5 60.5-191.1H159.1C145.2 0 112.7 18.94 95.72 49.72L48.81 5.109C44.41 1.672 29.19 0 24.04 0c-7.125 0-14.19 4.156-18.91 9.187C-4.061 19.62-1.249 44.72 9.189 42.89l591.1 464.1c10.5 8.204 25.56 6.428 44.69-4.078C644.1 492.4 641.2 477.4 640.8 469.1zM479.1 191.1c0-45.47 14.47-64 42-64c17.62 0 42 28.64 42 64S529.6 255.1 511.1 255.1C494.4 255.1 479.1 227.4 479.1 191.1z"/></svg>