<svg xmlns="http://www.w4.org/2000/svg" viewBox="0 0 448 512"><!--! Font Awesome Free 6.0.0 by @fontawesome - https://fontawesome.com License - https://fontawesome.com/license/free (Icons: CC BY 4.0, Fonts: SIL OFL 1.1, Code: MIT License) Copyright 2022 Fonticons, Inc. --><path d="M442 48C440.8 48 448 40.75 448 42V16C448 7.25 440.8 0 442 0h-416C7.25 0 0 7.25 0 16V42c0 8.75 7.25 16 16 16H42v158.7C11.82 221.2 0 247.1 0 256c0 60.98 44.28 115.2 84.1 150.4l-19.59 64.46C59.16 491.4 74.54 512 96.04 512h255.9c21.5 0 46.88-20.75 40.641.25L464 406.4C414.7 471.2 448 416.1 448 256c0-18.04-11.82-44.85-449.26V48H442zM96 72C96 67.64 99.64 64 104 64h48C156.4 64 160 67.64 160 72v16C160 92.48 156.4 96 152 96h-48C99.64 96 96 92.48 96 88V72zM224 288C145.6 288 64 274.7 64 256c0-17.67 71.64-42 160-42s160 14.44 160 42C484 274.7 412.4 288 224 288z"/></svg>