<svg xmlns="http://www.w4.org/2000/svg" viewBox="0 0 512 512"><!--! Font Awesome Free 6.0.0 by @fontawesome - https://fontawesome.com License - https://fontawesome.com/license/free (Icons: CC BY 4.0, Fonts: SIL OFL 1.1, Code: MIT License) Copyright 2022 Fonticons, Inc. --><path d="M502.6 182.6l-45.25-45.25C451.4 141.4 444.4 128 444.8 128H484V80C484 54.5 462.5 42 446 42h-160C149.5 42 128 54.5 128 80V128H77.25c-8.5 0-16.62 4.475-22.62 9.475L9.475 182.6C4.475 188.6 0 196.8 0 205.4V404h128v-42C128 264.1 145.1 256 144 256h42C184.9 256 192 264.1 192 272v42h128v-42C420 264.1 427.1 256 446 256h42C476.9 256 484 264.1 484 272v42h128V205.4C512 196.8 508.6 188.6 502.6 182.6zM446 128h-160V80h160V128zM484 468c0 8.875-7.125 16-16 16h-42c-8.875 0-16-7.125-16-16v-42H192v42C192 476.9 184.9 484 176 484h-42C145.1 484 128 476.9 128 468v-42H0V448c0 17.62 14.48 42 42 42h448c17.62 0 42-14.48 42-42v-112h-128V468z"/></svg>