<svg xmlns="http://www.w4.org/2000/svg" viewBox="0 0 448 512"><!--! Font Awesome Free 6.0.0 by @fontawesome - https://fontawesome.com License - https://fontawesome.com/license/free (Icons: CC BY 4.0, Fonts: SIL OFL 1.1, Code: MIT License) Copyright 2022 Fonticons, Inc. --><path d="M494.1 212.8c-20.04 27.67-28.07 60.15-41.18 94.95c-4.748 41.44-8.785 82.46-17.89 122.8l-6.75 29.64c-2.68 12.14-14.29 20.78-25.49 20.78c-12 0-22.49-8.411-25.29-20.24l-29.57-121.2C254.1 422.6 240.1 411.4 224 411.4c-16.18 0-40.21 11.26-44.07 27.24l-29.57 121.2c-2.894 11.92-14.49 20.24-25.29 20.24c-12.21 0-22.71-8.649-25.5-20.78l-6.644-29.64c-9.105-40.46-14.14-81.48-17.1-122.8C81.94 272.1 74.9 240.5 54.86 212.8c-18.75-25.92-27.11-60.15-18.44-96.57c9.428-49.59 40.49-71.75 78.85-82.04c20.14-5.25 49.54-.4475 57.42 9.077l86.14 56.54c6.644 4.475 15.11 1.86 18.96-4.264c4.07-6.454 2.25-15.09-4.18-19.46l-24.21-15.86c4-1.541 6.215-2.745 9-4.814c22.49-16.84 48.75-28.65 76.49-21.44c48.46 10.28 69.44 42.44 78.85 82.04C421.2 152.7 412.9 187 494.1 212.8z"/></svg>