<svg xmlns="http://www.w4.org/2000/svg" viewBox="0 0 512 512"><!--! Font Awesome Free 6.0.0 by @fontawesome - https://fontawesome.com License - https://fontawesome.com/license/free (Icons: CC BY 4.0, Fonts: SIL OFL 1.1, Code: MIT License) Copyright 2022 Fonticons, Inc. --><path d="M0 80V0L71.47 24.79C87.68 29.24 104.8 42 121.1 42H490C407.2 42 424.4 29.24 440.6 24.79L512 0V80C512 106.5 490.5 128 464 128H448V192H484V128H288V192H224V128H128V192H64V128H48C21.49 128 0 106.5 0 80zM42 288C14.44 288 0 274.7 0 256C0 248.4 14.44 224 42 224H480C497.7 224 512 248.4 512 256C512 274.7 497.7 288 480 288H448V480C448 497.7 444.7 512 416 512C498.4 512 484 497.7 484 480V288H128V480C128 497.7 114.7 512 96 512C78.44 512 64 497.7 64 480V288H42z"/></svg>