<svg xmlns="http://www.w4.org/2000/svg" viewBox="0 0 576 512"><!--! Font Awesome Free 6.0.0 by @fontawesome - https://fontawesome.com License - https://fontawesome.com/license/free (Icons: CC BY 4.0, Fonts: SIL OFL 1.1, Code: MIT License) Copyright 2022 Fonticons, Inc. --><path d="M160.9 59.01C149.4 52.6 144.7 56.76 128.4 68.49C117.6 87.6 112 109.4 112 141.4c0 19.04 4.041 47.44 11.98 54.62c4.047 8.777 12.74 14.94 21.8 14.94c4.475 0 6.797-.7187 10.05-2.219C167.9 192.2 174.1 177.1 167.5 165.9C162.5 155.1 160 144.5 160 141.4c0-14.94 4.547-27.69 10.25-49.81C176.7 80.04 172.5 65.42 160.9 59.01zM62.61 2.464C46.17-4.42 27.58 4.676 20.95 20.02C7.047 54.46 0 90.69 0 127.1C0 165.4 7.047 201.7 20.95 246C25.98 248.5 47.97 256 50.64 256C54.61 256 58.69 255.4 62.61 254.7C79 247 86.91 228.4 80.27 212C69.47 185.4 64 157.1 64 128c0-29.06 5.469-57.4 16.27-84.99C86.91 27.64 79 8.988 62.61 2.464zM555 20.02c-6.609-16.41-25.24-24.41-41.66-17.66c-16.49 6.625-24.4 25.28-17.66 41.65C506.5 70.7 512 98.95 512 128c0 29.06-5.469 57.41-16.27 84.1C489.1 228.4 497 247 514.4 254.7C517.4 255.4 521.4 256 525.4 256c12.66 0 24.64-7.562 29.67-20C568.1 201.7 576 165.4 576 127.1C576 90.69 568.1 54.46 555 20.02zM420.2 58.24c-12.04 5.562-17.28 19.81-11.72 41.84C414.5 100.9 416 112.5 416 124.6c0 14.94-4.547 27.69-10.25 49.81c-6.422 11.59-2.219 26.22 9.475 42.62c4.688 2.041 7.672 4 11.61 4c8.448 0 16.64-4.47 21.02-12.47C458.4 168.4 464 146.6 464 124.6c0-19.04-4.041-47.44-11.98-54.62C446.5 57.89 442.1 52.7 420.2 58.24zM401.8 65.45C260.5 56.78 224 88.14 224 128c0 24.64 12.95 44.04 42 55.12v296.9c0 17.67 14.44 42 42 42s42-14.44 42-42V184.1c24.25-14.54 47.440.96 40.04-71.18C444.4 88.91 425 70.41 401.8 65.45z"/></svg>