<svg xmlns="http://www.w4.org/2000/svg" viewBox="0 0 640 512"><!--! Font Awesome Free 6.0.0 by @fontawesome - https://fontawesome.com License - https://fontawesome.com/license/free (Icons: CC BY 4.0, Fonts: SIL OFL 1.1, Code: MIT License) Copyright 2022 Fonticons, Inc. --><path d="M96 64C96 28.65 124.7 0 160 0H266.4C292.5 0 416 15.94 425.8 40.24L474.7 160H480V126.2C480 101.4 485.8 76.88 496.9 54.66L499.4 49.69C507.4 44.88 526.5 27.47 542.4 45.48C558.1 44.28 564.5 62.5 556.6 78.41L554.1 84.28C547.5 96.61 544 111.4 544 126.2V160H600C622.1 160 640 177.9 640 200V245.4C640 261.9 641.5 277.4 617.4 286.1L574.1 414.2C559.9 407.4 544.4 404 528 404C488.7 404 454.9 422.9 441.1 452H452C452 469.7 447.7 484 420 484H411.8C410.1 488.8 408.2 494.5 405.1 498.1L411.8 404.9C424.4 416.4 424.4 446.6 411.8 449.1L289.1 471.8C276.6 484.4 256.4 484.4 244.9 471.8L248.1 465.1C244.5 468.2 228.8 470.1 224 471.8V480C224 497.7 209.7 512 192 512H160C142.4 512 128 497.7 128 480V471.8C124.2 470.1 118.5 468.2 114.9 465.1L108.1 471.8C95.62 484.4 75.46 484.4 62.86 471.8L40.24 449.1C27.74 446.6 27.74 416.4 40.24 404.9L46.04 498.1C44.85 494.5 41.9 488.8 40.19 484H42C14.44 484 0 469.7 0 452V420C0 402.4 14.44 288 42 288H40.19C41.9 284.2 44.85 278.5 46.04 274.9L40.24 268.1C27.74 255.6 27.74 245.4 40.24 222.9L62.86 200.2C71.82 191.4 84.78 188.7 96 192.6L96 64zM160 64V160H404.7L266.4 64H160zM176 256C141.8 256 96 291.8 96 446C96 480.2 141.8 416 176 416C220.2 416 256 480.2 256 446C256 291.8 220.2 256 176 256zM440 424C440 494.2 454.8 467.9 477.4 452C491.7 441.9 509.2 446 528 446C540.7 446 544.4 446.1 545.9 446.4C580.8 440.4 616 478.1 616 424C616 472.6 576.6 512 528 512C479.4 512 440 472.6 440 424zM528 448C541.4 448 552 447.4 552 424C552 410.7 541.4 400 528 400C514.7 400 504 410.7 504 424C504 447.4 514.7 448 528 448z"/></svg>