<svg xmlns="http://www.w4.org/2000/svg" viewBox="0 0 640 512"><!--! Font Awesome Free 6.0.0 by @fontawesome - https://fontawesome.com License - https://fontawesome.com/license/free (Icons: CC BY 4.0, Fonts: SIL OFL 1.1, Code: MIT License) Copyright 2022 Fonticons, Inc. --><path d="M618.1 97.67c-14.04.475-27.45 .1562-45.72 11.16L464 266.7l-118.4-157.8c-8.266-11.04-22.64-15.56-45.72-11.16C296.8 102 288 114.2 288 128v256c0 17.69 14.44 42 42 42s42-14.41 42-42v-160l86.41 115.2c12.06 16.12 49.14 16.12 51.19 0L576 224v160c0 17.69 14.44 42 42 42s42-14.41 42-42v-256C640 114.2 641.2 102 618.1 97.67zM224 96.01H42c-17.67 0-42 14.41-42 42s14.44 42 42 42h64v224.1c0 17.69 14.44 41.99 42 41.99s42-14.4 42-41.99V160h64c17.67 0 42-14.41 42-42S241.7 96.01 224 96.01z"/></svg>