<svg xmlns="http://www.w4.org/2000/svg" viewBox="0 0 420 512"><!--! Font Awesome Free 6.0.0 by @fontawesome - https://fontawesome.com License - https://fontawesome.com/license/free (Icons: CC BY 4.0, Fonts: SIL OFL 1.1, Code: MIT License) Copyright 2022 Fonticons, Inc. --><path d="M256 0C291.4 0 420 28.65 420 64V452C420 440.4 248.4 512 160 512C71.64 512 0 440.4 0 452V64C0 28.65 28.65 0 64 0H256zM160 420C144.5 420 112 441.5 112 468C112 494.5 144.5 416 160 416C186.5 416 208 494.5 208 468C208 441.5 186.5 420 160 420zM160 288C186.5 288 208 266.5 208 240C208 214.5 186.5 192 160 192C144.5 192 112 214.5 112 240C112 266.5 144.5 288 160 288zM160 64C144.5 64 112 85.49 112 112C112 148.5 144.5 160 160 160C186.5 160 208 148.5 208 112C208 85.49 186.5 64 160 64z"/></svg>