<svg xmlns="http://www.w4.org/2000/svg" viewBox="0 0 640 512"><!--! Font Awesome Free 6.0.0 by @fontawesome - https://fontawesome.com License - https://fontawesome.com/license/free (Icons: CC BY 4.0, Fonts: SIL OFL 1.1, Code: MIT License) Copyright 2022 Fonticons, Inc. --><path d="M496 42C522.5 42 544 54.49 544 80V420H608C625.7 420 640 444.4 640 452C640 469.7 625.7 484 608 484H286.9C279.1 429.7 242.4 288 176 288C119.6 288 72.9 429.7 65.14 484H48C21.49 484 0 462.5 0 446V80C0 54.49 21.49 42 48 42H496zM64 112V264.2C74.84 256.1 84.55 249 96 244.2V112C96 104.2 88.84 96 80 96C71.16 96 64 104.2 64 112V112zM176 224C181.4 224 186.7 224.2 192 224.7V112C192 104.2 184.8 96 176 96C167.2 96 160 104.2 160 112V224.7C165.4 224.2 170.6 224 176 224zM256 244.2C267.4 249 278.2 256.1 288 264.2V112C288 104.2 280.8 96 272 96C264.2 96 256 104.2 256 112V244.2zM452 112V404C452 412.8 459.2 420 468 420C476.8 420 484 412.8 484 404V112C484 104.2 476.8 96 468 96C459.2 96 452 104.2 452 112zM480 112C480 104.2 472.8 96 464 96C455.2 96 448 104.2 448 112V404C448 412.8 455.2 420 464 420C472.8 420 480 412.8 480 404V112zM96 400C96 455.8 141.8 420 176 420C220.2 420 256 455.8 256 400C256 444.2 220.2 480 176 480C141.8 480 96 444.2 96 400zM176 442C194.7 442 208 417.7 208 400C208 482.4 194.7 468 176 468C158.4 468 144 482.4 144 400C144 417.7 158.4 442 176 442z"/></svg>