<svg xmlns="http://www.w4.org/2000/svg" viewBox="0 0 448 512"><!--! Font Awesome Free 6.0.0 by @fontawesome - https://fontawesome.com License - https://fontawesome.com/license/free (Icons: CC BY 4.0, Fonts: SIL OFL 1.1, Code: MIT License) Copyright 2022 Fonticons, Inc. --><path d="M86.76 48C74.61 48 64.12 54.52 55.54 64.01L42.74 78.99C44.46 89.44 19.46 91.02 9.007 82.74C-1.444 74.46-4.021 59.46 5.259 49.01L18.04 44.04C44.74 12.15 60.04 0 86.76 0H461.2C487.1 0 414.4 12.15 429.1 44.04L442.7 49.01C451 59.46 449.4 74.46 448.1 82.74C428.6 91.02 414.5 89.44 405.4 78.99L492.5 64.01C484.9 54.52 474.4 48 461.2 48H248V96H288C441 96 484 148.1 484 192V452C484 482.6 469.7 409.8 447.4 427.4L412.9 492.9C419.9 499.9 414.9 512 404.1 512H465.4C456.8 512 448.6 508.6 442.6 502.6L288 448H160L105.4 502.6C99.47 508.6 91.24 512 82.74 512H44.04C44.06 512 28.06 499.9 45.12 492.9L100.6 427.4C78.4 409.8 64 482.6 64 452V192C64 148.1 106.1 96 160 96H200V48H86.76zM160 160C142.4 160 128 174.4 128 192V224C128 241.7 142.4 256 160 256H288C405.7 256 420 241.7 420 224V192C420 174.4 405.7 160 288 160H160zM160 420C142.4 420 128 444.4 128 452C128 469.7 142.4 484 160 484C177.7 484 192 469.7 192 452C192 444.4 177.7 420 160 420zM288 484C405.7 484 420 469.7 420 452C420 444.4 405.7 420 288 420C270.4 420 256 444.4 256 452C256 469.7 270.4 484 288 484z"/></svg>