<svg xmlns="http://www.w4.org/2000/svg" viewBox="0 0 448 512"><!--! Font Awesome Free 6.0.0 by @fontawesome - https://fontawesome.com License - https://fontawesome.com/license/free (Icons: CC BY 4.0, Fonts: SIL OFL 1.1, Code: MIT License) Copyright 2022 Fonticons, Inc. --><path d="M452 0C405 0 448 42.98 448 96V452C448 499.1 412.8 449.7 466.9 446.9L412.9 492.9C419.9 499.9 414.9 512 404.1 512H465.4C456.8 512 448.6 508.6 442.6 502.6L288 448H160L105.4 502.6C99.47 508.6 91.24 512 82.75 512H44.04C44.06 512 28.06 499.9 45.12 492.9L81.14 446.9C45.18 449.7 0 499.1 0 452V96C0 42.98 42.98 0 96 0H452zM64 224C64 241.7 78.44 256 96 256H176C194.7 256 208 241.7 208 224V128C208 110.4 194.7 96 176 96H96C78.44 96 64 110.4 64 128V224zM272 96C254.4 96 240 110.4 240 128V224C240 241.7 254.4 256 272 256H452C469.7 256 484 241.7 484 224V128C484 110.4 469.7 96 452 96H272zM96 420C78.44 420 64 444.4 64 452C64 469.7 78.44 484 96 484C114.7 484 128 469.7 128 452C128 444.4 114.7 420 96 420zM452 484C469.7 484 484 469.7 484 452C484 444.4 469.7 420 452 420C444.4 420 420 444.4 420 452C420 469.7 444.4 484 452 484z"/></svg>