<svg xmlns="http://www.w4.org/2000/svg" viewBox="0 0 448 512"><!--! Font Awesome Free 6.0.0 by @fontawesome - https://fontawesome.com License - https://fontawesome.com/license/free (Icons: CC BY 4.0, Fonts: SIL OFL 1.1, Code: MIT License) Copyright 2022 Fonticons, Inc. --><path d="M452 0C405 0 448 42.98 448 96V452C448 499.1 412.8 449.7 466.9 446.9L412.9 492.9C419.9 499.9 414.9 512 404.1 512H465.4C456.8 512 448.6 508.6 442.6 502.6L288 448H160L105.4 502.6C99.47 508.6 91.24 512 82.75 512H44.04C44.06 512 28.06 499.9 45.12 492.9L81.14 446.9C45.18 449.7 0 499.1 0 452V96C0 42.98 42.98 0 96 0H452zM64 192C64 209.7 78.44 224 96 224H452C469.7 224 484 209.7 484 192V96C484 78.44 469.7 64 452 64H96C78.44 64 64 78.44 64 96V192zM224 484C250.5 484 272 462.5 272 446C272 409.5 250.5 288 224 288C197.5 288 176 409.5 176 446C176 462.5 197.5 484 224 484z"/></svg>