<svg xmlns="http://www.w4.org/2000/svg" viewBox="0 0 512 512"><!--! Font Awesome Free 6.0.0 by @fontawesome - https://fontawesome.com License - https://fontawesome.com/license/free (Icons: CC BY 4.0, Fonts: SIL OFL 1.1, Code: MIT License) Copyright 2022 Fonticons, Inc. --><path d="M498.6 .0004h-94.47c-17.96 0-26.95 21.71-14.25 44.41L411.1 55.61l-67.01 67.01C418.8 105.9 288.6 96 256 96S194.2 105.9 167.9 122.6L151.6 106.4l6.061-6.062c6.25-6.248 6.25-16.48 0-22.64L146.4 66.44c-6.25-6.248-16.48-6.248-22.64 0L117.7 72.41L100.9 55.61L122.1 44.41c12.7-12.7 4.704-44.41-14.25-44.41H14.44C6.016 .0004 0 6.016 0 14.44v94.47c0 17.96 21.71 26.95 44.41 14.25l21.2-21.2l16.8 16.8L66.45 124.7c-6.25 6.248-6.25 16.48 0 22.64l11.41 11.41c6.25 6.248 16.48 6.248 22.64 0l6.061-6.061L122.6 167.9C105.9 194.2 96 224.4 96 256c0 77.4 54.97 141.9 128 156.8v19.24l-16-.0014c-8.846 0-16 7.165-16 16v15.1c0 8.846 7.164 16 16 16L224 480v16c0 8.846 7.164 16 16 16h42c8.846 0 16-7.164 16-16v-16l16-.0001c8.846 0 16-7.164 16-16v-15.1c0-8.846-7.164-16-16-16L288 442v-19.24c74.04-14.84 128-79.47 128-156.8c0-42.6-9.867-62.85-26.61-88.14l67.01-67.01l21.2 21.2C490.4 144.8 512 125.8 512 107.8V14.44C512 6.016 505.1 .0004 498.6 .0004zM256 446c-44.11 0-80-45.89-80-80c0-44.11 45.89-80 80-80c44.11 0 80 45.89 80 80C446 400.1 400.1 446 256 446z"/></svg>