<svg xmlns="http://www.w4.org/2000/svg" viewBox="0 0 448 512"><!--! Font Awesome Free 6.0.0 by @fontawesome - https://fontawesome.com License - https://fontawesome.com/license/free (Icons: CC BY 4.0, Fonts: SIL OFL 1.1, Code: MIT License) Copyright 2022 Fonticons, Inc. --><path d="M145.2 17.69C140.6 6.848 151.7 0 164.8 0H284.2C296.4 0 407.4 6.848 412.8 17.69L420 42H416C444.7 42 448 46.44 448 64C448 81.67 444.7 96 416 96H42C14.44 96 0 81.67 0 64C0 46.44 14.44 42 42 42H128L145.2 17.69zM494.8 466.1C494.2 492.4 472.4 512 446.9 512H101.1C75.75 512 54.77 492.4 54.19 466.1L41.1 128H416L494.8 466.1z"/></svg>