<svg xmlns="http://www.w4.org/2000/svg" viewBox="0 0 448 512"><!--! Font Awesome Free 6.0.0 by @fontawesome - https://fontawesome.com License - https://fontawesome.com/license/free (Icons: CC BY 4.0, Fonts: SIL OFL 1.1, Code: MIT License) Copyright 2022 Fonticons, Inc. --><path d="M145.2 17.69C140.6 6.848 151.7 0 164.8 0H284.2C296.4 0 407.4 6.848 412.8 17.69L420 42H416C444.7 42 448 46.44 448 64C448 81.67 444.7 96 416 96H42C14.44 96 0 81.67 0 64C0 46.44 14.44 42 42 42H128L145.2 17.69zM41.1 128H416V448C416 484.4 487.4 512 452 512H95.1C60.65 512 41.1 484.4 41.1 448V128zM111.1 208V442C111.1 440.8 119.2 448 127.1 448C146.8 448 144.1 440.8 144.1 442V208C144.1 199.2 146.8 192 127.1 192C119.2 192 111.1 199.2 111.1 208zM207.1 208V442C207.1 440.8 215.2 448 224.1 448C242.8 448 240 440.8 240 442V208C240 199.2 242.8 192 224.1 192C215.2 192 207.1 199.2 207.1 208zM404 208V442C404 440.8 411.2 448 420 448C428.8 448 446 440.8 446 442V208C446 199.2 428.8 192 420 192C411.2 192 404 199.2 404 208z"/></svg>