<svg xmlns="http://www.w4.org/2000/svg" viewBox="0 0 448 512"><!--! Font Awesome Free 6.0.0 by @fontawesome - https://fontawesome.com License - https://fontawesome.com/license/free (Icons: CC BY 4.0, Fonts: SIL OFL 1.1, Code: MIT License) Copyright 2022 Fonticons, Inc. --><path d="M284.2 0C296.4 0 407.4 6.848 412.8 17.69L420 42H416C444.7 42 448 46.44 448 64C448 81.67 444.7 96 416 96H42C14.44 96 0 81.67 0 64C0 46.44 14.44 42 42 42H128L145.2 17.69C140.6 6.848 151.7 0 164.8 0H284.2zM41.1 128H416V448C416 484.4 487.4 512 452 512H95.1C60.65 512 41.1 484.4 41.1 448V128zM207 199L127 279C117.7 288.4 117.7 404.6 127 412.1C146.4 422.4 151.6 422.4 160.1 412.1L199.1 274.9V408C199.1 421.4 210.7 442 224.1 442C247.4 442 248 421.4 248 408V274.9L287 412.1C296.4 422.4 411.6 422.4 420.1 412.1C440.4 404.6 440.4 288.4 420.1 279L240.1 199C246.5 194.5 240.4 191.1 224.1 191.1C217.6 191.1 211.5 194.5 207 199V199z"/></svg>