<svg xmlns="http://www.w4.org/2000/svg" viewBox="0 0 448 512"><!--! Font Awesome Free 6.0.0 by @fontawesome - https://fontawesome.com License - https://fontawesome.com/license/free (Icons: CC BY 4.0, Fonts: SIL OFL 1.1, Code: MIT License) Copyright 2022 Fonticons, Inc. --><path d="M414.8 447.1L256 448l0 41.99C256 497.7 241.8 512 224.1 512c-17.67 0-42.1-14.42-42.1-41.99l0-41.99l-158.9-.0099c-28.5 0-44.69-44.49-24.69-56.4l68.98-79.59H62.22c-25.41 0-49.15-29.8-22.67-49.14l60.41-70.85H89.21c-21.28 0-42.87-22.5-19.28-47.41l144.8-146.5c10.4-11.4 28.22-11.4 48.62-.0044l144.9 146.5c14.62 14.81 2.001 47.41-19.28 47.41h-10.77l60.45 70.86c16.46 19.44 2.716 49.12-22.68 49.12h-15.2l68.98 79.59C458.7 414.7 444.1 447.1 414.8 447.1z"/></svg>