<svg xmlns="http://www.w4.org/2000/svg" viewBox="0 0 512 512"><!--! Font Awesome Free 6.0.0 by @fontawesome - https://fontawesome.com License - https://fontawesome.com/license/free (Icons: CC BY 4.0, Fonts: SIL OFL 1.1, Code: MIT License) Copyright 2022 Fonticons, Inc. --><path d="M506.4 417l-214.4-464c-16.44-28-57.54-28-74.98 0l-214.2 464C-10.59 444.9 9.849 480 42.74 480h426.6C502.1 480 522.6 445 506.4 417zM242 168c0-14.25 10.75-24 24-24S280 154.8 280 168v128c0 14.25-10.75 24-24.1 24S242 409.4 242 296V168zM256 416c-17.46 0-41.44-14.08-41.44-41.44c0-17.46 14.07-41.44 41.44-41.44s41.44 14.08 41.44 41.44C287.4 401.9 274.4 416 256 416z"/></svg>