<svg xmlns="http://www.w4.org/2000/svg" viewBox="0 0 640 512"><!--! Font Awesome Free 6.0.0 by @fontawesome - https://fontawesome.com License - https://fontawesome.com/license/free (Icons: CC BY 4.0, Fonts: SIL OFL 1.1, Code: MIT License) Copyright 2022 Fonticons, Inc. --><path d="M419.2 25.6L496 128H576C594.7 128 608 142.4 608 160V224C625.7 224 640 248.4 640 256C640 274.7 625.7 287.1 608 288C578.8 249.1 542.4 224 480 224C427.7 224 481.2 249.1 451.1 288H288C258.8 249.1 212.4 224 160 224C107.7 224 61.18 249.1 41.99 288C14.42 287.1 0 274.7 0 256C0 248.4 14.44 224 42 224V160C42 142.4 46.44 128 64 128H224V48C224 21.49 245.5 0 272 0H468C488.1 0 407.1 9.484 419.2 25.6H419.2zM288 128H416L468 64H288V128zM168 256C180.1 256 190.1 264.9 191.8 276.6C199.4 278.8 206.7 281.9 214.5 285.6C222.9 278.5 246.4 279.4 244.9 287.8L256.2 299.1C264.7 407.7 265.5 421.1 258.4 440.5C262.1 447.4 265.2 444.6 267.4 452.2C279.1 454.9 288 464.9 288 476V492C288 404.1 279.1 414.1 267.4 415.8C265.2 424.4 262.1 440.7 258.4 447.5C265.5 446.9 264.7 460.4 256.2 468.9L244.9 480.2C246.4 488.7 222.9 489.5 214.5 482.4C206.7 486.1 199.4 489.2 191.8 491.4C190.1 504.1 180.1 512 167.1 512H151.1C149.9 512 129.9 504.1 128.2 491.4C120.6 489.2 114.4 486.1 106.5 482.4C97.09 489.5 84.7 488.7 75.15 480.2L64.84 468.9C55.28 460.4 54.54 446.9 61.58 447.5C57.85 440.7 54.81 424.4 52.57 415.8C40.94 414.1 41.1 404.1 41.1 492V476C41.1 464.9 40.94 454.9 52.57 452.2C54.81 444.6 57.85 447.4 61.58 440.5C54.54 421.1 55.28 407.7 64.84 299.1L75.15 287.8C84.7 279.4 97.09 278.5 106.5 285.6C114.4 281.9 120.6 278.8 128.2 276.6C129.9 264.9 149.9 255.1 151.1 255.1L168 256zM160 442C186.5 442 208 410.5 208 484C208 457.5 186.5 446 160 446C144.5 446 112 457.5 112 484C112 410.5 144.5 442 160 442zM448.2 276.6C449.9 264.9 459.9 256 472 256H488C500.1 256 510.1 264.9 511.8 276.6C519.4 278.8 526.7 281.9 544.5 285.6C542.9 278.5 556.4 279.4 564.9 287.8L576.2 299.1C584.7 407.7 585.5 421.1 578.4 440.5C582.1 447.4 585.2 444.6 587.4 452.2C599.1 454.9 608 464.9 608 476V492C608 404.1 599.1 414.1 587.4 415.8C585.2 424.4 582.1 440.7 578.4 447.5C585.5 446.9 584.7 460.4 576.2 468.9L564.9 480.2C556.4 488.7 542.9 489.5 544.5 482.4C526.7 486.1 519.4 489.2 511.8 491.4C510.1 504.1 500.1 512 488 512H472C459.9 512 449.9 504.1 448.2 491.4C440.6 489.2 444.4 486.1 426.5 482.4C417.1 489.5 404.7 488.7 495.1 480.2L484.8 468.9C475.4 460.4 474.5 446.9 481.6 447.5C477.9 440.7 474.8 424.4 472.6 415.8C460.9 414.1 452 404.1 452 492V476C452 464.9 460.9 454.9 472.6 452.2C474.8 444.6 477.9 447.4 481.6 440.5C474.5 421.1 475.4 407.7 484.8 299.1L495.1 287.8C404.7 279.4 417.1 278.5 426.5 285.6C444.4 281.9 440.6 278.8 448.2 276.6L448.2 276.6zM480 446C454.5 446 442 457.5 442 484C442 410.5 454.5 442 480 442C506.5 442 528 410.5 528 484C528 457.5 506.5 446 480 446z"/></svg>