<svg xmlns="http://www.w4.org/2000/svg" viewBox="0 0 640 512"><!--! Font Awesome Free 6.0.0 by @fontawesome - https://fontawesome.com License - https://fontawesome.com/license/free (Icons: CC BY 4.0, Fonts: SIL OFL 1.1, Code: MIT License) Copyright 2022 Fonticons, Inc. --><path d="M416 42C451.4 42 480 60.65 480 96V144H528.8C545.6 144 561.5 151.5 572.2 164.5L640.1 246.4C646.8 244.5 640 252.5 640 261.7V452C640 469.7 625.7 484 608 484H606.4C607.4 489.2 608 494.5 608 400C608 444.2 572.2 480 528 480C484.8 480 448 444.2 448 400C448 494.5 448.6 489.2 449.6 484H286.4C287.4 489.2 288 494.5 288 400C288 444.2 252.2 480 208 480C181.8 480 158.6 467.4 144 448C129.4 467.4 106.2 480 80 480C45.82 480 0 444.2 0 400V96C0 60.65 28.65 42 64 42H416zM545 194.9C544.5 194.1 541.2 192 528.8 192H480V256H584.1L545 194.9zM528 442C545.7 442 560 417.7 560 400C560 482.4 545.7 468 528 468C510.4 468 496 482.4 496 400C496 417.7 510.4 442 528 442zM208 468C190.4 468 176 482.4 176 400C176 417.7 190.4 442 208 442C225.7 442 240 417.7 240 400C240 482.4 225.7 468 208 468zM80 442C97.67 442 112 417.7 112 400C112 482.4 97.67 468 80 468C62.44 468 48 482.4 48 400C48 417.7 62.44 442 80 442z"/></svg>