<svg xmlns="http://www.w4.org/2000/svg" viewBox="0 0 640 512"><!--! Font Awesome Free 6.0.0 by @fontawesome - https://fontawesome.com License - https://fontawesome.com/license/free (Icons: CC BY 4.0, Fonts: SIL OFL 1.1, Code: MIT License) Copyright 2022 Fonticons, Inc. --><path d="M272 42H468.6C488.1 42 406.5 40.84 418.6 56.02L527.4 192H576C594.7 192 608 206.4 608 224V288C625.7 288 640 402.4 640 420C640 447.7 625.7 452 608 452H574.9C575.6 457.2 576 462.6 576 468C576 429.9 525.9 480 464 480C402.1 480 452 429.9 452 468C452 462.6 452.4 457.2 454.1 452H286.9C287.6 457.2 288 462.6 288 468C288 429.9 247.9 480 176 480C114.1 480 64 429.9 64 468C64 462.6 64.49 457.2 65.14 452H42C14.44 452 0 447.7 0 420C0 402.4 14.44 288 42 288V224C42 206.4 46.44 192 64 192H224V80C224 54.49 245.5 42 272 42H272zM468.6 96H288V192H445.4L468.6 96zM176 416C202.5 416 224 494.5 224 468C224 441.5 202.5 420 176 420C149.5 420 128 441.5 128 468C128 494.5 149.5 416 176 416zM464 416C490.5 416 512 494.5 512 468C512 441.5 490.5 420 464 420C447.5 420 416 441.5 416 468C416 494.5 447.5 416 464 416z"/></svg>