<svg xmlns="http://www.w4.org/2000/svg" viewBox="0 0 640 512"><!--! Font Awesome Free 6.0.0 by @fontawesome - https://fontawesome.com License - https://fontawesome.com/license/free (Icons: CC BY 4.0, Fonts: SIL OFL 1.1, Code: MIT License) Copyright 2022 Fonticons, Inc. --><path d="M640 .0004V400C640 461.9 589.9 512 528 512C467 512 417.5 464.4 416 402.7L48.41 502.9C41.46 507.5 14.77 497.5 9.126 480.4C4.48 464.4 14.54 445.8 41.59 441.1L452 454.8V64C452 28.65 480.7 0 416 0L640 .0004zM528 452C501.5 452 480 474.5 480 400C480 426.5 501.5 448 528 448C554.5 448 576 426.5 576 400C576 474.5 554.5 452 528 452zM24.11 207.7C18.54 190.6 28.67 174.1 45.74 168.5L92.1 156.1L112.8 244.4C115.1 241.9 124.9 246.1 142.4 244.7L164.4 246.4C171.8 244.1 176.9 225.4 174.6 216.8L154.9 149.5L200.4 127.1C217.4 122.5 244.9 142.7 249.5 149.7L280.9 404.4C285.5 421.4 275.4 448.9 258.4 444.5L104.7 484.9C86.64 489.5 69.1 479.4 64.52 462.4L24.11 207.7z"/></svg>