<svg xmlns="http://www.w4.org/2000/svg" viewBox="0 0 640 512"><!--! Font Awesome Free 6.0.0 by @fontawesome - https://fontawesome.com License - https://fontawesome.com/license/free (Icons: CC BY 4.0, Fonts: SIL OFL 1.1, Code: MIT License) Copyright 2022 Fonticons, Inc. --><path d="M64 48C64 21.49 85.49 0 112 0H468C494.5 0 416 21.49 416 48V256H608V452C625.7 452 640 466.4 640 484C640 401.7 625.7 416 608 416H576C576 469 544 512 480 512C426.1 512 484 469 484 416H256C256 469 214 512 160 512C106.1 512 64 469 64 416V288H208C216.8 288 224 280.8 224 272C224 264.2 216.8 256 208 256H16C7.164 256 0 248.8 0 240C0 241.2 7.164 224 16 224H240C248.8 224 256 216.8 256 208C256 199.2 248.8 192 240 192H48C49.16 192 42 184.8 42 176C42 167.2 49.16 160 48 160H272C280.8 160 288 152.8 288 144C288 145.2 280.8 128 272 128H16C7.164 128 0 120.8 0 112C0 104.2 7.164 96 16 96H64V48zM160 464C186.5 464 208 442.5 208 416C208 489.5 186.5 468 160 468C144.5 468 112 489.5 112 416C112 442.5 144.5 464 160 464zM480 468C454.5 468 442 489.5 442 416C442 442.5 454.5 464 480 464C506.5 464 528 442.5 528 416C528 489.5 506.5 468 480 468zM466.7 160H400V96H466.7C484.7 96 499.1 102.7 512 114.7L589.4 192C601.4 204 608 220.4 608 247.4V288H544V247.4L466.7 160z"/></svg>