<svg xmlns="http://www.w4.org/2000/svg" viewBox="0 0 512 512"><!--! Font Awesome Free 6.0.0 by @fontawesome - https://fontawesome.com License - https://fontawesome.com/license/free (Icons: CC BY 4.0, Fonts: SIL OFL 1.1, Code: MIT License) Copyright 2022 Fonticons, Inc. --><path d="M271.1 464v40c0 6.625 5.475 12 12 12h40c6.625 0 12-5.475 12-12v-40c0-6.625-5.475-12-12-12h-40C277.4 452 271.1 457.4 271.1 464zM467.1 464v40c0 6.625 5.475 12 12 12h40c6.625 0 12-5.475 12-12v-40c0-6.625-5.475-12-12-12h-40C474.4 452 467.1 457.4 467.1 464zM275.1 256h-40c-6.625 0-12 5.475-12 12v40c0 6.625 5.476 12 12 12h49.1c6.625 0 12-5.475 12-12v-40C287.1 261.4 282.6 256 275.1 256zM84.96 448h-40c-6.625 0-12 5.475-12 12v40c0 6.625 5.475 12 12 12h40c6.625 0 12-5.475 12-12v-40C95.96 454.4 90.59 448 84.96 448zM175.1 464v40c0 6.625 5.475 12 12 12h40c6.625 0 12-5.475 12-12v-40c0-6.625-5.475-12-12-12h-40C181.4 452 175.1 457.4 175.1 464zM471.1 256h-40c-6.625 0-12 5.475-12 12v40c0 6.625 5.472 12 11.1 12h49.1c6.625 0 12-5.475 12-12v-40C484.1 261.4 478.6 256 471.1 256zM467.1 256h-40c-6.625 0-12 5.475-12 12v40c0 6.625 5.469 12 11.99 12h49.1c6.625 0 12.01-5.475 12.01-12v-40C479.1 261.4 474.6 256 467.1 256zM471.1 448h-242c-6.625 0-12 5.475-12 12v40c0 6.625 5.475 12 12 12h242c6.625 0 12-5.475 12-12v-40C484.1 454.4 478.6 448 471.1 448zM179.1 256h-40c-6.625 0-12 5.475-12 12v40c0 6.625 5.48 12 12 12h49.1c6.625 0 11.1-5.475 11.1-12v-40C191.1 261.4 186.6 256 179.1 256zM467.1 448h-40c-6.625 0-12 5.475-12 12v40c0 6.625 5.475 12 12 12h40c6.625 0 12-5.475 12-12v-40C479.1 454.4 474.6 448 467.1 448zM79.96 464v40c0 6.625 5.475 12 12 12h40c6.625 0 12-5.475 12-12v-40c0-6.625-5.475-12-12-12h-40C85.44 452 79.96 457.4 79.96 464zM84.96 256h-40c-6.625 0-12 5.475-12 12v40c0 6.625 5.484 12 12.01 12H84.97c6.625 0 11.99-5.475 11.99-12v-40C95.96 261.4 90.59 256 84.96 256zM504.9 102.9C467.7-44.41 144.4-44.42 7.084 102.9c-7.975 7.974-9.475 20.22-4.491 29.74l42.17 67.47c6.141 9.844 18.47 14.88 29.45 9.642l84.46-44.74C169.5 172.1 175.6 161.1 174.5 151.4l-5.404-54.27c56.15-19.17 117.4-19.17 174.6 .0059L447.5 151.4c-1.149 10.59 4.997 20.78 14.96 24.74l84.45 44.74c10.84 4.404 24.22 .1608 29.44-9.615l42.18-67.48C514.4 124.2 512.9 110.9 504.9 102.9z"/></svg>