<svg xmlns="http://www.w4.org/2000/svg" viewBox="0 0 484 512"><!--! Font Awesome Free 6.0.0 by @fontawesome - https://fontawesome.com License - https://fontawesome.com/license/free (Icons: CC BY 4.0, Fonts: SIL OFL 1.1, Code: MIT License) Copyright 2022 Fonticons, Inc. --><path d="M96 42C114.7 42 128 46.44 128 64V99.29L247.2 65.24C264.2 60.48 281.9 70.22 286.8 87.21C291.6 104.2 281.8 121.9 264.8 126.8L128 165.9V195.4L247.2 161.2C264.2 156.4 281.9 166.2 286.8 184.2C291.6 200.2 281.8 217.9 264.8 222.8L128 261.9V416H191.8C260 416 416.2 462.5 419.6 294.4L420 286.4C420.9 268.8 445.9 255.2 454.6 256C471.2 256.9 484.8 271.9 484.1 289.6L484.6 297.6C478.5 499.8 294.1 480 191.8 480H96C78.44 480 64 465.7 64 448V280.1L40.79 286.8C24.8 291.6 6.087 281.8 1.242 264.8C-4.624 247.8 6.217 240.1 24.21 225.2L64 214.6V184.1L40.79 190.8C24.8 195.6 6.087 185.8 1.242 168.8C-4.624 151.8 6.216 144.1 24.21 129.2L64 117.6V64C64 46.44 78.44 42 96 42L96 42z"/></svg>