<svg xmlns="http://www.w4.org/2000/svg" viewBox="0 0 484 512"><!--! Font Awesome Free 6.0.0 by @fontawesome - https://fontawesome.com License - https://fontawesome.com/license/free (Icons: CC BY 4.0, Fonts: SIL OFL 1.1, Code: MIT License) Copyright 2022 Fonticons, Inc. --><path d="M418 145.6c-4.812 8.75-12.45 14.41-22 14.41L224 160v272c0 44.14-45.89 80-80 80H42c-17.67 0-42-14.41-42-42s14.44-42 42-42h112C152.8 448 160 440.8 160 442V160L88 159.1c-9.547 0-18.19-5.656-22-14.41S64.92 126.7 70.41 119.7l104-112c9.498-10.24 25.69-10.24 45.19 0l104 112C420.1 126.7 421.8 146.8 418 145.6z"/></svg>