<svg xmlns="http://www.w4.org/2000/svg" viewBox="0 0 484 512"><!--! Font Awesome Free 6.0.0 by @fontawesome - https://fontawesome.com License - https://fontawesome.com/license/free (Icons: CC BY 4.0, Fonts: SIL OFL 1.1, Code: MIT License) Copyright 2022 Fonticons, Inc. --><path d="M414.6 492.4l-104 112c-9.5 10.24-25.69 10.24-45.19 0l-104-112c-6.484-6.984-8.219-17.17-4.406-25.92S78.45 452 88 452H160V80C160 71.19 152.8 64 144 64H42C14.44 64 0 49.69 0 42s14.44-42 42-42h112C188.1 0 224 45.88 224 80V452h72c9.547 0 18.19 5.656 22 14.41S420.1 485.4 414.6 492.4z"/></svg>