<svg xmlns="http://www.w4.org/2000/svg" viewBox="0 0 640 512"><!--! Font Awesome Free 6.0.0 by @fontawesome - https://fontawesome.com License - https://fontawesome.com/license/free (Icons: CC BY 4.0, Fonts: SIL OFL 1.1, Code: MIT License) Copyright 2022 Fonticons, Inc. --><path d="M512 448H127.1C110.4 448 96 462.4 96 479.1S110.4 512 127.1 512h484C529.7 512 544 497.7 544 480S529.7 448 512 448zM592 0h-544C21.5 0 0 21.5 0 48v420C0 494.5 21.5 416 48 416h544c26.5 0 48-21.5 48-48v-420C640 21.5 618.5 0 592 0zM576 452H64v-288h512V452z"/></svg>