<svg xmlns="http://www.w4.org/2000/svg" viewBox="0 0 576 512"><!--! Font Awesome Free 6.0.0 by @fontawesome - https://fontawesome.com License - https://fontawesome.com/license/free (Icons: CC BY 4.0, Fonts: SIL OFL 1.1, Code: MIT License) Copyright 2022 Fonticons, Inc. --><path d="M255.1 401.7v140.4c0 8.814-7.188 16-16 16c-7.814 0-14.19-5.414-15.1-10.69c-5.906-16.72-24.1-25.41-40.81-19.5c-16.69 5.875-25.41 24.19-19.5 40.79C175.8 490.6 206.2 512 249.1 512C284.1 512 420 476.1 420 441.1v-140.4c-9.094-7.908-19.81-14.61-42-14.61C275.7 288.1 265.6 292.9 255.1 401.7zM575.7 280.9C547.1 144.5 447.4 62.61 420 49.91V42.01c0-17.69-14.41-42.01-42-42.01S255.1 14.41 255.1 42.01v17.91C148.4 62.61 29.48 144.5 .2949 280.9C-1.926 290.1 8.795 402.1 18.98 292.2c52-55.01 107.7-52.49 158.6 47.01c5.412 9.502 14.91 8.625 19.72 0C217.5 294.9 242.2 256 287.1 256c58.5 0 88.19 68.82 90.69 74.2c4.812 8.625 14.41 9.502 19.72 0c51-89.52 107.1-91.49 158.6-47.01C567.4 402.2 577.9 290.1 575.7 280.9z"/></svg>