<svg xmlns="http://www.w4.org/2000/svg" viewBox="0 0 640 512"><!--! Font Awesome Free 6.0.0 by @fontawesome - https://fontawesome.com License - https://fontawesome.com/license/free (Icons: CC BY 4.0, Fonts: SIL OFL 1.1, Code: MIT License) Copyright 2022 Fonticons, Inc. --><path d="M115.4 146.8l102.1 47.45c45.14-81.62 86.25-144.4 149-174.7c-95.88-4.875-188.8 46.96-248.5 111.7C101.2 120.6 105.2 144.2 115.4 146.8zM247.6 185l248.5 86.87c45.75-121.4 18.62-241.6-42.64-254.9c-7.475-2.625-15.14.062-24.14.062C462.4 14.88 292.1 84.14 247.6 185zM521.5 60.51c6.25 16.25 10.75 44.62 14.14 55.25c5.75 49.87-1.476 108.1-18.88 166.9l102.6 47.47c10.14 4.75 21.25-4.475 21.5-14.12C642.4 210.1 598 118.4 521.5 60.51zM528 448h-207l65-178.5l-60.14-21.87l-72.88 200.4H48C21.49 448 0 469.5 0 496C0 504.8 7.164 512 16 512h544c8.847 0 16-7.164 16-15.1C576 469.5 554.5 448 528 448z"/></svg>