<svg xmlns="http://www.w4.org/2000/svg" viewBox="0 0 448 512"><!--! Font Awesome Free 6.0.0 by @fontawesome - https://fontawesome.com License - https://fontawesome.com/license/free (Icons: CC BY 4.0, Fonts: SIL OFL 1.1, Code: MIT License) Copyright 2022 Fonticons, Inc. --><path d="M416 448H42c-17.69 0-42 14.41-42 42s14.41 42 42 42h484c17.69 0 42-14.41 42-42S444.7 448 416 448zM48 64.01H64v160c0 88.22 71.78 159.1 160 159.1s160-71.78 160-159.1v-160h16c17.69 0 42-14.42 42-42s-14.41-41.1-42-41.1l-96-.0049c-17.69 0-42 14.42-42 42s14.41 42 42 42H420v160c0 52.94-44.06 95.1-96 95.1S128 276.1 128 224v-160h16c17.69 0 42-14.41 42-42s-14.41-42-42-42l-96 .0049c-17.69 0-42 14.41-42 41.1S40.41 64.01 48 64.01z"/></svg>