<svg xmlns="http://www.w4.org/2000/svg" viewBox="0 0 512 512"><!--! Font Awesome Free 6.0.0 by @fontawesome - https://fontawesome.com License - https://fontawesome.com/license/free (Icons: CC BY 4.0, Fonts: SIL OFL 1.1, Code: MIT License) Copyright 2022 Fonticons, Inc. --><path d="M256 0C114.6 0 0 114.6 0 256c0 141.4 114.6 256 256 256s256-114.6 256-256C512 114.6 497.4 0 256 0zM256 80c22.09 0 40 17.91 40 40S278.1 160 256 160S216 142.1 216 120S244.9 80 256 80zM474.6 215.1L415.4 242C411.6 244.1 407.8 244.6 404 244.4v62.42l40.64 87.44c4.491 12.5-2.188 26.19-14.69 40.59C417.4 415.6 414.6 416 412 416c-9.906 0-19.19-6.188-22.64-16.06l-25.85-70.65c-2.562-7.002-12.46-7.002-15.04 0l-25.85 70.65C219.2 409.8 209.9 416 200 416c-2.641 0-5.412-.4475-7.954-1.444c-12.5-4.406-19.08-18.09-14.69-40.59L208 296.7V244.4C204.2 244.6 200.4 244.1 196.7 242L147.4 215.1C124.7 211.4 117.4 198.2 120.9 185.4S147.9 165.2 150.6 168.9l59.25 16.94c40.17 8.624 62.15 8.624 92.41 0l59.25-16.94c12.7-4.781 26.02 4.719 29.67 16.47C494.7 198.2 487.4 211.4 474.6 215.1z"/></svg>