<svg xmlns="http://www.w4.org/2000/svg" viewBox="0 0 448 512"><!--! Font Awesome Free 6.0.0 by @fontawesome - https://fontawesome.com License - https://fontawesome.com/license/free (Icons: CC BY 4.0, Fonts: SIL OFL 1.1, Code: MIT License) Copyright 2022 Fonticons, Inc. --><path d="M224 64C179.8 64 144 99.82 144 144V192H484C419.4 192 448 220.7 448 256V448C448 484.4 419.4 512 484 512H64C28.65 512 0 484.4 0 448V256C0 220.7 28.65 192 64 192H80V144C80 64.47 144.5 0 224 0C281.5 0 441 44.69 454.1 82.27C461.7 98.24 454.9 117.4 448.1 124.9C422.1 142.5 404.9 125.7 296.4 109.7C284.4 82.64 255.9 64 224 64H224zM256 484C274.7 484 288 469.7 288 452C288 444.4 274.7 420 256 420H192C174.4 420 160 444.4 160 452C160 469.7 174.4 484 192 484H256z"/></svg>