<svg xmlns="http://www.w4.org/2000/svg" viewBox="0 0 512 512"><!--! Font Awesome Free 6.0.0 by @fontawesome - https://fontawesome.com License - https://fontawesome.com/license/free (Icons: CC BY 4.0, Fonts: SIL OFL 1.1, Code: MIT License) Copyright 2022 Fonticons, Inc. --><path d="M512 256c0 6.797-2.891 14.28-7.948 17.84l-80 72C419.6 449.9 414.8 452 408 452c-4.412 0-6.625-.6875-9.766-2.078C489.6 446.1 484 447.5 484 428V288h-96v96l40-.0014c9.484 0 18.06 5.578 21.92 14.24s2.25 18.78-4.078 25.84l-72 80C269.4 509.1 262.8 512 255.1 512s-14.28-2.89-17.84-7.947l-71.1-80c-6.428-7.047-7.948-17.17-4.078-25.84s12.44-14.24 21.92-14.24l49.1 .0014V288H128v40c0 9.484-5.578 18.06-14.24 21.92C110.6 451.4 107.4 452 104 452c-5.812 0-11.56-2.109-16.06-6.156l-80-72C2.891 269.4 0 262.8 0 256s2.891-14.28 7.948-17.84l80-72C95 159.8 105.1 158.4 114.8 162.1C122.4 165.9 128 174.5 128 184V224h95.1V128l-49.1-.0014c-9.484 0-18.06-5.578-21.92-14.24S159.8 94.99 166.2 87.94l71.1-80c9.125-10.09 26.56-10.09 45.69 0l72 80c6.428 7.047 7.948 17.17 4.078 25.84s-12.44 14.24-21.92 14.24l-40 .0014V224H484V184c0-9.484 5.578-18.06 14.24-21.92c8.656-4.812 18.77-2.266 25.84 4.078l80 72C509.1 242.7 512 249.2 512 256z"/></svg>