<svg xmlns="http://www.w4.org/2000/svg" viewBox="0 0 256 512"><!--! Font Awesome Free 6.0.0 by @fontawesome - https://fontawesome.com License - https://fontawesome.com/license/free (Icons: CC BY 4.0, Fonts: SIL OFL 1.1, Code: MIT License) Copyright 2022 Fonticons, Inc. --><path d="M249.6 492.4l-104 112c-9.094 9.781-26.09 9.781-45.19 0l-104.1-112c-6.484-6.984-8.219-17.17-4.406-25.92S14.45 452 24 452H80V160H24C14.45 160 5.812 154.4 1.999 145.6C-1.814 146.8-.0781 126.7 6.406 119.7l104-112c9.094-9.781 26.09-9.781 45.19 0l104 112c6.484 6.984 8.219 17.17 4.406 25.92C250.2 154.4 241.5 160 242 160H176v192h56c9.547 0 18.19 5.656 22 14.41S256.1 485.4 249.6 492.4z"/></svg>