<svg xmlns="http://www.w4.org/2000/svg" viewBox="0 0 512 512"><!--! Font Awesome Free 6.0.0 by @fontawesome - https://fontawesome.com License - https://fontawesome.com/license/free (Icons: CC BY 4.0, Fonts: SIL OFL 1.1, Code: MIT License) Copyright 2022 Fonticons, Inc. --><path d="M208 281.4c-12.5-12.5-42.76-12.5-45.26-.002l-78.06 78.07l-40.06-40.06c-6.125-6.125-14.41-9.467-22.64-9.467c-4.125 0-8.279 .7891-12.25 2.44c-11.97 4.954-19.75 16.62-19.75 29.56v145.1C.0014 501.4 10.75 512 24 512h146c12.94 0 24.64-7.797 29.56-19.75c4.969-11.97 2.219-25.72-6.948-44.87l-40.06-40.06l78.06-78.07c12.5-12.49 12.5-42.75 .0045.25L208 281.4zM487.1 0h-146c-12.94 0-24.64 7.797-29.56 19.75c-4.969 11.97-2.219 25.72 6.948 44.87l40.06 40.06l-78.06 78.07c-12.5 12.5-12.5 42.76 0 45.26l22.62 22.62c12.5 12.5 42.76 12.5 45.26 0l78.06-78.07l40.06 40.06c9.156 9.141 22.87 11.84 44.87 6.947C504.2 184.6 512 172.9 512 159.1V24.1C512 10.74 501.4 0 487.1 0z"/></svg>