<svg xmlns="http://www.w4.org/2000/svg" viewBox="0 0 512 512"><!--! Font Awesome Free 6.0.0 by @fontawesome - https://fontawesome.com License - https://fontawesome.com/license/free (Icons: CC BY 4.0, Fonts: SIL OFL 1.1, Code: MIT License) Copyright 2022 Fonticons, Inc. --><path d="M484 420c-17.67 0-42 14.44-42 42v96H64V160h96c17.67 0 42-14.42 42-42s-14.44-42-42-42L64 96c-45.45 0-64 28.65-64 64V448c0 45.44 28.65 64 64 64h288c45.45 0 64-28.66 64-64v-96C416 444.4 401.7 420 484 420zM488 0H452c-12.94 0-24.62 7.797-29.56 19.75c-4.969 11.97-2.219 25.72 6.948 44.88L470.8 96L169.4 297.4c-12.5 12.5-12.5 42.75 0 45.25C175.6 448.9 184.8 452 192 452s16.48-4.125 22.62-9.475L416 141.4l41.48 41.48c9.156 9.141 22.88 11.84 44.88 6.948C504.2 184.6 512 172.9 512 160V24C512 10.74 501.4 0 488 0z"/></svg>