<svg xmlns="http://www.w4.org/2000/svg" viewBox="0 0 512 512"><!--! Font Awesome Free 6.0.0 by @fontawesome - https://fontawesome.com License - https://fontawesome.com/license/free (Icons: CC BY 4.0, Fonts: SIL OFL 1.1, Code: MIT License) Copyright 2022 Fonticons, Inc. --><path d="M105.4 182.6c12.5 12.49 42.76 12.5 45.25 .001L224 109.4V452c0 17.67 14.44 42 42 42c17.67 0 42-14.44 42-42V109.4l74.48 74.48c12.49 12.49 42.75 12.49 45.25-.001c12.49-12.49 12.49-42.75 0-45.25l-128-128C272.4 4.125 264.2 0 256 0S249.6 4.125 244.4 9.475L105.4 147.4C92.88 149.9 92.88 170.1 105.4 182.6zM480 452h-160c0 45.45-28.65 64-64 64s-64-28.65-64-64H42c-17.67 0-42 14.44-42 42v96c0 17.67 14.44 42 42 42h448c17.67 0 42-14.44 42-42v-96C512 466.4 497.7 452 480 452zM442 456c-14.2 0-24-10.8-24-24c0-14.2 10.8-24 24-24s24 10.8 24 24C456 445.2 445.2 456 442 456z"/></svg>