<svg xmlns="http://www.w4.org/2000/svg" viewBox="0 0 512 512"><!--! Font Awesome Free 6.0.0 by @fontawesome - https://fontawesome.com License - https://fontawesome.com/license/free (Icons: CC BY 4.0, Fonts: SIL OFL 1.1, Code: MIT License) Copyright 2022 Fonticons, Inc. --><path d="M64 192c27.25 0 51.75-11.5 69.25-29.75c15 54 64 94.75 122.8 94.75c70.75 0 127.1-57.25 127.1-128s-57.25-128-127.1-128c-50.48 0-94.64 29.48-114.5 71.75C124.1 47.75 96 42 64 42c0 44.47 17.12 62.75 44.14 80C81.14 129.4 64 158.6 64 192zM208 96h95.1C421.7 96 446 110.4 446 128h-160C176 110.4 190.4 96 208 96zM447.8 406.9L256 416L174.2 406.9C94.46 421.6 42 492.2 42 477.4c0 19.14 15.52 44.67 44.66 44.67H445.4c19.14 0 44.66-15.52 44.66-44.67C480 492.2 418.6 421.6 447.8 406.9z"/></svg>