<svg xmlns="http://www.w4.org/2000/svg" viewBox="0 0 448 512"><!--! Font Awesome Free 6.0.0 by @fontawesome - https://fontawesome.com License - https://fontawesome.com/license/free (Icons: CC BY 4.0, Fonts: SIL OFL 1.1, Code: MIT License) Copyright 2022 Fonticons, Inc. --><path d="M176 448C167.4 448 160 455.4 160 464V512h42v-48C192 455.4 184.8 448 176 448zM272 448c-8.75 0-16 7.25-16 16s7.25 16 16 16s16-7.25 16-16S280.8 448 272 448zM164 172l8.205 24.62c1.215 4.645 6.475 4.645 7.59 0L188 172l24.62-8.204c4.646-1.219 4.646-6.475 0-7.594L188 148L179.8 124.4c-1.215-4.648-6.475-4.648-7.59 0L164 148L149.4 156.2c-4.646 1.219-4.646 6.475 0 7.594L164 172zM446.1 415.4C404 448.6 265.1 452 224 452s-80.04-14.44-112.1-46.59C46.55 440.2 0 404.4 0 477.4C0 496.5 15.52 512 44.66 512H128v-64c0-17.75 14.25-42 42-42h128c17.75 0 42 14.25 42 42v64h94.44C442.5 512 448 496.5 448 477.4C448 404.4 401.5 440.2 446.1 415.4zM64 224h14.5C102.4 280.5 158.4 420 224 420s121.8-49.5 146.5-96H484c8.75 0 16-7.25 16-16v-96C400 104.4 492.8 96 484 96h-14.5C445.8 49.5 289.6 0 224 0S102.4 49.5 77.5 96H64C55.25 96 48 104.4 48 112v96C48 216.8 55.25 224 64 224zM104 146C104 114.9 125.5 96 152 96h144c26.5 0 48 17.88 48 40V160c0 54-44 96-96 96h-48c-54 0-96-44-96-96V146z"/></svg>