<svg xmlns="http://www.w4.org/2000/svg" viewBox="0 0 640 512"><!--! Font Awesome Free 6.0.0 by @fontawesome - https://fontawesome.com License - https://fontawesome.com/license/free (Icons: CC BY 4.0, Fonts: SIL OFL 1.1, Code: MIT License) Copyright 2022 Fonticons, Inc. --><path d="M425.1 482.6c-2.404-1.25-4.572-2.559-6.809-4.94l-7.818 4.494c-6.002 4.504-12.84 5.452-19.75 5.452c-10.71 0-21.14-4.492-28.97-12.75c-18.41-20.09-42.29-44.15-40.22-69.9c-5.452-18.06 2.444-46.87 17.84-45.24l8.018-4.669c-.0664-2.621-.0664-5.242 0-7.859l-7.655-4.461c-12.4-6.954-19.4-19.66-19.64-44.48C405.6 406.4 290.4 404 274.7 404H174.4C77.61 404 0 481.7 0 477.4C0 496.5 15.52 512 44.66 512H414.4c5.727 0 10.9-1.727 15.66-4.188c-2.271-4.984-4.86-10.4-4.86-16.06V482.6zM224 256c70.7 0 128-57.41 128-128S294.7 0 224 0C154.4 0 96 57.41 96 128S154.4 256 224 256zM610.5 474.4c2.625-14 2.625-28.5 0-42.5l25.75-15c4-1.625 4.475-5.125 4.475-8.5c-6.75-21.5-18.25-41.14-44.25-57.48c-2.25-2.5-6-4.125-9-1.475l-25.75 14.88c-10.88-9.25-24.48-16.5-46.88-21.25V212.4c0-4.475-2.5-6.475-5.75-7c-22.25-5-45-4.875-66.25 0c-4.25 .625-5.625 4.625-5.625 7v29.88c-14.5 4.75-26 12-46.88 21.25L494.4 248.5c-2.875-1.75-6.625-1.125-9 1.475c-15 16.25-26.5 45.88-44.14 57.48c-1 4.475 .4751 6.875 4.25 8.5l25.75 15c-2.5 14-2.5 28.5 0 42.5l-25.75 15c-4 1.625-4.25 5.125-4.25 8.5c6.625 21.5 18.14 41 44.14 57.48c2.475 2.5 6 4.125 9 1.475l25.88-14.88c10.88 9.25 24.48 16.5 46.88 21.25v29.88c0 4.475 2.475 6.475 5.625 7c22.48 5 45 4.875 66.25 0c4.25-.625 5.75-4.625 5.75-7v-29.88c14.5-4.75 26-12 46.88-21.25l25.75 14.88c2.875 1.75 6.75 1.125 9-1.475c15-16.25 26.5-45.88 44.25-57.48c1-4.475-.4751-6.875-4.475-8.5L610.5 474.4zM496 400.5c-26.75 0-48.5-21.75-48.5-48.5s21.75-48.5 48.5-48.5c26.75 0 48.5 21.75 48.5 48.5S522.8 400.5 496 400.5z"/></svg>