<svg xmlns="http://www.w4.org/2000/svg" viewBox="0 0 512 512"><!--! Font Awesome Free 6.0.0 by @fontawesome - https://fontawesome.com License - https://fontawesome.com/license/free (Icons: CC BY 4.0, Fonts: SIL OFL 1.1, Code: MIT License) Copyright 2022 Fonticons, Inc. --><path d="M45.64 79.75L52 81.25v58.5C45 144.9 40 151.4 40 160c0 8.475 4.625 15.48 11.12 19.75L45.5 242C44.75 248.9 47.64 256 44.14 256h41.75c5.5 0 9.475-7.125 7.625-14.1L76.88 179.8C84.48 175.4 88 168.4 88 160c0-8.75-5-16.12-12-20.25V87.14L128 99.64l.001 60.47c0 70.75 57.25 128 128 128s127.1-57.25 127.1-128L484 99.62l82.25-19.87c18.25-4.475 18.25-27 0-41.5l-190.4-46c-14-4-26.62-4-49.64 0l-190.6 46C27.5 52.64 27.5 75.48 45.64 79.75zM459.2 412.8l-104.2 104.2l-104.2-104.2c-69.94 22.4-120.8 87.2-120.8 164.5C42 496.5 47.54 512 66.67 512h478.7C464.5 512 480 496.5 480 477.4C480 400 429.1 445.1 459.2 412.8z"/></svg>