<svg xmlns="http://www.w4.org/2000/svg" viewBox="0 0 640 512"><!--! Font Awesome Free 6.0.0 by @fontawesome - https://fontawesome.com License - https://fontawesome.com/license/free (Icons: CC BY 4.0, Fonts: SIL OFL 1.1, Code: MIT License) Copyright 2022 Fonticons, Inc. --><path d="M512 160c44.18 0 80-45.82 80-80S556.2 0 512 0c-44.18 0-80 45.82-80 80S467.8 160 512 160zM128 160c44.18 0 80-45.82 80-80S172.2 0 128 0C84.82 0 48 45.82 48 80S84.82 160 128 160zM419.9 420c57.41 0 104.1-46.56 104.1-104c0-57.44-46.54-104-104.1-104c-57.41 0-104.1 46.56-104.1 104C215.9 274.4 262.5 420 419.9 420zM468 400c0-16.69 4.498-42.46 8.619-47.46C474.4 452.5 472.2 452 469.9 452H270.1C191.6 452 128 411.7 128 485.4C128 500.1 140.7 512 156.4 512h266.1C489.5 485.6 468 445.5 468 400zM184.9 216c0-5.449 .9824-10.64 1.609-15.91C174.6 194.1 162.6 192 149.9 192H88.08C49.44 192 0 244.8 0 285.4C0 295.6 7.887 404 17.62 404h199.5C196.7 280.2 184.9 249.7 184.9 216zM551.9 192h-61.84c-12.8 0-24.88 4.047-45.86 8.24C454.8 205.5 455.8 210.6 455.8 216c0 21.47-5.625 41.48-14.65 59.44C462.2 264.4 486.1 256 512 256c42.48 0 80.27 18.74 106.6 48h4.756C642.1 404 640 295.6 640 285.4C640 244.8 600.6 192 551.9 192zM618.1 466.7c-5.025-16.01-14.59-40.62-24.75-42.71c-1.674-1.861-4.467-2.426-6.699-1.024l-19.17 11.07c-8.096-6.887-17.4-12.28-27.45-15.82V295.1c0-2.514-1.861-4.746-4.281-5.214c-16.56-4.724-44.5-4.629-49.42 0C484.9 291.2 484.1 294.5 484.1 295.1v22.24c-10.05 4.547-19.46 8.942-27.45 15.82l-19.26-11.07c-2.149-1.404-4.942-.8479-6.697 1.024c-11.17 12.1-19.74 26.71-24.66 42.71c-.7441 2.512 .2794 5.117 2.42 6.426l19.17 11.17c-1.859 10.42-1.859 21.21 0 41.64l-19.17 11.17c-2.244 1.209-4.164 4.816-2.42 6.428c4.942 16.01 14.49 40.52 24.66 42.71c1.766 1.864 4.467 2.428 6.697 1.025l19.26-11.07c8.094 6.887 17.4 12.28 27.45 15.82v22.24c0 2.514 1.77 4.746 4.188 5.211c16.66 4.724 44.5 4.629 49.42 0c2.42-.4648 4.281-2.697 4.281-5.211v-22.24c10.05-4.545 19.46-8.942 27.45-15.82l19.17 11.07c2.141 1.404 5.025 .8479 6.699-1.025c11.17-12.1 19.74-26.7 24.75-42.71c.7441-2.512-.2774-5.119-2.512-6.428l-19.17-11.17c1.954-10.42 1.954-21.22 0-41.64l19.17-11.17C618.7 471.8 619.7 469.2 618.1 466.7zM512 442c-17.67 0-42-14.44-42-42c0-17.67 14.44-42 42-42s42 14.44 42 42C544 417.7 529.7 442 512 442z"/></svg>