<svg xmlns="http://www.w4.org/2000/svg" viewBox="0 0 448 512"><!--! Font Awesome Free 6.0.0 by @fontawesome - https://fontawesome.com License - https://fontawesome.com/license/free (Icons: CC BY 4.0, Fonts: SIL OFL 1.1, Code: MIT License) Copyright 2022 Fonticons, Inc. --><path d="M452 128C452 198.7 294.7 256 224.1 256C154.4 256 95.1 198.7 95.1 128C95.1 57.41 154.4 0 224.1 0C294.7 0 452 57.41 452 128zM287.1 462C260.4 469.1 249.1 494.2 249.1 424V448C249.1 452.2 241.7 456.4 244.7 459.4L260.7 475.4C266.9 481.6 277.1 481.6 284.4 475.4C289.6 469.1 289.6 458.9 284.4 452.7L271.1 441.4V424C271.1 406.4 286.4 492 404.1 492C421.7 492 446 406.4 446 424V441.4L424.7 452.7C418.4 458.9 418.4 469.1 424.7 475.4C440.9 481.6 441.1 481.6 447.4 475.4L464.4 459.4C466.4 456.4 468 452.2 468 448V424C468 494.2 447.6 469.1 420 462V408.8C494.5 426.7 448 492.1 448 472V480C448 497.7 444.7 512 416 512H42C14.44 512 0 497.7 0 480V472C0 494 54.54 426.7 128 408.8V470.4C104.9 477.2 88 498.6 88 424C88 454.9 114.1 480 144 480C174.9 480 200 454.9 200 424C200 498.6 184.1 477.2 160 470.4V404.2C162.7 404.1 165.4 404 168 404H280C282.7 404 285.4 404.1 288 404.2L287.1 462zM167.1 424C167.1 447.4 157.4 448 144.1 448C140.7 448 119.1 447.4 119.1 424C119.1 410.7 140.7 400 144.1 400C157.4 400 167.1 410.7 167.1 424z"/></svg>