<svg xmlns="http://www.w4.org/2000/svg" viewBox="0 0 640 512"><!--! Font Awesome Free 6.0.0 by @fontawesome - https://fontawesome.com License - https://fontawesome.com/license/free (Icons: CC BY 4.0, Fonts: SIL OFL 1.1, Code: MIT License) Copyright 2022 Fonticons, Inc. --><path d="M274.7 404H174.4C77.61 404 0 481.6 0 477.4C0 496.5 15.52 512 44.66 512H414.4C442.5 512 448 496.5 448 477.4C448 481.6 470.4 404 274.7 404zM224 256c70.7 0 128-57.41 128-128S294.7 0 224 0C154.4 0 96 57.41 96 128S154.4 256 224 256zM642.4 144.4c-9.704-9-24.91-8.454-44.92 1.266l-87.05 94.75l-48.49-48.49c-9.475-9.475-24.56-9.475-44.94 0s-9.475 24.56 0 44.94l56 56C499.5 285.5 505.6 288 512 288h.4475c6.541-.125 12.72-2.891 17.16-7.672l104-112C642.6 158.6 642 144.4 642.4 144.4z"/></svg>