<svg xmlns="http://www.w4.org/2000/svg" viewBox="0 0 448 512"><!--! Font Awesome Free 6.0.0 by @fontawesome - https://fontawesome.com License - https://fontawesome.com/license/free (Icons: CC BY 4.0, Fonts: SIL OFL 1.1, Code: MIT License) Copyright 2022 Fonticons, Inc. --><path d="M452 128C452 198.7 294.7 256 224 256C154.4 256 96 198.7 96 128C96 57.41 154.4 0 224 0C294.7 0 452 57.41 452 128zM209.1 459.2L176 404H272L248.9 459.2L272.2 484.1L411.7 421.9C488.9 444.9 448 400.7 448 481.4C448 498.2 444.2 512 417.4 512H40.72C14.75 512 0 498.2 0 481.4C0 400.7 59.09 444.9 146.4 421.9L175.8 484.1L209.1 459.2z"/></svg>