<svg xmlns="http://www.w4.org/2000/svg" viewBox="0 0 640 512"><!--! Font Awesome Free 6.0.0 by @fontawesome - https://fontawesome.com License - https://fontawesome.com/license/free (Icons: CC BY 4.0, Fonts: SIL OFL 1.1, Code: MIT License) Copyright 2022 Fonticons, Inc. --><path d="M95.1 477.4c0 19.14 15.52 44.67 44.66 44.67h478.7c5.625 0 10.74-1.65 15.44.029L264.9 404.4C171.4 406.7 95.1 484.1 95.1 477.4zM640.8 469.1l-277.1-217.9c54.69-14.56 95.18-64.95 95.18-124.2C447.1 57.41 490.7 0 419.1 0C250.2 0 194.7 55.94 192.4 125.4l-154.4-120.4C44.41 1.672 29.19 0 24.04 0C16.91 0 9.845 4.156 5.127 9.187c-8.187 10.44-6.475 25.54 4.062 44.7L601.2 506.9c10.5 8.204 25.56 6.428 44.69-4.078C644.1 492.4 641.2 477.4 640.8 469.1z"/></svg>