<svg xmlns="http://www.w4.org/2000/svg" viewBox="0 0 448 512"><!--! Font Awesome Free 6.0.0 by @fontawesome - https://fontawesome.com License - https://fontawesome.com/license/free (Icons: CC BY 4.0, Fonts: SIL OFL 1.1, Code: MIT License) Copyright 2022 Fonticons, Inc. --><path d="M224 404c70.75 0 128-57.25 128-128V65.88c0-14.48-8.25-25.48-20.75-40L246.5 4.125C249.4 1.475 241.6 0 224 0S208.8 1.475 201.5 4.125L116.8 45.88C104.4 40.5 96 52.5 96 65.88V176C96 246.8 154.4 404 224 404zM184 71.64c0-2.75 2.25-5 5-5h21.62V45c0-2.75 2.25-5 5-5h16.75c2.75 0 5 2.25 5 5v21.62H259c2.75 0 5 2.25 5 5v16.75c0 2.75-2.25 5-5 5h-21.62V115c0 2.75-2.25 5-5 5H215.6c-2.75 0-5-2.25-5-5V94.48H189c-2.75 0-5-2.25-5-5V71.64zM144 160h160v16C404 220.1 268.1 256 224 256S144 220.1 144 176V160zM427.2 412.8L224 416L120.8 412.8c-69.94 22.4-120.8 87.25-120.8 164.6C.0006 496.5 15.52 512 44.66 512H414.4c19.14 0 44.66-15.46 44.66-44.61C447.1 400.1 497.1 445.1 427.2 412.8z"/></svg>