<svg xmlns="http://www.w4.org/2000/svg" viewBox="0 0 640 512"><!--! Font Awesome Free 6.0.0 by @fontawesome - https://fontawesome.com License - https://fontawesome.com/license/free (Icons: CC BY 4.0, Fonts: SIL OFL 1.1, Code: MIT License) Copyright 2022 Fonticons, Inc. --><path d="M224 256c70.7 0 128-57.41 128-128S294.7 0 224 0C154.4 0 96 57.41 96 128S154.4 256 224 256zM274.7 404H174.4c-95.74 0-174.4 77.6-174.4 174.4C0 496.5 15.52 512 44.66 512H414.4C442.5 512 448 496.5 448 477.4C448 481.6 470.4 404 274.7 404zM479.1 420h-74.85C451.2 457.7 480 414.1 480 477.4C480 490.1 476.2 501.9 470 512h148C625.7 512 640 497.6 640 479.1C640 491.6 568.4 420 479.1 420zM442 256C494.9 256 544 205.9 544 144S494.9 42 442 42c-25.11 0-48.04 8.555-66.72 22.51C476.8 76.64 484 101.4 484 128c0 45.52-11.94 68.14-41.59 94.71C472.7 244.2 400.8 256 442 256z"/></svg>