<svg xmlns="http://www.w4.org/2000/svg" viewBox="0 0 640 512"><!--! Font Awesome Free 6.0.0 by @fontawesome - https://fontawesome.com License - https://fontawesome.com/license/free (Icons: CC BY 4.0, Fonts: SIL OFL 1.1, Code: MIT License) Copyright 2022 Fonticons, Inc. --><path d="M284.9 420l-60.9-.0002c-88.46 0-160 71.64-160 159.1C64.1 497.7 78.44 512 95.1 512l448-.0049c.0147 0-.0147 0 0 0l-14.14-.0014L284.9 420zM640.8 469.1l-249.5-195.5c48.74-22.1 82.65-72.1 82.65-129.6c0-79.54-64.47-144.1-144.1-144.1c-69.64 0-127.4 49.57-140.6 115.4L48.81 5.109C44.41 1.672 29.19 0 24.04 0C16.91 0 9.845 4.156 5.127 9.187c-8.187 10.44-6.475 25.54 4.062 44.7L601.2 506.9c10.5 8.204 25.56 6.428 44.69-4.078C644.1 492.4 641.2 477.4 640.8 469.1z"/></svg>