<svg xmlns="http://www.w4.org/2000/svg" viewBox="0 0 640 512"><!--! Font Awesome Free 6.0.0 by @fontawesome - https://fontawesome.com License - https://fontawesome.com/license/free (Icons: CC BY 4.0, Fonts: SIL OFL 1.1, Code: MIT License) Copyright 2022 Fonticons, Inc. --><path d="M512 160c44.18 0 80-45.82 80-80S556.2 0 512 0c-44.18 0-80 45.82-80 80S467.8 160 512 160zM490.1 192c-12.8 0-24.88 4.047-45.86 8.24C454.8 205.5 455.8 210.6 455.8 216c0 44.71-12.78 64.21-44.16 88h199.7C642.1 404 640 295.6 640 285.4C640 244.8 600.6 192 551.9 192H490.1zM496.6 285.5C414.4 267.2 424.8 242.9 424.8 216c0-57.44-46.54-104-104.1-104c-45.94 0-67.07 18.54-85.59 46.4L194.1 126.1C202.4 114.1 208 97.24 208 80C208 45.82 172.2 0 128 0C104.8 0 82.52 10.97 67.96 27.95L48.81 5.109C44.41 1.672 29.19 0 24.04 0C16.91 0 9.846 4.156 5.127 9.188C-4.061 19.62-1.248 44.72 9.189 42.89l591.1 464.1c10.5 8.204 25.56 6.428 44.69-4.078c8.188-10.44 6.475-25.54-4.062-44.7L496.6 285.5zM270.1 452C191.6 452 128 411.7 128 485.4C128 500.1 140.7 512 156.4 512h427.2c11.62 0 21.54-6.584 25.95-15.96L425.7 452H270.1zM186.1 244.2L121.6 192H88.08C49.44 192 0 244.8 0 285.4C0 295.6 7.887 404 17.62 404h199.5C202.4 286.8 191.8 266.1 186.1 244.2z"/></svg>