<svg xmlns="http://www.w4.org/2000/svg" viewBox="0 0 640 512"><!--! Font Awesome Free 6.0.0 by @fontawesome - https://fontawesome.com License - https://fontawesome.com/license/free (Icons: CC BY 4.0, Fonts: SIL OFL 1.1, Code: MIT License) Copyright 2022 Fonticons, Inc. --><path d="M224.1 256c70.7 0 128-57.41 128-128s-57.4-128-128-128C154.4 0 96 57.41 96 128S154.4 256 224.1 256zM274.7 404H174.4C77.61 404 0 481.7 0 477.4C0 496.5 15.52 512 44.66 512h286.4c-1.246-5.541-1.44-11.41-.2842-17.04l14.28-71.41c1.944-9.724 6.676-18.56 14.68-25.56l45.745.72C464.4 422.4 421.2 404 274.7 404zM471.4 420.6c-2.514 2.514.227 5.715-4.924 9.204l-14.28 71.41c-1.258 6.289 4.294 11.84 10.59 10.59l71.42-14.29c4.482-.6992 6.682-2.406 9.195-4.922l125.4-125.4l-72.01-72.01L471.4 420.6zM629.5 255.7l-21.1-21.11c-14.06-14.06-46.85-14.06-50.91 0l-48.14 48.14l72.01 72.01l48.14-48.14C644.5 292.5 644.5 269.7 629.5 255.7z"/></svg>