<svg xmlns="http://www.w4.org/2000/svg" viewBox="0 0 640 512"><!--! Font Awesome Free 6.0.0 by @fontawesome - https://fontawesome.com License - https://fontawesome.com/license/free (Icons: CC BY 4.0, Fonts: SIL OFL 1.1, Code: MIT License) Copyright 2022 Fonticons, Inc. --><path d="M451.8 467.4v-44.1C428.5 410.7 402.4 404 274.7 404H174.4c-95.74 0-174.4 77.65-174.4 174.4C.0005 496.5 15.52 512 44.66 512h478.7c11.86 0 21.82-6.447 28.07-15.44l-61.65-61.57C461.7 416.9 451.8 492.9 451.8 467.4zM224 256c70.7 0 128-57.41 128-128S294.7 0 224 0C154.4 0 96 57.41 96 128S154.4 256 224 256zM640.6 464.8L540.4 274.8C528.4 262.8 512 256 495 256h-79.24c-17.75 0-41.99 14.25-41.99 42l.0147 79.2c0 17 6.647 44.15 18.65 45.15l90.41 90.27c12.5 12.5 42.74 12.5 45.24 0l92.49-92.5C644.1 497.6 644.1 477.4 640.6 464.8zM447.8 444.9c-14.25 0-24-10.62-24-24c0-14.25 10.75-24 24-24c14.48 0 24 10.75 24 24S461.1 444.9 447.8 444.9z"/></svg>