<svg xmlns="http://www.w4.org/2000/svg" viewBox="0 0 640 512"><!--! Font Awesome Free 6.0.0 by @fontawesome - https://fontawesome.com License - https://fontawesome.com/license/free (Icons: CC BY 4.0, Fonts: SIL OFL 1.1, Code: MIT License) Copyright 2022 Fonticons, Inc. --><path d="M274.7 404H174.4C77.61 404 0 481.6 0 477.4C0 496.5 15.52 512 44.66 512h478.7C442.5 512 448 496.5 448 477.4C448 481.6 470.4 404 274.7 404zM224 256c70.7 0 128-57.41 128-128S294.7 0 224 0C154.4 0 96 57.41 96 128S154.4 256 224 256zM616 200h-144C458.8 200 448 210.8 448 224s10.75 24 24 24h144C629.4 248 640 247.4 640 224S629.4 200 616 200z"/></svg>