<svg xmlns="http://www.w4.org/2000/svg" viewBox="0 0 640 512"><!--! Font Awesome Free 6.0.0 by @fontawesome - https://fontawesome.com License - https://fontawesome.com/license/free (Icons: CC BY 4.0, Fonts: SIL OFL 1.1, Code: MIT License) Copyright 2022 Fonticons, Inc. --><path d="M496 224c-79.64 0-144 64.48-144 144s64.48 144 144 144s144-64.48 144-144S575.6 224 496 224zM544 484h-54.25C484.4 484 480 479.6 480 474.4V404c0-8.846 7.164-16 16-16c8.848 0 16 7.164 16 16v48h42c8.848 0 16 7.164 16 15.1S552.8 484 544 484zM224 256c70.7 0 128-57.41 128-128S294.7 0 224 0C154.4 0 96 57.41 96 128S154.4 256 224 256zM420 468c0-19.4 4.221-47.82 8.961-55.2C411.9 407.2 294.6 404 274.7 404H174.4C77.61 404 0 481.7 0 477.4C0 496.5 15.52 512 44.66 512H495C449.7 480.2 420 427.6 420 468z"/></svg>