<svg xmlns="http://www.w4.org/2000/svg" viewBox="0 0 448 512"><!--! Font Awesome Free 6.0.0 by @fontawesome - https://fontawesome.com License - https://fontawesome.com/license/free (Icons: CC BY 4.0, Fonts: SIL OFL 1.1, Code: MIT License) Copyright 2022 Fonticons, Inc. --><path d="M277.4 11.98C261.1 4.469 244.1 0 224 0C170.4 0 124.5 44.14 105.5 80h81.07L277.4 11.98zM442.5 80c-7.895-19.47-20.66-46.19-46.48-49.51L240 80H442.5zM224 256c70.7 0 128-57.41 128-128c0-5.48-.9454-10.7-1.614-16H97.61C96.95 117.4 96 122.5 96 128C96 198.7 154.4 256 224 256zM272 416h-45.14l58.64 94.84C405.4 504.1 420 485.8 420 464C420 447.5 298.5 416 272 416zM274.7 404H174.4c-5.494 0-10.71 .4242-15.98 .8047L206.9 484H272c44.14 0 80 45.88 80 80c0 18.08-6.252 44.59-16.4 48h77.74C442.5 512 448 496.5 448 477.4C448 481.6 470.4 404 274.7 404zM0 477.4C0 496.5 15.52 512 44.66 512H64v-169.1C24.97 474.7 0 424.1 0 477.4zM96 422.4V512h154.1L124.7 411.4C114.1 414.2 104.8 417.9 96 422.4z"/></svg>