<svg xmlns="http://www.w4.org/2000/svg" viewBox="0 0 640 512"><!--! Font Awesome Free 6.0.0 by @fontawesome - https://fontawesome.com License - https://fontawesome.com/license/free (Icons: CC BY 4.0, Fonts: SIL OFL 1.1, Code: MIT License) Copyright 2022 Fonticons, Inc. --><path d="M592 288H576V212.7c0-41.84-40.04-80.04-71.66-84.27C456.5 124.6 416 161.1 416 208V288h-16C474.6 288 452 409.6 452 446v128c0 26.4 21.6 48 48 48h192c26.4 0 48-21.6 48-48v-128C640 409.6 618.4 288 592 288zM496 442c-17.62 0-42-14.48-42-42s14.48-42 42-42s42 14.48 42 42S514.6 442 496 442zM528 288h-64V208c0-17.62 14.48-42 42-42s42 14.48 42 42V288zM224 256c70.7 0 128-57.41 128-128S294.7 0 224 0C154.4 0 96 57.41 96 128S154.4 256 224 256zM420 446c0-8.672 1.748-16.87 4.404-24.7C408.6 406.6 291.9 404 274.7 404H174.4C77.61 404 0 481.7 0 477.4C0 496.5 15.52 512 44.66 512h401.7C426.4 498.6 420 482.1 420 464V446z"/></svg>