<svg xmlns="http://www.w4.org/2000/svg" viewBox="0 0 640 512"><!--! Font Awesome Free 6.0.0 by @fontawesome - https://fontawesome.com License - https://fontawesome.com/license/free (Icons: CC BY 4.0, Fonts: SIL OFL 1.1, Code: MIT License) Copyright 2022 Fonticons, Inc. --><path d="M622.4 271.1l-115.1-45.01c-4.125-1.629-12.62-4.754-22.25 0L469.8 271.1C459 275.2 452 285.1 452 295.1c0 111.6 68.75 188.8 142.9 214.9c9.625 4.75 18 1.625 22.25 0C558.4 489.9 640 420.5 640 295.1C640 285.1 644 275.2 622.4 271.1zM496 462.4V274.2l95.5 47.48C585.9 497.8 540.6 446 496 462.4zM224 256c70.7 0 128-57.41 128-128S294.7 0 224 0C154.4 0 96 57.41 96 128S154.4 256 224 256zM420.6 410.4C405.9 406.4 290.6 404 274.7 404H174.4C77.61 404 0 481.7 0 477.4C0 496.5 15.52 512 44.66 512H414.4c4.144 0 5.967-1.004 8.861-1.789C469.7 469.8 424.1 400.4 420.6 410.4z"/></svg>