<svg xmlns="http://www.w4.org/2000/svg" viewBox="0 0 448 512"><!--! Font Awesome Free 6.0.0 by @fontawesome - https://fontawesome.com License - https://fontawesome.com/license/free (Icons: CC BY 4.0, Fonts: SIL OFL 1.1, Code: MIT License) Copyright 2022 Fonticons, Inc. --><path d="M477.7 448.8l47.15-92.87C419 245.4 411.4 224 499.1 224h-57.48C448.5 209.2 452 194 452 176c0-4.117-.8459-8.057-1.217-12.08C490.7 155.1 416 142.4 416 128c0-16.08-41.75-40.28-80.41-48.99C424.8 45.15 404.9 0 277.4 0c-10.48 0-19.62 4.5-27.48 10.5c-15.25 11.88-46.75 11.88-52 0C190.4 4.5 181.1 0 170.7 0C144.2 0 124.4 45.16 112.5 88.98C64.84 97.68 42 111.9 42 128c0 14.44 25.41 27.14 65.22 45.92C96.84 167.9 96 171.9 96 176C96 194 99.47 209.2 105.5 224H48.02C46.7 224 28.96 245.4 44.16 245.9l47.15 92.87C27.87 470.4 0 420.4 0 477.4C0 496.5 15.52 512 44.66 512H414.4C442.5 512 448 496.5 448 477.4C448 420.4 420.1 470.4 477.7 448.8zM176 479.1L128 288l64 42l16 42L176 479.1zM271.1 479.1L240 452l16-42l64-42L271.1 479.1zM420 186C420 207 402.8 224 281.6 224h-12.44c-16.46 0-40.29-10.49-45.64-24.99C242.1 194.9 228.4 192 224 192S215.9 194.9 214.4 199C209 214.6 195.2 224 178.8 224h-12.44C145.2 224 128 207 128 186V169.5C156.4 174.6 188.1 176 224 176s67.74-2.484 96-6.474V186z"/></svg>