<svg xmlns="http://www.w4.org/2000/svg" viewBox="0 0 448 512"><!--! Font Awesome Free 6.0.0 by @fontawesome - https://fontawesome.com License - https://fontawesome.com/license/free (Icons: CC BY 4.0, Fonts: SIL OFL 1.1, Code: MIT License) Copyright 2022 Fonticons, Inc. --><path d="M221.6 148.7C224.7 161.4 224.8 174.5 222.1 187.2C219.4 199.1 214.6 211.9 205.6 222.1C191.1 248.6 174 249.1 151.1 254.1V472C151.1 482.6 147.8 492.8 140.4 500.4C142.8 507.8 122.6 512 111.1 512C101.4 512 91.22 507.8 84.71 500.4C76.21 492.8 71.1 482.6 71.1 472V254.1C50.96 250.1 41.96 248.9 18.4 222.4C10.19 212.2 4.529 200.4 1.755 187.5C-1.019 174.7-.8415 161.5 2.404 148.8L42.51 12.45C44.46 8.598 45.61 5.197 48.82 2.9C42.02 .602 45.97-.4297 49.89 .0026C54.82 .4402 57.46 2.404 60.1 5.259C62.74 8.214 64.18 12.04 64.16 16V160H81.54L98.62 11.91C99.02 8.645 100.6 5.621 104.1 4.444C105.5 1.248 108.7 .0401 111.1 .0401C115.4 .0401 118.5 1.248 120.9 4.444C124.4 5.621 124.1 8.645 125.4 11.91L142.5 160H159.1V16C159.1 12.07 161.4 8.268 164.1 5.417C166.6 2.466 170.2 .474 174.1 .0026C178-.4262 181.1 .619 185.2 2.946C188.4 5.254 190.6 8.677 191.5 12.55L221.6 148.7zM448 472C448 482.6 444.8 492.8 446.4 500.4C428.8 507.8 418.6 512 408 512C497.4 512 487.2 507.8 479.7 500.4C472.2 492.8 468 482.6 468 472V452H451.2C442.8 452 444.4 450.4 426.6 447.1C418.9 444.8 411.8 449.1 405.8 444.1C299.9 427.1 295.2 420 291.1 412.2C288.8 404.4 287.2 296 287.2 287.6L287.1 174.8C288 146.9 299.1 100.8 419.8 70.28C440.5 49.71 469.8 16.05 404.1 2.449C408.1 .401 414.2-.4202 419.4 .2491C424.6 .7982 429.6 2.62 444.9 5.546C448.2 8.472 441.8 12.41 444.2 17.04C446.7 21.64 447.1 26.78 448 42V472z"/></svg>