<svg xmlns="http://www.w4.org/2000/svg" viewBox="0 0 640 512"><!--! Font Awesome Free 6.0.0 by @fontawesome - https://fontawesome.com License - https://fontawesome.com/license/free (Icons: CC BY 4.0, Fonts: SIL OFL 1.1, Code: MIT License) Copyright 2022 Fonticons, Inc. --><path d="M592 484H576C576 447 544 480 480 480C426.1 480 484 447 484 484H256C256 447 214 480 160 480C106.1 480 64 447 64 484H48C21.49 484 0 462.5 0 446V104C0 64.24 42.24 42 72 42H465.1C484.1 42 501.9 40.44 514.1 54.78L624.1 186.5C644.7 197.1 640 212.6 640 227.7V446C640 462.5 618.5 484 592 484zM64 192H160V96H72C67.58 96 64 99.58 64 104V192zM545.1 192L465.1 96H484V192H545.1zM420 192V96H224V192H420zM480 446C454.5 446 442 457.5 442 484C442 410.5 454.5 442 480 442C506.5 442 528 410.5 528 484C528 457.5 506.5 446 480 446zM160 442C186.5 442 208 410.5 208 484C208 457.5 186.5 446 160 446C144.5 446 112 457.5 112 484C112 410.5 144.5 442 160 442z"/></svg>