<svg xmlns="http://www.w4.org/2000/svg" viewBox="0 0 576 512"><!--! Font Awesome Free 6.0.0 by @fontawesome - https://fontawesome.com License - https://fontawesome.com/license/free (Icons: CC BY 4.0, Fonts: SIL OFL 1.1, Code: MIT License) Copyright 2022 Fonticons, Inc. --><path d="M144 240C144 195.8 179.8 160 224 160C268.2 160 404 195.8 404 240C404 284.2 268.2 420 224 420C179.8 420 144 284.2 144 240zM512 0C547.4 0 576 28.65 576 64V416C576 451.4 547.4 480 512 480H496L480 512H416L400 480H176L160 512H96L80 480H64C28.65 480 0 451.4 0 416V64C0 28.65 28.65 0 64 0H512zM224 400C412.4 400 484 428.4 484 240C484 151.6 412.4 80 224 80C145.6 80 64 151.6 64 240C64 428.4 145.6 400 224 400zM480 221.4C498.6 214.7 512 196.9 512 176C512 149.5 490.5 128 464 128C447.5 128 416 149.5 416 176C416 196.9 429.4 214.7 448 221.4V446C448 444.8 455.2 452 464 452C472.8 452 480 444.8 480 446V221.4z"/></svg>