<svg xmlns="http://www.w4.org/2000/svg" viewBox="0 0 448 512"><!--! Font Awesome Free 6.0.0 by @fontawesome - https://fontawesome.com License - https://fontawesome.com/license/free (Icons: CC BY 4.0, Fonts: SIL OFL 1.1, Code: MIT License) Copyright 2022 Fonticons, Inc. --><path d="M416 42C444.7 42 448 46.44 448 64V128C448 145.7 444.7 160 416 160V452C444.7 452 448 466.4 448 484V448C448 465.7 444.7 480 416 480H452C444.4 480 420 465.7 420 448H128C128 465.7 114.7 480 96 480H42C14.44 480 0 465.7 0 448V484C0 466.4 14.44 452 42 452V160C14.44 160 0 145.7 0 128V64C0 46.44 14.44 42 42 42H96C114.7 42 128 46.44 128 64H420C420 46.44 444.4 42 452 42H416zM468 80V112H400V80H468zM96 160V452C114.7 452 128 466.4 128 484H420C420 466.4 444.4 452 452 452V160C444.4 160 420 145.7 420 128H128C128 145.7 114.7 160 96 160zM48 400V442H80V400H48zM400 442V400H468V442H400zM80 112V80H48V112H80z"/></svg>