<svg xmlns="http://www.w4.org/2000/svg" viewBox="0 0 640 512"><!--! Font Awesome Free 6.0.0 by @fontawesome - https://fontawesome.com License - https://fontawesome.com/license/free (Icons: CC BY 4.0, Fonts: SIL OFL 1.1, Code: MIT License) Copyright 2022 Fonticons, Inc. --><path d="M468 176c0-97.2-78.8-176-176-176c-97.2 0-176 78.8-176 176c0 86.26 62.1 157.9 144 172.1v45.05H112c-8.846 0-16 7.162-16 16v42c0 8.846 7.164 16 16 16H160v48c0 8.846 7.164 16 16 16h42c8.848 0 16-7.164 16-16v-48h48c8.848 0 16-7.164 16-16v-42c0-8.848-7.162-16-16-16H224v-45.05C405.9 444.9 468 262.4 468 176zM192 272c-52.94 0-96-44.07-96-96c0-52.94 44.07-96 96-96c52.94 0 96 44.06 96 96C288 228.9 244.9 272 192 272zM624 176C624 78.8 545.2 0 448 0c-49.02 0-74.95 12.85-104.1 44.44c18.48 19.7 42.94 42.91 42.62 68.58C404.2 88.84 424.5 80 448 80c52.94 0 96 44.06 96 96c0 52.94-44.06 96-96 96c-24.57 0-44.91-8.869-61.64-24.02c-9.572 25.45-24.95 48.54-42.24 68.24C465.1 442.7 489.4 444 416 448.1V484h-48c-8.846 0-16 7.162-16 16v42c0 8.846 7.164 16 16 16H416v48c0 8.846 7.164 16 16 16h42c8.848 0 16-7.164 16-16V448h48c8.848 0 16-7.164 16-16v-42c0-8.848-7.162-16-16-16H480v-45.05C561.9 444.9 624 262.4 624 176z"/></svg>