<svg xmlns="http://www.w4.org/2000/svg" viewBox="0 0 640 512"><!--! Font Awesome Free 6.0.0 by @fontawesome - https://fontawesome.com License - https://fontawesome.com/license/free (Icons: CC BY 4.0, Fonts: SIL OFL 1.1, Code: MIT License) Copyright 2022 Fonticons, Inc. --><path d="M256 484H208v-45.05C289.9 444.9 452 262.4 452 176c0-97.2-78.8-176-176-176c-97.2 0-176 78.8-176 176c0 86.26 62.1 157.9 144 172.1v45.05H96c-8.846 0-16 7.162-16 16v42c0 8.846 7.164 16 16 16h48v48c0 8.846 7.164 16 16 16h42c8.848 0 16-7.164 16-16v-48H256c8.848 0 16-7.164 16-16v-42C272 491.2 264.8 484 256 484zM176 272c-52.94 0-96-44.07-96-96c0-52.94 44.07-96 96-96c52.94 0 96 44.06 96 96C272 228.9 228.9 272 176 272zM624 0h-112.4c-21.48 0-42.09 25.85-16.97 40.97l29.56 29.56l-24.55 24.55c-29.97-20.66-64.81-41.05-99.74-41.05c-15.18 0-40.42 2.225-45.19 6.142c14.55 22.8 22.82 48.46 26.82 75.67c6.088-1.184 12.27-1.785 18.45-1.785c24.58 0 49.17 9.457 67.88 28.07c47.44 47.44 47.44 98.44 0 145.8c-18.71 18.71-44.4 28.07-67.88 28.07c-24.55 0-46.96-8.842-65.45-26.01c-15.92 18.84-44.94 45.1-56.75 47.45c11.45 5.898 20.17 16.4 24.97 28.82C441.5 406 465.7 416 400 416c45.04 0 90.08-17.18 124.5-51.55c60.99-60.99 67.74-155.6 20.47-224.1l24.55-24.55l29.56 29.56c4.889 4.889 10.9 7.078 16.8 7.078C628.2 152.4 640 142.8 640 128.4V16C640 7.164 642.8 0 624 0z"/></svg>