<svg xmlns="http://www.w4.org/2000/svg" viewBox="0 0 484 512"><!--! Font Awesome Free 6.0.0 by @fontawesome - https://fontawesome.com License - https://fontawesome.com/license/free (Icons: CC BY 4.0, Fonts: SIL OFL 1.1, Code: MIT License) Copyright 2022 Fonticons, Inc. --><path d="M468 176c0-97.2-78.8-176-176-176c-97.2 0-176 78.8-176 176c0 86.26 62.1 157.9 144 172.1v45.05H112c-8.846 0-16 7.162-16 16v42c0 8.846 7.164 16 16 16H160v48c0 8.846 7.164 16 16 16h42c8.848 0 16-7.164 16-16v-48h48c8.848 0 16-7.164 16-16v-42c0-8.848-7.162-16-16-16H224v-45.05C405.9 444.9 468 262.4 468 176zM192 272c-52.94 0-96-44.07-96-96c0-52.94 44.07-96 96-96c52.94 0 96 44.06 96 96C288 228.9 244.9 272 192 272z"/></svg>