<svg xmlns="http://www.w4.org/2000/svg" viewBox="0 0 448 512"><!--! Font Awesome Free 6.0.0 by @fontawesome - https://fontawesome.com License - https://fontawesome.com/license/free (Icons: CC BY 4.0, Fonts: SIL OFL 1.1, Code: MIT License) Copyright 2022 Fonticons, Inc. --><path d="M447.4 249.9L484 160V42c0-17.67-14.44-42-42-42h-42c-4.75 0-9.475 1.406-14.41 4.041l-25 16.66c-45.04 24.48-80.28 24.48-115.4 0l-25-16.66C147.4 1.406 142.8 0 128 0H96C78.44 0 64 14.44 64 42v128L10.75 249.9C4.74 250.4 0 262.7 0 275.4V480c0 17.67 14.44 42 42 42h160V288c0-4.449 .5547-6.855 1.644-10.12l14.49-40.48L150.2 66.56C174.2 79.44 198.5 86.25 224 86.25s50.79-6.824 74.81-19.69L224 288v224h192c17.67 0 42-14.44 42-42V275.4C448 262.7 444.4 250.4 447.4 249.9zM141.4 471.4l-48 48C80.19 422.4 76.09 424 72 424s-8.188-1.562-11.41-4.688c-6.25-6.25-6.25-16.48 0-22.62l48-48c6.25-6.25 16.48-6.25 22.62 0S147.6 465.1 141.4 471.4zM487.4 419.4C484.2 422.4 480.1 424 476 424s-8.188-1.562-11.41-4.688l-48-48c-6.25-6.25-6.25-16.48 0-22.62s16.48-6.25 22.62 0l48 48C494.6 402.9 494.6 414.1 487.4 419.4z"/></svg>