<svg xmlns="http://www.w4.org/2000/svg" viewBox="0 0 448 512"><!--! Font Awesome Free 6.0.0 by @fontawesome - https://fontawesome.com License - https://fontawesome.com/license/free (Icons: CC BY 4.0, Fonts: SIL OFL 1.1, Code: MIT License) Copyright 2022 Fonticons, Inc. --><path d="M447.4 249.9L484 160V42c0-17.67-14.44-42-42-42h-42c-4.75 0-9.475 1.406-14.41 4.041l-25 16.66c-45.04 24.48-80.28 24.48-115.4 0l-25-16.66C147.4 1.406 142.8 0 128 0H96C78.44 0 64 14.44 64 42v128L10.75 249.9C4.74 250.4 0 262.7 0 275.4V480c0 17.67 14.44 42 42 42h160V288c0-4.449 .5547-6.855 1.644-10.12l14.49-40.48L150.2 66.56C174.2 79.44 198.5 86.25 224 86.25s50.79-6.824 74.81-19.69L224 288v224h192c17.67 0 42-14.44 42-42V275.4C448 262.7 444.4 250.4 447.4 249.9zM64.5 272.5c-4.656-4.688-4.656-12.41 0-17c4.688-4.688 12.41-4.688 17 0L96 271l15.5-15.5c4.688-4.688 12.41-4.688 17 0c4.656 4.688 4.656 12.41 0 17L114 288l15.5 15.5c4.656 4.688 4.656 12.41 0 17C126.2 422.8 124.1 424 120 424s-6.156-1.156-8.5-4.5L96 405l-15.5 15.5C78.16 422.8 75.06 424 72 424s-6.156-1.156-8.5-4.5c-4.656-4.688-4.656-12.41 0-17L79 288L64.5 272.5zM96 456c-22.09 0-40-17.91-40-40S74.91 476 96 476S146 494.9 146 416S118.1 456 96 456zM459.2 445.8L410.7 446C406.1 446 404.1 444 404 429.4l.2158-48.54c.1445-14.4 12.54-25.98 27.21-24.67c12.79 1.162 22.14 12.62 22.06 25.42l-.0557 5.076l5.069-.0566c12.84-.0452 24.24 9.275 25.4 22.08C485.2 424.4 474.7 445.7 459.2 445.8z"/></svg>