<svg xmlns="http://www.w4.org/2000/svg" viewBox="0 0 512 512"><!--! Font Awesome Free 6.0.0 by @fontawesome - https://fontawesome.com License - https://fontawesome.com/license/free (Icons: CC BY 4.0, Fonts: SIL OFL 1.1, Code: MIT License) Copyright 2022 Fonticons, Inc. --><path d="M502.6 169.4l-160-160C446.4 4.125 428.2 0 420 0s-16.48 4.125-22.62 9.475c-12.5 12.5-12.5 42.75 0 45.25l6.975 6.977l-271.4 271c-48.75 48.75-45.14 102-9.475 144.5C44.08 500 72.76 512 101.5 512h.4474c26.48 0 52.75-9.1 72.88-40.12l275.2-274.6l7.465 7.467C464.6 220.9 471.8 224 480 224s16.48-4.125 22.62-9.475C515.1 202.1 515.1 181.9 502.6 169.4zM410.6 256H200.2l149.4-149.1l55.18 55.12L410.6 256z"/></svg>