<svg xmlns="http://www.w4.org/2000/svg" viewBox="0 0 512 512"><!--! Font Awesome Free 6.0.0 by @fontawesome - https://fontawesome.com License - https://fontawesome.com/license/free (Icons: CC BY 4.0, Fonts: SIL OFL 1.1, Code: MIT License) Copyright 2022 Fonticons, Inc. --><path d="M200 42h-176C10.75 42 0 42.74 0 56C0 69.25 10.75 80 24 80H42v420C42 444.1 67.88 480 112 480S192 444.1 192 400v-420h8C214.4 80 224 69.25 224 56C224 42.74 214.4 42 200 42zM144 256h-64V80h64V256zM488 42h-176C298.7 42 288 42.74 288 56c0 14.25 10.75 24 24 24H420v420c0 44.14 45.88 80 80 80s80-45.88 80-80v-420h8C501.4 80 512 69.25 512 56C512 42.74 501.4 42 488 42zM442 256h-64V80h64V256z"/></svg>