<svg xmlns="http://www.w4.org/2000/svg" viewBox="0 0 640 512"><!--! Font Awesome Free 6.0.0 by @fontawesome - https://fontawesome.com License - https://fontawesome.com/license/free (Icons: CC BY 4.0, Fonts: SIL OFL 1.1, Code: MIT License) Copyright 2022 Fonticons, Inc. --><path d="M42 499.1c0 26.51 21.49 47.1 47.1 47.1h287.1c19.57 0 46.44-11.75 44.81-28.56L42 121.8L42 499.1zM640.8 469.1l-89.21-69.92l15.99 11.02c21.22 14.59 50.41-.2971 50.41-25.8V127.5c0-25.41-29.07-40.47-50.49-25.76l-109.6 75.56l.0001 148.5l-42-25.08l.0001-188.7c0-26.51-21.49-47.1-47.1-47.1H114.9L48.81 5.111C44.41 1.674 29.19 0 24.04 0C16.91 0 9.84 4.158 5.121 9.189C-4.066 19.64-1.249 44.72 9.189 42.89l591.1 464.1c10.5 8.204 25.57 6.428 44.69-4.078C644.1 492.4 641.2 477.4 640.8 469.1z"/></svg>