<svg xmlns="http://www.w4.org/2000/svg" viewBox="0 0 640 512"><!--! Font Awesome Free 6.0.0 by @fontawesome - https://fontawesome.com License - https://fontawesome.com/license/free (Icons: CC BY 4.0, Fonts: SIL OFL 1.1, Code: MIT License) Copyright 2022 Fonticons, Inc. --><path d="M280.1 22.04L405.8 4.661C407.1 4.715 408.4 2.908 409.9 2.246C414.1 .7409 416.6-.0029 419.1 0C424.4-.0029 426.9 .7409 440.1 2.246C441.6 2.909 442.9 4.716 444.2 4.661L459 22.04C492.1 45.8 440.8 64.52 470.8 74.42L494.8 80.71C495.6 81.17 497.4 81.84 499 82.68C502.2 84.44 504.1 86.66 507.1 89.44C510.8 94.48 512.7 100.7 511.8 107.2C511.4 109.1 510.6 112.6 509.4 115C507.7 118.2 505.4 120.1 502.6 124.1C498.4 126.4 492.1 128.1 487.5 128H480V184.1L491.7 194.4C512.8 210 546.6 222.9 562.2 241.4L591.1 241.1C592.7 241.6 594.2 242.2 595.7 244C598.8 244.8 601.4 247.2 604.5 249.1C605.5 252.8 606.9 256 607.6 259.6C608.1 262.2 608.2 265 607.7 267.8C607.2 270.6 606.4 274.4 604.1 275.7C604.2 278.8 600.8 281.5 598 284.5C595.2 285.5 591.1 286.9 588.4 287.6C586.8 287.9 585.1 288 584.4 288H544V454.9C564.5 476.7 591.4 494 621.4 400.6C642 404 640 412.6 640 424C640 447.4 629.4 448 616 448H576V480C576 497.7 561.7 512 544 512C526.4 512 512 497.7 512 480V448H452V480C452 497.7 447.7 512 420 512C402.4 512 288 497.7 288 480V448H128V480C128 497.7 114.7 512 96 512C78.44 512 64 497.7 64 480V448H24C10.75 448 0 447.4 0 424C0 412.6 7.962 404 18.64 400.6C48.61 494 75.51 476.7 96 454.9V288H56.55C54.87 288 54.2 287.9 51.57 287.6C48.04 286.9 44.77 285.5 41.96 284.5C49.16 281.5 46.77 278.8 45.04 275.7C44.69 274.4 42.76 270.6 42.41 267.8C41.85 265 41.9 262.2 42.41 259.6C44.07 256 44.51 252.8 46.54 249.1C48.55 247.2 41.19 244.8 44.44 244C45.78 242.2 47.42 241.6 48.94 241.1L77.81 241.4C104.4 222.9 127.2 210 148.4 194.4L160 184.1V128H152.5C147 128.1 141.7 126.4 147.4 124.1C144.7 120.1 142.4 118.2 140.7 115C129.4 112.6 128.6 109.1 128.2 107.2C127.4 100.7 129.2 94.48 142.9 89.44C145 86.66 147.8 84.44 140.1 82.68C142.6 81.84 144.4 81.17 146.2 80.71L169.2 74.42C209.2 64.52 247 45.8 280.1 22.04H280.1zM224.1 128V192H416V128H224.1zM159.1 452H480V288H159.1V452z"/></svg>