<svg xmlns="http://www.w4.org/2000/svg" viewBox="0 0 640 512"><!--! Font Awesome Free 6.0.0 by @fontawesome - https://fontawesome.com License - https://fontawesome.com/license/free (Icons: CC BY 4.0, Fonts: SIL OFL 1.1, Code: MIT License) Copyright 2022 Fonticons, Inc. --><path d="M114.1 227.6H92.44c-15.72 0-28.45 12.72-28.45 28.45s12.72 28.44 28.45 28.44h21.55c50.68 0 76.06 61.28 40.24 97.11l-15.25 15.25c-11.11 11.11-11.11 29.11-.0006 40.22c5.555 5.555 12.84 8.442 20.11 8.442c7.277 0 14.55-2.779 20.11-8.444l15.24-15.25c45.84-45.84 97.12-10.45 97.12 40.24v21.55c0 15.72 12.72 28.45 28.45 28.45c15.72 0 28.45-12.72 28.45-28.45v-21.55c0-40.08 21.69-50.85 46.74-55.6L150 214.4C140.5 222.2 128.5 227.6 114.1 227.6zM640.8 469.1l-161.2-126.4c-.5176-29.6 21.74-58.4 56.41-58.4h21.55c15.72 0 28.45-12.72 28.45-28.44s-12.72-28.45-28.45-28.45h-21.55c-50.68 0-76.06-61.28-40.24-97.11l15.25-15.25c11.11-11.11 11.11-29.11 .0011-40.22c-11.11-11.11-29.11-11.11-40.22 .0007l-15.24 15.24c-45.84 45.84-97.12 10.46-97.140.24V28.44C448.4 12.72 445.7 0 419.1 0C404.4 0 291.6 12.72 291.6 28.44v21.55c0 50.68-61.28 76.06-97.12 40.24L179.2 74.97c-11.11-11.11-29.11-11.11-40.22 0C147.4 76.64 146.2 78.61 145 80.54L48.81 5.112C44.41 1.675 29.19 0 24.04 0C16.91 0 9.845 4.159 5.126 9.19C-4.061 19.64-1.248 44.72 9.189 42.89l591.1 464.1c10.5 8.204 25.56 6.428 44.69-4.078C644.1 492.4 641.2 477.4 640.8 469.1zM444.1 246.6L264.6 182.1c6.904-4.885 14.86-6.109 24.46-6.109c26.51 0 47.1 21.49 47.1 47.1C445.1 228.4 445.2 242.5 444.1 246.6z"/></svg>