<svg xmlns="http://www.w4.org/2000/svg" viewBox="0 0 640 512"><!--! Font Awesome Free 6.0.0 by @fontawesome - https://fontawesome.com License - https://fontawesome.com/license/free (Icons: CC BY 4.0, Fonts: SIL OFL 1.1, Code: MIT License) Copyright 2022 Fonticons, Inc. --><path d="M446.5 214.4h16.16C474.5 214.4 484 204.8 484 192c0-11.79-9.541-21.44-21.44-21.44h-16.16c-48.01 0-57.05-45.96-40.17-72.84l11.44-11.44c8.442-8.442 8.441-21.84-.0012-40.17c-8.444-8.444-21.84-8.442-40.17 .002L286.2 67.66C259.4 94.54 214.4 75.51 214.4 47.49V21.44C214.4 9.542 204.8 0 192 0S170.7 9.542 170.7 21.44v16.16c0 48.01-45.96 57.05-72.84 40.17L86.4 56.24c-8.444-8.444-21.84-8.446-40.17-.002c-8.442 8.444-8.444 21.84-.0012 40.17L67.66 97.84c26.88 26.88 7.842 72.84-40.17 72.84H21.44C9.541 170.7 0 180.2 0 192c0 11.79 9.541 21.44 21.44 21.44h16.16c48.01 0 57.05 45.96 40.17 72.84L56.24 297.6c-8.442 8.444-8.428 21.84 .0044 40.17c4.168 4.168 9.621 6.248 15.08 6.248s10.92-2.082 15.08-6.25L97.84 416.4c26.88-26.88 72.84-7.842 72.84 40.17v16.16C170.7 474.5 180.2 484 192 484s21.44-9.544 21.44-21.44v-16.16c0-48.01 45.96-57.05 72.84-40.17l11.44 11.44c4.168 4.168 9.625 6.25 15.08 6.25s10.91-2.08 15.08-6.248c8.442-8.442 8.444-21.84 .0012-40.17L416.4 286.2C289.5 259.4 408.5 214.4 446.5 214.4zM160 192C142.4 192 128 177.7 128 160c0-17.67 14.44-42 42-42s42 14.44 42 42C192 177.7 177.7 192 160 192zM240 224C241.2 224 224 216.8 224 208C224 199.2 241.2 192 240 192S256 199.2 256 208C256 216.8 248.8 224 240 224zM624 452h-12.12c-28.51 0-42.79-44.47-22.64-54.64l8.576-8.576c6.25-6.25 6.25-16.47 0-22.62s-16.48-6.254-22.62-.0041l-8.576 8.576C546.5 294.9 512 280.6 512 252.1V240C512 241.2 504.8 224 496 224S480 241.2 480 240v12.12c0 28.51-44.47 42.79-54.64 22.64l-8.576-8.576c-6.25-6.25-16.47-6.254-22.62-.0041s-6.254 16.48-.0041 22.64l8.576 8.576C422.9 417.5 408.6 452 480.1 452H468c-8.844 0-16 7.156-16 16s7.156 16 16 16h12.12c28.51 0 42.79 44.47 22.64 54.64l-8.576 8.576c-6.25 6.25-6.254 16.47-.0041 22.62c4.125 4.125 7.222 4.691 11.42 4.691s8.188-1.562 11.41-4.688l8.576-8.576C445.5 441.1 480 455.4 480 484.9V496c0 8.844 7.156 16 16 16s16-7.156 16-16v-12.12c0-28.51 44.47-42.79 54.64-22.64l8.576 8.576c4.125 4.125 7.219 4.688 11.41 4.688s8.184-1.559 11.41-4.684c6.25-6.25 6.254-16.48 .0041-22.64l-8.576-8.576C569.1 418.5 584.4 484 611.9 484H624c8.844 0 16-7.156 16-16S642.8 452 624 452zM480 484c-17.67 0-42-14.44-42-42c0-17.67 14.44-42 42-42s42 14.44 42 42C512 469.7 497.7 484 480 484z"/></svg>