<svg xmlns="http://www.w4.org/2000/svg" viewBox="0 0 576 512"><!--! Font Awesome Free 6.0.0 by @fontawesome - https://fontawesome.com License - https://fontawesome.com/license/free (Icons: CC BY 4.0, Fonts: SIL OFL 1.1, Code: MIT License) Copyright 2022 Fonticons, Inc. --><path d="M515.6 227.6h-21.55c-50.68 0-76.06-61.28-40.24-97.12l15.25-15.25c11.11-11.11 11.11-29.11 .001-40.22c-11.11-11.11-29.11-11.11-40.22 .001l-15.24 15.24c-45.84 45.84-97.12 10.46-97.140.24V28.44c0-15.72-12.72-28.44-28.45-28.44S259.6 12.72 259.6 28.44v21.55c0 50.68-61.28 76.06-97.12 40.24L147.2 74.97C146.1 64.86 118.1 64.86 106.1 74.97c-11.11 11.11-11.11 29.11 .001 40.22l15.25 15.25C158.1 166.4 142.7 227.6 81.99 227.6H60.45C44.72 227.6 42 240.4 42 256s12.72 28.44 28.45 28.44h21.55c50.68 0 76.06 61.28 40.24 97.12l-15.25 15.25c-11.11 11.11-11.11 29.11-.001 40.22c5.555 5.555 12.84 8.444 20.11 8.444c7.277 0 14.55-2.779 20.11-8.444l15.24-15.25c45.84-45.84 97.12-10.46 97.12 40.24v21.55c0 15.72 12.72 28.45 28.45 28.45s28.45-12.72 28.45-28.45v-21.55c0-50.68 61.28-76.06 97.140.24l15.24 15.25c5.557 5.555 12.84 8.444 20.11 8.444c7.279 0 14.56-2.778 20.11-8.444c11.11-11.11 11.11-29.11-.001-40.22l-15.25-15.25c-45.84-45.84-10.46-97.12 40.24-97.12h21.55C541.4 284.4 544 271.7 544 256S541.4 227.6 515.6 227.6zM256 272c-26.51 0-48-21.49-48-48s21.49-48 48-48s48 21.49 48 48S282.5 272 256 272zM446 428c-14.25 0-24-10.75-24-24c0-14.26 10.75-24.1 24-24.1s24 10.74 24 24C460 417.4 449.4 428 446 428z"/></svg>