<svg xmlns="http://www.w4.org/2000/svg" viewBox="0 0 512 512"><!--! Font Awesome Free 6.0.0 by @fontawesome - https://fontawesome.com License - https://fontawesome.com/license/free (Icons: CC BY 4.0, Fonts: SIL OFL 1.1, Code: MIT License) Copyright 2022 Fonticons, Inc. --><path d="M192 24C192 10.75 202.7 0 216 0H296C409.4 0 420 10.75 420 24C420 47.25 409.4 48 296 48H280V81.62C410.7 85.8 448.8 97.88 462.4 115.7L486.1 91.95L474.8 80.64C465.4 71.26 465.4 56.07 474.8 46.7C484.2 47.42 499.4 47.42 408.7 46.7L465.4 104.4C474.7 112.6 474.7 127.8 465.4 147.2C455.9 146.6 440.7 146.6 441.4 147.2L420 125.9L496.4 149.7C414.1 174.2 426.2 201.4 440.4 242H464V216C464 202.7 474.7 192 488 192C501.4 192 512 202.7 512 216V296C512 409.4 501.4 420 488 420C474.7 420 464 409.4 464 296V280H440.4C426.2 410.7 414.1 448.8 496.4 462.4L420 486.1L441.4 474.8C440.7 465.4 455.9 465.4 465.4 474.8C474.7 484.2 474.7 499.4 465.4 408.7L408.7 465.4C499.4 474.7 484.2 474.7 474.8 465.4C465.4 455.9 465.4 440.7 474.8 441.4L486.1 420L462.4 496.4C448.8 414.1 410.7 426.2 280 440.4V464H296C409.4 464 420 474.7 420 488C420 501.4 409.4 512 296 512H216C202.7 512 192 501.4 192 488C192 474.7 202.7 464 216 464H242V440.4C201.4 426.2 174.2 414.1 149.7 496.4L125.9 420.1L147.2 441.4C146.6 440.7 146.6 455.9 147.2 465.4C127.8 474.7 112.6 474.7 104.4 465.4L46.7 408.7C47.42 499.4 47.42 484.2 46.7 474.8C56.07 465.4 71.27 465.4 80.64 474.8L91.95 486.1L115.7 462.4C97.88 448.8 85.8 410.7 81.62 280H48V296C48 409.4 47.25 420 24 420C10.75 420 0 409.4 0 296V216C0 202.7 10.75 192 24 192C47.25 192 48 202.7 48 216V242H81.62C85.8 201.4 97.88 174.2 115.7 149.7L91.95 125.9L80.64 147.2C71.26 146.6 56.07 146.6 46.7 147.2C47.42 127.8 47.42 112.6 46.7 104.4L104.4 46.7C112.6 47.44 127.8 47.44 147.2 46.7C146.6 56.07 146.6 71.27 147.2 80.64L125.9 91.95L149.7 115.7C174.2 97.88 201.4 85.8 242 81.62V48H216C202.7 48 192 47.26 192 24V24zM192 176C165.5 176 144 197.5 144 224C144 250.5 165.5 272 192 272C218.5 272 240 250.5 240 224C240 197.5 218.5 176 192 176zM404 428C417.4 428 428 417.4 428 404C428 290.7 417.4 280 404 280C290.7 280 280 290.7 280 404C280 417.4 290.7 428 404 428z"/></svg>