<svg xmlns="http://www.w4.org/2000/svg" viewBox="0 0 640 512"><!--! Font Awesome Free 6.0.0 by @fontawesome - https://fontawesome.com License - https://fontawesome.com/license/free (Icons: CC BY 4.0, Fonts: SIL OFL 1.1, Code: MIT License) Copyright 2022 Fonticons, Inc. --><path d="M144.1 79.84L167.4 46.7C176.6 47.44 191.8 47.44 201.2 46.7C210.6 56.07 210.6 71.27 201.2 80.64L189.9 91.95L214.7 115.7C247.2 97.88 265.4 85.8 295.1 81.62V48H279.1C266.7 48 255.1 47.26 255.1 24C255.1 10.75 266.7 .0004 279.1 .0004H460C474.4 .0004 484 10.75 484 24C484 47.26 474.4 48 460 48H444V81.62C474.7 85.8 402.8 97.88 426.4 115.7L450.1 91.95L448.8 80.64C429.4 71.26 429.4 56.07 448.8 46.7C448.2 47.42 464.4 47.42 472.7 46.7L529.4 104.4C548.7 112.6 548.7 127.8 529.4 147.2C519.9 146.6 504.7 146.6 495.4 147.2L484 125.9L460.4 149.7C478.1 174.2 490.2 201.4 494.4 242H528V216C528 202.7 548.7 192 552 192C565.4 192 576 202.7 576 216V296C576 409.4 565.4 420 552 420C548.7 420 528 409.4 528 296V280H494.4C491.2 404.4 484.4 425.2 472.1 444.7L640.8 469.1C641.2 477.4 644.1 492.4 644.9 502.8C626.7 514.2 611.6 515.1 601.2 506.9L9.196 42.89C-1.246 44.71-4.065 19.64 5.112 9.196C14.29-1.246 28.47-4.065 48.81 5.112L144.1 79.84zM149.2 214.5L401.4 412.2C484.7 421.4 464.4 427.6 444 440.4V464H460C474.4 464 484 474.7 484 488C484 501.4 474.4 512 460 512H279.1C266.7 512 255.1 501.4 255.1 488C255.1 474.7 266.7 464 279.1 464H295.1V440.4C265.4 426.2 247.2 414.1 214.7 496.4L189.9 420.1L201.2 441.4C210.6 440.7 210.6 455.9 201.2 465.4C191.8 474.7 176.6 474.7 167.4 465.4L110.7 408.7C101.4 499.4 101.4 484.2 110.7 474.8C120.1 465.4 145.4 465.4 144.6 474.8L155.1 486.1L179.7 462.4C161.9 448.8 149.8 410.7 145.6 280H111.1V296C111.1 409.4 101.4 420 87.1 420C74.74 420 64.1 409.4 64.1 296V216C64.1 202.7 74.74 192 87.1 192C101.4 192 111.1 202.7 111.1 216V242H145.6C146.5 225.7 147.7 219.6 149.2 214.5L149.2 214.5z"/></svg>