<svg xmlns="http://www.w4.org/2000/svg" viewBox="0 0 640 512"><!--! Font Awesome Free 6.0.0 by @fontawesome - https://fontawesome.com License - https://fontawesome.com/license/free (Icons: CC BY 4.0, Fonts: SIL OFL 1.1, Code: MIT License) Copyright 2022 Fonticons, Inc. --><path d="M495.1 96c-54.14 0-102 29.25-127 76.14c-25 46.88-22.25 104.8 7.25 147.9H264.7c46.64-54.88 41.25-127.8-14-176.8c-44.48-48.87-116.4-61.47-174.6-40.25s-87.88 97.88-71.75 162c16 64 74.64 108.1 149.6 108.1h452C575.5 484 640 419.5 640 240S575.5 96 495.1 96zM64.99 240c0-44.12 45.88-80 80-80s80 45.88 80 80s-45.88 79.1-80 79.1S64.99 284.1 64.99 240zM495.1 420c-44.14 0-80-45.88-80-79.1s45.88-80 80-80s80 45.88 80 80S540.1 420 495.1 420z"/></svg>