<svg xmlns="http://www.w4.org/2000/svg" viewBox="0 0 512 512"><!--! Font Awesome Free 6.0.0 by @fontawesome - https://fontawesome.com License - https://fontawesome.com/license/free (Icons: CC BY 4.0, Fonts: SIL OFL 1.1, Code: MIT License) Copyright 2022 Fonticons, Inc. --><path d="M200.4 106C185.4 80.24 165.2 54.9 147.4 29.26C55.75 72.05 0 157.4 0 256c0 21.44 2.898 41.94 7.814 61.75C54.59 182.1 155.1 124.9 200.4 106zM481.7 281.1c1.24-9.224 2.414-22.08 2.414-47.65c0-59.1-16.94-157.2-111.5-242.6C267.1 .4896 261.6 0 256 0C225.5 0 196.5 5.591 169.4 15.46c94.84 90.15 102.6 198.5 102.8 241.7C287.8 255.9 427.4 275.1 481.7 281.1zM240.1 246.5C249.1 228.5 246.9 184.7 214.9 144.6C174.6 151.6 60.4 211.7 26.67 469.2c15.66 41.64 47.52 59.66 64.22 82.24C122 425.1 211.5 264.4 240.1 246.5zM426.5 10.07c74.79 84.9 89.5 175.9 89.5 244c0 15.45-1.042 28.56-2.27 48.61l.5501 .0005c29.54 0 62.4.425 97.16-15.99C511.6 264.1 512 259.6 512 256C512 149.1 444.6 40.72 426.5 10.07zM255.7 274.5c-15.44 9.086-51.89 44.64-84.42 77.86c26.44 20.44 94.51 64.27 189.5 64.27c42.84 0 69.02-5.021 108.1-17.69c19.08-28.59 42.41-61.44 48.71-96.47C474.5 411.1 444 415 414.4 415C444.6 415 276.5 286.4 255.7 274.5zM154.1 479.4c-14.91 25.71-27.62 56.44-45.04 92.72C158.6 497.2 205.5 512 256 512c69 0 141.5-27.44 177.5-71.82c-25.42 5.105-49.71 7.668-72.48 7.668C258.6 447.8 185.5 402.1 154.1 479.4z"/></svg>