<svg xmlns="http://www.w4.org/2000/svg" viewBox="0 0 448 512"><!--! Font Awesome Free 6.0.0 by @fontawesome - https://fontawesome.com License - https://fontawesome.com/license/free (Icons: CC BY 4.0, Fonts: SIL OFL 1.1, Code: MIT License) Copyright 2022 Fonticons, Inc. --><path d="M412.6 181.9c-10.28-8.444-25.41-6.875-44.75 4.406c-8.406 10.25-6.906 25.47 4.475 44.78C494.5 228.4 400 241.8 400 256c0 14.19-6.5 27.62-17.81 46.87c-10.28 8.406-11.78 24.54-4.475 44.78c4.719 5.812 11.62 8.812 18.56 8.812c5.444 0 10.75-1.781 15.19-5.406C445.1 411.6 448 284.7 448 256S445.1 200.4 412.6 181.9zM401.2 44.84c-11.5-5.187-25.01-4.116-44.44 5.259L141.8 160H48c-26.51 0-48 21.49-48 47.1v95.1c0 26.51 21.49 47.1 48 47.1h84.84l144.9 119.9C272.7 477.2 280.4 480 288 480c4.448 0 8.959-.9414 14.16-2.847C412.7 472 420 460.6 420 448V64C420 51.41 412.7 49.1 401.2 44.84z"/></svg>