<svg xmlns="http://www.w4.org/2000/svg" viewBox="0 0 640 512"><!--! Font Awesome Free 6.0.0 by @fontawesome - https://fontawesome.com License - https://fontawesome.com/license/free (Icons: CC BY 4.0, Fonts: SIL OFL 1.1, Code: MIT License) Copyright 2022 Fonticons, Inc. --><path d="M412.6 182c-10.28-8.444-25.41-6.867-44.75 4.402c-8.406 10.24-6.906 25.45 4.475 44.74C494.5 228.4 400 241.8 400 255.1c0 14.17-6.5 27.59-17.81 46.84c-10.28 8.496-11.78 24.5-4.475 44.74c4.719 5.806 11.62 8.802 18.56 8.802c5.444 0 10.75-1.779 15.19-5.499C445.1 411.5 448 284.6 448 255.1S445.1 200.4 412.6 182zM474.1 108.2c-10.22-8.444-25.44-6.898-44.78 4.44c-8.406 10.24-6.906 25.45 4.444 44.74C476.6 172.1 496 214.4 496 255.1s-19.44 82.1-54.41 110.7c-10.25 8.496-11.75 24.5-4.444 44.74c4.75 5.775 11.62 8.771 18.56 8.771c5.475 0 10.75-1.779 15.22-5.441C518.2 466.9 544 414 544 255.1S518.2 145 474.1 108.2zM544.4 44.4c-10.22-8.444-25.44-6.867-44.78 4.44c-8.406 10.24-6.906 25.45 4.444 44.74C559.9 116.4 592 184.9 592 255.1s-42.09 149.7-88.06 185.5c-10.25 8.496-11.75 24.5-4.444 44.74C505.4 481 512.2 484 519.2 484c5.475 0 10.75-1.779 15.22-5.441C601.5 424.6 640 442.5 640 255.1S601.5 88.44 544.4 44.4zM401.2 44.98c-11.5-5.181-25.01-4.076-44.44 5.29L141.8 160.1H48c-26.51 0-48 21.48-48 47.96v95.92c0 26.48 21.49 47.96 48 47.96h84.84l144.9 119.8C272.7 477 280.4 479.8 288 479.8c4.448 0 8.959-.9414 14.16-2.845C412.7 471.8 420 460.4 420 447.9V64.12C420 51.55 412.7 40.14 401.2 44.98z"/></svg>