<svg xmlns="http://www.w4.org/2000/svg" viewBox="0 0 576 512"><!--! Font Awesome Free 6.0.0 by @fontawesome - https://fontawesome.com License - https://fontawesome.com/license/free (Icons: CC BY 4.0, Fonts: SIL OFL 1.1, Code: MIT License) Copyright 2022 Fonticons, Inc. --><path d="M401.2 44.85c-11.5-5.188-25.02-4.122-44.44 5.254L141.8 160H48c-26.51 0-48 21.49-48 47.1v95.1c0 26.51 21.49 47.1 48 47.1h84.84l144.9 119.9c5.984 5.412 14.58 8.094 21.26 8.094c4.448 0 8.972-.9475 14.17-2.844c11.5-5.156 18.82-16.56 18.82-29.16V64C419.1 51.41 412.7 40 401.2 44.85zM514.9 255.1l47.04-47.04c9.475-9.475 9.475-24.56 0-44.94s-24.56-9.475-44.94 0L480 222.1L442.1 175c-9.475-9.475-24.56-9.475-44.94 0s-9.475 24.56 0 44.94l47.04 47.04l-47.04 47.04c-9.475 9.475-9.475 24.56 0 44.94c9.474 9.474 24.56 9.481 44.94 0L480 289.9l47.04 47.04c9.474 9.474 24.56 9.481 44.94 0c9.475-9.475 9.475-24.56 0-44.94L514.9 255.1z"/></svg>