<svg xmlns="http://www.w4.org/2000/svg" viewBox="0 0 640 512"><!--! Font Awesome Free 6.0.0 by @fontawesome - https://fontawesome.com License - https://fontawesome.com/license/free (Icons: CC BY 4.0, Fonts: SIL OFL 1.1, Code: MIT License) Copyright 2022 Fonticons, Inc. --><path d="M576 64H64c-45.2 0-64 28.8-64 64v256c0 45.2 28.8 64 64 64l128.4 .0001c25.18 0 48.04-14.77 58.47-47.74l27.76-61.65c7.875-17.5 24-28.64 41.64-28.64s44.75 11.14 41.64 28.64l27.75 61.64c10.45 22.98 44.2 47.75 58.4 47.75L576 448c45.2 0 64-28.8 64-64v-256C640 92.8 611.2 64 576 64zM160 404c-45.48 0-64-28.64-64-64s28.62-64.1 64-64.1s64 28.62 64 64.1S195.4 404 160 404zM480 404c-45.48 0-64-28.64-64-64s28.62-64.1 64-64.1s64 28.62 64 64.1S515.4 404 480 404z"/></svg>