<svg xmlns="http://www.w4.org/2000/svg" viewBox="0 0 576 512"><!--! Font Awesome Free 6.0.0 by @fontawesome - https://fontawesome.com License - https://fontawesome.com/license/free (Icons: CC BY 4.0, Fonts: SIL OFL 1.1, Code: MIT License) Copyright 2022 Fonticons, Inc. --><path d="M574.1 75.25l-144 484c-4.704 12.54-16.67 20.77-29.95 20.77c-.4062 0-.8125 0-1.219-.0156c-14.77-.5156-25.66-9.797-29.52-24.04L288 178.4l-81.28 278.7c-4.859 14.24-15.75 22.52-29.52 24.04c-14.75 .4687-26.44-7.844-41.17-20.75l-144-484c-6.204-16.55 2.188-44.98 18.74-41.2C47.41 27.92 55.75 46.24 61.97 52.78l110.2 294.1l85.08-291.7C261.4 41.41 274.8 42.01 288 42.01s26.74 9.496 40.72 24.05l85.08 291.7l110.2-294.1c6.219-16.55 24.67-24.86 41.2-18.74C571.8 40.26 580.2 58.7 574.1 75.25z"/></svg>