<svg xmlns="http://www.w4.org/2000/svg" viewBox="0 0 512 512"><!--! Font Awesome Free 6.0.0 by @fontawesome - https://fontawesome.com License - https://fontawesome.com/license/free (Icons: CC BY 4.0, Fonts: SIL OFL 1.1, Code: MIT License) Copyright 2022 Fonticons, Inc. --><path d="M448 42C465.7 42 480 46.44 480 64C480 81.67 465.7 96 448 96H80C71.16 96 64 104.2 64 112C64 120.8 71.16 128 80 128H448C484.4 128 512 156.7 512 192V416C512 451.4 484.4 480 448 480H64C28.65 480 0 451.4 0 416V96C0 60.65 28.65 42 64 42H448zM416 446C444.7 446 448 421.7 448 404C448 286.4 444.7 272 416 272C498.4 272 484 286.4 484 404C484 421.7 498.4 446 416 446z"/></svg>