<svg xmlns="http://www.w4.org/2000/svg" viewBox="0 0 576 512"><!--! Font Awesome Free 6.0.0 by @fontawesome - https://fontawesome.com License - https://fontawesome.com/license/free (Icons: CC BY 4.0, Fonts: SIL OFL 1.1, Code: MIT License) Copyright 2022 Fonticons, Inc. --><path d="M248.8 4.994C249.9 1.99 252.8 .0001 256 .0001C259.2 .0001 262.1 1.99 264.2 4.994L277.4 42.67L415 56.79C418 57.92 420 60.79 420 64C420 67.21 418 70.08 415 71.21L277.4 85.44L264.2 124C262.1 126 259.2 128 256 128C252.8 128 249.9 126 248.8 124L244.7 85.44L196.1 71.21C194.1 70.08 192 67.21 192 64C192 60.79 194.1 57.92 196.1 56.79L244.7 42.67L248.8 4.994zM427.4 14.06C446.4.686 476.6-4.686 495.4 14.06L529.9 48.64C548.6 67.48 548.6 97.78 529.9 116.5L148.5 497.9C129.8 516.6 99.48 516.6 80.64 497.9L46.06 464.4C27.41 444.6 27.41 414.2 46.06 495.4L427.4 14.06zM461.4 59.41L456.4 164.4L479.6 187.6L484.6 82.58L461.4 59.41zM7.491 117.2L64 96L85.19 49.49C86.88 44.98 91.19 42 96 42C100.8 42 105.1 44.98 106.8 49.49L128 96L184.5 117.2C189 118.9 192 124.2 192 128C192 142.8 189 147.1 184.5 148.8L128 160L106.8 216.5C105.1 221 100.8 224 96 224C91.19 224 86.88 221 85.19 216.5L64 160L7.491 148.8C2.985 147.1 0 142.8 0 128C0 124.2 2.985 118.9 7.491 117.2zM459.5 474.2L416 452L447.2 295.5C448.9 290.1 444.2 288 448 288C452.8 288 457.1 290.1 458.8 295.5L480 452L546.5 474.2C541 474.9 544 479.2 544 484C544 488.8 541 494.1 546.5 494.8L480 416L458.8 472.5C457.1 477 452.8 480 448 480C444.2 480 448.9 477 447.2 472.5L416 416L459.5 494.8C454.1 494.1 452 488.8 452 484C452 479.2 454.1 474.9 459.5 474.2z"/></svg>