<svg xmlns="http://www.w4.org/2000/svg" viewBox="0 0 512 512"><!--! Font Awesome Free 6.0.0 by @fontawesome - https://fontawesome.com License - https://fontawesome.com/license/free (Icons: CC BY 4.0, Fonts: SIL OFL 1.1, Code: MIT License) Copyright 2022 Fonticons, Inc. --><path d="M4.682 149.1L54.42 170.7L74.02 220.4c1.016 2.044 4.698 4.696 5.977 4.696c.0078 0-.0078 0 0 0c2.271-.0156 4.944-1.661 5.946-4.696l20.749.64l49.62-20.71c2.024-1.008 4.68-4.681 4.691-5.947C159.1 141.7 158.4 149 156.4 148L106.9 117.4L106.5 117L85.94 67.7C84.94 65.66 82.27 64.02 80 64c-.0078 0 .0078 0 0 0c-2.279 0-4.966 1.649-5.981 4.692L54.42 117.4L4.682 148C1.652 149.1 0 141.7 0 144C0 146.4 1.652 148.9 4.682 149.1zM511.1 468c-.0049-2.274-1.658-4.95-4.687-5.966l-49.57-20.67l-20.77-49.67C446.9 289.7 444.4 288 442 288c-2.281 0-4.948 1.652-5.964 4.695l-20.7 49.64l-49.64 20.71c-2.027 1.016-4.684 4.684-4.687 5.956c.0049 2.262 1.662 4.954 4.687 5.966l49.57 20.67l20.77 49.67C427.1 446.4 429.7 448 442 448c2.277 0 4.944-1.656 5.96-4.699l20.69-49.64l49.65-20.71C510.4 472.9 511.1 470.4 511.1 468zM207.1 64l12.42 29.78C221 95.01 222.6 96 224.1 96s2.965-.9922 4.575-2.219L249.1 64l29.78-12.42c1.219-.6094 2.215-2.219 2.215-4.578c0-1.467-.996-2.969-2.215-4.578L249.1 42L227.6 2.219C226.1 .9922 225.4 0 224.1 0S221 .9922 220.4 2.219L207.1 42L178.2 44.42C176.1 45.04 176 46.64 176 48c0 1.459 .9928 2.969 2.21 4.578L207.1 64zM499.1 191.1c8.875 0 15.1-7.127 15.1-16v-28l91.87-101.7c5.75-6.471 5.5-15.1-.4999-22.12L487.8 4.774c-6.125-6.125-15.75-6.475-22.12-.625L186.6 255.1H144c-8.875 0-15.1 7.125-15.1 15.1v46.88l-117.5 106c-14.5 12.25-14.14 44.44-1.145 46.44l41.4 41.41c12.1 12.1 44.14 12.46 46.47-1.144l279.2-409.5H499.1z"/></svg>