<svg xmlns="http://www.w4.org/2000/svg" viewBox="0 0 640 512"><!--! Font Awesome Free 6.0.0 by @fontawesome - https://fontawesome.com License - https://fontawesome.com/license/free (Icons: CC BY 4.0, Fonts: SIL OFL 1.1, Code: MIT License) Copyright 2022 Fonticons, Inc. --><path d="M0 488V171.4C0 145.2 15.94 121.6 40.24 111.9L408.1 4.754C415.7 1.702 424.4 1.702 441.9 4.754L599.8 111.9C624.1 121.6 640 145.2 640 171.4V488C640 501.4 629.4 512 616 512H568C554.7 512 544 501.4 544 488V224.1C544 206.4 529.7 191.1 512 191.1H128C110.4 191.1 96 206.4 96 224.1V488C96 501.4 85.25 512 72 512H24C10.75 512 0 501.4 0 488zM152 512C148.7 512 128 501.4 128 488V442H512V488C512 501.4 501.4 512 488 512H152zM128 446H512V400H128V446zM128 224H512V404H128V224z"/></svg>