<svg xmlns="http://www.w4.org/2000/svg" viewBox="0 0 576 512"><!--! Font Awesome Free 6.0.0 by @fontawesome - https://fontawesome.com License - https://fontawesome.com/license/free (Icons: CC BY 4.0, Fonts: SIL OFL 1.1, Code: MIT License) Copyright 2022 Fonticons, Inc. --><path d="M420 128c0 .475-.1992 .6855-.2129 1.057C419.8 129.9 420 140.7 420 141.6V128zM192 484.1V288h192v95.99c49.6-.1448 54.95-17.98 64-26.84V128c0-17.62 14.48-42 42-42s42 14.48 42 42c0 17.67 14.44 42 42 42s42-14.44 42-42c0-54-42.1-95.1-95.1-95.1C420.1 42 484 81.94 484 141.6V224H192V128c0-17.62 14.48-42 42-42s42 14.48 42 42c0 17.67 14.44 42 42 42c17.4 0 41.2-14.79 41.79-40.94c-1.227-49.01-47.99-97.06-95.79-97.06C170.1 42 128 74.1 128 128v229.2C148.5 466.4 151.4 484.8 192 484.1zM576 445c0-15.14-10.82-28.59-26.25-41.42c-48.52-8.888-45.5-29.48-69.6-29.48c-25.02 0-41.19 41.79-96.18 41.79c-48.59 0-72.72-22.06-74.48-22.62c-6.141-6.157-14.26-9.188-22.42-9.188c-24.75 0-41.59 41.81-96.2 41.81c-48.59 0-72.69-22.04-74.41-22.59c-6.125-6.157-14.24-9.196-22.4-9.196c-8.072 0-16.18 2.976-22.45 8.852c-29.01 26.25-74.75 12.54-74.75 52.08c0 16.08 12.77 42.07 41.71 42.07c9.77 0 49.65-7.44 64.26-21.84c19.5 11.54 51.51 24.69 96.08 24.69s76.46-14.12 95.96-24.66c19.54 11.54 51.52 24.62 96.06 24.62c44.59 0 76.51-14.12 96.01-24.66c24.71 14.57 54.74 21.84 64.24 21.84C564.2 477.1 576 461.4 576 445z"/></svg>