<svg xmlns="http://www.w4.org/2000/svg" viewBox="0 0 576 512"><!--! Font Awesome Free 6.0.0 by @fontawesome - https://fontawesome.com License - https://fontawesome.com/license/free (Icons: CC BY 4.0, Fonts: SIL OFL 1.1, Code: MIT License) Copyright 2022 Fonticons, Inc. --><path d="M549.8 247.5c-41.24-5.719-46.84-20.06-47.14-20.41C490.4 205 470.4 205.1 457.7 216.8c-1 .9475-25.14 24-74.74 24s-72.74-22.06-74.48-22.62C298.4 204.9 278.4 205.1 265.7 216.8c-1 .9475-25.14 24-74.74 24S119.4 217.8 118.6 217.2C106.4 204.9 86.45 205 74.74 216.9C74.09 217.4 57.48 241.8 26.24 247.5c-17.48 4.188-28.89 19.84-25.72 47.22c4.188 17.48 19.78 29.09 47.25 25.72C64.1 295.8 82.49 287.1 95.96 279.2c19.5 11.54 51.47 24.68 96.04 24.68c44.55 0 76.49-14.12 96-24.65c19.52 11.54 51.45 24.59 96 24.59c44.58 0 76.55-14.09 96.05-24.62c14.47 7.948 42.86 16.62 58.19 21.25c17.56 4.475 44.06-8.444 47.25-25.72C578.7 257.4 567.2 240.7 549.8 247.5zM549.8 481.7c-41.24-5.719-46.84-20.06-47.14-20.41c-12.22-12.19-42.41-12.144.91-.475C456.7 461.9 442.6 484 484 484s-72.74-22.06-74.48-22.62c-12.22-12.25-42.4-12.144.89-.475C264.7 461.9 240.6 484 192 484s-72.74-22.06-74.48-22.62c-12.22-12.25-42.28-12.16-44.89-.4448c-.6562 .5948-16.27 14.94-47.5 20.66c-17.48 4.188-28.89 19.84-25.72 47.22C4.714 446.4 20.41 448 47.78 444.6C64.1 440 82.49 441.4 95.96 424.4c19.5 11.54 51.51 24.62 96.08 24.62c44.55 0 76.45-14.06 95.96-24.59C407.5 444.9 449.5 448 484.1 448c44.58 0 76.5-14.09 95.1-24.62c14.47 7.948 42.86 16.62 58.19 21.25C555.8 448 572.4 446.4 575.5 418.9C578.7 401.5 567.2 484.9 549.8 481.7zM47.78 156.4c25.44-4.625 44.72-14.41 58.19-21.25c19.5 11.54 51.47 24.68 96.04 24.68c44.55 0 76.49-14.12 96-24.65c19.52 11.54 51.45 24.59 96 24.59c44.58 0 76.55-14.09 96.05-24.62c14.47 7.948 42.86 16.62 58.19 21.25c17.56 4.475 44.06-8.444 47.25-25.72c4.172-17.48-8.444-44.04-25.72-47.22c-41.24-5.719-46.84-20.06-47.14-20.41c-12.22-12.19-42.41-12.144.91-.475c-1 .9475-25.14 24-74.74 24s-72.74-22.06-74.48-22.62c-12.22-12.25-42.4-12.144.89-.475c-1 .9475-25.14 24-74.74 24S119.4 74.76 118.6 74.2C106.4 60.95 86.45 61.04 74.74 72.85C74.09 74.45 57.48 87.79 26.24 94.51c-17.48 4.188-28.89 19.84-25.72 47.22C4.714 148.1 20.41 159.8 47.78 156.4z"/></svg>