<svg xmlns="http://www.w4.org/2000/svg" viewBox="0 0 640 512"><!--! Font Awesome Free 6.0.0 by @fontawesome - https://fontawesome.com License - https://fontawesome.com/license/free (Icons: CC BY 4.0, Fonts: SIL OFL 1.1, Code: MIT License) Copyright 2022 Fonticons, Inc. --><path d="M476 480h-152c-19.88 0-46-16.12-46-46v-448H192v156c0 19.88-16.12 46-46 46H41.1C14.44 288 0 274.7 0 256s14.44-41.1 41.1-41.1H128v-156c0-19.88 16.12-46 46-46h152c19.88 0 46 16.12 46 46v448h96v-156c0-19.88 16.12-46 46-46h124C625.7 224 640 248.4 640 256s-14.44 42-41.1 42H512v156C512 464.9 495.9 480 476 480z"/></svg>