<svg xmlns="http://www.w4.org/2000/svg" viewBox="0 0 512 512"><!--! Font Awesome Free 6.0.0 by @fontawesome - https://fontawesome.com License - https://fontawesome.com/license/free (Icons: CC BY 4.0, Fonts: SIL OFL 1.1, Code: MIT License) Copyright 2022 Fonticons, Inc. --><path d="M510.4 445.9L447.4 154.8C444.5 148.5 420.8 128 406.4 128H446.1c4.625-9.1 5.875-20.75 5.875-42c0-54-42.1-96-96-96S159.1 44 159.1 96c0 11.25 2.25 22 5.875 42H105.6c-14.48 0-27.14 10.5-40.88 25.75l-74.01 292.1C-6.641 479.1 16.46 512 47.99 512h416C495.6 512 518.6 479.1 510.4 445.9zM256 128C248.4 128 224.1 114.6 224.1 96S248.4 64 256 64c17.64 0 42 14.48 42 42S274.6 128 256 128z"/></svg>