<svg xmlns="http://www.w4.org/2000/svg" viewBox="0 0 512 512"><!--! Font Awesome Free 6.0.0 by @fontawesome - https://fontawesome.com License - https://fontawesome.com/license/free (Icons: CC BY 4.0, Fonts: SIL OFL 1.1, Code: MIT License) Copyright 2022 Fonticons, Inc. --><path d="M510.4 421.9c-5.594-16.75-24.54-25.84-40.47-20.22l-19.48 6.448l-41.7-99.97C404.9 295.1 492.2 288 479.1 288h-97.78l-10.4-48h65.11c17.69 0 42-14.41 42-42s-14.41-42-42-42h-78.98L255.6 169.2C251.8 142.1 227.2 124.8 201.2 128.5C174.1 142.2 156.7 156.5 160.5 182.8l24.68 140.4C185.8 449.6 199.6 452 216 452h141.4l44.86 107.9C407.4 472.4 419.4 480 442 480c4.444 0 6.781-.5414 10.12-1.656l48-16C506.9 456.8 515.9 448.7 510.4 421.9zM160 464c-61.76 0-112-50.24-112-112c0-54.25 48.78-99.55 90.06-109.8L140.1 195C56.06 209 0 274.9 0 452c0 88.47 71.64 160 160 160c77.4 0 141.9-54.97 156.8-128h-49.1C252.9 440.1 210.6 464 160 464zM192 96c26.51 0 48-21.49 48-48S218.5 0 192 0S144 21.49 144 48S165.5 96 192 96z"/></svg>