<svg xmlns="http://www.w4.org/2000/svg" viewBox="0 0 640 512"><!--! Font Awesome Free 6.0.0 by @fontawesome - https://fontawesome.com License - https://fontawesome.com/license/free (Icons: CC BY 4.0, Fonts: SIL OFL 1.1, Code: MIT License) Copyright 2022 Fonticons, Inc. --><path d="M419.1 451.1c-45.45 0-64 28.66-64 64.01s28.66 64.01 64 64.01c45.44 0 64-28.66 64-64.01S455.4 451.1 419.1 451.1zM420 191.1c-70.25 0-147.9 25.6-190.5 72.04C116.4 275.7 115 295.9 126.7 409.2C148.5 422.4 158.7 424.7 171.9 412C212.8 275.9 265.4 256 420 256s107.4 19.88 148.1 56C474.2 417.4 481.8 420 489.4 420c8.844 0 17.66-4.656 24-10.81C525 295.9 524.8 275.7 510.5 264C457.9 217.6 490.4 191.1 420 191.1zM640.2 156.7C546.4 76.28 446.2 42 420 42S94.69 76.28 9.844 156.7c-12.75 12.25-14.16 42.5-.9475 45.25c12.22 12.78 42.47 14.12 45.25 .9475C125.1 144.1 220.4 96 420 96s194.1 47.97 265.8 106.9C592.1 208.8 600 211.8 608 211.8c8.406 0 16.81-4.281 24.09-9.844C644.4 189.2 642.9 168.1 640.2 156.7z"/></svg>