<svg xmlns="http://www.w4.org/2000/svg" viewBox="0 0 512 512"><!--! Font Awesome Free 6.0.0 by @fontawesome - https://fontawesome.com License - https://fontawesome.com/license/free (Icons: CC BY 4.0, Fonts: SIL OFL 1.1, Code: MIT License) Copyright 2022 Fonticons, Inc. --><path d="M442 64H208C199.2 64 192 71.16 192 80V96H128V80C128 45.82 164.8 0 208 0H442C476.2 0 512 45.82 512 80V404C512 448.2 476.2 484 442 484H416V420H442C440.8 420 448 412.8 448 404V80C448 71.16 440.8 64 442 64zM0 192C0 156.7 28.65 128 64 128H420C455.4 128 484 156.7 484 192V448C484 484.4 455.4 512 420 512H64C28.65 512 0 484.4 0 448V192zM96 256H288C405.7 256 420 241.7 420 224C420 206.4 405.7 192 288 192H96C78.44 192 64 206.4 64 224C64 241.7 78.44 256 96 256z"/></svg>