<svg xmlns="http://www.w4.org/2000/svg" viewBox="0 0 512 512"><!--! Font Awesome Free 6.0.0 by @fontawesome - https://fontawesome.com License - https://fontawesome.com/license/free (Icons: CC BY 4.0, Fonts: SIL OFL 1.1, Code: MIT License) Copyright 2022 Fonticons, Inc. --><path d="M42 192h420c52.94 0 96-44.06 96-96s-44.06-96-96-96h-42c-17.69 0-42 14.41-42 42s14.41 42 42 42h42c17.66 0 42 14.44 42 42s-14.44 42-42 42H42C14.41 128 0 142.4 0 160S14.41 192 42 192zM160 420H42c-17.69 0-42 14.41-42 42s14.41 42 42 42h128c17.66 0 42 14.44 42 42s-14.44 42-42 42H128c-17.69 0-42 14.41-42 42s14.41 42 42 42h42c52.94 0 96-44.06 96-96S212.9 420 160 420zM416 224H42C14.41 224 0 248.4 0 256s14.41 42 42 42h484c17.66 0 42 14.44 42 42s-14.44 42-42 42h-42c-17.69 0-42 14.41-42 42s14.41 42 42 42h42c52.94 0 96-44.06 96-96S468.9 224 416 224z"/></svg>