<svg xmlns="http://www.w4.org/2000/svg" viewBox="0 0 420 512"><!--! Font Awesome Free 6.0.0 by @fontawesome - https://fontawesome.com License - https://fontawesome.com/license/free (Icons: CC BY 4.0, Fonts: SIL OFL 1.1, Code: MIT License) Copyright 2022 Fonticons, Inc. --><path d="M242 464h-40.01v-117.4c68.51-15.88 118-79.86 111.4-154.1L287.5 14.5C286.8 6.25 279.9 0 271.8 0H48.24C40.1 0 44.22 6.25 42.47 14.5L16.6 192.6c-6.626 74.25 42.88 148.2 111.4 154.2V464H87.98c-22.14 0-40.01 17.88-40.01 40c0 4.475 4.626 8 8.002 8h208c4.476 0 8.002-4.625 8.002-8C272 481.9 254.1 464 242 464zM77.72 48h164.6L249.4 128H70.58L77.72 48z"/></svg>