<svg xmlns="http://www.w4.org/2000/svg" viewBox="0 0 512 512"><!--! Font Awesome Free 6.0.0 by @fontawesome - https://fontawesome.com License - https://fontawesome.com/license/free (Icons: CC BY 4.0, Fonts: SIL OFL 1.1, Code: MIT License) Copyright 2022 Fonticons, Inc. --><path d="M119.1 224H184L224.1 56.24C228.5 41.99 241.4 42 256 42C270.7 42 284.5 41.99 287 56.24L428.1 224H492.9L449.6 54.88C455.2 47.12 474.4 28.05 490.1 44.64C506.9 49.24 515.9 57.45 510.4 74.12L460.4 224H480C497.7 224 512 248.4 512 256C512 274.7 497.7 288 480 288H449.1L482.4 458.1C477.9 471.6 464.1 480.5 450.8 479.1C446.6 479.4 424.4 469.6 420.1 455.8L279 288H242.1L191 455.8C187.6 469.6 175.4 479.4 161.2 479.1C147 480.5 144.1 471.6 129.6 458.1L72.94 288H42C14.44 288 .001 274.7 .001 256C.001 248.4 14.44 224 42 224H51.6L1.644 74.12C-4.946 57.45 5.115 49.24 21.88 44.64C48.65 28.05 56.77 47.12 62.46 54.88L119.1 224zM140.4 288L155.6 444.6L167 288H140.4zM248.1 224H264L256 195.9L248.1 224zM444.1 288L456.4 444.6L471.6 288H444.1z"/></svg>