<svg xmlns="http://www.w4.org/2000/svg" viewBox="0 0 512 512"><!--! Font Awesome Free 6.0.0 by @fontawesome - https://fontawesome.com License - https://fontawesome.com/license/free (Icons: CC BY 4.0, Fonts: SIL OFL 1.1, Code: MIT License) Copyright 2022 Fonticons, Inc. --><path d="M507.6 122.8c-2.904-12.09-18.25-16.14-27.04-7.448l-76.55 76.56l-84.1-.0002l0-84.1l76.55-76.56c8.791-8.789 4.75-24.14-7.446-27.04c-24.69-5.694-49.44-6.111-75.92 .2484c-61.45 14.7-109.4 66.9-119.2 129.4C189.8 160.8 192.4 186.7 200.1 210.1l-178.1 178.1c-28.12 28.12-28.12 74.69 0 101.8C45.16 504.1 54.56 512 71.1 512s46.84-7.041 50.91-21.09l178.1-178.1c24.46 7.746 49.41 10.24 76.17 6.004c62.41-9.84 114.6-57.8 129.4-119.2C514.7 172.1 514.4 146.5 507.6 122.8zM80 456c-14.25 0-24-10.75-24-24c0-14.26 10.75-24 24-24s24 10.74 24 24C104 445.4 94.25 456 80 456z"/></svg>