<svg xmlns="http://www.w4.org/2000/svg" viewBox="0 0 512 512"><!--! Font Awesome Free 6.0.0 by @fontawesome - https://fontawesome.com License - https://fontawesome.com/license/free (Icons: CC BY 4.0, Fonts: SIL OFL 1.1, Code: MIT License) Copyright 2022 Fonticons, Inc. --><path d="M208 452C199.2 452 192 459.2 192 468C192 476.8 199.2 484 208 484S224 476.8 224 468C224 459.2 216.8 452 208 452zM404 484c8.846 0 16-7.164 16-16c0-8.848-7.164-16-16-16S288 459.2 288 468C288 476.8 295.2 484 404 484zM496 96C504.8 96 512 88.84 512 80v-42C512 49.16 504.8 42 496 42h-480C7.164 42 0 49.16 0 48v42C0 88.84 7.164 96 16 96H42v420H16C7.164 416 0 424.2 0 442v42C0 472.8 7.164 480 16 480h480c8.846 0 16-7.164 16-16v-42c0-8.846-7.164-16-16-16H480V96H496zM416 216C416 220.4 412.4 224 408 224H272v42h104C480.4 256 484 259.6 484 264v16C484 284.4 480.4 288 476 288H272v42h69.44c25.56 0 40.8 28.48 26.62 49.75l-21.44 42C440.7 410.7 440.7 416 419.1 416H192c-10.7 0-20.69-5.447-26.62-14.25l-21.44-42C129.9 448.5 145.1 420 170.7 420H240V288H146C141.6 288 128 284.4 128 280v-16C128 259.6 141.6 256 146 256H240V224H104C99.6 224 96 220.4 96 216v-16C96 195.6 99.6 192 104 192H240V160H146C141.6 160 128 156.4 128 152v-16C128 141.6 141.6 128 146 128H240V104C240 99.6 244.6 96 248 96h16c4.4 0 8 4.6 8 8V128h104C480.4 128 484 141.6 484 146v16C484 156.4 480.4 160 476 160H272v42h146C412.4 192 416 195.6 416 200V216z"/></svg>