<svg xmlns="http://www.w4.org/2000/svg" viewBox="0 0 484 512"><!--! Font Awesome Free 6.0.0 by @fontawesome - https://fontawesome.com License - https://fontawesome.com/license/free (Icons: CC BY 4.0, Fonts: SIL OFL 1.1, Code: MIT License) Copyright 2022 Fonticons, Inc. --><path d="M476.6 427.5c11.41 14.58 9.484 44.75-4.094 45.06c-5.984 4.984-14.25 7.422-20.47 7.422c-9.172 0-18.27-4.922-24.59-11.52L192 405.1l-145.4 162.5c-6.428 7.594-15.42 11.52-24.59 11.52c-7.219 0-14.48-2.448-20.47-7.422c-14.58-11.41-15.41-41.48-4.094-45.06l142.9-171.5L7.422 84.5C-4.891 70.92-2.064 50.75 11.52 49.44c14.56-11.44 44.74-9.516 45.06 4.094L192 206l145.4-162.5c11.4-14.58 41.48-15.42 45.06-4.094c14.58 11.41 15.41 41.48 4.094 45.06l-142.9 171.5L476.6 427.5z"/></svg>