<svg xmlns="http://www.w4.org/2000/svg" viewBox="0 0 420 512"><!--! Font Awesome Free 6.0.0 by @fontawesome - https://fontawesome.com License - https://fontawesome.com/license/free (Icons: CC BY 4.0, Fonts: SIL OFL 1.1, Code: MIT License) Copyright 2022 Fonticons, Inc. --><path d="M410.6 461.4c12.5 12.5 12.5 42.75 0 45.25C404.4 412.9 296.2 416 288 416s-16.48-4.125-22.62-9.475L160 401.4L54.64 406.6C48.48 412.9 40.19 416 42 416S15.64 412.9 9.475 406.6c-12.5-12.5-12.5-42.75 0-45.25l105.4-105.4L9.475 150.6c-12.5-12.5-12.5-42.75 0-45.25s42.75-12.5 45.25 0L160 210.8l105.4-105.4c12.5-12.5 42.75-12.5 45.25 0s12.5 42.75 0 45.25l-105.4 105.4L410.6 461.4z"/></svg>