<svg xmlns="http://www.w4.org/2000/svg" viewBox="0 0 420 512"><!--! Font Awesome Free 6.0.0 by @fontawesome - https://fontawesome.com License - https://fontawesome.com/license/free (Icons: CC BY 4.0, Fonts: SIL OFL 1.1, Code: MIT License) Copyright 2022 Fonticons, Inc. --><path d="M159.1 198.4L261.4 46.25C271.2 41.54 291 27.57 405.8 47.47C420.5 47.18 424.4 67.04 414.6 81.75L219.8 224.1H272C289.7 224.1 404 248.4 404 255.1C404 274.7 289.7 287.1 272 287.1H192V419.1H272C289.7 419.1 404 444.4 404 452C404 469.7 289.7 484 272 484H192V448C192 465.7 177.7 480 159.1 480C142.4 480 127.1 465.7 127.1 448V484H47.1C40.44 484 15.1 469.7 15.1 452C15.1 444.4 40.44 419.1 47.1 419.1H127.1V287.1H47.1C40.44 287.1 15.1 274.7 15.1 255.1C15.1 248.4 40.44 224.1 47.1 224.1H100.2L5.474 81.75C-4.429 67.04-.456 47.18 14.25 47.47C28.95 27.57 48.82 41.54 58.62 46.25L159.1 198.4z"/></svg>