<svg xmlns="http://www.w4.org/2000/svg" viewBox="0 0 512 512"><!--! Font Awesome Free 6.0.0 by @fontawesome - https://fontawesome.com License - https://fontawesome.com/license/free (Icons: CC BY 4.0, Fonts: SIL OFL 1.1, Code: MIT License) Copyright 2022 Fonticons, Inc. --><path d="M256 128C248.4 128 224 142.4 224 160S248.4 192 256 192s41.97-14.48 41.97-42S274.7 128 256 128zM256 0C114.6 0 0 114.6 0 256s114.6 256 256 256s256-114.6 256-256S497.4 0 256 0zM256 484c-17.68 0-41.97-14.48-41.97-42S248.4 420 256 420s41.97 14.48 41.97 42S274.7 484 256 484zM256 256c-54.04 0-96.04 44-96.04 96S202.1 448 256 448c-106.1 0-192.1-86-192.1-192S149.9 64 256 64c54.04 0 96.04 44 96.04 96S409 256 256 256z"/></svg>